<?xml version="1.0" encoding="utf-8"?>
<!-- Generator: Adobe Illustrator 27.5.0, SVG Export Plug-In . SVG Version: 6.00 Build 0)  -->
<svg version="1.1" xmlns="http://www.w3.org/2000/svg" xmlns:xlink="http://www.w3.org/1999/xlink" x="0px" y="0px"
	 viewBox="0 0 500 500" style="enable-background:new 0 0 500 500;" xml:space="preserve">
<!-- <g id="BACKGROUND">
	<rect id="Rectangle" style="fill:#FFFFFF;" width="500" height="500"/>
</g> -->
<g id="Background_Simple">
	<g>
		<path style="fill:#92E3A9;" d="M430.734,186.503c-2.681-8.535-6.009-16.868-10.323-24.883
			c-21.763-40.442-59.924-70.944-101.665-88.968c-33.133-14.307-74.121-21.789-109.28-8.9c-17.777,6.516-34.512,19.028-44.046,35.65
			c-12.45,21.706-11.248,48.641-21.113,71.453c-7.994,18.487-27.88,29.597-43.462,40.95c-24.309,17.712-48.251,38.669-56.681,68.64
			c-11.248,39.992-7.919,87.551,14.869,123.089c16.995,26.503,46.099,34.466,76.128,35.013c28.341,0.516,62.974-6.645,89.447,6.284
			c45.062,22.006,104.523,46.704,154.938,29.288c51.961-17.95,77.469-52.905,85.027-98.253
			c7.558-45.348-13.226-83.137-19.841-119.043C440.557,234.152,437.833,209.101,430.734,186.503z"/>
		<path style="opacity:0.8;fill:#FFFFFF;" d="M430.734,186.503c-2.681-8.535-6.009-16.868-10.323-24.883
			c-21.763-40.442-59.924-70.944-101.665-88.968c-33.133-14.307-74.121-21.789-109.28-8.9c-17.777,6.516-34.512,19.028-44.046,35.65
			c-12.45,21.706-11.248,48.641-21.113,71.453c-7.994,18.487-27.88,29.597-43.462,40.95c-24.309,17.712-48.251,38.669-56.681,68.64
			c-11.248,39.992-7.919,87.551,14.869,123.089c16.995,26.503,46.099,34.466,76.128,35.013c28.341,0.516,62.974-6.645,89.447,6.284
			c45.062,22.006,104.523,46.704,154.938,29.288c51.961-17.95,77.469-52.905,85.027-98.253
			c7.558-45.348-13.226-83.137-19.841-119.043C440.557,234.152,437.833,209.101,430.734,186.503z"/>
	</g>
</g>
<g id="OBJECTS">
	<g>
		<path style="fill:#F5F8FF;" d="M142.256,143.39c11.496,2.385,23.2,3.056,34.736,1.49c17.781-2.413,41.301-9.148,57.659-27.198
			c29.62-32.682,83.266-65.635,117.103-23.982c33.837,41.652,22.012,89.001,53.528,99.596c31.517,10.595,62.796,49.255,39.523,99.88
			c-27.875,60.634-82.164,20.917-51.589,95.645c15.634,38.212-86.117,43.646-136.397,16.661
			c-46.08-24.731-91.504,40.387-134.697-1.328s22.772-93.144-10.046-121.161c-32.819-28.017-57.368-45.202-41.727-95.121
			C82.08,150.433,124.542,139.714,142.256,143.39z"/>
		<g>
			<g id="Leaf_00000116924195857930327560000004549840134930145167_">
				<path id="Leaf_Part_00000014603763683044681820000005341979464633442995_" style="fill:#E1ECFA;" d="M429.393,424.558
					c-2.92-4.939-10.186-23.435,21.446-52.059c1.018-0.922,2.652-0.346,2.858,1.012c1.434,9.468,3.498,38.508-22.029,51.696
					C430.857,425.626,429.858,425.344,429.393,424.558z"/>
				<path id="Leaf_Part_00000125566873012278316430000003764297080221248166_" style="fill:#E1ECFA;" d="M451.098,377.307
					c0,0-3.6,13.59-10.789,24.404c-7.189,10.814-9.615,23.165-9.615,23.165"/>
			</g>
			<g id="Leaf_00000061451832853075941560000009269426725224029588_">
				<path id="Leaf_Part_00000059301563352406558080000018052367241306002075_" style="fill:#E1ECFA;" d="M431.24,424.022
					c1.581-5.384,4.023-24.666-32.847-44.2c-1.187-0.629-2.598,0.309-2.466,1.646c0.917,9.321,5.941,37.349,33.313,43.716
					C430.109,425.386,430.988,424.879,431.24,424.022z"/>
				<path id="Leaf_Part_00000152228757548978870720000014462219163643390627_" style="fill:#E1ECFA;" d="M399.302,384.443
					c0,0,6.681,12.019,16.096,20.543c9.415,8.525,14.684,19.65,14.684,19.65"/>
			</g>
			<g id="Leaf_00000114762027561234737190000000947071292136846521_">
				<path id="Leaf_Part_00000060007908100507023890000012888147116668332677_" style="fill:#E1ECFA;" d="M75.984,424.835
					c3.547-5.999,12.372-28.464-26.048-63.231c-1.237-1.119-3.222-0.421-3.471,1.229c-1.741,11.5-4.249,46.772,26.757,62.79
					C74.207,426.132,75.419,425.789,75.984,424.835z"/>
				<path id="Leaf_Part_00000143588430043839600070000015158935206785010355_" style="fill:#E1ECFA;" d="M49.621,367.443
					c0,0,4.373,16.506,13.105,29.642c8.731,13.135,11.678,28.136,11.678,28.136"/>
			</g>
			<g id="Leaf_00000163783828141185880280000004767990745618263467_">
				<path id="Leaf_Part_00000183225577979430933100000016775585929583484327_" style="fill:#E1ECFA;" d="M78.815,424.652
					c-1.581-5.384-4.023-24.666,32.847-44.2c1.187-0.629,2.598,0.309,2.466,1.646c-0.917,9.321-5.941,37.349-33.313,43.716
					C79.946,426.016,79.067,425.509,78.815,424.652z"/>
				<path id="Leaf_Part_00000088101819136399179840000004340615574585911469_" style="fill:#E1ECFA;" d="M110.752,385.072
					c0,0-6.681,12.019-16.096,20.543c-9.415,8.525-14.684,19.65-14.684,19.65"/>
			</g>
		</g>
		<g>
			<path style="fill:#E1ECFA;" d="M351.671,316.045l14.977-26.971l14.977-26.97c1.787-3.218,6.254-3.218,8.041,0l14.977,26.97
				l14.977,26.971c1.787,3.218-0.447,7.24-4.02,7.24h-12.328l-0.452,95.518l-34.974-1.198v-94.32h-12.156
				C352.118,323.285,349.885,319.263,351.671,316.045z"/>
			<path style="fill:#E1ECFA;" d="M124.792,176.02l14.977-25.942l14.978-25.942c1.787-3.095,6.254-3.095,8.041,0l14.978,25.942
				l14.977,25.942c1.787,3.095-0.447,6.963-4.02,6.963H176.48l-0.13,213.86h-35.296v-213.86h-12.242
				C125.239,182.984,123.005,179.115,124.792,176.02z"/>
			<path style="fill:#E1ECFA;" d="M202.127,283.958l14.977-26.971l14.978-26.97c1.787-3.218,6.254-3.218,8.041,0l14.978,26.97
				l14.977,26.971c1.787,3.218-0.447,7.24-4.02,7.24H253.73l-0.632,133.728c0,3.038-6.656-3.345-9.578-3.345l-18.532-1.111
				c-2.922,0-6.684,6.596-6.684,3.558V291.197h-12.156C202.574,291.197,200.34,287.175,202.127,283.958z"/>
		</g>
	</g>
	<g>
		<path style="fill:#F0C66C;" d="M390.542,178.659l0.753-24.593l-1.35,1.876l-0.942,22.755l0.03,0.023
			c-2.826,0.896-3.308,5.802-3.386,7.664c-0.017,0.401,0.276,0.748,0.675,0.793l2.308,0.265c0.391,0.045,0.753-0.216,0.833-0.602
			l0.275-1.313l0.646,1.701c0.101,0.266,0.343,0.454,0.626,0.487l1.324,0.152c0.437,0.05,0.827-0.275,0.848-0.715
			C393.289,185.025,393.296,179.383,390.542,178.659z"/>
		<path style="fill:#264256;" d="M324.46,97.279l64.348,8.236c1,0.128,1.863,0.762,2.285,1.678l26.132,56.775
			c0.971,2.11-0.787,4.455-3.085,4.114l-62.073-9.202c-0.936-0.139-1.747-0.722-2.177-1.566l-28.408-55.808
			C320.418,99.412,322.131,96.981,324.46,97.279z"/>
	</g>
	<g>
		<rect x="319.075" y="253.703" style="fill:#F0C66C;" width="7.93" height="30.413"/>
		<path style="fill:#E69724;" d="M343.587,307.862h-41.095c-1.22,0-2.209-0.989-2.209-2.209v-20.66c0-1.22,0.989-2.209,2.209-2.209
			h41.095c1.22,0,2.209,0.989,2.209,2.209v20.66C345.797,306.873,344.807,307.862,343.587,307.862z"/>
		<path style="fill:#F0C66C;" d="M402.624,171.779c-7.331-12.49-21.194-8.034-27.621-5.055l2.087-14.19
			c0.676-4.593-2.849-8.729-7.491-8.791l-88.494-1.179c-4.834-0.064-8.678,4.041-8.296,8.86l1.195,15.064
			c-6.627-2.964-19.958-6.875-27.098,5.291c-9.11,15.521,13.309,59.411,40.742,48.308c2.74,3.095,5.878,5.833,9.35,8.114
			c0.077,0.05,0.143,0.092,0.223,0.138c0.713,0.418,4.746,2.764,7.099,3.786c0.135,0.059,0.25,0.116,0.376,0.191
			c7.088,4.213,16.301,11.138,14.706,17.973l7.826-0.044c0,0-2.551-9.91,12.719-16.222c1.003-0.327,3.065-1.132,3.518-1.31
			c0.063-0.025,0.119-0.048,0.181-0.074c6.708-2.868,12.621-7.344,17.219-12.993C388.757,232.273,411.847,187.491,402.624,171.779z
			 M255.86,177.185c4.813-8.199,13.419-6.544,18.634-4.525l1.612,20.326c0.607,7.657,3.074,14.776,6.933,20.937
			C264.123,218.019,249.446,188.113,255.86,177.185z M365.04,213.541c2.665-4.685,4.536-9.919,5.367-15.564l3.666-24.925
			c5.053-2.158,14.475-4.594,19.597,4.133C400.247,188.391,384.647,219.551,365.04,213.541z"/>
		<polygon style="fill:#E69724;" points="273.227,156.688 376.038,156.688 375.485,163.449 273.763,163.449 		"/>
		<path style="fill:#E69724;" d="M331.118,257.116h-16.156c-0.544,0-0.985-0.441-0.985-0.985v-4.857
			c0-0.544,0.441-0.985,0.985-0.985h16.156c0.544,0,0.985,0.441,0.985,0.985v4.857C332.103,256.676,331.662,257.116,331.118,257.116
			z"/>
	</g>
	<path style="fill:#315782;" d="M344.451,117.247l-14.346,19.944c-1.236,1.719-1.318,4.012-0.193,5.806
		c4.803,7.653,19.285,27.318,43.346,31.28c1.933,0.318,3.876-0.524,5.02-2.114l14.545-20.22c1.129-1.569,1.301-3.629,0.442-5.36
		c-3.761-7.573-16.153-27.503-43.885-31.463C347.474,114.848,345.575,115.684,344.451,117.247z"/>
	<g>
		<polygon id="_x3C_Path_x3E__00000087407854696117724660000007010065441778819768_" style="fill:#F3D6C1;" points="
			194.325,371.096 194.152,376.688 186.94,376.652 186.968,371.059 		"/>
		<path id="_x3C_Path_x3E__00000009586069927989977530000000684042988649915824_" style="fill:#2F526E;" d="M186.94,376.652
			l7.054,0.035c0.107,0.001,0.209,0.012,0.313,0.037c1.007,0.241,6.74,1.687,11.788,4.479c1.255,0.694,0.741,2.613-0.694,2.606
			l-17.104-0.085c-0.769-0.004-1.389-0.63-1.385-1.399L186.94,376.652z"/>
		<polygon id="_x3C_Path_x3E__00000000924595554140374080000008933078388054322343_" style="fill:#F3D6C1;" points="
			141.925,382.695 141.753,388.288 134.541,388.252 134.569,382.659 		"/>
		<path id="_x3C_Path_x3E__00000044872699080686441300000007555714700773844355_" style="fill:#2F526E;" d="M134.541,388.252
			l7.054,0.035c0.107,0.001,0.209,0.012,0.313,0.037c1.007,0.241,6.74,1.687,11.788,4.479c1.255,0.694,0.741,2.613-0.694,2.606
			l-17.105-0.085c-0.769-0.004-1.389-0.63-1.385-1.399L134.541,388.252z"/>
		<path style="fill:#F0C66C;" d="M154.531,308l-6.961,36.427l-13.944,39.369c0,0-0.704,1.295,1.232,1.902h7.583
			c0,0,1.079-0.238,1.575-1.172l15.619-29.425l9.042-29.591l20.777,15.749l-4.628,30.827c0,0,0.053,0.88,1.278,0.88
			c1.225,0,8.429,0,8.429,0s0.896-0.261,1.11-1.16l8.112-33.983c0.003-0.013,0.008-0.026,0.013-0.039
			c0.042-0.116,0.193-0.769-1.036-2.27c-1.365-1.669-19.663-24.033-19.663-24.033L154.531,308z"/>
		<path style="fill:#F3D6C1;" d="M206.081,270.889l5.37,2.858l16.252-12.269c0,0-1.562-2.776-1.203-5.017
			c0.359-2.241,1.019-2.651,1.474-2.281c0.456,0.37,0.402,3.06,1.373,3.572c0.971,0.512,1.395-0.043,2.545-3.083
			c1.149-3.039,1.654-4.438,2.609-4.472c0.955-0.034,0.846,2.11,0.846,2.11s0.839-0.425,1.499-0.013
			c0.66,0.413,0.392,1.266,0.392,1.266s0.549-0.208,1.245,0.354c0.696,0.562,0.267,1.536,0.267,1.536s1.194-0.489,1.198,1.268
			c0.004,1.757-0.84,7.448-8.015,8.815c0,0-16.989,20.387-19.674,20.364c-2.684-0.023-10.427-2.662-10.427-2.662L206.081,270.889z"
			/>
		<path style="fill:#315780;" d="M156.721,314.062h-4.723c-0.204-1.741-0.86-4.458-2.909-6.617
			c-2.024-2.132-4.879-3.214-8.483-3.214c-6.179,0-9.154,3.33-10.562,6.123c-0.668,1.327-1.038,2.648-1.246,3.708h-4.894
			c-1.46,0-2.643,1.184-2.643,2.643v20.09c0,1.46,1.184,2.643,2.643,2.643h32.817c1.46,0,2.643-1.184,2.643-2.643v-20.09
			C159.364,315.246,158.181,314.062,156.721,314.062z M140.605,307.79c2.578,0,4.558,0.701,5.883,2.086
			c1.239,1.294,1.727,2.977,1.918,4.186H132.41C133.038,311.512,134.928,307.79,140.605,307.79z"/>
		<path style="fill:#F3D6C1;" d="M153.367,278.706l-5.956,1.237l-4.649,19.825c0,0,2.976,1.135,4.133,3.088
			c1.157,1.953,1.154,3.699,0.588,3.249c-0.346-0.275-0.843-0.534-1.538-0.86c-0.941-0.441-1.439-1.046-2.061-0.915
			c-1.074,0.227-2.16,0.881-0.94,2.992c1.184,2.048,4.279,2.214,3.607,2.893c-1.71,1.729-3.382-0.019-3.382-0.019
			s-0.431,0.966-1.202,1.071c-0.771,0.105-1.278-1.202-1.278-1.202s-0.458,0.848-1.353,0.861c-0.894,0.013-1.278-1.199-1.278-1.199
			s-1.184,1.442-2.311,0.094c-1.127-1.348-3.474-4.826,1.168-10.466c0,0,0.024-26.538,2.102-28.237
			c2.078-1.699,9.719-4.621,9.719-4.621L153.367,278.706z"/>
		<path style="fill:#315782;" d="M153.69,309.3c3.896,1.538,18.769,6.89,30.889,4.192c0.527-0.117,0.899-0.588,0.908-1.127
			c0.063-3.811,0.467-18.498,3.001-23.356c1.881-3.605,2.984-5.943,3.532-7.152c0.254-0.561,0.894-0.825,1.472-0.614l8.721,3.189
			c0.612,0.224,1.289-0.092,1.51-0.705l4.158-11.521c0.211-0.585-0.068-1.231-0.638-1.478c-3.194-1.385-13.338-5.588-21.434-6.802
			c-9.639-1.446-13.075-11.734-39.15,2.657c-0.471,0.26-0.675,0.839-0.469,1.335l4.489,10.794c0.244,0.587,0.911,0.874,1.505,0.647
			l7.447-2.839c0.899-0.343,1.807,0.481,1.553,1.409l-8.19,29.969C152.836,308.478,153.132,309.08,153.69,309.3z"/>
		<path style="fill:#F3D6C1;" d="M193.175,237.14c0,0,0.208,2.285,2.65,7.139c2.493,4.956,1.694,12.301-2.15,13.74
			c-2.993,1.12-5.136,0.465-5.136,0.465l-1.543,7.833l-9.593-3.759l1.052-6.651l-1.914-15.014L193.175,237.14z"/>
		<path style="fill:#2F5482;" d="M195.839,232.563c0.079-0.739-0.625-1.339-1.335-1.121c-1.473,0.451-4.336,0.869-9.499,0.179
			c-9.862-1.318-14.941,7.213-14.867,13.395c0.063,5.299,5.733,8.288,7.521,10.511c0.386,0.479,1.114,0.489,1.545,0.05
			c1.019-1.037,2.442-2.588,2.489-3.201c0.074-0.957-2.723-1.104-2.87-3.974c-0.147-2.87,3.68-3.238,4.784-1.03
			c1.104,2.208,0.589-5.446,2.65-6.182C188.153,240.511,195.163,238.905,195.839,232.563z"/>
		<path style="fill:#F3D6C1;" d="M177.788,261.038c0,0-2.359,5.776,3.523,7.96c5.882,2.184,6.062-4.804,6.062-4.804L177.788,261.038
			z"/>
	</g>
	<g>
		<g id="_x3C_Group_x3E__00000170249764338736588920000006156534826350057630_">
			<path id="_x3C_Path_x3E__00000097471453844532199990000011508733706907357100_" style="fill:#315782;" d="M219.089,382.198
				c0,0.859,0.643,1.555,1.436,1.555h138.01c10.236,0,18.534-7.431,18.534-16.597v-5.412c0-9.167-8.298-16.597-18.534-16.597
				h-138.01c-0.793,0-1.436,0.696-1.436,1.555v0.281c0,0.854,0.636,1.549,1.425,1.555l1.803,0.014l0.102,32.091l-1.894-0.001
				C219.732,380.642,219.089,381.339,219.089,382.198L219.089,382.198z"/>
			<path id="_x3C_Path_x3E__00000124847492789458557870000010176898072890024370_" style="fill:#F9ECDC;" d="M314.844,348.419
				l-92.656,0.133l0.102,32.091h93.513c4.81,0,8.708-4.218,8.708-9.421v-12.345C324.511,353.101,320.183,348.419,314.844,348.419z"
				/>
			<path id="_x3C_Path_x3E__00000095329883894216443140000009760865918906708608_" style="fill:#E69724;" d="M348.02,366.071v-3.244
				c0-0.959-0.777-1.736-1.736-1.736h-13.32c-0.959,0-1.736,0.777-1.736,1.736v3.244c0,0.959,0.777,1.736,1.736,1.736h13.32
				C347.243,367.807,348.02,367.03,348.02,366.071z"/>
			
				<line id="_x3C_Path_x3E__00000039825403079633538240000013534231394596262017_" style="fill:none;stroke:#F0C66C;stroke-linecap:round;stroke-miterlimit:10;" x1="319.341" y1="353.423" x2="222.419" y2="353.423"/>
			
				<line id="_x3C_Path_x3E__00000176006795236341744040000017908873632905590975_" style="fill:none;stroke:#F0C66C;stroke-linecap:round;stroke-miterlimit:10;" x1="312.351" y1="358.262" x2="222.419" y2="358.262"/>
			
				<line id="_x3C_Path_x3E__00000104690382940585853690000017929278410708497321_" style="fill:none;stroke:#F0C66C;stroke-linecap:round;stroke-miterlimit:10;" x1="319.341" y1="367.021" x2="222.419" y2="367.021"/>
			
				<line id="_x3C_Path_x3E__00000090264113241031675750000000146743183413146026_" style="fill:none;stroke:#F0C66C;stroke-linecap:round;stroke-miterlimit:10;" x1="320.86" y1="376.116" x2="222.419" y2="376.116"/>
		</g>
		<g>
			<path id="_x3C_Path_x3E__00000140011889034161809230000003241609360410264489_" style="fill:#E69724;" d="M415.522,423.497
				c0,0.924-1.029,1.673-2.298,1.673H192.29c-16.387,0-29.671-7.993-29.671-17.852v-5.821c0-9.86,13.284-17.853,29.671-17.853
				h220.934c1.269,0,2.298,0.749,2.298,1.673v0.303c0,0.919-1.019,1.666-2.282,1.673l-2.887,0.015l-0.162,34.518l3.032-0.001
				C414.493,421.824,415.522,422.573,415.522,423.497L415.522,423.497z"/>
			<path id="_x3C_Path_x3E__00000132076122159342178550000014598028718410684063_" style="fill:#F9ECDC;" d="M261.216,387.164
				l149.172,0.143l-0.163,34.518H261.968c-8.401,0-15.211-4.955-15.211-11.068v-13.072
				C246.757,391.874,253.231,387.164,261.216,387.164z"/>
			<path id="_x3C_Path_x3E__00000052101614527909882380000013494797884687243954_" style="fill:#315780;" d="M224.99,415.517h-4.853
				c-1.401,0-2.537-1.136-2.537-2.536v-14.492c0-1.401,1.136-2.537,2.537-2.537h4.853c1.401,0,2.537,1.136,2.537,2.537v14.492
				C227.527,414.382,226.391,415.517,224.99,415.517z"/>
			<path id="_x3C_Path_x3E__00000011020672268963659940000017029756611965395364_" style="fill:#315780;" d="M209.78,415.605h-4.853
				c-1.401,0-2.537-1.136-2.537-2.537v-14.492c0-1.401,1.136-2.537,2.537-2.537h4.853c1.401,0,2.537,1.136,2.537,2.537v14.492
				C212.317,414.469,211.181,415.605,209.78,415.605z"/>
			
				<line id="_x3C_Path_x3E__00000163783740866122123050000006484042930630002082_" style="fill:none;stroke:#F0C66C;stroke-linecap:round;stroke-miterlimit:10;" x1="263.395" y1="392.546" x2="410.192" y2="392.546"/>
			
				<line id="_x3C_Path_x3E__00000160155384165713759720000011128392009724535221_" style="fill:none;stroke:#F0C66C;stroke-linecap:round;stroke-miterlimit:10;" x1="283.441" y1="404.154" x2="410.281" y2="404.154"/>
			
				<line id="_x3C_Path_x3E__00000141444651381276477790000014463145838637581706_" style="fill:none;stroke:#F0C66C;stroke-linecap:round;stroke-miterlimit:10;" x1="251.575" y1="408.501" x2="410.192" y2="408.501"/>
			
				<line id="_x3C_Path_x3E__00000123407951834060024440000001349828819135665564_" style="fill:none;stroke:#F0C66C;stroke-linecap:round;stroke-miterlimit:10;" x1="258.104" y1="418.283" x2="410.192" y2="418.283"/>
		</g>
		<g>
			<path id="_x3C_Path_x3E__00000044868938481660451530000009968492662721492125_" style="fill:#F0C66C;" d="M387.05,343.971
				c0,0.837-0.623,1.516-1.391,1.516H251.924c-9.919,0-17.96-7.242-17.96-16.175v-5.274c0-8.933,8.041-16.175,17.96-16.175h133.734
				c0.768,0,1.391,0.678,1.391,1.516v0.274c0,0.833-0.617,1.509-1.381,1.516l-1.747,0.014l-0.098,31.275l1.835,0
				C386.427,342.455,387.05,343.134,387.05,343.971L387.05,343.971z"/>
			<path id="_x3C_Path_x3E__00000107585302304840289460000005811086945911253156_" style="fill:#F9ECDC;" d="M293.646,311.051
				l90.296,0.13l-0.098,31.275h-89.742c-5.085,0-9.207-4.49-9.207-10.028v-11.844C284.894,315.319,288.813,311.051,293.646,311.051z
				"/>
			<path id="_x3C_Path_x3E__00000150082543296859834470000006171770579477538720_" style="fill:#E69724;" d="M270.717,336.741
				h-0.935c-1.401,0-2.537-1.136-2.537-2.537v-12.653c0-1.401,1.136-2.537,2.537-2.537h0.935c1.401,0,2.537,1.136,2.537,2.537
				v12.653C273.253,335.605,272.118,336.741,270.717,336.741z"/>
			<path id="_x3C_Path_x3E__00000113343093427011626820000013033450035691004087_" style="fill:#E69724;" d="M261.51,336.82h-0.935
				c-1.401,0-2.537-1.136-2.537-2.537V321.63c0-1.401,1.136-2.537,2.537-2.537h0.935c1.401,0,2.537,1.136,2.537,2.537v12.654
				C264.047,335.684,262.911,336.82,261.51,336.82z"/>
			
				<line id="_x3C_Path_x3E__00000068659750193739651540000017555993707023612040_" style="fill:none;stroke:#F0C66C;stroke-linecap:round;stroke-miterlimit:10;" x1="294.965" y1="315.928" x2="383.823" y2="315.928"/>
			
				<line id="_x3C_Path_x3E__00000030455745717181700320000011287673085350727584_" style="fill:none;stroke:#F0C66C;stroke-linecap:round;stroke-miterlimit:10;" x1="307.099" y1="326.445" x2="383.877" y2="326.445"/>
			
				<line id="_x3C_Path_x3E__00000039133502596477543080000010879596331834262178_" style="fill:none;stroke:#F0C66C;stroke-linecap:round;stroke-miterlimit:10;" x1="287.81" y1="330.384" x2="383.823" y2="330.384"/>
			
				<line id="_x3C_Path_x3E__00000011753139260537196190000006512720062529596328_" style="fill:none;stroke:#F0C66C;stroke-linecap:round;stroke-miterlimit:10;" x1="291.762" y1="339.247" x2="383.823" y2="339.247"/>
		</g>
		<g id="_x3C_Group_x3E_">
			<path id="_x3C_Path_x3E__00000007394751875991289880000015705267729437776829_" style="fill:#F0C66C;" d="M106.367,424.417
				c0,0.672,0.618,1.217,1.381,1.217h132.73c9.845,0,17.825-5.818,17.825-12.994v-4.237c0-7.177-7.981-12.994-17.825-12.994h-132.73
				c-0.763,0-1.381,0.545-1.381,1.217v0.22c0,0.669,0.612,1.213,1.371,1.217l1.734,0.011l0.098,25.124l-1.821,0
				C106.986,423.199,106.367,423.744,106.367,424.417L106.367,424.417z"/>
			<path id="_x3C_Path_x3E__00000085937029181045857220000011409111209562544052_" style="fill:#F9ECDC;" d="M198.47,397.971
				l-88.998,0.104l0.098,25.124h89.822c4.619,0,8.364-3.302,8.364-7.375v-9.665C207.756,401.637,203.598,397.971,198.47,397.971z"/>
			
				<line id="_x3C_Path_x3E__00000128450948734731192650000010541992436566195086_" style="fill:none;stroke:#F0C66C;stroke-linecap:round;stroke-miterlimit:10;" x1="202.783" y1="401.888" x2="109.57" y2="401.888"/>
			
				<line id="_x3C_Path_x3E__00000163783752494754005210000003244271206511289738_" style="fill:none;stroke:#F0C66C;stroke-linecap:round;stroke-miterlimit:10;" x1="196.061" y1="405.677" x2="109.57" y2="405.677"/>
			
				<line id="_x3C_Path_x3E__00000101098900098456737160000010288176067541527203_" style="fill:none;stroke:#F0C66C;stroke-linecap:round;stroke-miterlimit:10;" x1="202.783" y1="412.535" x2="109.57" y2="412.535"/>
			
				<line id="_x3C_Path_x3E_" style="fill:none;stroke:#F0C66C;stroke-linecap:round;stroke-miterlimit:10;" x1="204.245" y1="419.655" x2="109.57" y2="419.655"/>
		</g>
	</g>
	
		<line style="fill:none;stroke:#315782;stroke-linecap:round;stroke-miterlimit:10;" x1="54.361" y1="425.627" x2="449.21" y2="425.627"/>
</g>
</svg>
