<?xml version="1.0" encoding="utf-8"?>
<!-- Generator: Adobe Illustrator 27.5.0, SVG Export Plug-In . SVG Version: 6.00 Build 0)  -->
<svg version="1.1" xmlns="http://www.w3.org/2000/svg" xmlns:xlink="http://www.w3.org/1999/xlink" x="0px" y="0px"
	 viewBox="0 0 500 500" style="enable-background:new 0 0 500 500;" xml:space="preserve">
<!-- <g id="BACKGROUND">
	<rect style="fill:#FFFFFF;" width="500" height="500"/>
</g> -->
<g id="OBJECTS">
	<g>
		<g>
			<path style="fill:#CDD2FB;" d="M401.912,340.162c0,0,45.802-89.884,37.692-155.379c-8.11-65.495-50.602-71.132-74.698-60.73
				c-24.095,10.402-57.272,19.709-80.127-14.245c-22.855-33.954-120.173-37.523-148.189,14.245
				c-28.016,51.768-14.008,75.31-36.863,88.358C76.872,225.459,41.433,307.721,107.1,334
				c65.667,26.28,169.432,12.108,220.441,21.156C378.55,364.205,391.406,354.769,401.912,340.162"/>
		</g>
		<path style="fill:#CDD2FB;" d="M307.535,83.657c0,0,13.804,10.461,24.243,10.984c10.44,0.523,27.325-3.661,31.346,4.708
			c4.021,8.369-6.02,24.584-31.346,22.492c-25.327-2.092-37.791-12.369-42.126-18.999c-4.335-6.631-3.793-15.523,2.168-19.184
			C294.747,81.859,302.465,80.225,307.535,83.657z"/>
		<path style="fill:#CDD2FB;" d="M115.058,162.18c0,0-3,20.813-6,28.776c-3,7.963-10,19.063-22.25,19.304s-13-13.332-8.25-24.04
			c4.75-10.708,11.555-9.946,11.25-24.04C89.308,139.076,118.9,141.067,115.058,162.18z"/>
	</g>
	<g>
		
			<rect x="264.267" y="380.788" transform="matrix(1 -0.0071 0.0071 1 -2.7358 2.2752)" style="fill:#EEB400;" width="112.333" height="14.604"/>
		<polygon style="fill:#CDD2FB;" points="391.099,387.591 376.547,380.391 376.651,394.995 		"/>
		
			<rect x="261.435" y="381.196" transform="matrix(1 -0.0071 0.0071 1 -2.7358 1.8651)" style="fill:#F3F0FA;" width="2.833" height="14.604"/>
		
			<rect x="257.435" y="381.22" transform="matrix(1 -0.0071 0.0071 1 -2.7423 1.8452)" style="fill:#CDD2FB;" width="4" height="14.604"/>
		<path style="fill:#6860DA;" d="M247.102,388.609c0,0-0.115,7.303,10.385,7.229l-0.103-14.603
			C257.384,381.234,247.21,380.306,247.102,388.609z"/>
		<polygon style="fill:#201975;" points="385.04,384.593 385.083,390.673 391.099,387.591 		"/>
	</g>
	<g>
		<path style="fill:#6860DA;" d="M77.989,354.972v-82.667h151.397v82.667C229.386,354.972,162.656,384.639,77.989,354.972z"/>
		<polygon style="fill:#6860DA;" points="281.867,271.307 147.867,254.556 28.322,273.305 162.322,290.056 		"/>
		<path style="fill:none;stroke:#EEB400;stroke-width:3;stroke-linecap:round;stroke-linejoin:round;stroke-miterlimit:10;" d="
			M56.322,327.086v-48.372c0,0-4.127-3.218,16.27-3.803c20.397-0.585,70.008-5.494,75.275-8.045"/>
		<path style="fill:#EEB400;" d="M49.063,357.341c0,0,0-23.327,2.667-27.56c2.667-4.232,8.167-3.399,9,1.935
			c0.833,5.333,2.167,25.625,2.167,25.625H49.063z"/>
		<ellipse style="fill:#3A31A1;" cx="154.595" cy="266.866" rx="8.727" ry="2.779"/>
		<polyline style="fill:none;stroke:#201975;stroke-miterlimit:10;" points="77.989,279.513 162.322,290.056 229.386,279.687 		"/>
	</g>
	<g>
		<path style="fill:#6860DA;" d="M276.748,362.591c-10.777,0-19.514-8.737-19.514-19.514l0,0c0-10.777,8.737-19.514,19.514-19.514
			h177.424c1.141,0,2.067-0.925,2.067-2.067v-0.1c0-1.141-0.925-2.067-2.067-2.067H274.287c-12.129,0-21.961,9.832-21.961,21.961
			v3.474c0,12.129,9.832,21.961,21.961,21.961h179.884c1.141,0,2.067-0.925,2.067-2.067v0c0-1.141-0.925-2.067-2.067-2.067H276.748z
			"/>
		<path style="fill:#F3F0FA;" d="M453.148,362.591h-176.98c-10.457,0-18.934-8.477-18.934-18.934v-1.161
			c0-10.457,8.477-18.934,18.934-18.934h176.98V362.591z"/>
		<line style="fill:none;stroke:#CDD2FB;stroke-miterlimit:10;" x1="271.699" y1="328.381" x2="449.159" y2="328.381"/>
		<line style="fill:none;stroke:#CDD2FB;stroke-miterlimit:10;" x1="271.699" y1="335.729" x2="449.159" y2="335.729"/>
		<line style="fill:none;stroke:#CDD2FB;stroke-miterlimit:10;" x1="271.699" y1="343.027" x2="449.159" y2="343.027"/>
		<line style="fill:none;stroke:#CDD2FB;stroke-miterlimit:10;" x1="271.699" y1="351.421" x2="449.159" y2="351.421"/>
		<line style="fill:none;stroke:#CDD2FB;stroke-miterlimit:10;" x1="271.699" y1="358.744" x2="449.159" y2="358.744"/>
		<polygon style="fill:#EEB400;" points="283.739,343.077 304.682,343.077 304.682,376.828 294.21,368.562 283.739,376.828 		"/>
	</g>
	<g>
		<path style="fill:#EEB400;" d="M263.677,315.204c-10.778,0-19.514-8.737-19.514-19.514l0,0c0-10.777,8.737-19.514,19.514-19.514
			h177.423c1.141,0,2.067-0.925,2.067-2.067v-0.1c0-1.141-0.925-2.067-2.067-2.067H261.216c-12.129,0-21.961,9.832-21.961,21.961
			v3.474c0,12.129,9.832,21.961,21.961,21.961h179.884c1.141,0,2.067-0.925,2.067-2.067v0c0-1.141-0.925-2.067-2.067-2.067H263.677z
			"/>
		<path style="fill:#F3F0FA;" d="M440.077,315.204h-176.98c-10.457,0-18.934-8.477-18.934-18.934v-1.161
			c0-10.457,8.477-18.934,18.934-18.934h176.98V315.204z"/>
		<line style="fill:none;stroke:#CDD2FB;stroke-miterlimit:10;" x1="258.628" y1="280.994" x2="436.087" y2="280.994"/>
		<line style="fill:none;stroke:#CDD2FB;stroke-miterlimit:10;" x1="258.628" y1="288.342" x2="436.087" y2="288.342"/>
		<line style="fill:none;stroke:#CDD2FB;stroke-miterlimit:10;" x1="258.628" y1="295.64" x2="436.087" y2="295.64"/>
		<line style="fill:none;stroke:#CDD2FB;stroke-miterlimit:10;" x1="258.628" y1="304.034" x2="436.087" y2="304.034"/>
		<line style="fill:none;stroke:#CDD2FB;stroke-miterlimit:10;" x1="258.628" y1="311.357" x2="436.087" y2="311.357"/>
		<polygon style="fill:#3A31A1;" points="270.668,295.69 291.611,295.69 291.611,329.441 281.139,321.175 270.668,329.441 		"/>
	</g>
	<g>
		<path style="fill:#3A31A1;" d="M445.659,228.734c10.777,0,19.514,8.737,19.514,19.514l0,0c0,10.778-8.737,19.514-19.514,19.514
			H268.236c-1.141,0-2.067,0.925-2.067,2.067v0.101c0,1.141,0.925,2.067,2.067,2.067H448.12c12.129,0,21.961-9.832,21.961-21.961
			v-3.474c0-12.129-9.832-21.961-21.961-21.961H268.236c-1.141,0-2.067,0.925-2.067,2.066v0c0,1.141,0.925,2.067,2.067,2.067
			H445.659z"/>
		<path style="fill:#F3F0FA;" d="M269.26,228.734h176.98c10.457,0,18.934,8.477,18.934,18.934v1.161
			c0,10.457-8.477,18.934-18.934,18.934H269.26V228.734z"/>
		<line style="fill:none;stroke:#CDD2FB;stroke-miterlimit:10;" x1="450.708" y1="262.944" x2="273.249" y2="262.944"/>
		<line style="fill:none;stroke:#CDD2FB;stroke-miterlimit:10;" x1="450.708" y1="255.596" x2="273.249" y2="255.596"/>
		<line style="fill:none;stroke:#CDD2FB;stroke-miterlimit:10;" x1="450.708" y1="248.299" x2="273.249" y2="248.299"/>
		<line style="fill:none;stroke:#CDD2FB;stroke-miterlimit:10;" x1="450.708" y1="239.905" x2="273.249" y2="239.905"/>
		<line style="fill:none;stroke:#CDD2FB;stroke-miterlimit:10;" x1="450.708" y1="232.582" x2="273.249" y2="232.582"/>
		<polygon style="fill:#6860DA;" points="417.726,248.299 438.668,248.299 438.668,282.051 428.197,273.784 417.726,282.051 		"/>
	</g>
	<g>
		<path style="fill:#7974E8;" d="M127.541,363.208l-43.902,62.529c0,0,3.546-0.473,5.674,3.782c0,0,46.546-44.208,51.76-46.335
			c5.214-2.128,10.297-3.546,13.784-2.364c3.487,1.182,12.766,5.91,12.766,5.91l-11.116,15.603c0,0,4.674,0.236,5.383,4.255
			c0,0,30.496-17.494,32.387-24.822c1.891-7.329-31.264-21.927-31.264-21.927L127.541,363.208z"/>
		<path style="fill:#EEB400;" d="M139.587,319.149c0,0-15.228,6.649-17.71,9.308c-2.482,2.66-6.383,14.893-6.383,14.893
			s3.703,3.546,12.046,4.078v15.78c0,0,13.485-1.241,21.287-1.596c7.801-0.355,14.184-1.773,14.184-1.773v-18.661l4.61,3.236
			c0,0,6.56-5.142,8.333-12.411c0,0-10.461-9.929-13.475-11.879c-3.014-1.95-16.292-0.739-16.292-0.739L139.587,319.149z"/>
		<path style="fill:#F4D1AD;" d="M139.587,312.876v6.273c0,0,1.223,4.019,2.73,4.728c1.507,0.709,3.162-2.246,3.871-4.492v-6.509
			H139.587z"/>
		<path style="fill:#201975;" d="M117.622,272.252c0,0-5.849,3.19-5.851,9.397c-0.002,5.319,4.61,7.624,4.61,7.624
			s0,6.915,6.028,11.879c6.028,4.964,12.943-1.729,12.943-1.729s21.454,3.857,27.837-1.462c6.383-5.319,4.922-15.248,4.922-15.248
			s5.319-6.915-0.355-12.766c0,0-0.135-9.752-7.227-14.007c-7.092-4.255-12.766,2.659-12.766,2.659s-3.149-4.009-8.844-4.044
			c-5.695-0.034-8,5.285-8,5.285s-6.11-4.706-11.17,0.355C114.785,265.16,117.622,272.252,117.622,272.252z"/>
		<path style="fill:#F4D1AD;" d="M130.92,291.578c0,0,1.064,13.475,6.738,19.858c5.674,6.383,14.184-1.064,15.603-9.929
			c1.064-3.723,1.596-8.865,1.596-8.865s-1.773-1.241-2.128-4.61c0,0-8.688,5.142-13.652-3.014
			C139.076,285.018,136.061,291.578,130.92,291.578z"/>
		<path style="fill:#F4D1AD;" d="M132.679,299.423c0,0-1.816-1.344-2.498,1.02c-0.682,2.364,2.319,7.822,5.06,6.512
			C135.241,306.955,133.486,303.413,132.679,299.423z"/>
		<path style="fill:#F4D1AD;" d="M153.555,299.423c0,0,1.816-1.344,2.498,1.02c0.682,2.364-2.319,7.822-5.06,6.512
			C150.993,306.955,152.748,303.413,153.555,299.423z"/>
		<polygon style="fill:#201975;" points="125.37,347.208 125.37,330.821 141.085,336.731 144.986,336.731 160.106,329.284 
			160.106,355.796 146.188,363.208 142.385,363.208 125.28,356.432 125.28,349.382 		"/>
		<path style="fill:#F4D1AD;" d="M115.494,343.35c0,0-5.319,10.815-2.837,19.858c2.482,9.043,26.93,0,26.93,0
			s6.687-1.461,8.708-5.851c2.424-5.266,2.305-8.511,0-9.22c-2.305-0.709-5.582,5.142-7.223,4.61
			c-1.642-0.532-2.174-4.078-3.415-3.723s0,6.265,0,6.265s-0.241,2.738-6.624,2.738c-3.379-0.089-5.753-1.596-5.753-1.596
			l0.09-5.319v-3.904C125.37,347.208,120.449,346.798,115.494,343.35z"/>
		<path style="fill:#F4D1AD;" d="M167.621,344.414l8.333,6.501c0,0,1.773,11.584,2.246,13.83c0,0-3.428,1.418-4.492,2.482
			c-1.064,1.064-2.128,7.092-2.128,8.274c0,1.182,3.31,1.655,5.437-0.709c2.128-2.364,3.192-3.428,6.028-4.846
			c2.837-1.418,1.3-4.137,1.655-8.392c0.355-4.255,0.681-13.948,0.104-15.839c-0.577-1.891-8.851-13.711-8.851-13.711
			S174.3,338.977,167.621,344.414z"/>
		<path style="fill:#201975;" d="M83.639,425.738c0,0-9.102-0.355-12.529-0.591c-3.428-0.236-5.437,2.009-1.773,5.674
			c3.664,3.664,12.293,6.856,14.303,6.501c2.009-0.355,5.674-7.801,5.674-7.801S87.776,425.147,83.639,425.738z"/>
		<path style="fill:#201975;" d="M156.506,402.333c0,0-4.664,2.364-5.639,4.226c-0.975,1.862-4.167,5.94-5.674,7.269
			c-1.507,1.33-0.266,7.003,4.964,4.521c5.23-2.482,7.594-8.186,11.732-11.761C161.889,406.589,161.17,402.718,156.506,402.333z"/>
		<polyline style="fill:#F3F0FA;" points="126.108,331.118 127.786,330.073 140.818,334.948 144.718,334.948 157.13,329.284 
			159.277,329.668 144.935,336.731 141.034,336.731 126.108,331.118 		"/>
	</g>
	<g>
		<path style="fill:#EEB400;" d="M350.669,166.606l0.01-0.055l-14.104-4.228l-7.034-0.252l-11.058,3.206
			c-1.48,0.429-2.688,1.504-3.286,2.924l-4.093,9.721l5.039,14.035l3.186-7.191l3.513,20.742h21.139l3.479-20.15l3.186,7.192
			l5.039-14.036L350.669,166.606z"/>
		<polygon style="fill:#201975;" points="335.54,172.674 333.183,172.674 332.931,172.674 330.574,172.674 311.868,170.028 
			316.912,195.914 330.574,199.504 332.931,199.504 333.183,199.504 335.54,199.504 349.202,195.914 354.245,170.028 		"/>
		<path style="fill:#CE9B72;" d="M311.103,177.922c0,0-8.691,17.467-7.432,21.582c1.26,4.115,27.964,0,27.964,0
			s5.542-2.813,7.306-5.332c1.764-2.519,1.26-5.668,0.63-6.172c-0.63-0.504-7.306,4.157-7.306,4.157s1.26-2.267,1.638-3.653
			c0.378-1.386-1.26-0.523-2.267,1.124c-1.008,1.647-2.095,5.3-2.095,5.3l-13.101-1.443l-0.297-1.526L311.103,177.922z"/>
		<path style="fill:#CE9B72;" d="M355.568,177.922c0,0,8.692,17.467,7.432,21.582c-1.26,4.115-27.964,0-27.964,0
			s-5.542-2.813-7.306-5.332c-1.764-2.519-1.26-5.668-0.63-6.172c0.63-0.504,7.306,4.157,7.306,4.157s-1.26-2.267-1.638-3.653
			c-0.378-1.386,1.26-0.523,2.267,1.124c1.008,1.647,2.095,5.3,2.095,5.3l13.101-1.443l0.298-1.526L355.568,177.922z"/>
		<polygon style="fill:#6767CE;" points="322.84,205.508 318.939,225.159 347.322,225.159 343.979,205.508 		"/>
		<path style="fill:#201975;" d="M320.247,266.979c0,0-0.085,3.338-1.308,7.495c-1.223,4.157-1.422,7.18,0,8.125
			c1.422,0.945,3.123,1.134,4.445-2.645c1.323-3.779,0.803-4.346,2.102-6.235c1.299-1.889,1.031-6.739,1.031-6.739H320.247z"/>
		<path style="fill:#201975;" d="M300.061,220.975c0,0-3.293,0.552-7.607,0.142c-4.314-0.41-7.319-0.03-7.976,1.546
			c-0.657,1.576-0.519,3.281,3.443,3.861c3.962,0.58,4.419-0.038,6.521,0.877c2.102,0.916,6.812-0.27,6.812-0.27L300.061,220.975z"
			/>
		<polygon style="fill:#6767CE;" points="343.979,205.508 355.565,208.034 347.322,225.159 		"/>
		<path style="fill:#7974E8;" d="M322.84,205.508c0,0-3.424,1.512-5.188,4.535c-1.764,3.023,2.594,56.936,2.594,56.936h6.27
			c0,0,5.737-39.553,6.876-48.371C334.532,209.791,333.319,204.249,322.84,205.508z"/>
		<path style="fill:#7974E8;" d="M361.475,214.171c-0.304-1.326-0.968-2.562-1.936-3.518c-0.941-0.929-2.306-2.019-3.975-2.619
			c-3.294-1.184-55.513,12.914-55.513,12.914l1.141,6.166c0,0,39.936-1.559,48.814-2.044
			C358.309,224.617,363.421,222.662,361.475,214.171z"/>
		<path style="fill:#201975;" d="M320.626,135.398c0,0-6.5-4.335-7.634-11.893s6.991-7.747,10.203-6.046s14.244-6.235,22.616,0.567
			c0,0,9.16,4.383-0.587,20.047L320.626,135.398z"/>
		<path style="fill:#CE9B72;" d="M329.54,155.386v6.685c0,0,1.303,4.283,2.909,5.038c1.606,0.756,3.37-2.393,4.125-4.787v-6.937
			H329.54z"/>
		<path style="fill:#CE9B72;" d="M320.303,132.69c0,0,1.134,14.36,7.18,21.162s15.116-1.134,16.627-10.581
			c1.134-3.968,1.701-9.447,1.701-9.447s-1.889-1.323-2.267-4.913c0,0-9.258,5.479-14.549-3.212
			C328.995,125.699,325.783,132.69,320.303,132.69z"/>
		<path style="fill:#CE9B72;" d="M321.705,141.05c0,0-1.936-1.432-2.662,1.087c-0.726,2.519,2.471,8.336,5.392,6.939
			C324.436,149.076,322.565,145.302,321.705,141.05z"/>
		<path style="fill:#CE9B72;" d="M344.551,141.05c0,0,1.936-1.432,2.662,1.087c0.726,2.519-2.471,8.336-5.392,6.939
			C341.821,149.076,343.691,145.302,344.551,141.05z"/>
		<polygon style="fill:#F3F0FA;" points="313.689,170.286 315.196,168.201 330.302,170.286 335.782,170.286 351.716,168.201 
			353.604,170.119 335.54,172.674 330.574,172.674 		"/>
	</g>
</g>
<g id="DESIGNED_BY_FREEPIK">
	<g>
		<g id="XMLID_319_">
			<g id="XMLID_338_">
				<path id="XMLID_346_" style="fill:#A5B7C6;" d="M260.104,465.465c-0.432,0.443-0.803,0.931-1.108,1.453l-0.465-0.241
					c-0.067-0.298-0.349-0.503-0.659-0.466c-0.331,0.039-0.568,0.339-0.529,0.67s0.339,0.568,0.67,0.529
					c0.065-0.008,0.127-0.026,0.184-0.052l0.451,0.234c-0.251,0.554-0.433,1.139-0.539,1.744l0.746,0.132
					c0.23-1.306,0.85-2.507,1.792-3.473L260.104,465.465z"/>
				<path id="XMLID_345_" style="fill:#A5B7C6;" d="M265.592,463.163c-0.171,0-0.341,0.006-0.51,0.017l-0.074-0.626
					c0.188-0.149,0.296-0.389,0.266-0.645c-0.046-0.393-0.402-0.674-0.795-0.628s-0.674,0.402-0.628,0.795
					c0.03,0.254,0.189,0.461,0.405,0.564l0.073,0.624c-0.714,0.116-1.403,0.332-2.06,0.646l0.327,0.684
					c0.934-0.447,1.942-0.673,2.995-0.673c0.496,0,0.993,0.053,1.475,0.158l0.161-0.741
					C266.693,463.222,266.142,463.163,265.592,463.163z"/>
				<path id="XMLID_344_" style="fill:#A5B7C6;" d="M272.194,465.711c0.331-0.04,0.566-0.341,0.525-0.672
					c-0.04-0.331-0.341-0.566-0.672-0.526c-0.309,0.038-0.535,0.304-0.53,0.609l-0.416,0.363c-0.418-0.43-0.89-0.813-1.408-1.139
					l-0.404,0.641c1.134,0.715,2.021,1.726,2.563,2.925l0.691-0.313c-0.251-0.554-0.568-1.072-0.942-1.545l0.402-0.351
					C272.065,465.716,272.129,465.719,272.194,465.711z"/>
				<path id="XMLID_343_" style="fill:#A5B7C6;" d="M265.044,473.372c-0.386,0.023-0.775,0.035-1.157,0.035
					c-0.88,0-1.733-0.061-2.478-0.179c-0.39-0.062-0.846-0.155-1.27-0.292c1.046,1.861,3.069,3.125,5.388,3.125
					c2.855,0,5.262-1.916,5.95-4.504c-0.682,0.449-1.505,0.825-2.459,1.123C267.839,473.047,266.464,473.286,265.044,473.372z"/>
				<path id="XMLID_339_" style="fill:#A5B7C6;" d="M265.592,464.68c-3.352,0-6.08,2.666-6.08,5.943
					c0,0.426,0.046,0.849,0.137,1.261c0.674,0.483,2.706,0.89,5.348,0.731c2.879-0.173,5.297-0.957,6.672-2.159
					c-0.005-0.195-0.021-0.39-0.045-0.582C271.244,466.913,268.65,464.68,265.592,464.68z M263.432,471.194
					c-1.02,0-1.85-0.83-1.85-1.85c0-1.02,0.83-1.85,1.85-1.85c1.02,0,1.85,0.83,1.85,1.85
					C265.282,470.365,264.452,471.194,263.432,471.194z M268.17,470.286c-0.75,0-1.36-0.61-1.36-1.36s0.61-1.361,1.36-1.361
					c0.75,0,1.361,0.61,1.361,1.361S268.92,470.286,268.17,470.286z"/>
			</g>
			<path id="XMLID_336_" style="fill:#A5B7C6;" d="M281.595,466.547c-0.295-0.116-0.806-0.309-1.382-0.237
				c-0.551,0.069-0.844,0.341-0.844,1.007v0.866h2.228v1.717h-2.228v5.455h-1.932v-5.455h-1.34v-1.717h1.34v-0.888
				c0-1.68,0.896-2.783,2.568-2.783c0.642,0,1.157,0.122,1.59,0.308L281.595,466.547z"/>
			<path id="XMLID_334_" style="fill:#A5B7C6;" d="M286.298,469.879c-0.177-0.03-0.358-0.046-0.526-0.046
				c-0.896,0-1.51,0.548-1.51,1.614v3.908h-1.932v-7.172h1.873v0.785c0.451-0.673,1.14-0.977,2.021-0.977
				c0.414,0,0.848,0.128,1.094,0.337L286.298,469.879z"/>
			<path id="XMLID_331_" style="fill:#A5B7C6;" d="M293.965,471.757c0,0.222-0.015,0.489-0.037,0.651h-5.085
				c0.207,1.036,0.933,1.488,1.843,1.488c0.622,0,1.295-0.252,1.813-0.688l1.132,1.243c-0.814,0.748-1.85,1.088-3.057,1.088
				c-2.198,0-3.723-1.495-3.723-3.753c0-2.258,1.48-3.797,3.627-3.797C292.544,467.99,293.958,469.522,293.965,471.757z
				 M288.851,471.091h3.175c-0.177-0.918-0.733-1.436-1.562-1.436C289.554,469.655,289.021,470.203,288.851,471.091z"/>
			<path id="XMLID_328_" style="fill:#A5B7C6;" d="M301.618,471.757c0,0.222-0.015,0.489-0.037,0.651h-5.085
				c0.207,1.036,0.932,1.488,1.843,1.488c0.622,0,1.295-0.252,1.813-0.688l1.132,1.243c-0.814,0.748-1.85,1.088-3.057,1.088
				c-2.198,0-3.723-1.495-3.723-3.753c0-2.258,1.48-3.797,3.627-3.797C300.197,467.99,301.611,469.522,301.618,471.757z
				 M296.504,471.091h3.175c-0.178-0.918-0.733-1.436-1.562-1.436C297.207,469.655,296.674,470.203,296.504,471.091z"/>
			<path id="XMLID_325_" style="fill:#A5B7C6;" d="M309.964,471.764c0,2.154-1.495,3.775-3.471,3.775
				c-0.962,0-1.643-0.378-2.109-0.933v3.708h-1.924v-10.133h1.887v0.792c0.466-0.585,1.155-0.984,2.139-0.984
				C308.469,467.99,309.964,469.61,309.964,471.764z M304.287,471.764c0,1.132,0.747,1.976,1.843,1.976
				c1.14,0,1.85-0.881,1.85-1.976c0-1.095-0.71-1.976-1.85-1.976C305.035,469.788,304.287,470.632,304.287,471.764z"/>
			<path id="XMLID_322_" style="fill:#A5B7C6;" d="M313.068,465.836c0,0.696-0.54,1.229-1.236,1.229
				c-0.696,0-1.229-0.533-1.229-1.229c0-0.696,0.533-1.243,1.229-1.243C312.527,464.592,313.068,465.14,313.068,465.836z
				 M312.809,475.354h-1.932v-7.172h1.932V475.354z"/>
			<path id="XMLID_320_" style="fill:#A5B7C6;" d="M316.032,470.736l2.702-2.554h2.368l-3.479,3.375l3.501,3.797h-2.376
				l-2.716-2.901v2.901H314.1v-10.658h1.932V470.736z"/>
		</g>
		<g>
			<path style="fill:#A5B7C6;" d="M184.412,475.289v-1.055c-0.527,0.718-1.391,1.23-2.387,1.23c-1.846,0-3.149-1.406-3.149-3.706
				c0-2.256,1.289-3.721,3.149-3.721c0.952,0,1.816,0.469,2.387,1.245v-3.765h1.099v9.77H184.412z M184.412,473.37v-3.208
				c-0.395-0.615-1.245-1.143-2.124-1.143c-1.421,0-2.27,1.172-2.27,2.739c0,1.567,0.85,2.724,2.27,2.724
				C183.168,474.483,184.017,473.986,184.412,473.37z"/>
			<path style="fill:#A5B7C6;" d="M186.932,471.744c0-2.051,1.465-3.706,3.486-3.706c2.139,0,3.398,1.67,3.398,3.794v0.279h-5.727
				c0.088,1.333,1.025,2.446,2.549,2.446c0.805,0,1.626-0.322,2.182-0.894l0.527,0.718c-0.703,0.703-1.655,1.084-2.812,1.084
				C188.44,475.465,186.932,473.956,186.932,471.744z M190.403,468.947c-1.509,0-2.256,1.274-2.314,2.358h4.643
				C192.718,470.25,192.015,468.947,190.403,468.947z"/>
			<path style="fill:#A5B7C6;" d="M194.607,474.351l0.571-0.791c0.469,0.542,1.362,1.011,2.329,1.011c1.084,0,1.67-0.513,1.67-1.216
				c0-1.714-4.38-0.659-4.38-3.281c0-1.098,0.952-2.036,2.636-2.036c1.201,0,2.051,0.454,2.622,1.026l-0.513,0.762
				c-0.424-0.513-1.201-0.894-2.109-0.894c-0.967,0-1.567,0.483-1.567,1.113c0,1.552,4.38,0.527,4.38,3.281
				c0,1.187-0.952,2.138-2.783,2.138C196.306,475.465,195.325,475.113,194.607,474.351z"/>
			<path style="fill:#A5B7C6;" d="M201.477,466.471c0-0.41,0.337-0.747,0.732-0.747c0.41,0,0.747,0.337,0.747,0.747
				c0,0.41-0.337,0.732-0.747,0.732C201.814,467.203,201.477,466.881,201.477,466.471z M201.667,475.289v-7.075h1.099v7.075H201.667
				z"/>
			<path style="fill:#A5B7C6;" d="M204.582,477.105l0.556-0.82c0.586,0.703,1.289,0.967,2.3,0.967c1.172,0,2.27-0.571,2.27-2.124
				v-1.011c-0.513,0.718-1.377,1.26-2.373,1.26c-1.845,0-3.149-1.377-3.149-3.662c0-2.27,1.289-3.677,3.149-3.677
				c0.952,0,1.802,0.469,2.373,1.245v-1.069h1.098v6.87c0,2.344-1.641,3.076-3.369,3.076
				C206.237,478.16,205.417,477.926,204.582,477.105z M209.709,473.253v-3.091c-0.381-0.615-1.23-1.143-2.109-1.143
				c-1.421,0-2.27,1.128-2.27,2.695c0,1.553,0.849,2.695,2.27,2.695C208.478,474.41,209.328,473.868,209.709,473.253z"/>
			<path style="fill:#A5B7C6;" d="M217.413,475.289v-4.629c0-1.245-0.63-1.641-1.582-1.641c-0.865,0-1.685,0.527-2.095,1.099v5.17
				h-1.099v-7.075h1.099v1.025c0.498-0.586,1.464-1.201,2.519-1.201c1.48,0,2.256,0.747,2.256,2.285v4.966H217.413z"/>
			<path style="fill:#A5B7C6;" d="M219.932,471.744c0-2.051,1.465-3.706,3.486-3.706c2.139,0,3.398,1.67,3.398,3.794v0.279h-5.727
				c0.088,1.333,1.025,2.446,2.549,2.446c0.806,0,1.626-0.322,2.183-0.894l0.527,0.718c-0.703,0.703-1.655,1.084-2.812,1.084
				C221.441,475.465,219.932,473.956,219.932,471.744z M223.404,468.947c-1.509,0-2.256,1.274-2.314,2.358h4.643
				C225.718,470.25,225.015,468.947,223.404,468.947z"/>
			<path style="fill:#A5B7C6;" d="M233.35,475.289v-1.055c-0.527,0.718-1.392,1.23-2.388,1.23c-1.846,0-3.149-1.406-3.149-3.706
				c0-2.256,1.289-3.721,3.149-3.721c0.952,0,1.817,0.469,2.388,1.245v-3.765h1.098v9.77H233.35z M233.35,473.37v-3.208
				c-0.396-0.615-1.245-1.143-2.124-1.143c-1.421,0-2.27,1.172-2.27,2.739c0,1.567,0.849,2.724,2.27,2.724
				C232.105,474.483,232.954,473.986,233.35,473.37z"/>
			<path style="fill:#A5B7C6;" d="M239.692,475.289v-9.77h1.098v3.765c0.572-0.776,1.421-1.245,2.388-1.245
				c1.845,0,3.149,1.465,3.149,3.721c0,2.299-1.304,3.706-3.149,3.706c-0.996,0-1.86-0.513-2.388-1.23v1.055H239.692z
				 M242.9,474.483c1.436,0,2.285-1.157,2.285-2.724c0-1.568-0.85-2.739-2.285-2.739c-0.864,0-1.728,0.527-2.109,1.143v3.208
				C241.171,473.986,242.036,474.483,242.9,474.483z"/>
			<path style="fill:#A5B7C6;" d="M247.528,477.061c0.161,0.073,0.425,0.117,0.601,0.117c0.483,0,0.805-0.161,1.055-0.747
				l0.469-1.069l-2.959-7.148h1.187l2.358,5.8l2.344-5.8h1.201l-3.545,8.51c-0.425,1.025-1.143,1.421-2.08,1.435
				c-0.234,0-0.601-0.044-0.805-0.103L247.528,477.061z"/>
		</g>
	</g>
</g>
</svg>
