<?xml version="1.0" encoding="utf-8"?>
<!-- Generator: Adobe Illustrator 27.5.0, SVG Export Plug-In . SVG Version: 6.00 Build 0)  -->
<svg version="1.1" xmlns="http://www.w3.org/2000/svg" xmlns:xlink="http://www.w3.org/1999/xlink" x="0px" y="0px"
	 viewBox="0 0 500 500" style="enable-background:new 0 0 500 500;" xml:space="preserve">
<g id="Background_Simple">
	<g>
		<path style="fill:#92E3A9;" d="M430.734,186.503c-2.681-8.535-6.009-16.868-10.323-24.883
			c-21.763-40.442-59.924-70.944-101.665-88.968c-33.133-14.307-74.121-21.789-109.28-8.9c-17.777,6.516-34.512,19.028-44.046,35.65
			c-12.45,21.706-11.248,48.641-21.113,71.453c-7.994,18.487-27.88,29.597-43.462,40.95c-24.309,17.712-48.251,38.669-56.681,68.64
			c-11.248,39.992-7.919,87.551,14.869,123.089c16.995,26.503,46.099,34.466,76.128,35.013c28.341,0.516,62.974-6.645,89.447,6.284
			c45.062,22.006,104.523,46.704,154.938,29.288c51.961-17.95,77.469-52.905,85.027-98.253
			c7.558-45.348-13.226-83.137-19.841-119.043C440.557,234.152,437.833,209.101,430.734,186.503z"/>
		<path style="opacity:0.8;fill:#FFFFFF;" d="M430.734,186.503c-2.681-8.535-6.009-16.868-10.323-24.883
			c-21.763-40.442-59.924-70.944-101.665-88.968c-33.133-14.307-74.121-21.789-109.28-8.9c-17.777,6.516-34.512,19.028-44.046,35.65
			c-12.45,21.706-11.248,48.641-21.113,71.453c-7.994,18.487-27.88,29.597-43.462,40.95c-24.309,17.712-48.251,38.669-56.681,68.64
			c-11.248,39.992-7.919,87.551,14.869,123.089c16.995,26.503,46.099,34.466,76.128,35.013c28.341,0.516,62.974-6.645,89.447,6.284
			c45.062,22.006,104.523,46.704,154.938,29.288c51.961-17.95,77.469-52.905,85.027-98.253
			c7.558-45.348-13.226-83.137-19.841-119.043C440.557,234.152,437.833,209.101,430.734,186.503z"/>
	</g>
</g>
<g id="Picture">
	<g>
		<g>
			<g>
				<polygon style="opacity:0.2;" points="56.142,140.961 38.797,150.356 53.251,193.718 46.024,202.39 51.083,209.617 
					200.645,158.931 77.101,133.011 				"/>
				<polygon style="fill:#263238;stroke:#263238;stroke-linecap:round;stroke-linejoin:round;stroke-miterlimit:10;" points="
					79.408,84.855 52.089,145.081 55.193,148.185 82.512,87.339 				"/>
				<polygon style="fill:#9E9E9E;stroke:#263238;stroke-linecap:round;stroke-linejoin:round;stroke-miterlimit:10;" points="
					55.193,148.185 106.912,131.829 82.512,87.339 				"/>
			</g>
			<polygon style="fill:#9E9E9E;stroke:#263238;stroke-linecap:round;stroke-linejoin:round;stroke-miterlimit:10;" points="
				170.939,30.434 91.666,188.572 61.295,53.987 165.412,27.67 			"/>
			<polygon style="fill:#9E9E9E;stroke:#263238;stroke-linecap:round;stroke-linejoin:round;stroke-miterlimit:10;" points="
				200.645,158.931 97.192,191.335 66.821,56.751 170.939,30.434 			"/>
			<polygon style="fill:#FFFFFF;stroke:#263238;stroke-linecap:round;stroke-linejoin:round;stroke-miterlimit:10;" points="
				192.601,153.155 101.585,181.663 74.866,63.259 166.466,40.106 			"/>
			<polygon style="fill:#263238;stroke:#263238;stroke-linecap:round;stroke-linejoin:round;stroke-miterlimit:10;" points="
				66.821,56.751 61.295,53.987 91.666,188.572 97.192,191.335 			"/>
		</g>
		<g>
			<path style="fill:#FFFFFF;stroke:#263238;stroke-linecap:round;stroke-linejoin:round;stroke-miterlimit:10;" d="M173.063,68.642
				c-2.474-2.225-5.972-4.225-10.861-4.977c-16.325-2.512-41.324,4.256-44.885,22.951c-2.041,10.714-2.551,17.854-6.631,21.425
				c-4.081,3.57-12.242,6.121-12.752,10.201c-0.51,4.08,7.648,9.179,7.651,9.181c0.383,0.24-1.219,6.933-1.296,7.507
				c-0.579,4.314-1.836,8.705-1.424,13.1c0.538,5.748,4.104,11.297,9.432,13.681c4.22,1.888,8.879,1.23,13.064,3.014
				c1.063,0.454,6.969,7.308,6.122,7.574c0,0,61.119-19.144,61.119-19.144L173.063,68.642z"/>
			<g>
				<path style="fill:#263238;stroke:#263238;stroke-linecap:round;stroke-linejoin:round;stroke-miterlimit:10;" d="
					M144.911,52.569c0,0-4.804-3.361-10.9-4.26l-12.889,3.258c-8.095,6.916,3.484,17.842,0.506,19.629
					c-3.104,1.863-16.453-7.451-25.456,5.898c-9.003,13.349,5.588,22.662,13.66,24.215c8.072,1.552,16.764-10.245,24.215-6.209
					c7.451,4.036-0.931,13.349,0.31,20.489c1.242,7.14,14.28,8.692,15.833,18.316c1.552,9.624-9.624,1.552-18.937,13.349
					c-9.313,11.797-2.173,25.767-2.173,25.767l63.522-19.866l-22.854-97.482C169.746,55.672,162.295,47.602,144.911,52.569z"/>
				<path style="fill:none;stroke:#FFFFFF;stroke-linecap:round;stroke-linejoin:round;stroke-miterlimit:10;" d="M153.718,159.782
					c-0.177,0.691-0.307,1.444-0.385,2.265"/>
				<path style="fill:none;stroke:#FFFFFF;stroke-linecap:round;stroke-linejoin:round;stroke-miterlimit:10;" d="M155.968,88.125
					c5.111,5.659,3.145,12.135-1.752,18.836c-5.597,7.659,1.473,12.667,13.845,17.38c12.372,4.713,14.14,18.558,6.775,23.566
					c-6.016,4.091-15.767,2.678-19.778,8.767"/>
				<path style="fill:none;stroke:#FFFFFF;stroke-linecap:round;stroke-linejoin:round;stroke-miterlimit:10;" d="M129.177,85.457
					c0,0,15.907-5.891,24.155,0.295c0.397,0.298,0.771,0.598,1.122,0.902"/>
				<path style="fill:none;stroke:#FFFFFF;stroke-linecap:round;stroke-linejoin:round;stroke-miterlimit:10;" d="M170.186,77.435
					c1.53,1.379,2.294,2.426,2.294,2.426"/>
				<path style="fill:none;stroke:#FFFFFF;stroke-linecap:round;stroke-linejoin:round;stroke-miterlimit:10;" d="M157.515,71.279
					c5.011,0.881,8.763,3.042,11.257,4.975"/>
				<path style="fill:none;stroke:#FFFFFF;stroke-linecap:round;stroke-linejoin:round;stroke-miterlimit:10;" d="M135.363,74.264
					c0,0,9.132-4.419,20.326-3.24"/>
				<path style="fill:none;stroke:#FFFFFF;stroke-linecap:round;stroke-linejoin:round;stroke-miterlimit:10;" d="M119.162,89.582
					c0,0-4.419,2.062-10.605,1.767c-6.186-0.295-9.721-6.775-3.535-8.248c6.186-1.473,11.194,2.946,7.07,4.713
					c-4.124,1.767-6.481-1.767-5.302-1.767"/>
			</g>
			<path style="fill:#FFFFFF;stroke:#263238;stroke-linecap:round;stroke-linejoin:round;stroke-miterlimit:10;" d="M118.377,135.69
				c0.523-0.236,1.059-0.51,1.608-0.826"/>
			<path style="fill:#FFFFFF;stroke:#263238;stroke-linecap:round;stroke-linejoin:round;stroke-miterlimit:10;" d="
				M107.553,135.753c0,0,3.504,2.285,8.871,0.672"/>
			<path style="fill:#263238;stroke:#263238;stroke-linecap:round;stroke-linejoin:round;stroke-miterlimit:10;" d="
				M120.023,109.508c-0.218,0.356-0.409,0.764-0.555,1.212c-0.571,1.752-0.253,3.426,0.71,3.74c0.963,0.314,2.207-0.851,2.779-2.603
				c0.22-0.675,0.61-0.612,0.58-1.191L120.023,109.508z"/>
			<path style="fill:#FFFFFF;stroke:#263238;stroke-linecap:round;stroke-linejoin:round;stroke-miterlimit:10;" d="M117.321,103.34
				c0,0,1.332-2.442,5.106-1.554c3.774,0.888,3.33,5.994,3.33,5.994"/>
			<polyline style="fill:#FFFFFF;stroke:#263238;stroke-linecap:round;stroke-linejoin:round;stroke-miterlimit:10;" points="
				119.541,105.782 117.987,108.224 124.203,110.888 			"/>
		</g>
	</g>
</g>
<g id="Plant">
	<g>
		<path style="opacity:0.2;" d="M385.889,129.064c-13.398,0-25.423,5.109-33.669,13.207l4.235-18.978l-9.234,5.194
			c0,0-5.194,1.731-10.388,6.349c-5.194,4.617-7.503,12.697-7.503,12.697l16.737-7.503c0,0-17.314,16.16-17.314,20.777
			s-1.154,14.428-1.154,14.428l13.341-9.044c-0.043,0.702-0.067,1.408-0.067,2.119c0,5.268,1.199,10.289,3.358,14.878
			c-1.357,2.564-2.781,6.037-2.781,9.361c0,6.348,1.732,10.388,1.732,10.388l8.549-9.083c0.602,0.612,1.224,1.207,1.868,1.785
			l3.434,7.298l5.194,6.348l1.154-6.348l-0.708-1.001c6.779,3.565,14.722,5.618,23.217,5.618c24.862,0,45.016-17.571,45.016-39.245
			C430.905,146.635,410.75,129.064,385.889,129.064z"/>
		<g>
			<path style="fill:#9E9E9E;stroke:#263238;stroke-linecap:round;stroke-linejoin:round;stroke-miterlimit:10;" d="
				M411.928,130.806c-6.746-5.435-15.317-8.695-24.654-8.695c-9.337,0-17.909,3.26-24.654,8.695h-14.679v30.638
				c0,21.723,17.61,39.333,39.333,39.333c21.723,0,39.333-17.61,39.333-39.333v-30.638H411.928z"/>
			
				<circle style="fill:#BDBDBD;stroke:#263238;stroke-linecap:round;stroke-linejoin:round;stroke-miterlimit:10;" cx="387.274" cy="130.806" r="39.333"/>
			
				<circle style="fill:#9E9E9E;stroke:#263238;stroke-linecap:round;stroke-linejoin:round;stroke-miterlimit:10;" cx="387.274" cy="130.806" r="35.825"/>
			
				<ellipse style="fill:#5C5C5C;stroke:#263238;stroke-linecap:round;stroke-linejoin:round;stroke-miterlimit:10;" cx="387.274" cy="133.917" rx="33.881" ry="32.714"/>
			
				<line style="fill:none;stroke:#263238;stroke-width:2;stroke-linecap:round;stroke-linejoin:round;stroke-miterlimit:10;" x1="385.464" y1="129.211" x2="385.464" y2="64.579"/>
			<path style="fill:none;stroke:#263238;stroke-width:2;stroke-linecap:round;stroke-linejoin:round;stroke-miterlimit:10;" d="
				M384.921,118.351c0,0-28.236,10.317-36.924,36.381"/>
			<path style="fill:none;stroke:#263238;stroke-width:2;stroke-linecap:round;stroke-linejoin:round;stroke-miterlimit:10;" d="
				M384.921,84.813c0,0-11.946-14.118-36.381-17.919"/>
			<g>
				<path style="fill:#92E3A9;stroke:#263238;stroke-miterlimit:10;" d="M356.061,139.623c0,0-17.421-4.355-24.457,3.35
					c-7.035,7.705-5.025,19.096-5.025,19.096s1.675-1.675,10.721-6.365C346.345,151.014,356.061,139.623,356.061,139.623z"/>
				<path style="fill:#92E3A9;stroke:#263238;stroke-miterlimit:10;" d="M356.061,139.623c0,0-11.391,1.675-21.106,11.056"/>
			</g>
			<g>
				<path style="fill:#92E3A9;stroke:#263238;stroke-miterlimit:10;" d="M348.988,153.233c0,0-16.519,7.042-17.478,17.431
					c-0.959,10.39,7.518,18.259,7.518,18.259s0.325-2.347,4.706-11.546C348.116,168.179,348.988,153.233,348.988,153.233z"/>
				<path style="fill:#92E3A9;stroke:#263238;stroke-miterlimit:10;" d="M348.988,153.233c0,0-8.071,8.21-10.156,21.553"/>
			</g>
			<g>
				<path style="fill:#92E3A9;stroke:#263238;stroke-miterlimit:10;" d="M363.931,131.122c0,0,16.519,7.041,17.478,17.432
					c0.959,10.39-7.518,18.259-7.518,18.259s-0.325-2.347-4.706-11.546C364.803,146.068,363.931,131.122,363.931,131.122z"/>
				<path style="fill:#92E3A9;stroke:#263238;stroke-miterlimit:10;" d="M363.931,131.122c0,0,8.071,8.21,10.157,21.553"/>
			</g>
			<g>
				<path style="fill:#92E3A9;stroke:#263238;stroke-miterlimit:10;" d="M385.038,118.391c0,0,16.519,7.042,17.478,17.431
					c0.959,10.39-7.518,18.259-7.518,18.259s-0.325-2.347-4.706-11.546C385.91,133.337,385.038,118.391,385.038,118.391z"/>
				<path style="fill:#92E3A9;stroke:#263238;stroke-miterlimit:10;" d="M385.038,118.391c0,0,8.071,8.21,10.156,21.553"/>
			</g>
			<g>
				<path style="fill:#92E3A9;stroke:#263238;stroke-miterlimit:10;" d="M364.985,129.828c0,0-10.745-14.388-21.067-12.865
					c-10.323,1.523-15.966,11.619-15.966,11.619s2.357-0.239,12.331,1.846C350.257,132.512,364.985,129.828,364.985,129.828z"/>
				<path style="fill:#92E3A9;stroke:#263238;stroke-miterlimit:10;" d="M364.985,129.828c0,0-9.885-5.903-23.343-4.777"/>
			</g>
			<path style="fill:none;stroke:#263238;stroke-width:2;stroke-linecap:round;stroke-linejoin:round;stroke-miterlimit:10;" d="
				M385.277,112.034c0,0,28.236,10.317,36.924,36.381"/>
			<g>
				<path style="fill:#92E3A9;stroke:#263238;stroke-miterlimit:10;" d="M414.137,133.306c0,0,17.421-4.355,24.457,3.35
					c7.035,7.705,5.025,19.096,5.025,19.096s-1.675-1.675-10.721-6.365C423.852,144.697,414.137,133.306,414.137,133.306z"/>
				<path style="fill:#92E3A9;stroke:#263238;stroke-miterlimit:10;" d="M414.137,133.306c0,0,11.391,1.675,21.106,11.056"/>
			</g>
			<g>
				<path style="fill:#92E3A9;stroke:#263238;stroke-miterlimit:10;" d="M421.21,146.915c0,0,16.519,7.042,17.478,17.432
					c0.959,10.39-7.518,18.259-7.518,18.259s-0.325-2.347-4.706-11.546C422.081,161.861,421.21,146.915,421.21,146.915z"/>
				<path style="fill:#92E3A9;stroke:#263238;stroke-miterlimit:10;" d="M421.21,146.915c0,0,8.071,8.21,10.156,21.553"/>
			</g>
			<g>
				<path style="fill:#92E3A9;stroke:#263238;stroke-miterlimit:10;" d="M406.266,124.804c0,0-16.519,7.042-17.478,17.432
					c-0.959,10.39,7.518,18.259,7.518,18.259s0.325-2.347,4.706-11.546C405.394,139.75,406.266,124.804,406.266,124.804z"/>
				<path style="fill:#92E3A9;stroke:#263238;stroke-miterlimit:10;" d="M406.266,124.804c0,0-8.071,8.21-10.156,21.553"/>
			</g>
			<g>
				<path style="fill:#92E3A9;stroke:#263238;stroke-miterlimit:10;" d="M405.212,123.511c0,0,10.745-14.388,21.067-12.865
					c10.322,1.523,15.966,11.619,15.966,11.619s-2.357-0.239-12.331,1.846C419.941,126.194,405.212,123.511,405.212,123.511z"/>
				<path style="fill:#92E3A9;stroke:#263238;stroke-miterlimit:10;" d="M405.212,123.511c0,0,9.885-5.903,23.343-4.777"/>
			</g>
			<g>
				<path style="fill:#92E3A9;stroke:#263238;stroke-miterlimit:10;" d="M385.087,118.103c0,0-10.745-14.388-21.067-12.865
					c-10.323,1.523-15.966,11.619-15.966,11.619s2.357-0.239,12.331,1.845C370.358,120.786,385.087,118.103,385.087,118.103z"/>
				<path style="fill:#92E3A9;stroke:#263238;stroke-miterlimit:10;" d="M385.087,118.103c0,0-9.885-5.903-23.343-4.777"/>
			</g>
			<g>
				<path style="fill:#92E3A9;stroke:#263238;stroke-miterlimit:10;" d="M384.506,83.808c0,0-17.954-0.328-23.078,8.762
					c-5.123,9.09-0.604,19.737-0.604,19.737s1.256-2.009,9.016-8.612S384.506,83.808,384.506,83.808z"/>
				<path style="fill:#92E3A9;stroke:#263238;stroke-miterlimit:10;" d="M384.506,83.808c0,0-10.723,4.193-18.081,15.517"/>
			</g>
			<g>
				<path style="fill:#92E3A9;stroke:#263238;stroke-miterlimit:10;" d="M359.946,68.92c0,0-13.091-12.292-22.989-8.991
					c-9.898,3.301-13.693,14.227-13.693,14.227s2.279-0.647,12.464-0.335C345.911,74.133,359.946,68.92,359.946,68.92z"/>
				<path style="fill:#92E3A9;stroke:#263238;stroke-miterlimit:10;" d="M359.946,68.92c0,0-10.763-4.088-23.818-0.63"/>
			</g>
			<g>
				<path style="fill:#92E3A9;stroke:#263238;stroke-miterlimit:10;" d="M368.758,73.695c0,0-17.93-0.983-23.382,7.914
					c-5.452,8.897-1.324,19.702-1.324,19.702s1.328-1.962,9.324-8.278C361.371,86.717,368.758,73.695,368.758,73.695z"/>
				<path style="fill:#92E3A9;stroke:#263238;stroke-miterlimit:10;" d="M368.758,73.695c0,0-10.868,3.799-18.635,14.847"/>
			</g>
			<g>
				<path style="fill:#92E3A9;stroke:#263238;stroke-miterlimit:10;" d="M373.216,74.811c0,0,3.826-17.545-4.089-24.344
					c-7.915-6.799-19.24-4.445-19.24-4.445s1.725,1.624,6.687,10.523C361.536,65.445,373.216,74.811,373.216,74.811z"/>
				<path style="fill:#92E3A9;stroke:#263238;stroke-miterlimit:10;" d="M373.216,74.811c0,0-2.019-11.335-11.689-20.762"/>
			</g>
			<path style="fill:none;stroke:#263238;stroke-width:2;stroke-linecap:round;stroke-linejoin:round;stroke-miterlimit:10;" d="
				M385.912,104.914c0,0,11.946-14.118,36.381-17.919"/>
			<g>
				<path style="fill:#92E3A9;stroke:#263238;stroke-miterlimit:10;" d="M386.327,103.909c0,0,17.954-0.328,23.078,8.762
					c5.123,9.09,0.604,19.737,0.604,19.737s-1.256-2.009-9.016-8.612C393.234,117.192,386.327,103.909,386.327,103.909z"/>
				<path style="fill:#92E3A9;stroke:#263238;stroke-miterlimit:10;" d="M386.327,103.909c0,0,10.723,4.193,18.081,15.517"/>
			</g>
			<g>
				<path style="fill:#92E3A9;stroke:#263238;stroke-miterlimit:10;" d="M410.887,89.021c0,0,13.091-12.292,22.989-8.992
					c9.898,3.301,13.693,14.227,13.693,14.227s-2.279-0.647-12.463-0.335C424.922,94.234,410.887,89.021,410.887,89.021z"/>
				<path style="fill:#92E3A9;stroke:#263238;stroke-miterlimit:10;" d="M410.887,89.021c0,0,10.763-4.088,23.818-0.63"/>
			</g>
			<g>
				<path style="fill:#92E3A9;stroke:#263238;stroke-miterlimit:10;" d="M402.075,93.796c0,0,17.93-0.983,23.382,7.914
					c5.451,8.897,1.324,19.702,1.324,19.702s-1.328-1.962-9.324-8.278C409.462,106.818,402.075,93.796,402.075,93.796z"/>
				<path style="fill:#92E3A9;stroke:#263238;stroke-miterlimit:10;" d="M402.075,93.796c0,0,10.868,3.799,18.635,14.847"/>
			</g>
			<g>
				<path style="fill:#92E3A9;stroke:#263238;stroke-miterlimit:10;" d="M397.617,94.912c0,0-3.826-17.545,4.089-24.344
					c7.915-6.799,19.24-4.445,19.24-4.445s-1.725,1.624-6.687,10.523C409.297,85.546,397.617,94.912,397.617,94.912z"/>
				<path style="fill:#92E3A9;stroke:#263238;stroke-miterlimit:10;" d="M397.617,94.912c0,0,2.019-11.335,11.689-20.762"/>
			</g>
			<path style="fill:none;stroke:#263238;stroke-width:2;stroke-linecap:round;stroke-linejoin:round;stroke-miterlimit:10;" d="
				M385.242,69.737c0,0,11.946-14.118,36.381-17.919"/>
			<g>
				<path style="fill:#92E3A9;stroke:#263238;stroke-miterlimit:10;" d="M385.657,68.732c0,0,17.954-0.328,23.077,8.762
					c5.123,9.09,0.604,19.737,0.604,19.737s-1.256-2.009-9.015-8.612C392.564,82.015,385.657,68.732,385.657,68.732z"/>
				<path style="fill:#92E3A9;stroke:#263238;stroke-miterlimit:10;" d="M385.657,68.732c0,0,10.723,4.193,18.081,15.517"/>
			</g>
			<g>
				<path style="fill:#92E3A9;stroke:#263238;stroke-miterlimit:10;" d="M386.046,68.184c0,0-10.841-14.315-6.514-23.81
					c4.327-9.495,15.593-12.115,15.593-12.115s-0.883,2.198-1.648,12.358C392.711,54.778,386.046,68.184,386.046,68.184z"/>
				<path style="fill:#92E3A9;stroke:#263238;stroke-miterlimit:10;" d="M386.046,68.184c0,0-2.928-11.134,1.888-23.752"/>
			</g>
			<g>
				<path style="fill:#92E3A9;stroke:#263238;stroke-miterlimit:10;" d="M410.217,53.844c0,0,13.091-12.292,22.989-8.992
					c9.898,3.301,13.693,14.227,13.693,14.227s-2.279-0.647-12.463-0.335C424.252,59.057,410.217,53.844,410.217,53.844z"/>
				<path style="fill:#92E3A9;stroke:#263238;stroke-miterlimit:10;" d="M410.217,53.844c0,0,10.763-4.088,23.818-0.63"/>
			</g>
			<g>
				<path style="fill:#92E3A9;stroke:#263238;stroke-miterlimit:10;" d="M401.405,58.619c0,0,17.93-0.983,23.382,7.914
					c5.452,8.897,1.324,19.702,1.324,19.702s-1.328-1.962-9.324-8.278C408.792,71.641,401.405,58.619,401.405,58.619z"/>
				<path style="fill:#92E3A9;stroke:#263238;stroke-miterlimit:10;" d="M401.405,58.619c0,0,10.868,3.799,18.635,14.847"/>
			</g>
			<g>
				<path style="fill:#92E3A9;stroke:#263238;stroke-miterlimit:10;" d="M396.947,59.735c0,0-3.826-17.545,4.089-24.344
					c7.915-6.799,19.239-4.445,19.239-4.445s-1.725,1.624-6.687,10.523C408.627,50.369,396.947,59.735,396.947,59.735z"/>
				<path style="fill:#92E3A9;stroke:#263238;stroke-miterlimit:10;" d="M396.947,59.735c0,0,2.019-11.335,11.689-20.762"/>
			</g>
			<g>
				<path style="fill:#92E3A9;stroke:#263238;stroke-miterlimit:10;" d="M384.836,86.437c0,0,7.888-16.132,1.816-24.618
					c-6.071-8.486-17.631-8.892-17.631-8.892s1.29,1.987,3.993,11.811C375.719,74.562,384.836,86.437,384.836,86.437z"/>
				<path style="fill:#92E3A9;stroke:#263238;stroke-miterlimit:10;" d="M384.836,86.437c0,0,0.734-11.49-6.418-22.946"/>
			</g>
		</g>
	</g>
</g>
<g id="Device">
	<g>
		<path style="opacity:0.2;" d="M403.894,357.152l-48.407-19.964c-3.918-1.616-5.785-6.102-4.169-10.021l42.911-104.048
			c1.616-3.918,6.102-5.785,10.021-4.169l48.407,19.964c3.918,1.616,5.785,6.102,4.169,10.021l-42.911,104.048
			C412.299,356.901,407.812,358.767,403.894,357.152z"/>
		<path style="fill:#FFFFFF;stroke:#263238;stroke-linecap:round;stroke-linejoin:round;stroke-miterlimit:10;" d="M406.137,357.152
			l-48.407-19.964c-3.918-1.616-5.785-6.102-4.169-10.021l42.911-104.048c1.616-3.918,6.102-5.785,10.021-4.169l48.407,19.964
			c3.918,1.616,5.785,6.102,4.169,10.021l-42.911,104.048C414.542,356.901,410.055,358.767,406.137,357.152z"/>
		
			<rect id="XMLID_2_" x="375.469" y="238.145" transform="matrix(0.9245 0.3813 -0.3813 0.9245 140.5154 -133.1567)" style="fill:#263238;stroke:#263238;stroke-linecap:round;stroke-linejoin:round;stroke-miterlimit:10;" width="61.692" height="99.811"/>
		<g>
			
				<line style="fill:none;stroke:#8A8A8A;stroke-linecap:round;stroke-linejoin:round;stroke-miterlimit:10;" x1="387.042" y1="301.686" x2="372.05" y2="306.249"/>
			
				<line style="fill:none;stroke:#8A8A8A;stroke-linecap:round;stroke-linejoin:round;stroke-miterlimit:10;" x1="439.015" y1="285.868" x2="391.629" y2="300.289"/>
			
				<line style="fill:none;stroke:#8A8A8A;stroke-linecap:round;stroke-linejoin:round;stroke-miterlimit:10;" x1="411.245" y1="289.196" x2="414.558" y2="288.197"/>
			
				<line style="fill:none;stroke:#8A8A8A;stroke-linecap:round;stroke-linejoin:round;stroke-miterlimit:10;" x1="377.873" y1="299.261" x2="407.187" y2="290.42"/>
		</g>
		<path style="fill:#263238;" d="M434.206,238.014l-12.4-5.114c-0.467-0.193-0.689-0.727-0.497-1.194l0,0
			c0.193-0.467,0.727-0.689,1.194-0.497l12.4,5.114c0.467,0.192,0.689,0.727,0.497,1.194l0,0
			C435.207,237.984,434.673,238.206,434.206,238.014z"/>
		<path style="fill:#FFFFFF;stroke:#263238;stroke-width:0.7043;stroke-miterlimit:10;" d="M388.521,340.791
			c0.77-1.868-0.119-4.006-1.987-4.776c-1.867-0.77-4.006,0.119-4.776,1.987c-0.77,1.868,0.119,4.006,1.987,4.776
			C385.612,343.549,387.751,342.659,388.521,340.791z"/>
		
			<rect x="383.285" y="337.543" transform="matrix(0.9245 0.3813 -0.3813 0.9245 158.4933 -121.2051)" style="fill:#263238;" width="3.708" height="3.708"/>
	</g>
</g>
<g id="Letter">
	<g>
		
			<rect x="157.133" y="176.355" transform="matrix(0.975 -0.2222 0.2222 0.975 -57.4408 59.6416)" style="fill:#92E3A9;stroke:#263238;stroke-miterlimit:10;" width="158.382" height="217.461"/>
		
			<rect x="160.732" y="181.296" transform="matrix(0.975 -0.2222 0.2222 0.975 -57.4408 59.6416)" style="fill:#FFFFFF;stroke:#263238;stroke-linecap:round;stroke-linejoin:round;stroke-miterlimit:10;" width="151.185" height="207.579"/>
		<g>
			
				<line style="fill:none;stroke:#263238;stroke-linecap:round;stroke-linejoin:round;stroke-miterlimit:10;" x1="242.096" y1="195.839" x2="280.923" y2="186.133"/>
			
				<line style="fill:none;stroke:#263238;stroke-linecap:round;stroke-linejoin:round;stroke-miterlimit:10;" x1="157.248" y1="217.051" x2="174.869" y2="212.646"/>
			<g>
				
					<line style="fill:none;stroke:#263238;stroke-linecap:round;stroke-linejoin:round;stroke-miterlimit:10;" x1="285.003" y1="227.902" x2="290.861" y2="226.437"/>
				
					<line style="fill:none;stroke:#263238;stroke-linecap:round;stroke-linejoin:round;stroke-miterlimit:10;" x1="258.283" y1="234.582" x2="281.75" y2="228.715"/>
				
					<line style="fill:none;stroke:#263238;stroke-linecap:round;stroke-linejoin:round;stroke-miterlimit:10;" x1="244.652" y1="237.99" x2="254.41" y2="235.55"/>
				
					<line style="fill:none;stroke:#263238;stroke-linecap:round;stroke-linejoin:round;stroke-miterlimit:10;" x1="217.002" y1="244.902" x2="240.314" y2="239.074"/>
				
					<line style="fill:none;stroke:#263238;stroke-linecap:round;stroke-linejoin:round;stroke-miterlimit:10;" x1="199.188" y1="249.355" x2="212.897" y2="245.928"/>
				
					<line style="fill:none;stroke:#263238;stroke-linecap:round;stroke-linejoin:round;stroke-miterlimit:10;" x1="167.186" y1="257.356" x2="194.851" y2="250.44"/>
				
					<line style="fill:none;stroke:#263238;stroke-linecap:round;stroke-linejoin:round;stroke-miterlimit:10;" x1="275.839" y1="243.582" x2="295.83" y2="238.584"/>
				
					<line style="fill:none;stroke:#263238;stroke-linecap:round;stroke-linejoin:round;stroke-miterlimit:10;" x1="234.403" y1="253.941" x2="271.27" y2="244.724"/>
				
					<line style="fill:none;stroke:#263238;stroke-linecap:round;stroke-linejoin:round;stroke-miterlimit:10;" x1="206.134" y1="261.008" x2="227.742" y2="255.606"/>
				
					<line style="fill:none;stroke:#263238;stroke-linecap:round;stroke-linejoin:round;stroke-miterlimit:10;" x1="172.155" y1="269.503" x2="202.184" y2="261.996"/>
				
					<line style="fill:none;stroke:#263238;stroke-linecap:round;stroke-linejoin:round;stroke-miterlimit:10;" x1="285.205" y1="255.043" x2="298.038" y2="251.835"/>
				
					<line style="fill:none;stroke:#263238;stroke-linecap:round;stroke-linejoin:round;stroke-miterlimit:10;" x1="249.888" y1="263.872" x2="281.178" y2="256.05"/>
				
					<line style="fill:none;stroke:#263238;stroke-linecap:round;stroke-linejoin:round;stroke-miterlimit:10;" x1="241.911" y1="265.867" x2="246.945" y2="264.608"/>
				
					<line style="fill:none;stroke:#263238;stroke-linecap:round;stroke-linejoin:round;stroke-miterlimit:10;" x1="218.133" y1="271.811" x2="238.348" y2="266.757"/>
				
					<line style="fill:none;stroke:#263238;stroke-linecap:round;stroke-linejoin:round;stroke-miterlimit:10;" x1="181.499" y1="280.97" x2="214.958" y2="272.605"/>
				
					<line style="fill:none;stroke:#263238;stroke-linecap:round;stroke-linejoin:round;stroke-miterlimit:10;" x1="174.363" y1="282.754" x2="178.556" y2="281.705"/>
				
					<line style="fill:none;stroke:#263238;stroke-linecap:round;stroke-linejoin:round;stroke-miterlimit:10;" x1="274.027" y1="271.227" x2="300.799" y2="264.534"/>
				
					<line style="fill:none;stroke:#263238;stroke-linecap:round;stroke-linejoin:round;stroke-miterlimit:10;" x1="229.339" y1="282.399" x2="269.225" y2="272.427"/>
				
					<line style="fill:none;stroke:#263238;stroke-linecap:round;stroke-linejoin:round;stroke-miterlimit:10;" x1="218.186" y1="285.187" x2="225.156" y2="283.444"/>
				
					<line style="fill:none;stroke:#263238;stroke-linecap:round;stroke-linejoin:round;stroke-miterlimit:10;" x1="177.124" y1="295.452" x2="212.764" y2="286.542"/>
				
					<line style="fill:none;stroke:#263238;stroke-linecap:round;stroke-linejoin:round;stroke-miterlimit:10;" x1="246.507" y1="291.495" x2="250.556" y2="290.483"/>
				
					<line style="fill:none;stroke:#263238;stroke-linecap:round;stroke-linejoin:round;stroke-miterlimit:10;" x1="213.668" y1="299.705" x2="242.48" y2="292.502"/>
				
					<line style="fill:none;stroke:#263238;stroke-linecap:round;stroke-linejoin:round;stroke-miterlimit:10;" x1="179.885" y1="308.151" x2="209.021" y2="300.867"/>
			</g>
		</g>
	</g>
</g>
<g id="Hand_2">
	<g>
		<path style="opacity:0.2;" d="M347.758,372.22c-1.087-13.046-9.241-42.401-20.113-46.206c-6.73-2.355-23.722,4.81-35.697,10.613
			c0.958-4.432,1.691-8.825,1.691-8.825l-33.343-34.792l0.473,4.511l11.905,31.316c0,0-4.659,5.176-3.623,6.988
			c1.035,1.812,7.764,3.106,7.764,3.106s-2.07,0.518-0.776,3.882c1.294,3.365,4.141,6.729,4.141,6.729s0.136-0.06,0.361-0.16
			c0.583,0.622,1.302,1.278,2.228,1.972c6.523,4.892,7.911,5.101,7.911,5.101s2.718-0.543,3.805,13.59
			c1.087,14.134-3.262,19.026,3.805,27.723c7.067,8.698,59.252,67.95,59.252,67.95S348.846,385.267,347.758,372.22z"/>
		<g>
			<g>
				<path style="fill:#FFFFFF;stroke:#263238;stroke-linecap:round;stroke-linejoin:round;stroke-miterlimit:10;" d="
					M290.167,303.086c0,0-6.404,6.986-11.643,10.479c-5.24,3.493-8.892,8.112-4.075,10.479c2.89,1.42,6.986-0.582,6.986-0.582
					s-6.404,1.746-7.568,7.568c-1.164,5.822,11.643,3.493,11.643,3.493s-9.315,6.404-6.404,8.732
					c2.911,2.329,8.732,0.582,11.643,0.582c2.911,0,17.465-9.315,20.958-9.315c3.493,0,10.479,7.568,10.479,13.39
					c0,5.822,9.315,5.24,10.479-12.808c1.164-18.047-3.493-33.183-11.061-37.841C314.035,292.608,290.167,303.086,290.167,303.086z"
					/>
				<path style="fill:none;stroke:#263238;stroke-linecap:round;stroke-linejoin:round;stroke-miterlimit:10;" d="M286.674,322.88
					l23.235-8.682c0,0,10.197-2.217,17.516,9.846"/>
				<path style="fill:none;stroke:#263238;stroke-linecap:round;stroke-linejoin:round;stroke-miterlimit:10;" d="M290.749,329.866
					l20.958-3.493c0,0,9.315-0.582,15.136,10.479"/>
			</g>
			<path style="fill:#FFFFFF;stroke:#263238;stroke-linecap:round;stroke-linejoin:round;stroke-miterlimit:10;" d="
				M428.695,455.322c-12.806-12.267-66.974-59.395-67.505-62.582c-0.582-3.493-2.911-44.245-2.911-50.066
				c0-5.822-11.643-19.794-11.643-19.794s-4.779-6.852-7.107-18.495c-2.329-11.643-13.022-16.428-18.844-15.846
				c-5.822,0.582-21.786,2.322-28.19,6.979c-6.404,4.657-12.225,10.479-6.401,12.226c9.668,2.896,25.491-9.99,33.125-1.084
				c3.493,4.075,7.623,22.041,8.206,24.369c0,0,0.871,4.047-2.186,6.764c-3.057,2.717-8.875,6.044-8.875,6.044
				s-9.468,2.788-13.545,3.128c-4.076,0.34-4.076,20.042,0.34,25.816c4.416,5.775,10.87,32.61,16.305,39.404
				C324.645,418.661,371,488,371,488"/>
			<g>
				<g>
					<path style="fill:#263238;stroke:#263238;stroke-linecap:round;stroke-linejoin:round;stroke-miterlimit:10;" d="
						M258.019,290.049c0.18-0.192,0.479-0.229,0.702-0.074l2.809,1.263c0.489,0.34,0.61,1.013,0.27,1.502
						c-0.339,0.49-1.013,0.61-1.502,0.27l-2.193-2.149c-0.245-0.17-0.305-0.506-0.135-0.751
						C257.984,290.089,258.001,290.068,258.019,290.049z"/>
				</g>
				<g>
					<path style="fill:#92E3A9;stroke:#263238;stroke-linecap:round;stroke-linejoin:round;stroke-miterlimit:10;" d="
						M260.482,291.648c0.823-0.879,2.189-1.045,3.207-0.337l7.457,3.848l73.236,48.177c2.626,1.825,3.275,5.434,1.449,8.059
						c-1.825,2.63-5.435,3.274-8.059,1.449l-71.081-52.437l-5.818-5.046c-1.119-0.778-1.395-2.315-0.617-3.434
						C260.325,291.828,260.401,291.735,260.482,291.648z"/>
				</g>
				<path style="fill:#263238;stroke:#263238;stroke-linecap:round;stroke-linejoin:round;stroke-miterlimit:10;" d="
					M344.381,343.336l-21.134-13.902c-3.362,1.095-5.773,4.029-5.773,7.486c0,0.343,0.031,0.678,0.077,1.009l20.219,14.916
					c2.625,1.826,6.235,1.181,8.059-1.449C347.656,348.77,347.007,345.161,344.381,343.336z"/>
			</g>
			<g>
				<g>
					<path style="fill:#FFFFFF;stroke:#263238;stroke-linecap:round;stroke-linejoin:round;stroke-miterlimit:10;" d="
						M317.766,409.129c-23.008-26.015-19.169-40.358-22.662-45.016s-5.569-9.035-9.062-19.514
						c-3.493-10.479-5.771-18.809-5.771-27.541c0-8.733,7.503-10.242,13.324-0.928c5.822,9.315,12.873,23.632,12.873,23.632
						s4.657,5.822,13.972,4.075"/>
					<path style="fill:none;stroke:#263238;stroke-linecap:round;stroke-linejoin:round;stroke-miterlimit:10;" d="M306.467,339.763
						c0,0,6.491,6.168,9.533,11.237"/>
					<path style="fill:#FFFFFF;stroke:#263238;stroke-linecap:round;stroke-linejoin:round;stroke-miterlimit:10;" d="
						M287.569,313.411l1.946,3.891c0,0-0.443,0-3.547,1.773c-3.103,1.773-4.533,4.387-4.533,4.387s-3.004-8.377-0.344-11.037
						c0.798-0.798,1.636-1.157,2.418-1.269C285.188,310.916,286.81,311.893,287.569,313.411z"/>
				</g>
				<g>
					<path style="fill:none;stroke:#263238;stroke-linecap:round;stroke-linejoin:round;stroke-miterlimit:10;" d="M295.879,334.6
						c0.304-0.04,0.619-0.077,0.945-0.11"/>
					<path style="fill:none;stroke:#263238;stroke-linecap:round;stroke-linejoin:round;stroke-miterlimit:10;" d="M287.165,339.433
						c0,0,0.531-3.187,6.938-4.531"/>
					<path style="fill:none;stroke:#263238;stroke-linecap:round;stroke-linejoin:round;stroke-miterlimit:10;" d="M294.129,337.186
						c0,0-0.449,1.348-4.942,3.145"/>
					<path style="fill:none;stroke:#263238;stroke-linecap:round;stroke-linejoin:round;stroke-miterlimit:10;" d="M293.941,332.915
						c0,0-3.896,0.584-6.233,2.532"/>
				</g>
			</g>
		</g>
	</g>
</g>
<g id="Hand_1">
	<g>
		<path style="opacity:0.2;" d="M170.282,252.171c0,0-4.085,11.33-5.716,14.048c-1.631,2.718-10.328,13.046-11.959,15.764
			c-1.631,2.718-4.892,11.415-4.892,11.415l26.406-6.676c0,0-7.38,11.025-11.729,16.461c-4.349,5.436-13.59,16.852-13.59,18.482
			s-2.174,8.154-2.174,8.154l12.503,9.241l25.549-9.241l10.328-3.805c0,0-20.657,13.046-27.18,19.569
			c-6.523,6.523-29.354,19.569-35.334,23.918c-5.98,4.349-18.482,6.523-23.375,7.61c-4.892,1.087-47.836,35.877-47.836,35.877
			l61.97-127.202l17.939-29.898l15.764-11.415l-1.631,17.939L170.282,252.171z"/>
		<g>
			<path style="fill:#FFFFFF;stroke:#263238;stroke-linecap:round;stroke-linejoin:round;stroke-miterlimit:10;" d="M36.504,439.401
				l65.255-67.149c0,0,6.202-0.591,16.242-3.839c10.041-3.249,12.994-4.134,17.719-7.678c4.725-3.544,24.216-13.88,32.485-19.195
				c8.269-5.316,22.739-11.222,25.397-13.585c2.658-2.362,0.591-5.316-6.497-6.792c-7.088-1.477-14.175,0.295-23.625,4.43
				c-9.45,4.134-19.196,7.678-18.9,5.611c0.295-2.067,2.067-12.403,3.839-15.947c1.772-3.544,19.501-22.627,19.796-23.513
				c0.295-0.886,2.363-1.772,5.906-5.02c3.544-3.248,9.155-7.088,10.041-12.699c0.886-5.611-3.544-3.544-5.316-2.658
				c-1.772,0.886-14.175,6.202-17.424,8.269c-3.249,2.067-22.209,22.06-22.209,22.06l13.35-27.966c0,0,2.953-2.658,4.725-5.02
				c1.772-2.363,12.403-13.88,12.994-16.538c0.591-2.658-2.067-5.906-5.316-5.02c-3.249,0.886-13.457,9.909-16.833,12.403
				c-7.006,5.176-18.31,24.807-18.31,24.807l12.403-22.739c0,0,9.45-8.564,11.813-11.222c2.363-2.658,5.21-8.542,2.658-11.222
				c-2.709-2.845-8.58,1.945-12.994,6.497c-4.062,4.19-10.041,9.45-10.041,9.45s3.544-4.135,2.658-7.678
				c-0.886-3.544-7.678,1.477-9.745,2.067c-2.067,0.591-19.786,16.242-22.444,18.31c-2.658,2.067-8.206,19.031-8.206,19.031
				l-21.463,44.766L10,378"/>
			<path style="fill:none;stroke:#263238;stroke-linecap:round;stroke-linejoin:round;stroke-miterlimit:10;" d="M133.663,255.124
				l-8.659,7.488c-0.939,0.812-1.747,1.765-2.395,2.825l-15.375,25.16"/>
			<path style="fill:none;stroke:#263238;stroke-linecap:round;stroke-linejoin:round;stroke-miterlimit:10;" d="M193.093,323.266
				l-4.46,0.297c0,0,2.973,2.676,0.297,6.541"/>
			<path style="fill:none;stroke:#263238;stroke-linecap:round;stroke-linejoin:round;stroke-miterlimit:10;" d="M177.698,272.757
				c0,0,1.915-0.259,4.096,3.194c0,0,1.636-1.272,2.148-3.194"/>
			<path style="fill:none;stroke:#263238;stroke-linecap:round;stroke-linejoin:round;stroke-miterlimit:10;" d="M161.346,249.566
				c0,0,3.335,0.751,5.146,2.164c0.794,0.619,2.268-0.473,2.881-1.272l0,0"/>
			<path style="fill:none;stroke:#263238;stroke-linecap:round;stroke-linejoin:round;stroke-miterlimit:10;" d="M149.453,241.241
				c0,0,1.189,0,2.379,0.595c1.189,0.595,2.676,1.784,2.676,1.784s1.589-0.462,2.379-2.379"/>
			<path style="fill:none;stroke:#263238;stroke-linecap:round;stroke-linejoin:round;stroke-miterlimit:10;" d="M129.83,248.377
				c0,0,2.035-0.207,2.973,0.595c1.43,1.221,0.595,1.784,0.595,1.784s2.429-0.853,2.676-2.081"/>
			<path style="fill:none;stroke:#263238;stroke-linecap:round;stroke-linejoin:round;stroke-miterlimit:10;" d="M162.832,282.569
				c0,0,2.676,1.784,4.162,4.757"/>
			<path style="fill:none;stroke:#263238;stroke-linecap:round;stroke-linejoin:round;stroke-miterlimit:10;" d="M161.048,283.164
				c0,0,1.784,2.081,3.865,3.568"/>
			
				<line style="fill:none;stroke:#263238;stroke-linecap:round;stroke-linejoin:round;stroke-miterlimit:10;" x1="167.292" y1="283.461" x2="169.373" y2="286.137"/>
			
				<line style="fill:none;stroke:#263238;stroke-linecap:round;stroke-linejoin:round;stroke-miterlimit:10;" x1="172.281" y1="326.536" x2="174.362" y2="330.104"/>
			
				<line style="fill:none;stroke:#263238;stroke-linecap:round;stroke-linejoin:round;stroke-miterlimit:10;" x1="174.956" y1="332.186" x2="175.551" y2="333.375"/>
			<path style="fill:none;stroke:#263238;stroke-linecap:round;stroke-linejoin:round;stroke-miterlimit:10;" d="M177.038,327.428
				c0,0,0.892,3.865,0.595,7.433"/>
			<path style="fill:none;stroke:#263238;stroke-linecap:round;stroke-linejoin:round;stroke-miterlimit:10;" d="M145.29,265.027
				c0,0,2.973-0.297,5.352,3.271"/>
			
				<line style="fill:none;stroke:#263238;stroke-linecap:round;stroke-linejoin:round;stroke-miterlimit:10;" x1="146.777" y1="268.595" x2="149.453" y2="270.081"/>
			
				<line style="fill:none;stroke:#263238;stroke-linecap:round;stroke-linejoin:round;stroke-miterlimit:10;" x1="147.669" y1="264.135" x2="149.453" y2="265.324"/>
			<path style="fill:none;stroke:#263238;stroke-linecap:round;stroke-linejoin:round;stroke-miterlimit:10;" d="M129.532,260.864
				c0,0,2.973-0.892,5.649,1.487"/>
			<path style="fill:none;stroke:#263238;stroke-linecap:round;stroke-linejoin:round;stroke-miterlimit:10;" d="M130.721,262.648
				c0,0,1.784,0.892,4.163,1.487"/>
			
				<line style="fill:none;stroke:#263238;stroke-linecap:round;stroke-linejoin:round;stroke-miterlimit:10;" x1="134.289" y1="259.378" x2="136.371" y2="259.973"/>
			<path style="fill:none;stroke:#263238;stroke-linecap:round;stroke-linejoin:round;stroke-miterlimit:10;" d="M109.909,265.919
				c0,0,2.081-0.595,5.649,0"/>
			
				<line style="fill:none;stroke:#263238;stroke-linecap:round;stroke-linejoin:round;stroke-miterlimit:10;" x1="116.153" y1="264.135" x2="119.126" y2="265.324"/>
			
				<line style="fill:none;stroke:#263238;stroke-linecap:round;stroke-linejoin:round;stroke-miterlimit:10;" x1="129.824" y1="284.36" x2="123.435" y2="296.507"/>
		</g>
	</g>
</g>
</svg>
