<svg width="465" height="507" viewBox="0 0 465 507" fill="none" xmlns="http://www.w3.org/2000/svg">
<g opacity="0.3">
<path d="M419.296 293.27L367.887 263.59L329.652 277.403C312.971 271.594 295.138 267.364 276.803 264.736L266.425 239.284L193.929 239.264L183.872 264.736C165.498 267.364 147.748 271.613 131.131 277.423L92.7752 263.59L41.666 293.291L65.6721 315.464C55.6964 325.107 48.4192 335.402 43.9419 346.054L0 351.962L0.270414 393.955L44.2447 399.883C48.8417 410.495 56.2006 420.81 66.2847 430.454L42.5631 452.646L93.9724 482.326L132.207 468.513C148.889 474.322 166.72 478.552 185.09 481.199L195.435 506.632L267.93 506.653L271.071 504.787L277.986 481.181C296.36 478.553 314.144 474.324 330.76 468.514L369.116 482.347L420.226 452.646L396.22 430.473C406.195 420.83 413.439 410.515 417.916 399.863L461.858 393.955L464.999 392.089L461.586 351.962L417.646 346.054C413.013 335.422 405.656 325.107 395.57 315.464L419.296 293.27Z" fill="#B3B3B3"/>
</g>
<path d="M422.437 291.405L371.028 261.725L332.794 275.539C316.113 269.729 298.28 265.499 279.945 262.871L269.567 237.419L197.071 237.399L187.014 262.871C168.64 265.499 150.89 269.749 134.274 275.558L95.9174 261.725L44.8081 291.427L68.8142 313.599C58.8385 323.242 51.5614 333.538 47.0841 344.189L3.14215 350.098L3.41256 392.09L47.3869 398.018C51.9839 408.63 59.3427 418.946 69.4269 428.589L45.7053 450.781L97.1145 480.461L135.35 466.648C152.031 472.458 169.862 476.687 188.232 479.335L198.575 504.768L271.071 504.787L281.128 479.315C299.502 476.687 317.286 472.458 333.902 466.648L372.259 480.481L423.368 450.779L399.362 428.607C409.337 418.964 416.581 408.649 421.058 397.997L465 392.087L464.73 350.095L420.789 344.187C416.158 333.555 408.799 323.239 398.714 313.596L422.437 291.405Z" fill="#EF8181"/>
<path d="M422.437 291.405V276.393L398.715 298.585V313.597L422.437 291.405Z" fill="#D86A6A"/>
<path d="M44.8081 276.415V291.427L68.8142 313.599V298.587L44.8081 276.415Z" fill="#D86A6A"/>
<path d="M422.437 276.394L371.028 246.713L332.794 260.527C316.113 254.717 298.28 250.488 279.945 247.859L269.567 222.407L197.071 222.387L187.014 247.859C168.64 250.488 150.89 254.737 134.274 260.546L95.9174 246.713L44.8081 276.415L68.8142 298.587C58.8385 308.23 51.5614 318.526 47.0841 329.177L3.14215 335.086L3.41256 377.078L47.3869 383.006C51.9839 393.618 59.3427 403.934 69.4269 413.577L45.7053 435.769L97.1145 465.449L135.35 451.636C152.031 457.446 169.862 461.675 188.232 464.323L198.575 489.756L271.071 489.775L281.128 464.303C299.502 461.675 317.286 457.446 333.902 451.636L372.259 465.469L423.368 435.768L399.362 413.595C409.337 403.952 416.581 393.637 421.058 382.985L465 377.077L464.73 335.084L420.789 329.176C416.158 318.544 408.799 308.229 398.714 298.586L422.437 276.394Z" fill="#FF9797"/>
<path d="M97.1145 480.461V465.449L135.35 451.636V466.648L97.1145 480.461Z" fill="#D86A6A"/>
<path d="M198.575 489.756V504.768L188.232 479.335V464.323L198.575 489.756Z" fill="#D86A6A"/>
<path d="M271.072 504.788V489.775L281.13 464.303V479.315L271.072 504.788Z" fill="#D86A6A"/>
<path d="M372.26 480.481V465.468L333.904 451.636V466.648L372.26 480.481Z" fill="#D86A6A"/>
<path d="M421.058 397.997V382.985L465 377.075V392.088L421.058 397.997Z" fill="#D86A6A"/>
<path d="M47.3868 398.018V383.006L3.41248 377.078V392.09L47.3868 398.018Z" fill="#D86A6A"/>
<path d="M45.7053 435.769V450.781L97.1145 480.462V465.45L45.7053 435.769Z" fill="#EF8181"/>
<path d="M423.368 450.78V435.768L372.26 465.468V480.481L423.368 450.78Z" fill="#EF8181"/>
<path d="M413.68 354.839C413.84 297.616 333.884 251.004 235.092 250.727C136.299 250.45 56.0828 296.615 55.9226 353.838C55.7623 411.061 135.719 457.673 234.511 457.95C333.303 458.226 413.52 412.062 413.68 354.839Z" stroke="white" stroke-miterlimit="10"/>
<g opacity="0.2">
<path d="M379.939 309.542L268.891 245.429C266.711 244.169 263.183 244.169 261.021 245.426L250.942 251.283C248.78 252.54 248.792 254.583 250.972 255.842L362.02 319.955C364.2 321.214 367.728 321.214 369.89 319.958L379.968 314.101C382.13 312.843 382.119 310.801 379.939 309.542Z" fill="#808080"/>
</g>
<path d="M361.475 49.2336L279.52 1.91711C275.526 -0.389846 271.923 -0.539139 269.357 1.06361L265.08 3.52971L266.809 3.84519C265.942 5.43809 265.44 7.48026 265.433 9.94636L264.785 238.718C264.76 247.627 271.027 258.483 278.782 262.96L360.736 310.277C362.948 311.553 365.032 312.153 366.895 312.181L366.415 313.74L370.677 311.284L370.68 311.282L370.702 311.27L370.699 311.268C373.236 309.811 374.811 306.691 374.823 302.249L375.471 73.4777C376.04 62.2781 369.228 53.7094 361.475 49.2336Z" fill="#1B1F2D"/>
<path d="M356.786 51.9545L274.831 4.63808C267.078 0.162202 260.769 3.75642 260.743 12.6659L260.094 241.437C260.069 250.347 266.336 261.203 274.091 265.68L356.045 312.996C363.798 317.472 370.108 313.878 370.133 304.969L370.781 76.1972C371.35 65.0005 364.539 56.4318 356.786 51.9545Z" fill="#31394C"/>
<path d="M356.237 54.291L275.358 7.59566C268.581 3.68313 263.053 6.83371 263.032 14.6207L262.387 242.129C262.364 249.916 267.857 259.428 274.633 263.341L355.511 310.036C362.289 313.948 367.824 310.802 367.846 303.015L368.491 75.5071C368.491 65.999 363.012 58.2035 356.237 54.291Z" fill="#1B1F2D"/>
<path d="M356.045 56.8601L345.827 50.9603C345.202 50.5983 344.688 50.8561 344.602 51.5265C344.047 55.7826 340.626 57.3375 336.505 54.9587L295.028 31.0118C290.907 28.633 287.506 23.1374 286.976 18.2559C286.894 17.4884 286.392 16.6447 285.759 16.28C283.806 15.1518 279.624 12.7379 275.541 10.3802C269.795 7.06203 265.125 9.7239 265.105 16.3279L264.463 242.819C264.445 249.413 269.084 257.459 274.831 260.777L355.337 307.257C361.083 310.575 365.753 307.905 365.773 301.31L366.415 74.8185C366.432 68.2145 361.791 60.1768 356.045 56.8601Z" fill="#546FBF"/>
<path d="M320.878 173.509L293.328 157.603C292.252 156.981 291.372 157.474 291.367 158.711C291.363 159.948 292.239 161.463 293.315 162.084L320.865 177.99C321.941 178.612 322.821 178.11 322.825 176.874C322.83 175.637 321.954 174.13 320.878 173.509Z" fill="#F24B4B"/>
<path d="M335.049 181.69L327.822 177.517C326.746 176.896 325.873 177.393 325.87 178.63C325.868 179.866 326.734 181.378 327.81 181.999L335.036 186.172C336.112 186.793 336.985 186.287 336.988 185.051C336.991 183.814 336.125 182.311 335.049 181.69Z" fill="#F24B4B"/>
<path d="M330.922 191L297.352 171.618C296.733 171.261 296.236 171.544 296.233 172.254C296.232 172.955 296.726 173.812 297.345 174.17L330.915 193.552C331.526 193.904 332.024 193.621 332.025 192.919C332.028 192.208 331.533 191.352 330.922 191Z" fill="#FF9797"/>
<path d="M330.894 201.111L324.712 197.542C324.101 197.19 323.604 197.473 323.603 198.183C323.601 198.884 324.096 199.74 324.705 200.092L330.887 203.661C331.497 204.013 331.995 203.73 331.997 203.029C332 202.319 331.505 201.463 330.894 201.111Z" fill="#FF9797"/>
<path d="M320.087 194.871L297.322 181.728C296.704 181.372 296.207 181.655 296.204 182.365C296.202 183.066 296.697 183.922 297.314 184.28L320.079 197.423C320.697 197.78 321.194 197.496 321.197 196.795C321.2 196.084 320.706 195.228 320.087 194.871Z" fill="#FF9797"/>
<path d="M333.602 197.615L308.823 183.308C308.212 182.956 307.715 183.239 307.713 183.941C307.712 184.642 308.206 185.498 308.816 185.85L333.595 200.157C334.213 200.513 334.711 200.23 334.713 199.529C334.715 198.827 334.221 197.971 333.602 197.615Z" fill="#FF9797"/>
<path d="M304.26 180.673L294.636 175.117C294.027 174.765 293.528 175.048 293.526 175.75C293.525 176.451 294.019 177.307 294.629 177.659L304.253 183.215C304.863 183.568 305.361 183.284 305.363 182.583C305.364 181.882 304.87 181.025 304.26 180.673Z" fill="#FF9797"/>
<path d="M315.573 74.6143C315.29 74.4509 315.006 74.3087 314.727 74.1805C312.681 73.2284 310.581 72.4806 308.754 72.5594C307.186 72.6298 305.802 73.3495 305.116 74.8692C304.747 75.6832 304.568 76.7043 304.641 77.8536C304.656 77.9944 304.664 78.1381 304.687 78.3015C304.547 78.1803 304.404 78.0789 304.258 77.9958C303.666 77.6536 303.046 77.6057 302.549 77.7705C301.408 78.1663 301.022 79.6648 300.826 81.1422C300.599 82.8999 300.632 84.8068 300.802 86.7941C300.891 87.7856 301.033 88.7898 301.206 89.8123C301.274 90.2292 301.349 90.6418 301.425 91.0629C300.149 90.5728 299.126 92.6347 300.19 95.3388C301.164 97.8232 302.006 100.534 303.112 101.172C303.168 101.205 303.226 101.233 303.284 101.254C303.429 101.303 303.567 101.32 303.689 101.303C304.591 104.433 306.003 107.488 307.761 110.172L307.743 116.548L291.346 116.541C289.687 116.593 288.568 117.827 288.348 119.842L286.951 132.878C286.951 132.878 296.774 143.582 315.096 154.162C331.245 163.485 343.278 165.399 343.278 165.399L341.951 150.773C341.751 148.523 340.65 146.017 339.012 144.052L322.845 125.276L322.863 118.891C324.638 118.248 326.065 116.831 326.98 114.751C327.103 114.908 327.239 115.049 327.384 115.169C327.442 115.214 327.5 115.254 327.556 115.286C328.662 115.924 329.517 114.194 330.502 112.841C331.562 111.397 330.6 108.233 329.356 107.199C329.5 105.007 329.445 102.692 329.284 100.332C329.122 98.0077 329.017 94.8726 327.404 92.3854C327.321 92.2586 327.229 92.1347 327.138 92.0206C327.383 91.8023 327.552 91.4868 327.615 91.0305C327.818 89.6193 326.883 87.9025 325.655 86.8068C325.148 86.3575 324.611 85.9828 324.072 85.6716C323.946 85.5984 323.82 85.5293 323.694 85.4631C323.756 85.235 323.787 84.9815 323.789 84.7097C323.77 83.1097 322.759 81.1985 321.486 79.9986C320.989 79.5296 320.492 79.1592 319.997 78.8747C319.537 78.6099 319.08 78.4169 318.631 78.2902C318.616 78.193 318.602 78.0888 318.571 77.9832C318.396 77.4001 317.962 76.7621 317.573 76.2917C316.957 75.541 316.266 75.0143 315.573 74.6143Z" fill="#D0D9F2"/>
<path d="M332.495 219.652C325.422 215.568 319.666 218.848 319.644 226.981C319.621 235.109 325.338 245.013 332.412 249.097C339.491 253.183 345.241 249.902 345.264 241.774C345.286 233.639 339.573 223.738 332.495 219.652Z" fill="#F24B4B"/>
<path d="M332.464 230.525C328.562 228.271 326.684 228.471 325.62 228.866C324.551 229.252 324.058 230.715 324.245 231.664C324.356 232.222 324.698 233.008 324.963 233.565C325.105 233.865 325.327 234.113 325.556 234.246C325.638 234.294 325.721 234.326 325.803 234.342L328.407 234.832C328.714 234.889 328.922 234.678 328.924 234.309L328.928 232.689C328.929 232.367 329.079 232.147 329.332 232.153C330.481 232.182 332.456 233.295 332.456 233.295C332.456 233.295 334.435 234.463 335.575 235.757C335.828 236.043 335.981 236.439 335.98 236.76L335.975 238.379C335.974 238.748 336.177 239.198 336.484 239.495L339.088 242.012C339.167 242.089 339.25 242.151 339.332 242.199C339.56 242.33 339.781 242.34 339.925 242.203C340.192 241.952 340.537 241.564 340.651 241.136C340.848 240.407 340.361 238.379 339.302 236.764C338.237 235.143 336.371 232.781 332.464 230.525Z" fill="white"/>
<path d="M296.787 198.981C289.708 194.894 283.954 198.174 283.931 206.308C283.909 214.435 289.625 224.339 296.704 228.425C303.777 232.509 309.533 229.229 309.555 221.101C309.578 212.968 303.86 203.064 296.787 198.981Z" fill="#91AAF2"/>
<path d="M292.918 203.853C292.884 203.833 292.85 203.816 292.817 203.802C292.379 203.616 291.777 203.405 291.393 203.443C290.736 203.506 290.004 204.716 290.135 206.367C290.266 208.017 290.797 210.757 293.548 215.521C296.298 220.292 298.411 222.124 299.778 223.07C299.891 223.148 300.004 223.22 300.116 223.284C301.374 224.011 302.604 223.959 302.953 223.469C303.18 223.163 303.299 222.535 303.36 222.066C303.406 221.73 303.236 221.272 302.947 220.939L300.49 218.117C300.384 217.997 300.27 217.902 300.157 217.837C299.961 217.724 299.769 217.699 299.622 217.782L298.621 218.352C298.48 218.433 298.285 218.417 298.09 218.303C298.014 218.259 297.939 218.202 297.866 218.13C296.666 216.954 295.256 214.548 295.256 214.548C295.256 214.548 293.883 212.129 293.462 210.507C293.367 210.147 293.455 209.858 293.653 209.746L294.65 209.172C294.881 209.046 294.936 208.672 294.798 208.26L293.587 204.727C293.459 204.354 293.201 204.015 292.918 203.853Z" fill="white"/>
<path d="M322.272 39.7919L307.962 31.5303C307.558 31.2965 307.236 31.4795 307.236 31.9443C307.234 32.4006 307.554 32.9541 307.958 33.1865L322.268 41.4482C322.665 41.6777 322.994 41.4989 322.994 41.0426C322.996 40.5792 322.669 40.0215 322.272 39.7919Z" fill="#31394C"/>
<path d="M327.405 42.3239C326.658 41.8915 326.052 42.2366 326.051 43.0957C326.048 43.9464 326.649 44.9872 327.397 45.4196C328.138 45.8463 328.75 45.5069 328.752 44.6562C328.755 43.7971 328.145 42.7521 327.405 42.3239Z" fill="#31394C"/>
<path d="M327.403 42.6775C326.822 42.3423 326.356 42.6085 326.353 43.2747C326.352 43.9324 326.815 44.7366 327.395 45.0704C327.967 45.4014 328.435 45.1352 328.436 44.4775C328.439 43.8113 327.974 43.0085 327.403 42.6775Z" fill="#1B1F2D"/>
<path d="M327.4 43.5984C327.262 43.5196 327.155 43.5801 327.155 43.7379C327.155 43.8872 327.26 44.0717 327.398 44.1505C327.528 44.2252 327.635 44.1646 327.635 44.0153C327.636 43.8576 327.529 43.6731 327.4 43.5984Z" fill="#31394C"/>
<g opacity="0.1">
<path d="M345.827 50.9604C345.202 50.5984 344.689 50.8562 344.602 51.5266C344.047 55.7827 340.626 57.339 336.505 54.9588L295.028 31.0119C291.387 28.9105 288.313 24.3769 287.279 19.9841L265.046 36.906L264.807 121.628L352.552 54.8433L345.827 50.9604Z" fill="white"/>
<path d="M264.695 160.639L264.643 178.964L366.338 101.563L366.39 83.238L264.695 160.639Z" fill="white"/>
<path d="M264.463 242.818C264.445 249.412 269.084 257.458 274.831 260.776L298.967 274.711L365.991 223.697L366.232 138.974L264.539 216.375L264.463 242.818Z" fill="white"/>
<path d="M341.71 299.39L365.829 281.033L365.88 262.708L328.049 291.503L341.71 299.39Z" fill="white"/>
</g>
<path d="M399.062 185.699L386.355 178.362C385.928 178.116 385.583 178.32 385.582 178.812C385.581 179.303 385.923 179.896 386.351 180.142L399.057 187.479C399.484 187.725 399.836 187.534 399.839 187.042C399.839 186.551 399.49 185.945 399.062 185.699Z" fill="#91AAF2"/>
<path d="M404.385 192.794L386.344 182.378C385.917 182.131 385.572 182.327 385.571 182.818C385.569 183.31 385.912 183.911 386.34 184.158L404.381 194.574C404.808 194.821 405.153 194.617 405.154 194.125C405.154 193.634 404.812 193.041 404.385 192.794Z" fill="#91AAF2"/>
<path d="M416.168 199.597L408.453 195.142C408.026 194.895 407.674 195.087 407.673 195.578C407.671 196.07 408.02 196.675 408.449 196.922L416.164 201.377C416.591 201.623 416.943 201.423 416.945 200.932C416.945 200.442 416.596 199.843 416.168 199.597Z" fill="#91AAF2"/>
<path d="M392.766 190.108L386.333 186.394C385.904 186.148 385.561 186.344 385.559 186.835C385.558 187.327 385.9 187.92 386.328 188.166L392.762 191.88C393.189 192.126 393.534 191.931 393.535 191.439C393.536 190.948 393.194 190.355 392.766 190.108Z" fill="#91AAF2"/>
<path d="M408.968 199.463L396.132 192.052C395.705 191.805 395.353 191.997 395.352 192.488C395.351 192.98 395.7 193.577 396.128 193.823L408.964 201.234C409.391 201.481 409.736 201.285 409.737 200.794C409.737 200.302 409.395 199.709 408.968 199.463Z" fill="#91AAF2"/>
<path d="M397.289 196.733L386.323 190.401C385.896 190.155 385.551 190.359 385.55 190.85C385.548 191.342 385.89 191.935 386.319 192.181L397.286 198.513C397.712 198.76 398.058 198.564 398.059 198.073C398.058 197.581 397.715 196.98 397.289 196.733Z" fill="#91AAF2"/>
<path d="M404.363 200.818L400.753 198.733C400.326 198.487 399.981 198.691 399.98 199.182C399.979 199.674 400.321 200.267 400.749 200.513L404.359 202.598C404.785 202.844 405.13 202.648 405.132 202.157C405.132 201.667 404.79 201.064 404.363 200.818Z" fill="#91AAF2"/>
<path d="M411.951 193.139L401.794 187.274C401.367 187.028 401.022 187.232 401.021 187.724C401.019 188.215 401.362 188.808 401.79 189.055L411.947 194.919C412.374 195.166 412.726 194.974 412.729 194.483C412.729 193.992 412.379 193.387 411.951 193.139Z" fill="#91AAF2"/>
<path d="M404.746 181.768L386.896 171.463C386.186 171.053 385.605 171.385 385.602 172.209C385.599 173.024 386.178 174.026 386.888 174.436L404.738 184.741C405.454 185.155 406.036 184.824 406.039 184.008C406.04 183.183 405.463 182.182 404.746 181.768Z" fill="#1B1F2D"/>
<path d="M415.888 188.2L409.202 184.34C408.485 183.925 407.904 184.256 407.901 185.082C407.898 185.897 408.477 186.899 409.194 187.313L415.879 191.172C416.596 191.586 417.178 191.255 417.181 190.439C417.183 189.617 416.605 188.615 415.888 188.2Z" fill="#1B1F2D"/>
<path d="M398.718 215.176L386.012 207.84C385.585 207.593 385.24 207.799 385.238 208.289C385.237 208.78 385.579 209.373 386.006 209.62L398.713 216.956C399.139 217.203 399.491 217.011 399.494 216.519C399.496 216.028 399.146 215.422 398.718 215.176Z" fill="#91AAF2"/>
<path d="M404.042 222.271L386 211.855C385.574 211.608 385.228 211.804 385.227 212.296C385.226 212.787 385.568 213.389 385.996 213.635L404.038 224.052C404.464 224.298 404.809 224.093 404.811 223.602C404.811 223.112 404.469 222.519 404.042 222.271Z" fill="#91AAF2"/>
<path d="M415.824 229.076L408.109 224.621C407.683 224.374 407.33 224.566 407.329 225.057C407.328 225.549 407.677 226.154 408.105 226.401L415.82 230.856C416.247 231.102 416.599 230.902 416.602 230.411C416.602 229.919 416.253 229.322 415.824 229.076Z" fill="#91AAF2"/>
<path d="M392.422 219.587L385.989 215.873C385.562 215.627 385.217 215.823 385.216 216.314C385.214 216.806 385.557 217.399 385.985 217.645L392.418 221.359C392.845 221.605 393.19 221.41 393.191 220.918C393.191 220.427 392.849 219.834 392.422 219.587Z" fill="#91AAF2"/>
<path d="M408.625 228.94L395.788 221.529C395.362 221.283 395.01 221.474 395.007 221.966C395.005 222.457 395.355 223.054 395.783 223.301L408.619 230.712C409.046 230.958 409.391 230.763 409.392 230.271C409.394 229.781 409.051 229.188 408.625 228.94Z" fill="#91AAF2"/>
<path d="M396.945 226.211L385.979 219.88C385.552 219.634 385.207 219.838 385.206 220.329C385.204 220.821 385.547 221.414 385.973 221.66L396.941 227.992C397.367 228.239 397.712 228.043 397.714 227.552C397.714 227.06 397.372 226.459 396.945 226.211Z" fill="#91AAF2"/>
<path d="M404.019 230.297L400.409 228.212C399.983 227.966 399.638 228.17 399.636 228.661C399.635 229.153 399.977 229.746 400.405 229.992L404.015 232.077C404.442 232.323 404.787 232.127 404.788 231.636C404.788 231.144 404.446 230.543 404.019 230.297Z" fill="#91AAF2"/>
<path d="M411.608 222.618L401.45 216.754C401.024 216.507 400.679 216.713 400.677 217.203C400.676 217.694 401.018 218.287 401.446 218.534L411.603 224.398C412.03 224.645 412.382 224.453 412.385 223.962C412.385 223.47 412.036 222.865 411.608 222.618Z" fill="#91AAF2"/>
<path d="M404.401 211.245L386.551 200.94C385.841 200.53 385.259 200.861 385.257 201.687C385.254 202.502 385.833 203.503 386.542 203.913L404.392 214.218C405.109 214.633 405.691 214.302 405.694 213.486C405.697 212.661 405.119 211.659 404.401 211.245Z" fill="#1B1F2D"/>
<path d="M415.544 217.679L408.858 213.82C408.142 213.406 407.559 213.737 407.557 214.562C407.554 215.377 408.133 216.379 408.85 216.793L415.536 220.653C416.253 221.067 416.834 220.736 416.837 219.919C416.838 219.094 416.261 218.093 415.544 217.679Z" fill="#1B1F2D"/>
<path d="M389.093 153.983C388.528 153.656 388.072 152.866 388.074 152.217L388.127 133.381C388.128 132.732 388.588 132.47 389.152 132.796L412.947 146.534C413.512 146.859 413.968 147.651 413.967 148.3L413.913 167.136C413.912 167.785 413.451 168.047 412.888 167.72L398.755 159.56C398.038 159.146 397.358 159.07 396.845 159.353L392.725 161.604L392.733 159.209C392.737 157.491 391.52 155.383 390.024 154.519L389.093 153.983ZM412.954 144.587L389.159 130.849C387.664 129.985 386.438 130.682 386.434 132.402L386.381 151.238C386.375 152.956 387.593 155.065 389.089 155.928L390.02 156.466C390.585 156.793 391.041 157.583 391.04 158.232L391.033 160.819C391.03 161.573 391.417 162.473 392.027 163.123C392.225 163.335 392.438 163.502 392.652 163.625C393.072 163.867 393.478 163.916 393.792 163.746L398.034 161.425C398.225 161.325 398.484 161.352 398.752 161.505L412.885 169.665C414.381 170.529 415.606 169.83 415.61 168.112L415.664 149.276C415.667 147.559 414.45 145.451 412.954 144.587Z" fill="#F24B4B"/>
<path d="M393.762 143.704C392.534 142.995 391.53 143.566 391.527 144.979C391.523 146.392 392.52 148.117 393.748 148.827C394.976 149.537 395.972 148.96 395.976 147.548C395.98 146.137 394.992 144.414 393.762 143.704Z" fill="#F24B4B"/>
<path d="M401.028 147.9C399.8 147.19 398.796 147.762 398.793 149.175C398.789 150.586 399.786 152.312 401.014 153.022C402.242 153.732 403.246 153.16 403.249 151.748C403.253 150.335 402.256 148.61 401.028 147.9Z" fill="#F24B4B"/>
<path d="M408.292 152.094C407.064 151.384 406.061 151.956 406.057 153.369C406.053 154.781 407.05 156.507 408.278 157.217C409.506 157.926 410.511 157.355 410.513 155.942C410.518 154.529 409.522 152.804 408.292 152.094Z" fill="#F24B4B"/>
<path d="M224.118 140.125C223.553 139.798 223.097 139.008 223.098 138.358L223.152 119.523C223.153 118.873 223.612 118.611 224.177 118.938L247.972 132.676C248.537 133.001 248.993 133.792 248.992 134.44L248.938 153.276C248.937 153.925 248.477 154.187 247.913 153.861L233.779 145.7C233.063 145.286 232.382 145.21 231.87 145.493L227.752 147.744L227.759 145.35C227.763 143.631 226.546 141.523 225.05 140.66L224.118 140.125ZM247.979 130.729L224.184 116.992C222.688 116.128 221.463 116.825 221.459 118.545L221.405 137.381C221.401 139.099 222.618 141.208 224.114 142.071L225.045 142.609C225.609 142.934 226.066 143.726 226.064 144.375L226.057 146.962C226.056 147.716 226.442 148.616 227.052 149.266C227.25 149.478 227.463 149.645 227.677 149.768C228.097 150.01 228.502 150.059 228.815 149.889L233.056 147.568C233.247 147.468 233.506 147.495 233.774 147.648L247.907 155.808C249.403 156.672 250.628 155.973 250.632 154.255L250.686 135.419C250.691 133.701 249.475 131.594 247.979 130.729Z" fill="#546FBF"/>
<path d="M228.787 129.847C227.559 129.138 226.554 129.709 226.552 131.122C226.547 132.533 227.545 134.26 228.773 134.97C230.001 135.68 230.997 135.104 231.001 133.691C231.005 132.278 230.016 130.557 228.787 129.847Z" fill="#546FBF"/>
<path d="M236.053 134.042C234.825 133.332 233.82 133.904 233.818 135.316C233.813 136.727 234.81 138.454 236.039 139.164C237.267 139.874 238.271 139.302 238.274 137.889C238.278 136.477 237.281 134.751 236.053 134.042Z" fill="#546FBF"/>
<path d="M243.317 138.236C242.089 137.526 241.085 138.098 241.082 139.51C241.078 140.923 242.075 142.648 243.303 143.358C244.531 144.068 245.536 143.496 245.538 142.084C245.543 140.672 244.547 138.946 243.317 138.236Z" fill="#546FBF"/>
<path d="M233.722 90.325C224.212 84.8351 216.5 71.475 216.531 60.5487C216.562 49.6224 224.325 45.1986 233.835 50.6885C243.351 56.1827 251.056 69.5385 251.025 80.4648C250.994 91.3912 243.238 95.8192 233.722 90.325ZM233.842 48.2506C223.165 42.0861 214.452 47.0605 214.417 59.3291C214.382 71.5976 223.039 86.5998 233.715 92.763C244.399 98.9317 253.113 93.9573 253.146 81.6887C253.18 69.4202 244.526 54.4194 233.842 48.2506Z" fill="#1B1F2D"/>
<path d="M233.827 54.3728C233.374 54.1108 232.992 54.3052 232.975 54.8305L232.529 69.3553C232.482 69.4778 232.46 69.6313 232.467 69.8116C232.481 70.2412 232.649 70.7059 232.906 71.1101C233.13 71.4806 233.437 71.8129 233.768 72.0045C233.787 72.0143 233.804 72.0242 233.822 72.0341C233.929 72.096 234.036 72.1312 234.135 72.1538L244.492 77.6676C244.927 77.9014 245.295 77.7099 245.312 77.2015C245.328 76.6747 244.971 76.0128 244.497 75.7212L235.013 69.8144L234.678 55.8136C234.664 55.2967 234.306 54.6685 233.857 54.3911C233.846 54.384 233.836 54.3784 233.827 54.3728Z" fill="#1B1F2D"/>
<path d="M219.629 91.9094C218.849 91.4587 218.163 91.2404 217.555 91.2432C216.953 91.2615 216.482 91.5206 216.137 92.0418C215.792 92.553 215.618 93.3107 215.615 94.305L218.091 95.7346L218.093 95.4881C218.094 95.0247 218.198 94.6417 218.397 94.3219C218.604 94.0079 219.024 94.0332 219.676 94.4093C220.181 94.7008 220.558 95.0867 220.805 95.5642C221.053 96.043 221.172 96.5148 221.17 96.988C221.169 97.4711 221.039 97.8584 220.79 98.1683C220.531 98.4725 220.214 98.7232 219.835 98.9091C219.448 99.0908 218.89 99.3006 218.167 99.5541C218.013 99.6034 217.858 99.6513 217.704 99.7105C217.549 99.7696 217.386 99.833 217.206 99.8964L215.72 100.508L215.713 102.96L223.604 107.516L223.611 105.005L218.984 102.333V102.244L220.497 101.658L220.849 101.526C221.417 101.32 221.872 101.11 222.232 100.895C222.593 100.679 222.894 100.35 223.162 99.9231C223.421 99.4908 223.55 98.9147 223.553 98.1964C223.555 97.4387 223.402 96.6697 223.087 95.8768C222.78 95.0881 222.328 94.3431 221.738 93.6473C221.136 92.9572 220.434 92.3756 219.629 91.9094Z" fill="#F24B4B"/>
<path d="M227.584 104.51L229.978 101.582L229.966 105.885L227.584 104.51ZM232.464 99.5965L229.294 97.7656L225.031 103.164L225.025 105.271L229.96 108.13L229.952 111.182L232.428 112.612L232.436 109.56L233.764 110.326L233.77 108.14L232.442 107.374L232.464 99.5965Z" fill="#F24B4B"/>
<path d="M242.904 104.077L240.54 102.71L234.858 117.852L237.223 119.218L242.904 104.077Z" fill="#F24B4B"/>
<path d="M251.708 110.707L243.842 106.166L243.835 108.784L249.354 111.97V112.089L244.972 119.628L244.971 119.854L247.627 121.388L251.7 113.66L251.708 110.707Z" fill="#F24B4B"/>
<g opacity="0.2">
<path d="M335.992 376.698L181.236 287.35C178.197 285.595 173.282 285.595 170.268 287.347L109.584 322.612C106.57 324.362 106.586 327.21 109.625 328.965L264.381 418.314C267.42 420.068 272.336 420.068 275.35 418.316L336.033 383.052C339.047 381.3 339.03 378.453 335.992 376.698Z" fill="#808080"/>
</g>
<path d="M123.481 327.461L123.229 238.5L159.682 217.462L183.335 292.913L123.481 327.461ZM162.591 211.25L119.278 236.249L119.556 334.258L188.647 294.376L162.591 211.25Z" fill="#31394C"/>
<path d="M178.027 291.461L183.333 292.913L159.689 217.462L155.575 219.831L178.027 291.461Z" fill="#1B1F2D"/>
<path d="M123.467 322.935L123.479 327.461L183.333 292.92L178.011 291.461L123.467 322.935Z" fill="#1B1F2D"/>
<path d="M113.983 233.194L119.278 236.256L119.557 334.257L114.262 331.197L113.983 233.194Z" fill="#1B1F2D"/>
<path d="M113.983 233.194L119.278 236.256L162.595 211.25L157.298 208.189L113.983 233.194Z" fill="#1B1F2D"/>
<path d="M267.665 410.493L267.413 321.532L303.867 300.494L327.519 375.945L267.665 410.493ZM306.777 294.282L263.464 319.28L263.742 417.288L332.833 377.407L306.777 294.282Z" fill="#31394C"/>
<path d="M322.211 374.493L327.519 375.945L303.874 300.494L299.76 302.863L322.211 374.493Z" fill="#1B1F2D"/>
<path d="M267.653 405.968L267.664 410.493L327.519 375.952L322.196 374.493L267.653 405.968Z" fill="#1B1F2D"/>
<path d="M258.167 316.226L263.463 319.288L263.743 417.29L258.446 414.229L258.167 316.226Z" fill="#1B1F2D"/>
<path d="M258.167 316.226L263.463 319.288L306.779 294.282L301.484 291.221L258.167 316.226Z" fill="#1B1F2D"/>
<path d="M338.282 277.697L335.42 278.152L181.235 189.133C178.196 187.378 173.28 187.378 170.266 189.13L109.684 224.337L107.341 223.45L107.335 227.571V227.623L107.339 227.621C107.367 228.755 108.128 229.885 109.625 230.749L264.381 320.098C267.42 321.853 272.336 321.853 275.35 320.101L336.033 284.836C337.615 283.918 338.353 282.697 338.267 281.491L338.282 281.497C338.257 281.353 338.282 277.697 338.282 277.697Z" fill="#A6BFFF"/>
<path d="M275.35 320.1L336.033 284.836C337.615 283.917 338.353 282.696 338.267 281.491L338.282 281.496C338.258 281.353 338.282 277.698 338.282 277.698L335.42 278.153L313.906 265.731L269.667 309.97V321.402C271.722 321.434 273.789 321.006 275.35 320.1Z" fill="#91AAF2"/>
<path d="M335.992 274.247L181.236 184.899C178.197 183.144 173.282 183.144 170.268 184.896L109.584 220.161C106.57 221.911 106.586 224.759 109.625 226.514L264.381 315.863C267.42 317.617 272.336 317.617 275.35 315.865L336.033 280.601C339.047 278.849 339.03 276.001 335.992 274.247Z" fill="#CFDEFF"/>
<path d="M130.393 214.008C129.605 213.594 128.385 213.605 127.626 214.046L117.354 220.014C116.571 220.469 116.58 221.206 117.363 221.658L132.497 230.396C133.285 230.851 134.554 230.851 135.335 230.396L145.607 224.427C146.366 223.986 146.384 223.281 145.666 222.824C145.99 223.031 146.157 223.286 146.18 223.548L133.214 222.658L134.175 230.724C133.916 230.741 133.649 230.732 133.396 230.692L132.431 222.604L130.99 222.506L130.816 221.672L116.854 221.141C116.781 220.993 116.764 220.838 116.795 220.69L130.72 221.219L129.144 213.713C129.593 213.725 130.037 213.822 130.393 214.008ZM145.632 222.806C145.639 222.81 145.646 222.814 145.655 222.82C145.648 222.814 145.639 222.81 145.632 222.806ZM130.427 214.026C130.417 214.02 130.407 214.015 130.397 214.01C130.407 214.016 130.417 214.022 130.427 214.026Z" fill="white"/>
<path d="M133.214 222.659L132.431 222.606L133.396 230.693C133.65 230.732 133.916 230.742 134.175 230.725L133.214 222.659ZM130.72 221.218L116.795 220.69C116.763 220.838 116.781 220.993 116.854 221.141L130.816 221.672L130.72 221.218Z" fill="#EEF4FF"/>
<path d="M145.597 222.785L130.462 214.047C130.451 214.04 130.438 214.033 130.427 214.027C130.417 214.022 130.407 214.016 130.398 214.012L130.393 214.009C130.038 213.823 129.593 213.726 129.144 213.715L130.72 221.22L130.816 221.673L130.99 222.507L132.431 222.606L133.214 222.659L146.18 223.549C146.157 223.287 145.99 223.033 145.666 222.825C145.662 222.823 145.659 222.821 145.655 222.818C145.648 222.814 145.641 222.81 145.632 222.804C145.621 222.797 145.61 222.792 145.597 222.785Z" fill="#EEF4FF"/>
<path d="M151.911 202.509C151.122 202.095 149.903 202.107 149.143 202.547L138.872 208.516C138.089 208.971 138.097 209.708 138.882 210.16L154.016 218.897C154.804 219.352 156.073 219.352 156.854 218.897L167.126 212.929C167.885 212.488 167.903 211.782 167.185 211.326C167.509 211.533 167.676 211.788 167.699 212.05L154.733 211.16L155.694 219.226C155.435 219.243 155.169 219.233 154.915 219.193L153.95 211.106L152.509 211.008L152.335 210.174L138.373 209.643C138.3 209.495 138.283 209.34 138.314 209.192L152.239 209.72L150.663 202.215C151.112 202.226 151.556 202.323 151.911 202.509ZM151.946 202.528C151.936 202.522 151.926 202.516 151.917 202.512C151.926 202.518 151.936 202.522 151.946 202.528Z" fill="white"/>
<path d="M154.732 211.161L153.949 211.108L154.914 219.195C155.167 219.234 155.433 219.244 155.692 219.227L154.732 211.161ZM152.239 209.72L138.314 209.192C138.282 209.34 138.3 209.495 138.373 209.643L152.335 210.174L152.239 209.72Z" fill="#EEF4FF"/>
<path d="M167.116 211.287L151.981 202.549C151.97 202.542 151.957 202.535 151.946 202.529C151.936 202.524 151.926 202.518 151.917 202.514L151.912 202.511C151.557 202.325 151.112 202.228 150.663 202.217L152.239 209.722L152.335 210.175L152.509 211.009L153.95 211.108L154.733 211.161L167.699 212.051C167.676 211.789 167.509 211.534 167.185 211.327C167.181 211.325 167.178 211.323 167.174 211.32C167.167 211.316 167.16 211.311 167.151 211.306C167.14 211.299 167.127 211.292 167.116 211.287Z" fill="#EEF4FF"/>
<path d="M173.43 191.012C172.641 190.597 171.421 190.609 170.662 191.05L160.391 197.018C159.608 197.473 159.616 198.21 160.401 198.662L175.535 207.4C176.323 207.855 177.591 207.855 178.373 207.4L188.645 201.431C189.404 200.99 189.422 200.284 188.704 199.828C189.028 200.035 189.195 200.29 189.218 200.552L176.252 199.662L177.213 207.728C176.954 207.745 176.687 207.735 176.434 207.695L175.469 199.608L174.028 199.51L173.854 198.676L159.892 198.145C159.819 197.997 159.802 197.842 159.834 197.694L173.759 198.223L172.183 190.717C172.63 190.727 173.075 190.826 173.43 191.012Z" fill="white"/>
<path d="M176.251 199.662L175.468 199.608L176.432 207.695C176.686 207.735 176.952 207.744 177.211 207.727L176.251 199.662ZM173.757 198.222L159.832 197.694C159.799 197.842 159.818 197.997 159.889 198.145L173.851 198.676L173.757 198.222Z" fill="#EEF4FF"/>
<path d="M188.635 199.787L173.5 191.05C173.489 191.043 173.476 191.036 173.465 191.03C173.455 191.024 173.445 191.019 173.435 191.014L173.431 191.012C173.076 190.826 172.631 190.729 172.182 190.717L173.758 198.223L173.854 198.676L174.028 199.51L175.469 199.608L176.252 199.662L189.218 200.552C189.195 200.29 189.028 200.035 188.704 199.828C188.701 199.825 188.697 199.824 188.692 199.821C188.685 199.817 188.678 199.811 188.67 199.807C188.657 199.801 188.646 199.794 188.635 199.787Z" fill="#EEF4FF"/>
<path d="M306.779 281.186L286.13 269.264L260.357 284.243L281.006 296.165L306.779 281.186Z" fill="white"/>
<path d="M294.684 285.233L278.761 276.04L278.451 276.22L294.374 285.413L294.684 285.233Z" fill="#A6BFFF"/>
<path d="M293.352 286.007L277.429 276.813L277.119 276.993L293.042 286.188L293.352 286.007Z" fill="#A6BFFF"/>
<path d="M292.019 286.782L276.096 277.588L275.786 277.768L291.709 286.962L292.019 286.782Z" fill="#A6BFFF"/>
<path d="M290.687 287.555L274.764 278.363L274.457 278.541L290.38 287.734L290.687 287.555Z" fill="#A6BFFF"/>
<path d="M289.358 288.328L273.436 279.134L273.125 279.315L289.048 288.509L289.358 288.328Z" fill="#A6BFFF"/>
<path d="M288.027 289.103L272.103 279.909L271.792 280.089L287.715 289.283L288.027 289.103Z" fill="#A6BFFF"/>
<path d="M286.694 289.876L270.771 280.684L270.46 280.864L286.383 290.056L286.694 289.876Z" fill="#A6BFFF"/>
<path d="M285.362 290.651L269.439 281.457L269.13 281.636L285.053 290.83L285.362 290.651Z" fill="#A6BFFF"/>
<path d="M284.03 291.425L268.106 282.231L267.799 282.41L283.721 291.604L284.03 291.425Z" fill="#A6BFFF"/>
<path d="M274.417 287.519L266.813 283.129L266.504 283.309L274.106 287.699L274.417 287.519Z" fill="#A6BFFF"/>
<path d="M292.303 278.277L283.541 273.218L282.7 273.707L291.462 278.765L292.303 278.277Z" fill="#F24B4B"/>
<path d="M287.151 277.009L282.099 274.092L281.504 274.439L286.556 277.354L287.151 277.009Z" fill="#546FBF"/>
<path d="M307.202 280.588L286.554 268.666L260.78 283.645L281.43 295.567L307.202 280.588Z" fill="white"/>
<path d="M295.108 284.634L279.185 275.44L278.874 275.62L294.797 284.814L295.108 284.634Z" fill="#A6BFFF"/>
<path d="M293.776 285.407L277.852 276.215L277.541 276.395L293.464 285.589L293.776 285.407Z" fill="#A6BFFF"/>
<path d="M292.443 286.182L276.52 276.99L276.209 277.17L292.132 286.363L292.443 286.182Z" fill="#A6BFFF"/>
<path d="M291.111 286.957L275.188 277.763L274.879 277.942L290.803 287.136L291.111 286.957Z" fill="#A6BFFF"/>
<path d="M289.782 287.728L273.858 278.536L273.548 278.716L289.472 287.909L289.782 287.728Z" fill="#A6BFFF"/>
<path d="M288.449 288.503L272.526 279.311L272.215 279.491L288.138 288.683L288.449 288.503Z" fill="#A6BFFF"/>
<path d="M287.117 289.278L271.194 280.084L270.884 280.264L286.807 289.458L287.117 289.278Z" fill="#A6BFFF"/>
<path d="M285.785 290.053L269.861 280.859L269.554 281.038L285.478 290.23L285.785 290.053Z" fill="#A6BFFF"/>
<path d="M284.452 290.826L268.529 281.633L268.222 281.812L284.145 291.005L284.452 290.826Z" fill="#A6BFFF"/>
<path d="M274.84 286.919L267.236 282.529L266.926 282.709L274.53 287.099L274.84 286.919Z" fill="#A6BFFF"/>
<path d="M292.727 277.678L283.964 272.619L283.123 273.108L291.886 278.166L292.727 277.678Z" fill="#F24B4B"/>
<path d="M287.573 276.411L282.523 273.494L281.927 273.839L286.979 276.756L287.573 276.411Z" fill="#546FBF"/>
<path d="M301.512 280.08L280.862 268.158L255.089 283.136L275.738 295.058L301.512 280.08Z" fill="white"/>
<path d="M289.417 284.126L273.493 274.933L273.184 275.113L289.107 284.306L289.417 284.126Z" fill="#A6BFFF"/>
<path d="M288.084 284.9L272.161 275.706L271.851 275.888L287.775 285.081L288.084 284.9Z" fill="#A6BFFF"/>
<path d="M286.752 285.675L270.829 276.481L270.519 276.661L286.442 285.855L286.752 285.675Z" fill="#A6BFFF"/>
<path d="M285.42 286.448L269.496 277.256L269.189 277.435L285.113 286.627L285.42 286.448Z" fill="#A6BFFF"/>
<path d="M284.09 287.221L268.167 278.027L267.857 278.208L283.78 287.402L284.09 287.221Z" fill="#A6BFFF"/>
<path d="M282.758 287.996L266.835 278.802L266.525 278.982L282.448 288.176L282.758 287.996Z" fill="#A6BFFF"/>
<path d="M281.425 288.769L265.502 279.577L265.192 279.757L281.116 288.95L281.425 288.769Z" fill="#A6BFFF"/>
<path d="M280.093 289.544L264.17 280.351L263.863 280.529L279.786 289.723L280.093 289.544Z" fill="#A6BFFF"/>
<path d="M278.761 290.319L262.838 281.125L262.531 281.304L278.454 290.498L278.761 290.319Z" fill="#A6BFFF"/>
<path d="M269.15 286.412L261.546 282.022L261.235 282.202L268.839 286.592L269.15 286.412Z" fill="#A6BFFF"/>
<path d="M287.035 277.17L278.274 272.111L277.433 272.6L286.194 277.659L287.035 277.17Z" fill="#F24B4B"/>
<path d="M281.883 275.902L276.831 272.986L276.237 273.332L281.289 276.249L281.883 275.902Z" fill="#546FBF"/>
<g opacity="0.3">
<path d="M249.538 258.249L225.477 272.216C224.883 272.558 224.152 272.558 223.559 272.213L183.812 249.082C182.541 248.343 182.543 246.506 183.818 245.771L208.138 231.646C208.733 231.304 209.464 231.304 210.056 231.649L249.413 256.518C250.459 257.106 250.391 257.725 249.538 258.249Z" fill="#CCCCCC"/>
</g>
<path d="M249.994 256.161C249.994 256.161 248.827 256.275 248.432 256.065L208.088 232.556C207.523 232.231 206.827 232.231 206.264 232.559L184.042 244.585C182.489 245.667 182.815 247.934 184.027 248.633L223.712 271.545C224.277 271.87 224.973 271.87 225.536 271.542L249.744 257.473C250.314 257.117 250.135 256.516 249.994 256.161Z" fill="#1B1F2D"/>
<path d="M207.29 203.062L207.882 230.515C207.879 231.242 208.266 231.917 208.896 232.283L248.541 255.675C249.862 256.447 251.49 255.214 251.496 253.672L251.57 226.951C251.572 226.232 251.194 225.565 250.579 225.2L210.31 201.386C208.959 200.59 207.195 201.424 207.29 203.062Z" fill="#31394C"/>
<path d="M207.275 202.905L207.196 230.867C207.195 231.594 207.581 232.269 208.21 232.635L247.845 255.757C249.168 256.528 250.82 255.566 250.824 254.026L250.899 227.3C250.9 226.582 250.523 225.914 249.906 225.549L209.497 201.656C208.511 201.073 207.278 201.766 207.275 202.905Z" fill="#1B1F2D"/>
<path d="M208.783 203.108L208.7 230.497L249.182 253.901L249.263 226.789L208.783 203.108Z" fill="#546FBF"/>
<g opacity="0.03">
<path d="M213.917 206.111L208.766 208.491L208.707 228.156L232.67 217.081L213.917 206.111Z" fill="white"/>
<path d="M235.795 218.91L209.599 231.016L214.434 233.812L240.599 221.72L235.795 218.91Z" fill="white"/>
<path d="M243.724 223.548L217.58 235.631L236.457 246.544L249.221 240.645L249.263 226.789L243.724 223.548Z" fill="white"/>
<path d="M244.438 251.159L249.196 248.959L249.211 243.922L239.603 248.362L244.438 251.159Z" fill="white"/>
</g>
<path d="M249.808 256.728L225.475 270.77C224.911 271.095 224.215 271.094 223.652 270.767L184.036 247.734C182.828 247.032 182.831 245.284 184.042 244.585L206.323 231.728C206.887 231.403 207.583 231.403 208.147 231.731L249.81 255.954C250.107 256.127 250.107 256.557 249.808 256.728Z" fill="#31394C"/>
<path d="M216.493 257.658L210.411 261.258C210.261 261.345 210.073 261.346 209.923 261.259L199.277 255.111C198.951 254.924 198.951 254.455 199.275 254.266L205.102 250.969C205.252 250.882 205.44 250.881 205.59 250.968L216.493 257.449C216.573 257.496 216.573 257.611 216.493 257.658Z" fill="#CFDEFF"/>
<path d="M206.958 235.038L208.321 235.835C208.485 235.931 208.752 235.928 208.92 235.829L209.6 235.426C209.766 235.328 209.769 235.17 209.604 235.076L208.239 234.283C208.078 234.188 207.811 234.191 207.645 234.29L206.968 234.69C206.8 234.787 206.796 234.943 206.958 235.038Z" fill="#CFDEFF"/>
<path d="M209.363 236.445L210.744 237.252C210.91 237.349 211.179 237.346 211.346 237.246L212.028 236.839C212.194 236.739 212.196 236.58 212.03 236.484L210.648 235.681C210.483 235.585 210.216 235.588 210.049 235.687L209.369 236.091C209.201 236.19 209.199 236.347 209.363 236.445Z" fill="#CFDEFF"/>
<path d="M211.797 237.867L213.194 238.684C213.362 238.782 213.634 238.78 213.801 238.678L214.486 238.267C214.653 238.167 214.652 238.006 214.484 237.908L213.086 237.095C212.92 236.998 212.649 237.001 212.483 237.101L211.801 237.508C211.632 237.611 211.631 237.77 211.797 237.867Z" fill="#CFDEFF"/>
<path d="M214.26 239.308L215.674 240.134C215.843 240.233 216.118 240.232 216.286 240.13L216.972 239.716C217.139 239.615 217.138 239.453 216.967 239.354L215.552 238.532C215.383 238.433 215.111 238.436 214.943 238.537L214.259 238.949C214.093 239.047 214.093 239.209 214.26 239.308Z" fill="#CFDEFF"/>
<path d="M216.755 240.767L218.186 241.604C218.357 241.704 218.633 241.702 218.802 241.599L219.491 241.181C219.66 241.078 219.656 240.915 219.484 240.815L218.05 239.983C217.88 239.884 217.605 239.885 217.438 239.987L216.752 240.402C216.583 240.504 216.584 240.667 216.755 240.767Z" fill="#CFDEFF"/>
<path d="M219.278 242.243L220.728 243.091C220.901 243.192 221.18 243.191 221.349 243.088L222.039 242.665C222.208 242.563 222.204 242.396 222.029 242.295L220.578 241.451C220.405 241.351 220.129 241.353 219.962 241.456L219.273 241.874C219.104 241.977 219.107 242.142 219.278 242.243Z" fill="#CFDEFF"/>
<path d="M221.835 243.737L223.302 244.595C223.478 244.698 223.759 244.696 223.929 244.592L224.622 244.165C224.791 244.061 224.785 243.894 224.609 243.791L223.14 242.937C222.966 242.836 222.687 242.837 222.518 242.942L221.828 243.364C221.657 243.468 221.66 243.636 221.835 243.737Z" fill="#CFDEFF"/>
<path d="M224.423 245.251L225.909 246.12C226.087 246.224 226.37 246.223 226.54 246.117L227.235 245.688C227.405 245.582 227.398 245.413 227.219 245.309L225.732 244.444C225.554 244.341 225.274 244.343 225.105 244.447L224.412 244.874C224.242 244.979 224.246 245.147 224.423 245.251Z" fill="#CFDEFF"/>
<path d="M227.044 246.783L228.549 247.662C228.729 247.768 229.013 247.767 229.185 247.661L229.881 247.227C230.051 247.12 230.043 246.95 229.863 246.844L228.356 245.969C228.177 245.865 227.894 245.867 227.723 245.972L227.029 246.403C226.858 246.507 226.864 246.679 227.044 246.783Z" fill="#CFDEFF"/>
<path d="M229.698 248.336L231.222 249.227C231.405 249.334 231.692 249.334 231.862 249.226L232.561 248.788C232.731 248.681 232.722 248.507 232.538 248.4L231.013 247.515C230.832 247.409 230.547 247.41 230.375 247.516L229.678 247.951C229.508 248.057 229.516 248.229 229.698 248.336Z" fill="#CFDEFF"/>
<path d="M232.385 249.907L233.927 250.809C234.112 250.917 234.402 250.917 234.574 250.809L235.275 250.366C235.447 250.258 235.436 250.083 235.25 249.975L233.705 249.078C233.52 248.971 233.233 248.972 233.062 249.079L232.364 249.518C232.192 249.625 232.202 249.799 232.385 249.907Z" fill="#CFDEFF"/>
<path d="M235.107 251.499L236.671 252.413C236.858 252.523 237.15 252.523 237.323 252.413L238.026 251.966C238.197 251.857 238.185 251.681 237.997 251.571L236.433 250.661C236.247 250.552 235.957 250.552 235.785 250.661L235.083 251.105C234.91 251.213 234.922 251.39 235.107 251.499Z" fill="#CFDEFF"/>
<path d="M237.864 253.112L239.447 254.037C239.637 254.148 239.931 254.148 240.104 254.038L240.809 253.588C240.98 253.478 240.966 253.298 240.776 253.188L239.192 252.267C239.003 252.157 238.712 252.157 238.538 252.267L237.836 252.715C237.664 252.823 237.676 253 237.864 253.112Z" fill="#CFDEFF"/>
<path d="M243.594 254.824L241.989 253.892C241.797 253.78 241.503 253.78 241.331 253.89L240.626 254.342C240.452 254.454 240.466 254.634 240.658 254.745L242.262 255.683C242.455 255.796 242.751 255.796 242.924 255.685L243.631 255.23C243.803 255.117 243.787 254.935 243.594 254.824Z" fill="#CFDEFF"/>
<path d="M204.735 236.439L205.986 237.178C206.19 237.298 206.524 237.295 206.734 237.171L207.969 236.438C208.178 236.314 208.18 236.116 207.978 235.997L206.724 235.263C206.521 235.145 206.189 235.147 205.98 235.271L204.748 236C204.538 236.122 204.533 236.319 204.735 236.439Z" fill="#CFDEFF"/>
<path d="M210.303 237.36L209.035 236.618C208.83 236.498 208.496 236.501 208.286 236.625L207.051 237.359C206.841 237.483 206.837 237.681 207.041 237.802L208.306 238.55C208.511 238.671 208.849 238.669 209.059 238.543L210.299 237.804C210.507 237.68 210.508 237.48 210.303 237.36Z" fill="#CFDEFF"/>
<path d="M212.656 238.738L211.373 237.985C211.166 237.864 210.828 237.867 210.62 237.992L209.38 238.733C209.17 238.859 209.168 239.06 209.375 239.183L210.655 239.939C210.863 240.063 211.203 240.06 211.414 239.933L212.656 239.187C212.863 239.061 212.865 238.86 212.656 238.738Z" fill="#CFDEFF"/>
<path d="M205.897 239.881L207.166 240.64C207.373 240.764 207.711 240.761 207.924 240.635L209.172 239.888C209.383 239.761 209.385 239.56 209.178 239.437L207.906 238.684C207.7 238.561 207.363 238.564 207.154 238.69L205.909 239.432C205.697 239.557 205.692 239.759 205.897 239.881Z" fill="#CFDEFF"/>
<path d="M202.426 237.804L204.752 239.196C204.957 239.319 205.293 239.316 205.503 239.191L206.747 238.45C206.956 238.325 206.961 238.126 206.756 238.005L204.424 236.623C204.223 236.504 203.889 236.506 203.681 236.63L202.441 237.363C202.231 237.485 202.224 237.682 202.426 237.804Z" fill="#CFDEFF"/>
<path d="M211.532 240.833L210.245 240.071C210.037 239.949 209.699 239.95 209.487 240.077L208.239 240.825C208.028 240.951 208.024 241.154 208.231 241.278L209.514 242.046C209.723 242.171 210.065 242.168 210.276 242.041L211.528 241.288C211.741 241.161 211.742 240.957 211.532 240.833Z" fill="#CFDEFF"/>
<path d="M213.915 242.246L212.614 241.474C212.404 241.349 212.062 241.351 211.851 241.48L210.599 242.234C210.386 242.363 210.384 242.568 210.594 242.694L211.893 243.471C212.104 243.598 212.448 243.596 212.66 243.467L213.915 242.706C214.128 242.577 214.128 242.371 213.915 242.246Z" fill="#CFDEFF"/>
<path d="M216.328 243.674L215.011 242.894C214.798 242.767 214.453 242.77 214.242 242.898L212.986 243.658C212.773 243.788 212.772 243.995 212.984 244.122L214.299 244.908C214.513 245.036 214.859 245.034 215.073 244.905L216.332 244.137C216.544 244.009 216.542 243.801 216.328 243.674Z" fill="#CFDEFF"/>
<path d="M218.767 245.12L217.434 244.33C217.218 244.202 216.872 244.205 216.659 244.334L215.4 245.102C215.186 245.232 215.187 245.441 215.403 245.571L216.732 246.367C216.949 246.496 217.298 246.495 217.512 246.364L218.776 245.591C218.988 245.46 218.986 245.248 218.767 245.12Z" fill="#CFDEFF"/>
<path d="M221.238 246.584L219.888 245.784C219.67 245.654 219.321 245.655 219.108 245.786L217.845 246.561C217.631 246.692 217.633 246.905 217.85 247.034L219.197 247.84C219.416 247.971 219.769 247.969 219.983 247.838L221.249 247.058C221.463 246.926 221.457 246.715 221.238 246.584Z" fill="#CFDEFF"/>
<path d="M223.737 248.065L222.371 247.257C222.15 247.126 221.798 247.127 221.584 247.26L220.317 248.042C220.102 248.174 220.105 248.388 220.326 248.52L221.688 249.336C221.911 249.468 222.264 249.468 222.48 249.334L223.75 248.547C223.967 248.412 223.96 248.196 223.737 248.065Z" fill="#CFDEFF"/>
<path d="M226.268 249.564L224.887 248.746C224.663 248.613 224.308 248.613 224.094 248.747L222.824 249.536C222.608 249.669 222.614 249.886 222.836 250.019L224.215 250.844C224.44 250.978 224.797 250.978 225.014 250.844L226.288 250.05C226.501 249.915 226.492 249.698 226.268 249.564Z" fill="#CFDEFF"/>
<path d="M225.374 251.538L226.77 252.373C226.997 252.51 227.357 252.51 227.574 252.373L228.851 251.57C229.067 251.435 229.057 251.216 228.829 251.08L227.43 250.251C227.204 250.117 226.847 250.117 226.632 250.252L225.357 251.048C225.14 251.185 225.149 251.403 225.374 251.538Z" fill="#CFDEFF"/>
<path d="M231.448 253.113C231.665 252.976 231.653 252.755 231.423 252.617L230.006 251.778C229.778 251.642 229.417 251.642 229.202 251.778L227.923 252.58C227.706 252.717 227.716 252.938 227.944 253.075L229.357 253.921C229.586 254.059 229.95 254.059 230.167 253.923L231.448 253.113Z" fill="#CFDEFF"/>
<path d="M234.077 254.673C234.293 254.535 234.281 254.311 234.047 254.173L232.613 253.324C232.382 253.188 232.019 253.186 231.802 253.324L230.52 254.135C230.303 254.273 230.315 254.496 230.546 254.634L231.977 255.49C232.209 255.63 232.575 255.631 232.793 255.492L234.077 254.673Z" fill="#CFDEFF"/>
<path d="M233.178 256.209L234.627 257.076C234.862 257.217 235.231 257.218 235.45 257.079L236.738 256.254C236.955 256.114 236.94 255.887 236.705 255.748L235.253 254.887C235.017 254.748 234.653 254.748 234.436 254.886L233.15 255.704C232.932 255.842 232.944 256.069 233.178 256.209Z" fill="#CFDEFF"/>
<path d="M204.172 241.178C203.959 241.305 203.954 241.508 204.159 241.632L205.428 242.399C205.635 242.525 205.975 242.522 206.187 242.395L207.444 241.642C207.656 241.515 207.659 241.311 207.452 241.187L206.18 240.425C205.975 240.302 205.637 240.304 205.426 240.43L204.172 241.178Z" fill="#CFDEFF"/>
<path d="M200.105 239.177L203.048 240.96C203.252 241.084 203.59 241.081 203.802 240.954L205.054 240.208C205.265 240.081 205.271 239.88 205.066 239.757L202.114 237.987C201.913 237.866 201.579 237.868 201.369 237.994L200.124 238.73C199.912 238.856 199.903 239.056 200.105 239.177Z" fill="#CFDEFF"/>
<path d="M206.503 242.586C206.29 242.715 206.286 242.919 206.493 243.046L207.776 243.823C207.985 243.95 208.328 243.948 208.541 243.819L209.8 243.06C210.013 242.932 210.015 242.726 209.806 242.601L208.518 241.829C208.31 241.703 207.97 241.706 207.758 241.833L206.503 242.586Z" fill="#CFDEFF"/>
<path d="M208.855 244.475L210.153 245.261C210.365 245.389 210.71 245.388 210.924 245.258L212.187 244.492C212.401 244.362 212.401 244.154 212.19 244.027L210.889 243.247C210.679 243.12 210.335 243.123 210.122 243.251L208.862 244.012C208.648 244.141 208.645 244.348 208.855 244.475Z" fill="#CFDEFF"/>
<path d="M211.245 245.923L212.559 246.719C212.773 246.848 213.121 246.847 213.335 246.716L214.603 245.943C214.817 245.812 214.815 245.602 214.601 245.474L213.284 244.684C213.072 244.555 212.727 244.557 212.513 244.686L211.249 245.454C211.035 245.585 211.032 245.795 211.245 245.923Z" fill="#CFDEFF"/>
<path d="M213.665 247.388L214.994 248.193C215.211 248.324 215.562 248.323 215.777 248.192L217.048 247.412C217.262 247.279 217.26 247.068 217.043 246.937L215.71 246.137C215.494 246.008 215.146 246.009 214.932 246.14L213.665 246.913C213.449 247.045 213.449 247.258 213.665 247.388Z" fill="#CFDEFF"/>
<path d="M216.112 248.871L217.459 249.687C217.679 249.819 218.031 249.819 218.247 249.685L219.522 248.898C219.738 248.765 219.733 248.55 219.514 248.419L218.164 247.611C217.946 247.48 217.595 247.481 217.381 247.613L216.11 248.394C215.893 248.525 215.894 248.739 216.112 248.871Z" fill="#CFDEFF"/>
<path d="M218.59 250.371L219.952 251.196C220.174 251.33 220.529 251.33 220.746 251.196L222.025 250.402C222.24 250.268 222.235 250.051 222.014 249.917L220.648 249.099C220.426 248.967 220.073 248.968 219.859 249.1L218.583 249.888C218.367 250.022 218.37 250.238 218.59 250.371Z" fill="#CFDEFF"/>
<path d="M221.098 251.891L222.477 252.726C222.701 252.862 223.06 252.862 223.277 252.726L224.56 251.924C224.777 251.789 224.77 251.57 224.544 251.434L223.161 250.605C222.938 250.471 222.583 250.471 222.366 250.606L221.087 251.402C220.871 251.537 220.876 251.755 221.098 251.891Z" fill="#CFDEFF"/>
<path d="M223.637 253.427L225.033 254.272C225.26 254.41 225.622 254.41 225.84 254.273L227.126 253.465C227.343 253.328 227.334 253.107 227.106 252.971L225.706 252.131C225.48 251.996 225.122 251.996 224.905 252.131L223.622 252.934C223.405 253.071 223.412 253.29 223.637 253.427Z" fill="#CFDEFF"/>
<path d="M226.208 254.985L227.622 255.841C227.851 255.98 228.216 255.982 228.434 255.842L229.725 255.025C229.943 254.887 229.932 254.663 229.701 254.525L228.284 253.676C228.056 253.54 227.694 253.538 227.475 253.675L226.188 254.485C225.971 254.623 225.98 254.845 226.208 254.985Z" fill="#CFDEFF"/>
<path d="M231.061 257.43L232.356 256.606C232.574 256.466 232.561 256.239 232.327 256.1L230.892 255.24C230.66 255.1 230.296 255.1 230.078 255.238L228.788 256.055C228.57 256.193 228.58 256.42 228.811 256.559L230.242 257.425C230.475 257.568 230.841 257.569 231.061 257.43Z" fill="#CFDEFF"/>
<path d="M236.986 258.893L233.567 256.842C233.332 256.702 232.964 256.7 232.746 256.84L231.451 257.665C231.232 257.804 231.244 258.032 231.478 258.175L234.891 260.241C235.129 260.384 235.5 260.387 235.722 260.245L237.023 259.407C237.241 259.266 237.224 259.035 236.986 258.893Z" fill="#CFDEFF"/>
<path d="M203.021 243.777L204.293 244.556C204.5 244.682 204.842 244.681 205.057 244.553L206.321 243.792C206.535 243.664 206.54 243.457 206.331 243.332L205.055 242.559C204.85 242.433 204.51 242.436 204.296 242.563L203.034 243.318C202.823 243.444 202.816 243.65 203.021 243.777Z" fill="#CFDEFF"/>
<path d="M198.746 241.636L197.26 240.723C197.127 240.643 196.908 240.644 196.768 240.727L194.916 241.822C194.775 241.905 194.768 242.039 194.899 242.12L196.381 243.041C196.513 243.123 196.734 243.123 196.875 243.039L198.731 241.936C198.872 241.85 198.878 241.716 198.746 241.636Z" fill="#CFDEFF"/>
<path d="M201.05 243.05L199.545 242.126C199.412 242.044 199.191 242.046 199.05 242.129L197.192 243.233C197.051 243.317 197.044 243.451 197.177 243.534L198.675 244.465C198.809 244.548 199.031 244.547 199.174 244.462L201.036 243.351C201.178 243.267 201.183 243.131 201.05 243.05Z" fill="#CFDEFF"/>
<path d="M203.381 244.481L201.858 243.547C201.723 243.464 201.5 243.465 201.36 243.55L199.496 244.663C199.354 244.747 199.348 244.884 199.484 244.967L201 245.909C201.136 245.993 201.361 245.992 201.503 245.908L203.372 244.786C203.512 244.701 203.516 244.564 203.381 244.481Z" fill="#CFDEFF"/>
<path d="M206.28 246.261L204.197 244.982C204.061 244.898 203.835 244.899 203.695 244.984L201.826 246.107C201.683 246.193 201.679 246.33 201.814 246.414L203.89 247.705C204.028 247.79 204.255 247.789 204.397 247.703L206.273 246.569C206.416 246.485 206.418 246.345 206.28 246.261Z" fill="#CFDEFF"/>
<path d="M221.718 255.74L219.471 254.361C219.325 254.271 219.088 254.271 218.945 254.359L217.039 255.548C216.894 255.638 216.895 255.785 217.042 255.876L219.281 257.268C219.429 257.359 219.667 257.361 219.814 257.269L221.726 256.069C221.87 255.978 221.866 255.83 221.718 255.74Z" fill="#CFDEFF"/>
<path d="M224.313 257.332L222.653 256.313C222.504 256.221 222.266 256.22 222.121 256.311L220.208 257.514C220.063 257.606 220.066 257.755 220.215 257.847L221.87 258.875C222.021 258.968 222.26 258.969 222.406 258.877L224.325 257.666C224.47 257.575 224.464 257.425 224.313 257.332Z" fill="#CFDEFF"/>
<path d="M225.728 259.73L224.049 258.693C223.898 258.6 223.657 258.599 223.512 258.69L222.815 259.131C222.669 259.222 222.673 259.373 222.823 259.468L224.499 260.51C224.652 260.604 224.894 260.606 225.04 260.513L225.739 260.068C225.885 259.975 225.88 259.824 225.728 259.73Z" fill="#CFDEFF"/>
<path d="M231.056 263.021L229.334 261.957C229.18 261.862 228.936 261.86 228.789 261.955L228.088 262.404C227.942 262.498 227.947 262.652 228.102 262.748L229.822 263.815C229.978 263.912 230.223 263.914 230.371 263.819L231.074 263.366C231.22 263.272 231.212 263.117 231.056 263.021Z" fill="#CFDEFF"/>
<path d="M228.374 261.365L226.674 260.315C226.52 260.221 226.278 260.22 226.133 260.312L225.433 260.758C225.287 260.85 225.292 261.003 225.444 261.098L227.141 262.153C227.295 262.249 227.54 262.25 227.687 262.156L228.388 261.707C228.536 261.612 228.529 261.46 228.374 261.365Z" fill="#CFDEFF"/>
<path d="M226.811 260.228L228.51 261.278C228.664 261.373 228.909 261.375 229.054 261.28L229.753 260.832C229.899 260.74 229.891 260.587 229.737 260.492L228.034 259.447C227.881 259.352 227.639 259.352 227.494 259.444L226.796 259.887C226.651 259.982 226.657 260.134 226.811 260.228Z" fill="#CFDEFF"/>
<path d="M218.473 253.747L207.102 246.765C206.963 246.681 206.737 246.681 206.594 246.767L204.719 247.902C204.576 247.988 204.572 248.127 204.71 248.213L216.046 255.256C216.193 255.346 216.428 255.348 216.573 255.258L218.477 254.072C218.621 253.982 218.619 253.837 218.473 253.747Z" fill="#CFDEFF"/>
<path d="M197.769 240.557L201.809 243.031C202.013 243.157 202.352 243.155 202.566 243.027L203.827 242.274C204.04 242.147 204.047 241.943 203.841 241.817L199.79 239.361C199.589 239.239 199.255 239.241 199.044 239.367L197.792 240.106C197.579 240.234 197.569 240.434 197.769 240.557Z" fill="#CFDEFF"/>
<path d="M205.364 245.21L206.651 245.999C206.861 246.127 207.204 246.126 207.42 245.996L208.689 245.229C208.903 245.099 208.906 244.891 208.696 244.763L207.404 243.98C207.196 243.853 206.854 243.854 206.64 243.984L205.375 244.746C205.161 244.875 205.155 245.084 205.364 245.21Z" fill="#CFDEFF"/>
<path d="M207.733 246.662L209.035 247.461C209.248 247.59 209.594 247.59 209.81 247.458L211.083 246.683C211.297 246.552 211.3 246.342 211.087 246.213L209.78 245.42C209.569 245.292 209.224 245.293 209.01 245.423L207.741 246.192C207.527 246.323 207.523 246.533 207.733 246.662Z" fill="#CFDEFF"/>
<path d="M210.131 248.131L211.449 248.94C211.663 249.071 212.014 249.071 212.23 248.938L213.507 248.157C213.722 248.024 213.722 247.812 213.507 247.682L212.185 246.881C211.97 246.751 211.624 246.753 211.408 246.884L210.135 247.658C209.921 247.789 209.918 248.002 210.131 248.131Z" fill="#CFDEFF"/>
<path d="M212.558 249.619L213.891 250.437C214.108 250.569 214.462 250.569 214.679 250.436L215.959 249.647C216.176 249.514 216.173 249.299 215.956 249.167L214.618 248.355C214.401 248.224 214.052 248.226 213.836 248.357L212.559 249.138C212.344 249.272 212.342 249.486 212.558 249.619Z" fill="#CFDEFF"/>
<path d="M215.014 251.124L216.365 251.952C216.584 252.088 216.939 252.088 217.158 251.952L218.442 251.157C218.659 251.023 218.656 250.804 218.435 250.671L217.082 249.85C216.863 249.717 216.51 249.717 216.294 249.851L215.013 250.64C214.796 250.774 214.796 250.99 215.014 251.124Z" fill="#CFDEFF"/>
<path d="M217.501 252.647L218.869 253.485C219.091 253.621 219.449 253.621 219.667 253.486L220.956 252.683C221.173 252.548 221.169 252.328 220.946 252.193L219.576 251.362C219.355 251.229 219 251.229 218.783 251.362L217.498 252.158C217.277 252.293 217.28 252.512 217.501 252.647Z" fill="#CFDEFF"/>
<path d="M220.018 254.189L221.402 255.037C221.628 255.175 221.988 255.175 222.208 255.038L223.5 254.228C223.718 254.092 223.711 253.869 223.486 253.733L222.098 252.892C221.874 252.755 221.517 252.755 221.298 252.892L220.01 253.696C219.79 253.831 219.794 254.052 220.018 254.189Z" fill="#CFDEFF"/>
<path d="M222.566 255.751L223.967 256.61C224.195 256.749 224.559 256.751 224.778 256.613L226.074 255.795C226.292 255.657 226.285 255.433 226.056 255.293L224.652 254.441C224.425 254.303 224.064 254.303 223.846 254.44L222.553 255.251C222.333 255.389 222.339 255.611 222.566 255.751Z" fill="#CFDEFF"/>
<path d="M228.66 256.872L227.237 256.009C227.008 255.869 226.644 255.868 226.425 256.007L225.128 256.825C224.908 256.964 224.915 257.19 225.144 257.331L226.563 258.2C226.794 258.342 227.16 258.344 227.381 258.203L228.681 257.378C228.902 257.24 228.891 257.013 228.66 256.872Z" fill="#CFDEFF"/>
<path d="M234.623 260.489L229.856 257.597C229.623 257.456 229.257 257.455 229.037 257.594L227.736 258.421C227.516 258.561 227.525 258.79 227.757 258.932L232.513 261.846C232.751 261.991 233.123 261.994 233.346 261.852L234.654 261.01C234.877 260.866 234.863 260.634 234.623 260.489Z" fill="#CFDEFF"/>
<path d="M239.396 257.342L237.926 256.472C237.688 256.331 237.32 256.33 237.102 256.469L235.812 257.294C235.593 257.434 235.607 257.663 235.844 257.804L237.312 258.682C237.551 258.825 237.921 258.827 238.141 258.685L239.434 257.852C239.652 257.713 239.635 257.485 239.396 257.342Z" fill="#CFDEFF"/>
<path d="M215.036 240.132L213.738 239.371C213.528 239.249 213.189 239.251 212.979 239.377L211.735 240.123C211.524 240.25 211.522 240.453 211.732 240.577L213.027 241.343C213.238 241.468 213.58 241.465 213.791 241.337L215.038 240.585C215.249 240.46 215.248 240.256 215.036 240.132Z" fill="#CFDEFF"/>
<path d="M217.446 241.543L216.134 240.774C215.921 240.65 215.579 240.651 215.369 240.78L214.122 241.533C213.911 241.661 213.911 241.865 214.122 241.991L215.432 242.765C215.645 242.892 215.99 242.889 216.203 242.761L217.452 242.002C217.662 241.874 217.659 241.668 217.446 241.543Z" fill="#CFDEFF"/>
<path d="M219.883 242.971L218.553 242.192C218.339 242.067 217.994 242.068 217.783 242.196L216.532 242.957C216.319 243.085 216.322 243.293 216.536 243.42L217.862 244.205C218.077 244.333 218.425 244.331 218.638 244.2L219.891 243.434C220.104 243.305 220.1 243.098 219.883 242.971Z" fill="#CFDEFF"/>
<path d="M222.35 244.416L221.005 243.629C220.788 243.502 220.44 243.503 220.229 243.633L218.974 244.399C218.762 244.529 218.764 244.738 218.981 244.867L220.323 245.661C220.542 245.791 220.892 245.789 221.105 245.658L222.363 244.885C222.576 244.754 222.57 244.544 222.35 244.416Z" fill="#CFDEFF"/>
<path d="M224.847 245.878L223.487 245.081C223.267 244.952 222.916 244.954 222.704 245.083L221.446 245.857C221.233 245.988 221.238 246.199 221.457 246.328L222.815 247.131C223.036 247.262 223.39 247.261 223.602 247.128L224.864 246.348C225.075 246.22 225.068 246.007 224.847 245.878Z" fill="#CFDEFF"/>
<path d="M227.374 247.358L225.997 246.551C225.774 246.42 225.421 246.421 225.208 246.554L223.946 247.334C223.732 247.466 223.739 247.68 223.96 247.811L225.335 248.624C225.559 248.757 225.913 248.757 226.129 248.623L227.394 247.835C227.608 247.703 227.598 247.489 227.374 247.358Z" fill="#CFDEFF"/>
<path d="M229.932 248.857L228.537 248.04C228.312 247.907 227.956 247.909 227.743 248.041L226.478 248.828C226.264 248.962 226.273 249.178 226.497 249.312L227.888 250.134C228.115 250.268 228.473 250.268 228.688 250.133L229.957 249.338C230.17 249.206 230.158 248.989 229.932 248.857Z" fill="#CFDEFF"/>
<path d="M232.522 250.372L231.111 249.545C230.882 249.412 230.523 249.413 230.309 249.547L229.04 250.341C228.825 250.476 228.835 250.695 229.063 250.828L230.471 251.662C230.701 251.797 231.061 251.797 231.277 251.662L232.549 250.861C232.764 250.726 232.751 250.507 232.522 250.372Z" fill="#CFDEFF"/>
<path d="M233.085 253.21C233.317 253.348 233.681 253.348 233.898 253.211L235.174 252.403C235.389 252.266 235.375 252.045 235.143 251.909L233.713 251.072C233.482 250.937 233.122 250.937 232.906 251.072L231.633 251.875C231.418 252.012 231.429 252.231 231.66 252.368L233.085 253.21Z" fill="#CFDEFF"/>
<path d="M237.796 253.462L236.35 252.614C236.116 252.478 235.753 252.478 235.537 252.614L234.261 253.424C234.044 253.561 234.058 253.785 234.292 253.923L235.736 254.776C235.971 254.916 236.337 254.916 236.554 254.778L237.834 253.962C238.048 253.824 238.031 253.6 237.796 253.462Z" fill="#CFDEFF"/>
<path d="M242.01 255.931L238.928 254.126C238.778 254.037 238.544 254.037 238.406 254.124L236.841 255.123C236.703 255.211 236.713 255.355 236.864 255.444L239.938 257.263C240.09 257.354 240.327 257.355 240.466 257.265L242.037 256.254C242.176 256.165 242.163 256.02 242.01 255.931Z" fill="#CFDEFF"/>
<path d="M239.264 363.6C235.184 364.807 231.398 367.047 227.24 368.086C223.594 369.273 219.89 370.153 216.184 371.12C213.837 371.732 211.478 372.52 209.506 373.976C208.616 374.634 208.771 376.017 208.858 376.986C209.004 378.611 211.169 379.404 212.463 379.843C214.259 380.453 216.194 380.714 218.08 380.429C220.625 380.043 222.678 378.749 224.812 377.418C226.774 376.195 228.771 375.025 230.84 373.994C232.857 372.989 234.988 372.305 237.033 371.37C238.985 370.479 240.476 369.111 240.668 366.886C240.717 366.313 240.764 365.725 240.675 365.154C240.589 364.609 240.369 364.068 239.964 363.692C239.878 363.611 239.776 363.537 239.659 363.521C239.568 363.51 239.476 363.535 239.388 363.561C239.345 363.576 239.305 363.588 239.264 363.6Z" fill="#31394C"/>
<path d="M234.646 360.345C234.001 360.306 233.342 360.319 232.687 360.365C231.091 360.478 229.511 360.747 227.918 360.9C226.207 361.065 224.579 360.92 222.874 360.755C222.348 360.704 221.819 360.662 221.29 360.652C217.035 360.573 212.73 363.314 210.647 366.994C210.634 366.987 210.623 366.976 210.609 366.982C208.857 367.718 209.568 370.107 209.419 371.572C209.312 372.617 208.816 373.688 208.902 374.742C208.974 375.605 209.571 376.163 210.245 376.636C212.802 378.428 216.286 379.098 219.32 378.246C221.676 377.584 223.653 376.173 225.764 374.98C228.391 373.495 231.049 371.974 233.856 370.865C235.312 370.289 236.855 369.841 238.17 368.956C239.872 367.81 241.193 365.828 240.285 363.773C239.206 361.333 237.02 360.489 234.646 360.345Z" fill="#546FBF"/>
<path d="M231.728 363.445C230.492 362.466 229.054 361.564 227.55 360.921C225.973 361.034 224.455 360.909 222.873 360.757C222.348 360.706 221.821 360.664 221.291 360.654C220.625 360.948 219.991 361.338 219.413 361.835C219.342 361.896 219.31 361.968 219.293 362.042C219.234 362.111 219.177 362.182 219.131 362.238C218.849 362.583 218.624 362.978 218.487 363.403C218.182 364.355 218.531 365.224 219.046 366.024C219.559 366.821 220.067 367.554 220.849 368.107C221.194 368.352 221.615 368.584 222.032 368.668C222.404 368.741 222.948 368.797 223.249 368.532C223.3 368.489 223.318 368.421 223.322 368.354C225.356 367.262 227.483 366.845 229.753 366.545C230.598 366.434 231.997 366.33 232.571 365.597C233.166 364.838 232.304 363.902 231.728 363.445Z" fill="#2B3D89"/>
<path d="M219.158 350.735C215.079 351.941 211.292 354.181 207.134 355.22C203.488 356.409 199.784 357.288 196.078 358.255C193.73 358.868 191.371 359.655 189.4 361.112C188.509 361.769 188.666 363.152 188.752 364.121C188.898 365.747 191.063 366.54 192.357 366.979C194.153 367.589 196.089 367.849 197.974 367.565C200.519 367.179 202.571 365.885 204.706 364.554C206.666 363.331 208.664 362.161 210.734 361.13C212.751 360.124 214.882 359.44 216.927 358.506C218.879 357.615 220.369 356.247 220.562 354.022C220.611 353.449 220.657 352.861 220.569 352.289C220.483 351.744 220.263 351.204 219.857 350.827C219.772 350.747 219.67 350.673 219.553 350.657C219.462 350.646 219.37 350.671 219.281 350.696C219.239 350.711 219.198 350.723 219.158 350.735Z" fill="#31394C"/>
<path d="M214.54 347.48C213.894 347.44 213.235 347.453 212.58 347.499C210.983 347.612 209.405 347.881 207.812 348.034C206.1 348.199 204.472 348.054 202.768 347.889C202.241 347.839 201.713 347.796 201.184 347.787C196.929 347.708 192.623 350.448 190.54 354.129C190.528 354.122 190.517 354.11 190.502 354.117C188.75 354.853 189.462 357.243 189.312 358.707C189.205 359.752 188.71 360.824 188.795 361.878C188.867 362.741 189.464 363.299 190.139 363.772C192.695 365.563 196.18 366.234 199.213 365.382C201.57 364.72 203.547 363.308 205.658 362.116C208.285 360.631 210.942 359.11 213.749 358.002C215.206 357.426 216.749 356.978 218.063 356.093C219.765 354.947 221.087 352.964 220.179 350.91C219.099 348.467 216.914 347.623 214.54 347.48Z" fill="#546FBF"/>
<path d="M211.43 352.994C212.024 352.236 211.163 351.298 210.587 350.842C209.2 349.743 207.559 348.738 205.852 348.095C204.829 348.076 203.812 347.991 202.768 347.891C202.241 347.84 201.713 347.798 201.184 347.788C201.044 347.785 200.905 347.811 200.765 347.814C199.871 348.112 199.026 348.585 198.272 349.231C198.202 349.291 198.17 349.363 198.153 349.438C198.094 349.507 198.037 349.577 197.991 349.633C197.709 349.98 197.484 350.373 197.346 350.798C197.04 351.75 197.389 352.619 197.905 353.419C198.416 354.216 198.926 354.949 199.708 355.502C200.053 355.747 200.474 355.98 200.891 356.063C201.262 356.136 201.806 356.192 202.108 355.927C202.158 355.884 202.177 355.816 202.181 355.749C204.214 354.657 206.341 354.24 208.611 353.94C209.457 353.83 210.855 353.726 211.43 352.994Z" fill="#2B3D89"/>
<g opacity="0.3">
<path d="M132.929 372.543C133.616 372.146 134.723 372.094 135.507 372.453L159.543 384.877L180.669 369.335C180.71 369.307 180.753 369.279 180.798 369.253C181.374 368.921 182.718 367.743 183.486 367.96C184.449 368.229 184.398 369.974 183.932 370.533L169.72 387.876L204.696 392.85C204.909 392.889 205.555 391.945 205.727 392.023C206.243 392.254 206.095 393.635 206.012 394.038C205.964 394.304 205.758 394.538 205.454 394.714C205.052 394.947 204.479 395.075 203.869 395.038L167.888 394.402L171.602 410.094L171.595 411.236C171.658 411.583 171.443 411.916 171.033 412.153C170.821 412.274 170.559 412.37 170.258 412.429C169.231 412.618 168.138 412.292 167.822 411.702L156.616 395.44L127.379 403.07C126.579 403.294 125.592 403.18 125.025 402.762C124.392 402.313 124.164 400.756 124.868 400.349C124.915 400.322 125.553 400.232 125.605 400.208L151.481 389.53L132.768 374.033C132.23 373.633 131.93 372.021 132.488 371.602C132.54 371.566 132.872 372.576 132.929 372.543Z" fill="#808080"/>
</g>
<path d="M204.174 384.785C206.258 383.581 207.943 384.555 207.95 386.937C207.957 389.333 206.284 392.23 204.199 393.434C202.127 394.63 200.444 393.671 200.437 391.275C200.429 388.893 202.102 385.981 204.174 384.785Z" fill="#1B1F2D"/>
<path d="M205.291 395.885L201.67 393.762L206.858 384.53L210.614 386.719L205.291 395.885Z" fill="#1B1F2D"/>
<path d="M207.985 387.008C210.069 385.804 211.754 386.778 211.761 389.16C211.768 391.555 210.095 394.452 208.01 395.657C205.939 396.852 204.255 395.893 204.248 393.498C204.24 391.116 205.913 388.203 207.985 387.008Z" fill="#1B1F2D"/>
<path d="M207.986 387.251C209.952 386.116 211.541 387.034 211.548 389.281C211.555 391.541 209.976 394.275 208.01 395.41C206.055 396.538 204.467 395.632 204.461 393.373C204.454 391.128 206.031 388.381 207.986 387.251Z" fill="#31394C"/>
<path d="M168.375 402.825C170.459 401.621 172.144 402.596 172.151 404.976C172.158 407.372 170.485 410.269 168.4 411.473C166.329 412.669 164.644 411.71 164.639 409.314C164.63 406.934 166.303 404.021 168.375 402.825Z" fill="#1B1F2D"/>
<path d="M169.492 413.925L165.871 411.803L171.059 402.571L174.816 404.759L169.492 413.925Z" fill="#1B1F2D"/>
<path d="M172.186 405.048C174.271 403.844 175.955 404.818 175.962 407.199C175.969 409.594 174.296 412.491 172.212 413.696C170.14 414.891 168.457 413.932 168.45 411.537C168.441 409.156 170.114 406.244 172.186 405.048Z" fill="#1B1F2D"/>
<path d="M172.188 405.292C174.154 404.156 175.742 405.076 175.749 407.321C175.756 409.582 174.178 412.315 172.212 413.45C170.257 414.579 168.668 413.674 168.662 411.414C168.655 409.169 170.233 406.421 172.188 405.292Z" fill="#31394C"/>
<path d="M124.429 393.487C126.513 392.283 128.198 393.258 128.205 395.64C128.212 398.035 126.539 400.932 124.454 402.136C122.383 403.332 120.698 402.373 120.693 399.977C120.684 397.596 122.357 394.683 124.429 393.487Z" fill="#1B1F2D"/>
<path d="M125.547 404.587L121.925 402.464L127.113 393.232L130.871 395.421L125.547 404.587Z" fill="#1B1F2D"/>
<path d="M128.24 395.71C130.325 394.506 132.009 395.48 132.016 397.862C132.023 400.258 130.35 403.155 128.266 404.359C126.194 405.555 124.511 404.595 124.504 402.2C124.497 399.818 126.168 396.906 128.24 395.71Z" fill="#1B1F2D"/>
<path d="M128.241 395.955C130.208 394.82 131.796 395.74 131.803 397.985C131.81 400.245 130.231 402.979 128.265 404.114C126.311 405.242 124.722 404.337 124.716 402.077C124.709 399.831 126.287 397.083 128.241 395.955Z" fill="#31394C"/>
<path d="M131.22 365.547C133.305 364.342 134.989 365.317 134.996 367.697C135.003 370.093 133.33 372.99 131.246 374.194C129.174 375.39 127.491 374.431 127.484 372.035C127.475 369.655 129.148 366.742 131.22 365.547Z" fill="#1B1F2D"/>
<path d="M132.338 376.646L128.716 374.522L133.904 365.292L137.661 367.479L132.338 376.646Z" fill="#1B1F2D"/>
<path d="M135.031 367.768C137.116 366.563 138.8 367.538 138.806 369.918C138.813 372.314 137.14 375.211 135.055 376.415C132.983 377.611 131.3 376.652 131.293 374.256C131.286 371.877 132.959 368.965 135.031 367.768Z" fill="#1B1F2D"/>
<path d="M135.033 368.013C136.999 366.878 138.587 367.797 138.594 370.042C138.6 372.303 137.023 375.037 135.055 376.172C133.1 377.3 131.513 376.394 131.506 374.135C131.5 371.889 133.078 369.141 135.033 368.013Z" fill="#31394C"/>
<path d="M181.724 360.838C183.808 359.634 185.493 360.609 185.498 362.99C185.505 365.386 183.832 368.283 181.748 369.487C179.676 370.683 177.993 369.724 177.986 367.328C177.979 364.947 179.652 362.034 181.724 360.838Z" fill="#1B1F2D"/>
<path d="M182.841 371.938L179.22 369.816L184.408 360.583L188.164 362.772L182.841 371.938Z" fill="#1B1F2D"/>
<path d="M185.535 363.061C187.619 361.857 189.304 362.831 189.311 365.213C189.318 367.609 187.645 370.506 185.56 371.71C183.489 372.906 181.806 371.947 181.798 369.551C181.79 367.169 183.463 364.257 185.535 363.061Z" fill="#1B1F2D"/>
<path d="M185.536 363.306C187.503 362.171 189.091 363.09 189.098 365.335C189.105 367.596 187.527 370.329 185.56 371.465C183.606 372.593 182.017 371.687 182.011 369.428C182.004 367.182 183.582 364.434 185.536 363.306Z" fill="#31394C"/>
<path d="M132.929 364.932C133.616 364.535 134.723 364.483 135.507 364.842L159.543 374.918L180.669 361.724C180.71 361.696 180.753 361.668 180.798 361.642C181.374 361.31 182.718 360.133 183.486 360.349C184.449 360.618 184.398 362.363 183.932 362.923L169.72 377.918L204.696 385.239C204.909 385.278 205.555 384.334 205.727 384.412C206.243 384.643 206.095 386.026 206.012 386.429C205.964 386.695 205.758 386.929 205.454 387.105C205.052 387.337 204.479 387.465 203.869 387.429L167.888 384.444L171.602 402.484L171.595 403.627C171.658 403.973 171.443 404.307 171.033 404.543C170.821 404.665 170.559 404.76 170.258 404.82C169.231 405.008 168.138 404.683 167.822 404.093L156.616 385.482L127.379 395.461C126.579 395.685 125.592 395.571 125.025 395.152C124.392 394.702 124.164 393.147 124.868 392.74C124.915 392.713 125.553 392.623 125.605 392.599L151.481 379.573L132.768 366.424C132.23 366.023 131.93 364.411 132.488 363.993C132.54 363.956 132.872 364.965 132.929 364.932Z" fill="#A6BFFF"/>
<path d="M132.929 363.6C133.616 363.203 134.723 363.151 135.507 363.51L159.543 370.811L180.669 360.478C180.71 360.449 180.753 360.421 180.799 360.396C181.375 360.064 182.268 359.958 183.035 360.175C183.998 360.444 184.398 361.117 183.931 361.676L169.719 373.811L204.695 383.947C205.545 384.105 206.12 384.599 206.01 385.136C205.962 385.402 205.757 385.636 205.453 385.812C205.051 386.044 204.478 386.172 203.868 386.136L167.886 380.337L171.593 402.382C171.657 402.728 171.441 403.062 171.031 403.298C170.82 403.42 170.558 403.515 170.257 403.575C169.23 403.763 168.137 403.438 167.82 402.848L156.615 381.377L127.378 394.327C126.578 394.551 125.591 394.437 125.023 394.019C124.391 393.569 124.47 392.917 125.173 392.512C125.219 392.485 125.268 392.458 125.32 392.434L151.479 375.469L132.765 365.094C132.227 364.693 132.208 364.125 132.765 363.707C132.82 363.666 132.872 363.632 132.929 363.6Z" fill="#CFDEFF"/>
<path d="M167.103 363.763V374.997C167.093 375.938 166.463 376.878 165.218 377.597C162.729 379.033 158.735 379.033 156.262 377.597C155.025 376.878 154.405 375.938 154.405 374.997V364.001L167.103 363.763Z" fill="#A6BFFF"/>
<path d="M156.271 361.403C158.76 359.967 162.796 359.967 165.268 361.403C167.74 362.84 167.706 365.166 165.218 366.603C162.729 368.039 158.735 368.039 156.262 366.603C153.791 365.165 153.783 362.84 156.271 361.403Z" fill="#CFDEFF"/>
<path d="M166.575 353.582V363.88C166.565 364.742 165.988 365.604 164.847 366.263C162.565 367.58 158.904 367.58 156.637 366.263C155.504 365.604 154.936 364.742 154.936 363.88V353.8L166.575 353.582Z" fill="#91AAF2"/>
<path d="M156.645 351.417C158.926 350.1 162.626 350.1 164.892 351.417C167.158 352.734 167.127 354.866 164.846 356.183C162.564 357.5 158.902 357.5 156.636 356.183C154.37 354.866 154.363 352.736 156.645 351.417Z" fill="#A6BFFF"/>
<path d="M137.878 327.027C148.522 342.669 187.767 306.732 187.767 306.732C185.056 319.078 191.901 327.151 189.563 352.487C189.514 353.015 189.654 353.547 189.974 353.972C190.776 355.039 192.523 356.978 194.873 357.379C199.046 358.093 201.515 356.622 202.588 355.72C202.996 355.377 203.243 354.896 203.296 354.365C203.767 349.623 206.399 322.831 206.782 313.156C207.078 305.708 208.286 290.289 196.181 287.698C187.429 285.824 158.436 297.187 158.436 297.187C158.436 297.187 126.127 309.759 137.878 327.027Z" fill="#1B1F2D"/>
<path d="M211.952 322.17L175.486 301.115C169.706 297.779 160.453 297.647 154.439 300.817L114.805 321.709C108.365 325.107 108.162 330.937 114.336 334.501L154.507 357.694C160.689 361.264 170.754 361.127 176.589 357.379L212.528 334.354C217.982 330.862 217.724 325.502 211.952 322.17Z" fill="#2B3D89"/>
<path d="M113.7 322.358C114.045 322.134 114.412 321.917 114.805 321.71L154.44 300.818C160.454 297.648 169.707 297.779 175.487 301.117L211.954 322.171C213.556 323.096 214.717 324.181 215.465 325.334C212.2 329.151 204.844 330.827 200.746 332.51C193.35 335.548 186.839 340.257 180.234 344.678C176.969 346.864 173.751 349.358 169.881 350.253C165.8 351.196 161.451 351.016 157.49 349.639C150.802 347.313 145.611 341.824 139.607 338.245C135.955 336.069 132.099 334.238 128.105 332.786C124.857 331.604 121.666 330.125 118.553 328.62C116.574 327.662 114.51 326.173 113.886 323.951C113.738 323.423 113.684 322.889 113.7 322.358Z" fill="#354D9B"/>
<path d="M177.623 202.527C177.653 201.673 175.666 197.939 174.742 196.252C173.924 190.729 173.02 186.27 173.02 186.27C166.779 180.973 151.922 203.936 151.922 203.936L150.311 225.042C158.318 232.412 165.747 228.238 165.747 228.238C165.91 218.663 172.166 220.508 174.999 216.341C176.211 214.557 176.208 209.754 175.744 204.499C176.635 203.905 177.601 203.127 177.623 202.527Z" fill="#F2C599"/>
<path d="M150.843 220.351C158.527 222.678 162.855 219.175 165.009 212.746C165.009 212.746 165.519 211.984 162.574 211.098C159.629 210.212 158.467 201.123 161.495 201.832C164.523 202.539 164.382 206.689 165.672 207.042C166.961 207.392 167.678 206.177 166.72 203.283C165.762 200.388 171.333 199.725 169.547 196.383C167.761 193.041 168.993 189.323 172.49 187.682C175.986 186.04 173.735 172.585 171.045 173.365C168.355 174.146 167.826 176.837 166.233 173.744C164.64 170.651 163.371 168.304 160.977 169.678C158.582 171.053 160.099 172.856 157.287 171.712C154.473 170.568 153.918 171.368 152.946 173.365C151.974 175.363 153.607 176.537 150.374 176.816C147.142 177.095 148.195 179.945 145.131 182.63C142.065 185.314 136.564 186.604 137.096 196.067C137.625 205.529 143.89 218.245 150.843 220.351Z" fill="#31394C"/>
<path d="M178.441 211.685C178.363 211.322 178.008 211.332 177.71 211.316C177.268 211.294 176.822 211.28 176.379 211.256C175.076 211.187 173.787 211.091 172.513 210.801C171.576 210.589 170.664 210.284 169.773 209.923C169.335 209.746 168.902 209.554 168.474 209.351C168.082 209.167 167.689 208.923 167.262 208.833C166.969 208.771 166.734 208.97 166.672 209.253C166.55 209.816 167.283 210.07 167.668 210.278C168.248 210.592 168.844 210.877 169.452 211.132C171.783 212.105 174.318 212.71 176.852 212.678C177.238 212.674 177.63 212.592 177.996 212.463C178.268 212.367 178.456 212.144 178.46 211.849C178.463 211.795 178.452 211.739 178.441 211.685Z" fill="#546FBF"/>
<path d="M182.365 211.653C182.305 211.096 182 210.479 181.466 210.324C181.252 210.263 181.027 210.261 180.804 210.262C180.155 210.268 179.503 210.299 178.861 210.409C178.283 210.508 177.579 210.626 177.197 211.12C176.896 211.51 176.959 212.078 177.152 212.51C177.38 213.026 177.838 213.169 178.351 213.258C179.201 213.405 180.214 213.451 181.065 213.285C181.752 213.15 182.304 212.73 182.37 211.991C182.379 211.885 182.377 211.769 182.365 211.653Z" fill="#1B1F2D"/>
<path d="M162.826 201.005C165.106 199.689 166.947 200.754 166.954 203.357C166.961 205.977 165.132 209.144 162.853 210.461C160.588 211.769 158.746 210.72 158.739 208.1C158.732 205.498 160.561 202.313 162.826 201.005Z" fill="#1B1F2D"/>
<path d="M164.048 213.143L160.088 210.82L165.761 200.726L169.869 203.119L164.048 213.143Z" fill="#1B1F2D"/>
<path d="M166.993 203.434C169.274 202.118 171.114 203.184 171.121 205.787C171.128 208.406 169.299 211.574 167.02 212.89C164.756 214.199 162.913 213.15 162.906 210.53C162.899 207.927 164.729 204.743 166.993 203.434Z" fill="#1B1F2D"/>
<path d="M166.995 203.702C169.145 202.46 170.882 203.465 170.889 205.922C170.896 208.393 169.171 211.382 167.02 212.623C164.884 213.857 163.146 212.866 163.139 210.396C163.132 207.94 164.858 204.936 166.995 203.702Z" fill="#31394C"/>
<path d="M166.998 204.331C168.751 203.265 170.168 204.129 170.174 206.237C170.179 208.359 168.772 210.927 167.017 211.993C165.274 213.052 163.858 212.203 163.853 210.081C163.848 207.972 165.255 205.391 166.998 204.331Z" stroke="#546FBF" stroke-width="0.2" stroke-miterlimit="10"/>
<path d="M144.845 256.683L144.182 263.714C149.739 261.43 155.287 259.124 160.823 256.789C163.347 255.724 165.872 254.644 168.269 253.31C169.558 252.593 170.912 251.933 172.033 250.959C173.427 249.75 173.783 248.457 174.018 246.688C174.131 245.84 174.635 244.553 175.725 244.741C176.418 244.861 176.645 245.85 177.231 245.778C177.925 245.692 178.59 245.14 179.145 244.751C179.77 244.313 180.356 243.853 181.079 243.595C181.829 243.327 182.638 243.122 183.436 243.272C183.622 243.308 183.814 243.367 183.946 243.503C184.079 243.64 184.127 243.872 184.008 244.02C184.594 243.843 185.224 243.813 185.824 243.936C186.107 243.994 186.395 244.091 186.597 244.299C186.798 244.506 186.883 244.848 186.726 245.092C187.153 245.022 187.594 244.975 188.015 245.072C188.436 245.17 188.839 245.436 189.002 245.837C189.236 246.415 188.925 247.055 188.621 247.599C188.862 247.507 189.128 247.43 189.373 247.509C189.64 247.596 189.822 247.861 189.87 248.138C189.918 248.415 189.849 248.7 189.742 248.96C189.607 249.289 189.408 249.593 189.16 249.851C188.909 250.112 188.612 250.321 188.317 250.53C187.048 251.424 185.845 252.343 184.534 253.173C182.753 254.302 180.975 255.43 179.194 256.556C175.447 258.932 171.481 261.138 167.896 263.748C164.372 266.314 160.67 268.718 156.954 271.009C151.732 274.232 146.365 277.661 140.647 279.947C139.876 280.256 139.002 280.641 138.155 280.641C131.486 280.641 129.061 274.097 129.908 259.78L144.845 256.683Z" fill="#F2C599"/>
<path d="M145.86 262.22C145.86 262.22 139.956 265.696 128.451 265.872C128.451 265.872 128.705 237.831 135.847 231.472C142.989 225.113 146.739 242.573 145.86 262.22Z" fill="#DB3E3E"/>
<path d="M215.784 298.182C207.033 296.309 176.475 304.458 176.475 304.458L132.922 299.527C132.922 299.527 129.226 317.691 133.095 324.967C136.964 332.242 147.677 336.465 158.063 339.694C176.13 345.314 207.952 319.399 207.952 319.399C207.921 319.539 207.899 319.675 207.871 319.813L211.954 322.171C217.725 325.503 217.982 330.862 212.528 334.356L208.879 336.694C210.173 343.677 211.64 352.312 210.409 365.596C210.366 366.051 210.459 366.52 210.702 366.907C211.309 367.879 212.71 369.645 215.058 370.047C219.194 370.754 222.269 369.337 223.714 368.447C224.284 368.095 224.649 367.497 224.69 366.827C225.015 361.457 226.588 335.341 226.966 325.823C227.26 318.374 227.888 300.772 215.784 298.182Z" fill="#31394C"/>
<path d="M132.92 299.525C132.92 299.525 131.577 306.139 131.36 312.984L152.653 301.759L132.92 299.525Z" fill="#31394C"/>
<path d="M179.799 303.605L175.487 301.117C169.707 297.78 160.454 297.648 154.44 300.818L152.655 301.759L176.475 304.456C176.475 304.456 177.735 304.121 179.799 303.605Z" fill="#2B3D89"/>
<path d="M207.869 319.813L211.473 321.893V321.888C211.568 320.741 211.877 319.654 212.032 318.524C212.116 317.917 212.283 317.347 211.82 316.85C210.796 315.749 208.718 316.947 207.685 317.355C202.868 319.261 198.227 321.529 193.697 324.036C189.031 326.616 184.39 329.082 179.094 330.076C173.48 331.13 167.336 331.455 161.719 330.28C156.212 329.128 148.345 325.769 145.269 320.955C141.454 314.985 142.096 301.687 142.096 301.687C141.99 301.28 141.868 300.894 141.731 300.524L132.919 299.527C132.919 299.527 129.223 317.691 133.092 324.966C136.961 332.242 147.674 336.465 158.06 339.694C176.127 345.314 207.949 319.399 207.949 319.399C207.92 319.537 207.897 319.674 207.869 319.813Z" fill="#252C3A"/>
<path d="M214.884 350.431C214.949 344.763 213.586 339.59 212.538 334.348C212.534 334.351 212.531 334.352 212.528 334.355L208.879 336.693C210.173 343.676 211.639 352.311 210.409 365.595C210.366 366.05 210.459 366.519 210.702 366.906C211.309 367.878 212.71 369.644 215.058 370.045C215.341 370.093 215.607 370.11 215.88 370.14C215.727 369.252 215.6 368.361 215.537 367.464C215.152 362.027 214.822 355.856 214.884 350.431Z" fill="#252C3A"/>
<path d="M179.301 240.178C179.301 240.178 172.298 231.328 165.748 228.238C165.748 228.238 161.122 227.769 156.843 227.452C153.079 227.173 150.312 225.042 150.312 225.042C150.312 225.042 141.786 227.02 137.947 229.99C133.92 233.106 130.075 248.327 131.647 260.659C133.219 272.991 132.268 290.322 131.647 294.914C130.456 303.72 138.868 311.895 149.908 312.68C164.396 313.708 180.532 310.193 180.008 302.996C178.87 287.333 179.301 240.178 179.301 240.178Z" fill="#F24B4B"/>
<path d="M186 275.23L186.289 282.423C191.845 280.139 197.394 277.832 202.93 275.498C205.454 274.433 207.979 273.353 210.376 272.019C211.665 271.302 213.018 270.642 214.14 269.669C215.534 268.459 215.89 267.166 216.127 265.397C216.239 264.549 216.744 263.262 217.834 263.451C218.527 263.57 218.753 264.559 219.339 264.487C220.034 264.401 220.698 263.849 221.253 263.46C221.879 263.022 222.465 262.562 223.187 262.304C223.938 262.037 224.746 261.831 225.545 261.982C225.731 262.017 225.922 262.076 226.055 262.213C226.187 262.349 226.235 262.582 226.117 262.73C226.702 262.552 227.332 262.523 227.932 262.645C228.215 262.703 228.504 262.8 228.705 263.008C228.907 263.217 228.991 263.558 228.835 263.801C229.262 263.731 229.702 263.684 230.123 263.782C230.545 263.879 230.947 264.145 231.111 264.546C231.345 265.124 231.033 265.765 230.729 266.308C230.97 266.217 231.236 266.139 231.481 266.218C231.749 266.304 231.93 266.57 231.978 266.848C232.026 267.125 231.957 267.41 231.85 267.669C231.715 267.998 231.516 268.303 231.268 268.56C231.018 268.821 230.721 269.031 230.425 269.239C229.156 270.133 227.953 271.052 226.642 271.883C224.862 273.011 223.083 274.139 221.303 275.266C217.555 277.642 213.589 279.847 210.005 282.457C206.481 285.023 202.778 287.427 199.064 289.719C193.842 292.941 188.473 296.37 182.755 298.656C181.986 298.965 181.11 299.349 180.263 299.349C173.595 299.349 170.799 292.048 171.645 277.733L186 275.23Z" fill="#F2C599"/>
<path d="M188.305 275.84C188.305 275.84 180.934 280.14 169.455 281.061C169.455 281.061 167.741 248.886 174.52 241.25C181.298 233.612 188.094 253.575 188.305 275.84Z" fill="#DB3E3E"/>
<path d="M106.113 261.622C106.516 261.869 106.941 261.782 107.259 261.538C107.996 268.818 110.906 276.034 113.625 282.748C120.119 298.793 130.115 313.457 141.207 326.521C143.486 329.204 145.486 332.769 148.596 334.565C152.089 336.581 156.767 336.041 159.47 332.974C161.35 330.841 162.213 327.989 162.629 325.175C163.73 317.707 163.842 310.044 163.197 302.532C162.602 295.621 163.492 288.285 160.995 281.661C158.895 276.091 154.5 271.566 149.721 268.173C144.717 264.619 139.076 262.152 133.606 259.437C128.713 257.007 123.768 253.569 118.246 252.838C114.742 252.375 109.38 252.261 106.497 254.721C104.406 256.504 103.443 259.989 106.113 261.622Z" fill="#405DAD"/>
<path d="M112.298 256.183L148.69 277.194C153.379 279.901 157.174 286.461 157.159 291.862L157.05 330.163C157.035 335.552 153.215 337.728 148.525 335.021L112.134 314.011C107.445 311.304 103.649 304.729 103.665 299.342L103.773 261.041C103.789 255.64 107.61 253.476 112.298 256.183Z" fill="#2B3D89"/>
<path d="M123.702 347.436L134.127 353.424L132.917 288.661C132.91 288.295 132.713 287.959 132.398 287.775L122.994 282.289C122.295 281.882 121.418 282.385 121.418 283.195V343.49C121.418 345.119 122.29 346.625 123.702 347.436Z" fill="#CFDEFF"/>
<path d="M141.497 350.184L134.147 345.94L133.543 351.065L136.457 353.423L141.497 350.184Z" fill="#91AAF2"/>
<path d="M141.497 350.184L138.318 352.019C136.028 353.341 134.161 352.276 134.154 349.646L134.041 288.41C134.04 287.799 133.71 287.234 133.178 286.933L124.073 281.789C123.718 281.589 123.285 281.581 122.923 281.769L122.047 282.226C122.047 282.226 122.543 282.037 122.994 282.288L132.038 287.602C132.557 287.906 132.876 288.462 132.878 289.065L132.99 350.317C133 353.686 135.396 355.047 138.324 353.357L142.659 350.854L141.497 350.184Z" fill="#A6BFFF"/>
<path d="M187.25 351.418L186.331 351.14L185.149 325.351L189.087 324.878L187.25 351.418Z" fill="#91AAF2"/>
<path d="M187.25 351.418L187.118 324.619L194.694 320.954L193.071 348.064L187.25 351.418Z" fill="#A6BFFF"/>
<path d="M205.005 317.955V315.736L204.133 316.029L202.989 313.504C202.898 313.302 202.723 313.133 202.495 313.002C201.792 312.597 200.585 312.546 199.802 313.001L181.532 323.617L174.738 325.899V328.059H174.742C174.762 328.335 174.958 328.604 175.302 328.803C175.53 328.934 175.821 329.035 176.169 329.087L183.855 330.242C184.48 330.603 189.722 328.144 195.56 324.751C201.402 321.361 205.63 318.316 205.005 317.955Z" fill="#A6BFFF"/>
<path d="M202.496 310.784C201.793 310.379 200.586 310.328 199.803 310.783L175.293 325.027C174.508 325.482 174.6 326.181 175.304 326.588C175.532 326.719 175.824 326.82 176.172 326.872L183.857 328.029C184.483 328.389 189.725 325.93 195.563 322.537C201.402 319.144 205.63 316.099 205.006 315.739L202.99 311.288C202.899 311.084 202.724 310.915 202.496 310.784Z" fill="#CFDEFF"/>
<path d="M147.982 225.659L150.546 221.986C150.546 221.986 156.992 225.249 166.194 224.679L168.06 229.505C168.06 229.505 153.87 231.078 147.982 225.659Z" fill="#DB3E3E"/>
<path d="M161.187 205.374C161.187 205.374 162.62 194.776 158.021 189.84C153.419 184.905 144.768 182.668 142.263 184.764C142.263 184.764 143.238 181.762 147.122 180.064C147.122 180.064 165.25 174.529 166.205 202.057L161.187 205.374Z" fill="#1B1F2D"/>
</svg>
