<svg width="455" height="424" viewBox="0 0 455 424" fill="none" xmlns="http://www.w3.org/2000/svg">
<path d="M227.495 423.645C353.137 423.645 454.99 418.666 454.99 412.524C454.99 406.382 353.137 401.403 227.495 401.403C101.853 401.403 0 406.382 0 412.524C0 418.666 101.853 423.645 227.495 423.645Z" fill="#5EB6B7"/>
<path d="M352.151 411.544C355.061 411.544 357.421 409.185 357.421 406.274V404.796C357.421 401.886 355.062 399.526 352.151 399.526C349.24 399.526 346.881 401.885 346.881 404.796V406.274C346.881 409.185 349.24 411.544 352.151 411.544Z" fill="#0A1925"/>
<path d="M315.509 411.544C318.42 411.544 320.779 409.185 320.779 406.274V404.796C320.779 401.886 318.42 399.526 315.509 399.526C312.599 399.526 310.239 401.885 310.239 404.796V406.274C310.239 409.185 312.599 411.544 315.509 411.544Z" fill="#0A1925"/>
<path d="M278.867 411.544C281.778 411.544 284.137 409.185 284.137 406.274V404.796C284.137 401.886 281.777 399.526 278.867 399.526C275.957 399.526 273.597 401.885 273.597 404.796V406.274C273.598 409.185 275.957 411.544 278.867 411.544Z" fill="#0A1925"/>
<path d="M352.152 405.001C353.366 405.001 354.349 404.018 354.349 402.804C354.349 395.809 348.659 390.12 341.664 390.12H323.31C322.096 390.12 321.113 391.103 321.113 392.316C321.113 393.53 322.096 394.513 323.31 394.513H341.664C346.234 394.513 349.956 398.231 349.956 402.804C349.955 404.018 350.938 405.001 352.152 405.001Z" fill="#B2B2B2"/>
<path d="M352.152 405.001C352.22 405.001 352.269 404.742 352.302 404.298C352.796 397.741 347.46 392.419 340.885 392.316H321.113C321.113 393.53 322.096 394.513 323.31 394.513H341.664C346.234 394.513 349.956 398.231 349.956 402.804C349.955 404.018 350.938 405.001 352.152 405.001Z" fill="#9B9B9B"/>
<path d="M278.867 405.001C280.081 405.001 281.064 404.018 281.064 402.804C281.064 398.231 284.784 394.513 289.355 394.513H307.709C308.923 394.513 309.906 393.53 309.906 392.316C309.906 391.102 308.923 390.12 307.709 390.12H289.355C282.36 390.12 276.67 395.809 276.67 402.804C276.67 404.018 277.654 405.001 278.867 405.001Z" fill="#B2B2B2"/>
<path d="M278.865 405.001C278.796 405.001 278.748 404.742 278.715 404.298C278.221 397.741 283.557 392.419 290.132 392.316H309.904C309.904 393.53 308.921 394.513 307.707 394.513H289.353C284.783 394.513 281.062 398.231 281.062 402.804C281.062 404.018 280.079 405.001 278.865 405.001Z" fill="#9B9B9B"/>
<path d="M315.508 390.484C316.909 390.484 318.046 389.352 318.046 387.949V323.491C318.046 322.088 316.909 320.956 315.508 320.956C314.107 320.956 312.97 322.088 312.97 323.491V387.949C312.97 389.352 314.107 390.484 315.508 390.484Z" fill="#B2B2B2"/>
<path d="M320.753 357.903H310.265V392.316H320.753V357.903Z" fill="#B2B2B2"/>
<path d="M357.819 301.859L374 210.091H368.957C362.017 210.091 356.078 215.074 354.874 221.908L343.736 285.076C342.191 293.831 348.928 301.859 357.819 301.859Z" fill="#0F3858"/>
<path opacity="0.3" d="M357.819 301.859L374 210.091H368.957C356.091 287.767 343.735 285.076 343.735 285.076C342.191 293.831 348.928 301.859 357.819 301.859Z" fill="#0A1925"/>
<path d="M356.093 330.045C357.342 330.045 358.449 329.149 358.671 327.879L368.841 270.196C369.095 268.77 368.142 267.41 366.716 267.159C365.295 266.892 363.93 267.856 363.68 269.284L353.509 326.967C353.256 328.396 354.208 329.753 355.634 330.003C355.787 330.035 355.941 330.045 356.093 330.045Z" fill="#B2B2B2"/>
<path d="M356.093 330.045C357.342 330.045 358.449 329.149 358.671 327.879L368.841 270.196C369.095 268.77 368.142 267.41 366.716 267.159C366.716 267.159 355.941 330.045 356.093 330.045Z" fill="#9B9B9B"/>
<path d="M269.843 330.263H361.175C361.175 322.782 355.11 316.716 347.628 316.716H283.39C275.908 316.717 269.843 322.782 269.843 330.263Z" fill="#0F3858"/>
<path opacity="0.3" d="M269.843 330.263H361.175C361.175 322.782 355.11 316.716 347.628 316.716C347.628 316.716 353.509 326.076 270.502 326.076C270.075 327.395 269.843 328.802 269.843 330.263Z" fill="#0A1925"/>
<path d="M318.732 390.12H320.779V357.903H318.732V390.12Z" fill="#9B9B9B"/>
<path d="M304.147 396.686H326.871C326.871 391.859 322.958 387.945 318.13 387.945H312.888C308.061 387.946 304.147 391.859 304.147 396.686Z" fill="#0F3858"/>
<path opacity="0.3" d="M304.147 396.686H326.871C326.871 391.859 322.958 387.945 318.13 387.945C318.13 387.945 319.755 394.924 304.325 394.924C304.208 395.494 304.147 396.083 304.147 396.686Z" fill="#0A1925"/>
<path d="M315.508 405.867C316.596 405.867 317.477 404.981 317.477 403.896V392.317C317.477 391.231 316.596 390.346 315.508 390.346C314.42 390.346 313.539 391.232 313.539 392.317V403.896C313.539 404.981 314.42 405.867 315.508 405.867Z" fill="#B2B2B2"/>
<path d="M315.508 405.867C316.596 405.867 317.477 404.981 317.477 403.896V392.317C317.477 391.231 316.596 390.346 315.508 390.346V405.867Z" fill="#9B9B9B"/>
<path d="M312.97 333.159H318.047V330.264H312.97V333.159Z" fill="#9B9B9B"/>
<path d="M312.97 357.903H318.047V355.719H312.97V357.903Z" fill="#9B9B9B"/>
<path d="M316.438 357.904H318.046V330.263H316.438V357.904Z" fill="#9B9B9B"/>
<path opacity="0.5" d="M333.251 318.398H282.876C277.131 318.398 272.474 323.055 272.474 328.8L272.562 328.55C274.408 323.284 279.321 319.71 284.9 319.575L333.251 318.398Z" fill="white"/>
<path opacity="0.5" d="M347.085 278.576L356.912 222.344C357.925 215.931 363.977 211.188 370.43 211.75L370.134 211.823C363.894 213.369 359.014 218.503 357.877 224.717L347.085 278.576Z" fill="white"/>
<path d="M257.01 222.377C247.811 222.377 239.901 215.586 238.648 206.309L233.842 170.769C233.323 166.938 236.009 163.412 239.841 162.894C243.66 162.379 247.197 165.062 247.715 168.893L252.521 204.434C252.846 206.841 254.991 208.56 257.416 208.36L300.458 204.731C304.299 204.4 307.696 207.265 308.022 211.118C308.346 214.971 305.487 218.357 301.634 218.682L258.592 222.311C258.061 222.355 257.534 222.377 257.01 222.377Z" fill="#F0B89F"/>
<g opacity="0.5">
<path d="M257.01 222.377C247.811 222.377 239.901 215.586 238.648 206.309L233.842 170.769C233.323 166.938 236.009 163.412 239.841 162.894C243.66 162.379 247.197 165.062 247.715 168.893L252.521 204.434C252.846 206.841 254.991 208.56 257.416 208.36L300.458 204.731C304.299 204.4 307.696 207.265 308.022 211.118C308.346 214.971 305.487 218.357 301.634 218.682L258.592 222.311C258.061 222.355 257.534 222.377 257.01 222.377Z" fill="#DB825E"/>
</g>
<path d="M250.573 391.402C250.573 391.402 253.49 398.046 252.823 407.14H242.656L241.989 404.423L239.156 407.14C239.156 407.14 229.472 407.842 213.656 407.842C196.489 407.842 211.656 400.251 220.823 396.902C230.039 393.535 239.823 391.402 239.823 391.402H250.573Z" fill="#032F51"/>
<path d="M293.235 279.292L327.849 290.727C329.316 302.654 320.011 313.175 307.993 313.175H247.337L250.572 388.133H237.572L224.565 304.525C223.598 298.31 227.8 292.469 234 291.41L293.235 279.292Z" fill="#064266"/>
<path d="M307.58 284.904L308.552 292.65C309.209 297.885 305.232 302.556 299.959 302.741L243.298 304.843C239.961 304.961 237.449 307.926 237.882 311.237L244.937 388.133" stroke="#0E547A" stroke-miterlimit="10"/>
<path d="M249.931 388.133L250.573 391.402H239.823L239.156 388.133H249.931Z" fill="#F0B89F"/>
<path opacity="0.5" d="M249.931 388.133L250.573 391.402H239.823L239.156 388.133H249.931Z" fill="#DB825E"/>
<path d="M266.372 391.729L266.924 394.998H256.174L255.508 391.729H266.372Z" fill="#F0B89F"/>
<path d="M266.924 394.998C266.924 394.998 269.841 401.642 269.174 410.737H259.007L258.34 408.02L255.507 410.737C255.507 410.737 245.823 411.439 230.007 411.439C212.84 411.439 228.007 403.847 237.174 400.499C246.39 397.132 256.174 394.999 256.174 394.999L266.924 394.998Z" fill="#064266"/>
<path d="M342.352 279.292L344.201 294.323C345.668 306.25 336.363 316.77 324.345 316.77H263.689L266.924 391.728H253.924L240.917 308.12C239.95 301.905 244.152 296.064 250.352 295.005L342.352 279.292Z" fill="#0E547A"/>
<path d="M324.175 287.758L325.203 295.92C325.86 301.155 321.883 305.826 316.61 306.011L259.949 308.113C256.612 308.231 254.1 311.195 254.533 314.507L261.588 391.73" stroke="#064266" stroke-miterlimit="10"/>
<path d="M247.577 169.422C247.577 169.422 250.611 168.082 252.388 163.598C254.165 159.114 253.896 155.498 254.384 152.526C254.872 149.554 250.523 148.953 249.737 153.346C248.951 157.739 246.823 158.898 247.016 155.636C247.21 152.373 247.441 148.336 247.718 145.114C247.995 141.892 244.517 140.55 243.431 145.093C242.345 149.636 242.476 150.807 242.002 152.273C241.528 153.739 239.792 153.706 239.845 151.74C239.898 149.774 240.096 145.765 240.205 143.325C240.315 140.884 236.868 138.448 236.128 142.7C235.388 146.952 235.827 151.278 235.728 152.429C235.629 153.58 234.232 154.329 233.64 153.119C233.049 151.909 232.941 149.482 232.576 147.613C231.752 143.394 227.731 144.323 228.148 149.629C229.651 168.747 234.05 171.472 234.05 171.472L247.577 169.422Z" fill="#F0B89F"/>
<path opacity="0.5" d="M254.381 152.525C254.131 154.005 254.081 155.645 253.871 157.485C253.651 159.325 253.281 161.355 252.391 163.595C250.611 168.085 247.581 169.425 247.581 169.425L234.051 171.475C234.051 171.475 230.931 169.535 229.051 157.485C228.691 155.235 228.391 152.635 228.151 149.625C227.731 144.325 231.751 143.395 232.581 147.615C232.941 149.485 233.051 151.905 233.641 153.115C234.231 154.325 235.631 153.575 235.731 152.425C235.831 151.275 235.391 146.955 236.131 142.695C236.871 138.445 240.311 140.885 240.201 143.325C240.101 145.765 239.901 149.775 239.841 151.735C239.791 153.705 241.531 153.735 242.001 152.275C242.471 150.805 242.341 149.635 243.431 145.095C244.521 140.545 247.991 141.895 247.721 145.115C247.441 148.335 247.211 152.375 247.011 155.635C246.941 156.765 247.161 157.365 247.501 157.485C247.571 157.505 247.661 157.515 247.751 157.485C248.391 157.315 249.291 155.855 249.741 153.345C250.521 148.955 254.871 149.555 254.381 152.525Z" fill="#DB825E"/>
<path d="M265.56 201.929C261.261 210.731 262.041 219.056 267.9 226.906L300.903 223.814C307.8 223.168 312.868 217.053 312.221 210.155C311.575 203.258 305.459 198.19 298.562 198.837L265.56 201.929Z" fill="#5A1860"/>
<path d="M310.577 196.143C322.89 196.143 333.27 205.326 334.771 217.548L342.352 279.292C328.356 290.376 312.305 291.871 293.235 279.292L286.383 223.489C284.599 208.958 295.937 196.143 310.577 196.143Z" fill="#64378A"/>
<path d="M314.508 183.332L318.086 196.962C318.086 196.962 318.774 202.349 315.022 205.977C311.27 209.605 302.919 209.515 300.825 205.977L296.647 192.433C296.647 192.433 307.046 181.478 314.508 183.332Z" fill="#F0B89F"/>
<path opacity="0.7" d="M314.508 183.332L318.086 196.962C318.086 196.962 318.774 202.349 315.022 205.977C311.27 209.605 302.919 209.515 300.825 205.977L296.647 192.433C296.647 192.433 307.046 181.478 314.508 183.332Z" fill="#DB825E"/>
<path d="M325.188 157.408C327.84 144.441 319.477 131.779 306.51 129.127C293.543 126.476 280.674 134.331 276.841 148.665C273.421 161.451 273.052 188.293 282.508 191.498C293.479 195.217 310.341 189.165 314.508 183.331C320.178 175.393 324.016 163.142 325.188 157.408Z" fill="#F0B89F"/>
<path d="M329.794 168.352C329.532 163.176 325.125 159.192 319.949 159.454C314.773 159.715 309.785 168.523 310.046 173.699C310.307 178.875 316.72 180.508 321.641 178.741C326.519 176.99 330.055 173.528 329.794 168.352Z" fill="#F0B89F"/>
<path d="M300.623 162.567C300.824 160.662 299.536 158.966 297.748 158.777C295.959 158.589 294.347 159.98 294.146 161.884C293.945 163.789 295.233 165.485 297.021 165.674C298.81 165.863 300.423 164.472 300.623 162.567Z" fill="#111224"/>
<path d="M281.537 159.471C281.724 157.697 280.525 156.116 278.859 155.941C277.193 155.765 275.691 157.061 275.504 158.836C275.317 160.61 276.516 162.191 278.182 162.366C279.848 162.541 281.35 161.245 281.537 159.471Z" fill="#111224"/>
<path d="M280.751 167.377C280.751 167.377 282.22 172.928 289.205 173.175C289.205 173.175 284.671 174.81 281.557 172.551C278.904 170.626 280.751 167.377 280.751 167.377Z" fill="#DB825E"/>
<path d="M297.206 150.949C298.483 149.789 304.745 151.513 304.64 156.682C304.64 156.682 301.926 155.146 300.156 154.523C297.752 153.676 295.591 152.415 297.206 150.949Z" fill="#01484C"/>
<path d="M282.569 147.709C281.558 146.311 275.076 146.711 274.115 151.79C274.115 151.79 277.087 150.845 278.947 150.599C281.474 150.265 283.848 149.476 282.569 147.709Z" fill="#01484C"/>
<path d="M280.714 177.885C280.714 177.885 280.984 181.885 283.764 184.395L283.804 184.435C284.734 185.265 285.954 185.935 287.544 186.225C291.384 186.925 293.694 184.515 294.924 182.505C295.714 181.205 296.054 180.065 296.054 180.065L280.714 177.885Z" fill="#A6183D"/>
<path d="M324.575 160.629C322.794 159.933 319.754 159.403 317.254 163.203C314.754 167.003 314.175 170.562 314.175 170.562C314.175 170.562 311.886 170.151 310.906 168.908C310.906 168.908 311.05 160.698 312.675 156.681C312.675 156.681 304.925 151.665 304.05 141.915C304.05 141.915 293.202 149.069 280.126 140.93C267.05 132.79 270.742 118.165 278.521 117.29C286.3 116.415 292.425 126.165 292.425 126.165C292.425 126.165 288.342 114.79 294.196 112.915C300.05 111.04 300.645 117.332 308.175 121.498C314.103 124.778 325.05 125.165 330.8 133.165C336.55 141.165 327.079 162.226 327.079 162.226C327.079 162.226 325.521 160.999 324.575 160.629Z" fill="#01484C"/>
<path d="M280.718 177.885C280.718 177.885 281.591 179.427 284.258 180.082C291.796 181.933 296.055 180.069 296.055 180.069L280.718 177.885Z" fill="#EDEDED"/>
<path d="M283.764 184.395L283.804 184.435C284.734 185.265 285.954 185.935 287.544 186.225C291.384 186.925 293.694 184.515 294.924 182.505C285.734 181.585 283.764 184.395 283.764 184.395Z" fill="#EC5E76"/>
<path d="M288.808 264.239C290.535 264.57 292.321 264.604 294.087 264.321C298.29 263.645 302.045 261.22 304.388 257.665L322.296 230.502C324.424 227.275 323.532 222.933 320.304 220.805C317.075 218.679 312.734 219.569 310.607 222.797L292.699 249.96C292.452 250.334 292.109 250.459 291.865 250.499C291.62 250.539 291.255 250.526 290.903 250.248L260.956 226.564C257.924 224.165 253.521 224.68 251.123 227.713C248.725 230.745 249.239 235.148 252.271 237.546L282.218 261.23C284.156 262.76 286.424 263.782 288.808 264.239Z" fill="#F0B89F"/>
<path d="M261.413 227.436C261.413 227.436 262.905 224.521 261.477 219.977C260.049 215.434 257.593 212.828 256.117 210.246C254.641 207.664 250.933 209.909 253.064 213.766C255.195 217.623 254.284 219.836 252.403 217.214C250.521 214.592 248.187 211.353 246.394 208.71C244.602 206.067 241.1 207.202 243.094 211.362C245.088 215.521 245.917 216.337 246.466 217.756C247.015 219.175 245.663 220.229 244.481 218.689C243.298 217.149 240.955 213.953 239.521 212.013C238.087 210.074 233.928 210.351 236.007 214.071C238.085 217.791 241.115 220.835 241.755 221.779C242.395 222.723 241.79 224.167 240.583 223.607C239.377 223.047 237.784 221.254 236.341 220.047C233.084 217.325 230.579 220.539 234.201 224.348C247.249 238.07 252.318 237.422 252.318 237.422L261.413 227.436Z" fill="#F0B89F"/>
<path d="M298.165 237.51C302.736 246.174 309.919 250.455 319.714 250.355L336.686 221.882C340.233 215.931 338.285 208.232 332.334 204.685C326.383 201.138 318.684 203.087 315.137 209.037L298.165 237.51Z" fill="#5A1860"/>
<path d="M357.681 3.46823L352.721 4.34265L361.686 55.1987L366.646 54.3243L357.681 3.46823Z" fill="#FDBA47"/>
<path d="M354.492 4.01504L352.725 4.32666L361.695 55.1827L363.462 54.8711L354.492 4.01504Z" fill="#FFA143"/>
<path d="M298.48 0H292.818V55.186H298.48V0Z" fill="#FB8B80"/>
<path d="M294.63 0H292.818V55.186H294.63V0Z" fill="#E85D60"/>
<path d="M305.728 10.104H298.48V55.186H305.728V10.104Z" fill="#0EB3A5"/>
<path d="M301.255 10.104H298.48V55.186H301.255V10.104Z" fill="#0A9999"/>
<path d="M312.976 6.03601H305.728V55.185H312.976V6.03601Z" fill="#FDBA47"/>
<path d="M308.05 6.03601H305.728V55.185H308.05V6.03601Z" fill="#FFA143"/>
<path d="M331.775 3.99799H324.074V55.186H331.775V3.99799Z" fill="#2F788E"/>
<path d="M326.226 3.99799H324.074V55.186H326.226V3.99799Z" fill="#1A546C"/>
<path d="M340.835 11.246H331.775V55.186H340.835V11.246Z" fill="#F67977"/>
<path d="M334.946 11.246H331.775V55.186H334.946V11.246Z" fill="#E85656"/>
<path d="M375.318 7.86798H366.653V55.185H375.318V7.86798Z" fill="#2F788E"/>
<path d="M369.599 7.86798H366.653V55.185H369.599V7.86798Z" fill="#1A546C"/>
<path d="M352.726 0H340.835V55.186H352.726V0Z" fill="#0EB3A5"/>
<path d="M343.666 0H340.835V55.186H343.666V0Z" fill="#0A9999"/>
<path d="M351.169 5.35699H342.392V7.16899H351.169V5.35699Z" fill="#FFF2CA"/>
<path d="M324.074 18.267H312.976V55.186H324.074V18.267Z" fill="#FB8B80"/>
<path d="M316.373 18.267H312.976V55.186H316.373V18.267Z" fill="#E85D60"/>
<path d="M322.319 20.532H314.731V21.891H322.319V20.532Z" fill="#FFF2CA"/>
<path d="M431.723 40.563H408.294C405.685 40.563 405.685 30.996 408.294 30.996H431.723C429.875 30.996 429.223 35.019 429.766 37.845C430.092 39.367 430.744 40.563 431.723 40.563Z" fill="white"/>
<path d="M437.376 41.433C437.376 41.868 436.996 42.248 436.561 42.248H387.311C384.593 42.248 384.593 29.311 387.311 29.311H436.56C436.995 29.311 437.375 29.692 437.375 30.181C437.375 30.616 436.995 30.996 436.56 30.996H408.294C405.685 30.996 405.685 40.563 408.294 40.563H436.56C436.995 40.563 437.376 40.944 437.376 41.433Z" fill="#FB8B80"/>
<path d="M437.376 41.433C437.376 41.868 436.996 42.248 436.561 42.248H387.311C384.593 42.248 384.593 29.311 387.311 29.311C387.311 29.311 386.713 33.225 393.617 36.976C400.521 40.727 408.294 40.564 408.294 40.564H436.56C436.995 40.563 437.376 40.944 437.376 41.433Z" fill="#E85D60"/>
<path opacity="0.5" d="M431.723 40.563H408.294C405.685 40.563 405.685 30.996 408.294 30.996C408.131 31.866 407.261 37.845 413.893 37.845H429.766C430.092 39.367 430.744 40.563 431.723 40.563Z" fill="#86A597"/>
<path d="M435.525 43.941H412.101C409.463 43.941 409.463 53.494 412.101 53.494H435.525C432.686 53.494 432.686 43.941 435.525 43.941Z" fill="white"/>
<path d="M440.323 53.504C440.314 53.504 440.31 53.512 440.301 53.513V53.493H412.1C409.462 53.493 409.462 43.94 412.1 43.94H440.301V43.924C440.31 43.925 440.314 43.933 440.323 43.933C440.787 43.933 441.164 43.557 441.164 43.092C441.164 42.628 440.788 42.251 440.323 42.251C440.314 42.251 440.31 42.26 440.301 42.26V42.249H391.105C388.385 42.249 388.385 55.185 391.105 55.185H440.301V55.176C440.31 55.177 440.314 55.185 440.323 55.185C440.787 55.185 441.164 54.809 441.164 54.344C441.164 53.879 440.788 53.504 440.323 53.504Z" fill="#01A67A"/>
<path d="M441.166 54.371C441.166 54.806 440.785 55.186 440.351 55.186H391.102C388.384 55.186 388.384 42.249 391.102 42.249C391.102 42.249 390.504 46.163 397.408 49.914C404.312 53.665 412.085 53.502 412.085 53.502H440.351C440.786 53.501 441.166 53.882 441.166 54.371Z" fill="#038963"/>
<path opacity="0.5" d="M435.516 53.5011H412.087C409.478 53.5011 409.478 43.9351 412.087 43.9351C411.924 44.8041 411.054 50.7841 417.686 50.7841H433.559C433.885 52.3051 434.538 53.5011 435.516 53.5011Z" fill="#86A597"/>
<path d="M40.899 411.544C37.989 411.544 35.629 409.185 35.629 406.274V404.796C35.629 401.886 37.989 399.526 40.899 399.526C43.81 399.526 46.169 401.885 46.169 404.796V406.274C46.169 409.185 43.81 411.544 40.899 411.544Z" fill="#0A1925"/>
<path d="M77.541 411.544C74.63 411.544 72.271 409.185 72.271 406.274V404.796C72.271 401.886 74.63 399.526 77.541 399.526C80.451 399.526 82.811 401.885 82.811 404.796V406.274C82.811 409.185 80.451 411.544 77.541 411.544Z" fill="#0A1925"/>
<path d="M114.182 411.544C111.271 411.544 108.912 409.185 108.912 406.274V404.796C108.912 401.886 111.272 399.526 114.182 399.526C117.092 399.526 119.452 401.885 119.452 404.796V406.274C119.452 409.185 117.093 411.544 114.182 411.544Z" fill="#0A1925"/>
<path d="M40.8981 405.001C39.6841 405.001 38.701 404.018 38.701 402.804C38.701 395.809 44.3911 390.12 51.3861 390.12H69.7401C70.9541 390.12 71.9361 391.103 71.9361 392.316C71.9361 393.53 70.9531 394.513 69.7401 394.513H51.3861C46.8161 394.513 43.0941 398.231 43.0941 402.804C43.0951 404.018 42.1121 405.001 40.8981 405.001Z" fill="#B2B2B2"/>
<path d="M40.8981 405.001C40.8301 405.001 40.7811 404.742 40.7481 404.298C40.2541 397.741 45.5901 392.419 52.1651 392.316H71.9371C71.9371 393.53 70.9541 394.513 69.7411 394.513H51.3861C46.8161 394.513 43.0941 398.231 43.0941 402.804C43.0951 404.018 42.1121 405.001 40.8981 405.001Z" fill="#9B9B9B"/>
<path d="M114.182 405.001C112.968 405.001 111.985 404.018 111.985 402.804C111.985 398.231 108.265 394.513 103.694 394.513H85.341C84.127 394.513 83.144 393.53 83.144 392.316C83.144 391.102 84.127 390.12 85.341 390.12H103.695C110.69 390.12 116.38 395.809 116.38 402.804C116.379 404.018 115.396 405.001 114.182 405.001Z" fill="#B2B2B2"/>
<path d="M114.185 405.001C114.253 405.001 114.302 404.742 114.335 404.298C114.829 397.741 109.493 392.419 102.918 392.316H83.146C83.146 393.53 84.129 394.513 85.343 394.513H103.697C108.267 394.513 111.988 398.231 111.988 402.804C111.988 404.018 112.971 405.001 114.185 405.001Z" fill="#9B9B9B"/>
<path d="M77.542 390.484C76.141 390.484 75.004 389.352 75.004 387.949V323.491C75.004 322.088 76.141 320.956 77.542 320.956C78.943 320.956 80.08 322.088 80.08 323.491V387.949C80.079 389.352 78.942 390.484 77.542 390.484Z" fill="#B2B2B2"/>
<path d="M82.785 357.903H72.297V392.316H82.785V357.903Z" fill="#B2B2B2"/>
<path d="M35.231 301.859L19.05 210.091H24.093C31.033 210.091 36.971 215.074 38.176 221.908L49.314 285.076C50.858 293.831 44.122 301.859 35.231 301.859Z" fill="#0F3858"/>
<path opacity="0.3" d="M35.231 301.859L19.05 210.091H24.093C36.959 287.767 49.315 285.076 49.315 285.076C50.858 293.831 44.122 301.859 35.231 301.859Z" fill="#0A1925"/>
<path d="M36.9571 330.045C35.7081 330.045 34.6011 329.149 34.3791 327.879L24.2091 270.196C23.9551 268.77 24.9081 267.41 26.3341 267.159C27.7551 266.892 29.1201 267.856 29.3701 269.284L39.5411 326.967C39.7941 328.396 38.8421 329.753 37.4161 330.003C37.2621 330.035 37.1091 330.045 36.9571 330.045Z" fill="#B2B2B2"/>
<path d="M36.9571 330.045C35.7081 330.045 34.6011 329.149 34.3791 327.879L24.2091 270.196C23.9551 268.77 24.9081 267.41 26.3341 267.159C26.3341 267.159 37.1091 330.045 36.9571 330.045Z" fill="#9B9B9B"/>
<path d="M123.207 330.263H31.875C31.875 322.782 37.94 316.716 45.422 316.716H109.66C117.141 316.717 123.207 322.782 123.207 330.263Z" fill="#0F3858"/>
<path opacity="0.3" d="M123.207 330.263H31.875C31.875 322.782 37.94 316.716 45.422 316.716C45.422 316.716 39.541 326.076 122.548 326.076C122.975 327.395 123.207 328.802 123.207 330.263Z" fill="#0A1925"/>
<path d="M74.318 357.903H72.271V390.12H74.318V357.903Z" fill="#9B9B9B"/>
<path d="M88.9031 396.686H66.1791C66.1791 391.859 70.0921 387.945 74.9201 387.945H80.1621C84.9891 387.946 88.9031 391.859 88.9031 396.686Z" fill="#0F3858"/>
<path opacity="0.3" d="M88.9031 396.686H66.1791C66.1791 391.859 70.0921 387.945 74.9201 387.945C74.9201 387.945 73.2951 394.924 88.7251 394.924C88.8421 395.494 88.9031 396.083 88.9031 396.686Z" fill="#0A1925"/>
<path d="M77.542 405.867C76.454 405.867 75.573 404.981 75.573 403.896V392.317C75.573 391.231 76.454 390.346 77.542 390.346C78.63 390.346 79.511 391.232 79.511 392.317V403.896C79.511 404.981 78.63 405.867 77.542 405.867Z" fill="#B2B2B2"/>
<path d="M77.542 405.867C76.454 405.867 75.573 404.981 75.573 403.896V392.317C75.573 391.231 76.454 390.346 77.542 390.346V405.867Z" fill="#9B9B9B"/>
<path d="M80.08 330.263H75.004V333.158H80.08V330.263Z" fill="#9B9B9B"/>
<path d="M80.08 355.72H75.004V357.904H80.08V355.72Z" fill="#9B9B9B"/>
<path d="M76.612 330.263H75.004V357.903H76.612V330.263Z" fill="#9B9B9B"/>
<path opacity="0.5" d="M59.7991 318.398H110.174C115.919 318.398 120.576 323.055 120.576 328.8L120.488 328.55C118.642 323.284 113.729 319.71 108.15 319.575L59.7991 318.398Z" fill="white"/>
<path opacity="0.5" d="M45.965 278.576L36.138 222.344C35.125 215.931 29.073 211.188 22.62 211.75L22.916 211.823C29.156 213.369 34.036 218.503 35.173 224.717L45.965 278.576Z" fill="white"/>
<path d="M433.391 410.737C436.268 410.737 438.6 408.405 438.6 405.528V404.067C438.6 401.19 436.268 398.858 433.391 398.858C430.513 398.858 428.181 401.19 428.181 404.067V405.528C428.181 408.404 430.513 410.737 433.391 410.737Z" fill="#0A1925"/>
<path d="M397.168 410.737C400.045 410.737 402.378 408.405 402.378 405.528V404.067C402.378 401.19 400.046 398.858 397.168 398.858C394.291 398.858 391.959 401.19 391.959 404.067V405.528C391.959 408.404 394.292 410.737 397.168 410.737Z" fill="#0A1925"/>
<path d="M360.947 410.737C363.824 410.737 366.157 408.405 366.157 405.528V404.067C366.157 401.19 363.824 398.858 360.947 398.858C358.07 398.858 355.738 401.19 355.738 404.067V405.528C355.737 408.404 358.07 410.737 360.947 410.737Z" fill="#0A1925"/>
<path d="M433.391 404.269C434.591 404.269 435.563 403.297 435.563 402.097C435.563 395.182 429.939 389.558 423.023 389.558H404.88C403.68 389.558 402.709 390.529 402.709 391.729C402.709 392.929 403.68 393.901 404.88 393.901H423.023C427.541 393.901 431.22 397.576 431.22 402.097C431.22 403.297 432.192 404.269 433.391 404.269Z" fill="#B2B2B2"/>
<path d="M433.391 404.269C433.459 404.269 433.507 404.013 433.54 403.574C434.028 397.092 428.753 391.831 422.254 391.729H402.709C402.709 392.929 403.68 393.901 404.88 393.901H423.023C427.541 393.901 431.22 397.576 431.22 402.097C431.22 403.297 432.192 404.269 433.391 404.269Z" fill="#9B9B9B"/>
<path d="M360.947 404.269C362.147 404.269 363.119 403.297 363.119 402.097C363.119 397.576 366.797 393.901 371.315 393.901H389.458C390.658 393.901 391.63 392.929 391.63 391.729C391.63 390.529 390.658 389.558 389.458 389.558H371.315C364.4 389.558 358.775 395.182 358.775 402.097C358.775 403.297 359.747 404.269 360.947 404.269Z" fill="#B2B2B2"/>
<path d="M360.944 404.269C360.876 404.269 360.828 404.013 360.795 403.574C360.307 397.092 365.582 391.831 372.081 391.729H391.627C391.627 392.929 390.655 393.901 389.455 393.901H371.312C366.794 393.901 363.116 397.576 363.116 402.097C363.116 403.297 362.144 404.269 360.944 404.269Z" fill="#9B9B9B"/>
<path d="M397.168 389.917C398.553 389.917 399.677 388.798 399.677 387.411V323.691C399.677 322.304 398.553 321.186 397.168 321.186C395.783 321.186 394.659 322.305 394.659 323.691V387.411C394.659 388.798 395.783 389.917 397.168 389.917Z" fill="#B2B2B2"/>
<path d="M402.352 357.71H391.984V391.729H402.352V357.71Z" fill="#B2B2B2"/>
<path d="M438.994 302.308L454.99 211.591H450.005C443.144 211.591 437.274 216.517 436.083 223.273L425.072 285.717C423.545 294.372 430.205 302.308 438.994 302.308Z" fill="#0F3858"/>
<path opacity="0.3" d="M438.994 302.308L454.99 211.591H450.005C437.286 288.377 425.072 285.717 425.072 285.717C423.545 294.372 430.205 302.308 438.994 302.308Z" fill="#0A1925"/>
<path d="M437.287 330.171C438.522 330.171 439.616 329.285 439.836 328.03L449.89 271.007C450.141 269.597 449.199 268.253 447.789 268.005C446.384 267.742 445.035 268.694 444.787 270.106L434.733 327.128C434.483 328.54 435.424 329.882 436.834 330.13C436.986 330.161 437.137 330.171 437.287 330.171Z" fill="#B2B2B2"/>
<path d="M437.287 330.171C438.522 330.171 439.616 329.285 439.836 328.03L449.89 271.007C450.141 269.597 449.199 268.253 447.789 268.005C447.789 268.005 437.137 330.171 437.287 330.171Z" fill="#9B9B9B"/>
<path d="M352.026 330.387H442.312C442.312 322.991 436.316 316.996 428.92 316.996H365.417C358.022 316.995 352.026 322.991 352.026 330.387Z" fill="#0F3858"/>
<path opacity="0.3" d="M352.026 330.387H442.312C442.312 322.991 436.316 316.996 428.92 316.996C428.92 316.996 434.733 326.249 352.678 326.249C352.255 327.551 352.026 328.942 352.026 330.387Z" fill="#0A1925"/>
<path d="M400.355 389.558H402.379V357.71H400.355V389.558Z" fill="#9B9B9B"/>
<path d="M385.937 396.049H408.4C408.4 391.277 404.532 387.408 399.759 387.408H394.577C389.805 387.409 385.937 391.277 385.937 396.049Z" fill="#0F3858"/>
<path opacity="0.3" d="M385.937 396.049H408.4C408.4 391.277 404.532 387.408 399.759 387.408C399.759 387.408 401.365 394.308 386.112 394.308C385.997 394.87 385.937 395.453 385.937 396.049Z" fill="#0A1925"/>
<path d="M397.168 405.124C398.244 405.124 399.115 404.249 399.115 403.175V391.728C399.115 390.655 398.244 389.779 397.168 389.779C396.092 389.779 395.221 390.655 395.221 391.728V403.175C395.221 404.249 396.092 405.124 397.168 405.124Z" fill="#B2B2B2"/>
<path d="M397.168 405.124C398.244 405.124 399.115 404.249 399.115 403.175V391.728C399.115 390.655 398.244 389.779 397.168 389.779V405.124Z" fill="#9B9B9B"/>
<path d="M394.66 333.249H399.677V330.387H394.66V333.249Z" fill="#9B9B9B"/>
<path d="M394.66 357.711H399.677V355.552H394.66V357.711Z" fill="#9B9B9B"/>
<path d="M398.086 357.71H399.676V330.387H398.086V357.71Z" fill="#9B9B9B"/>
<path opacity="0.5" d="M414.707 318.657H364.909C359.23 318.657 354.626 323.261 354.626 328.94L354.713 328.693C356.538 323.487 361.395 319.955 366.909 319.82L414.707 318.657Z" fill="white"/>
<path opacity="0.5" d="M428.383 279.292L438.097 223.704C439.099 217.365 445.081 212.676 451.46 213.231L451.167 213.304C444.999 214.832 440.174 219.907 439.051 226.05L428.383 279.292Z" fill="white"/>
<path d="M445.881 55.186H232.15V62.375H445.881V55.186Z" fill="#0F3858"/>
<path opacity="0.3" d="M445.881 58.781H232.15V62.376H445.881V58.781Z" fill="#0A1925"/>
<path d="M259.278 22.481C263.025 26.416 262.221 29.961 260.029 32.049C259.591 32.466 259.1 32.829 258.558 33.094C258.45 33.156 258.352 33.207 258.233 33.257C258.212 33.256 258.19 33.277 258.179 33.288L258.169 33.277C256.07 34.168 253.328 33.79 250.51 30.831C246.857 26.995 246.784 18.14 246.784 18.14C246.784 18.14 246.784 18.14 246.805 18.14C247.34 18.175 255.74 18.766 259.278 22.481Z" fill="#4DA81D"/>
<path d="M258.234 33.257C258.266 33.268 258.308 33.291 258.35 33.313C258.285 33.354 258.232 33.342 258.179 33.287L258.169 33.276C258.138 33.223 258.16 33.224 258.234 33.257Z" fill="#40930F"/>
<path d="M259.278 22.481C263.025 26.416 262.221 29.961 260.029 32.049C259.591 32.466 259.1 32.829 258.558 33.094C259.005 32.313 259.368 29.752 257.414 26.011C254.918 21.261 247.207 18.3 246.805 18.14C247.34 18.175 255.74 18.766 259.278 22.481Z" fill="#40930F"/>
<path d="M248.673 23.525C247.637 24.511 249.074 29.171 251.911 31.339C254.748 33.507 258.169 33.277 258.077 31.565C257.945 29.074 249.377 22.854 248.673 23.525Z" fill="#6BBD37"/>
<path d="M277.507 30.672C274.213 34.994 270.586 34.76 268.178 32.925C267.697 32.558 267.261 32.131 266.914 31.638C266.836 31.541 266.77 31.452 266.701 31.343C266.698 31.322 266.674 31.303 266.662 31.294L266.671 31.282C265.46 29.35 265.4 26.583 267.877 23.333C271.088 19.12 279.821 17.649 279.821 17.649C279.821 17.649 279.821 17.649 279.824 17.67C279.874 18.204 280.617 26.591 277.507 30.672Z" fill="#4DA81D"/>
<path d="M266.701 31.343C266.695 31.376 266.679 31.421 266.664 31.467C266.613 31.409 266.616 31.355 266.662 31.294L266.671 31.282C266.72 31.243 266.723 31.264 266.701 31.343Z" fill="#40930F"/>
<path d="M277.507 30.672C274.213 34.994 270.586 34.76 268.178 32.925C267.697 32.558 267.261 32.131 266.914 31.638C267.756 31.956 270.342 31.91 273.727 29.39C278.023 26.175 279.729 18.094 279.823 17.671C279.874 18.204 280.617 26.591 277.507 30.672Z" fill="#40930F"/>
<path d="M274.802 20.365C273.664 19.498 269.29 21.653 267.598 24.797C265.906 27.941 266.672 31.282 268.349 30.922C270.786 30.397 275.575 20.954 274.802 20.365Z" fill="#6BBD37"/>
<path d="M271.857 22.54C271.857 30.105 267.643 32.907 263.429 32.907C262.586 32.907 261.743 32.802 260.943 32.549C260.774 32.507 260.627 32.465 260.458 32.402C260.437 32.381 260.395 32.381 260.374 32.381V32.36C257.403 31.243 255.001 28.23 255.001 22.541C255.001 15.166 263.429 6.16901 263.429 6.16901C263.429 6.16901 263.429 6.16901 263.45 6.19001C263.955 6.73601 271.857 15.397 271.857 22.54Z" fill="#4DA81D"/>
<path d="M260.457 32.401C260.478 32.443 260.499 32.506 260.52 32.569C260.415 32.548 260.372 32.485 260.372 32.379V32.358C260.394 32.275 260.415 32.296 260.457 32.401Z" fill="#40930F"/>
<path d="M271.857 22.54C271.857 30.105 267.643 32.907 263.429 32.907C262.586 32.907 261.743 32.802 260.943 32.549C262.144 32.191 264.968 29.957 266.59 24.31C268.634 17.125 263.703 6.73703 263.45 6.18903C263.955 6.73603 271.857 15.397 271.857 22.54Z" fill="#40930F"/>
<path d="M260.163 13.41C258.172 13.41 255.146 19.488 255.926 24.397C256.705 29.306 260.374 32.359 261.926 30.545C264.182 27.907 261.517 13.41 260.163 13.41Z" fill="#6BBD37"/>
<path d="M272.135 29.855C271.278 33.128 269.137 33.863 267.314 33.385C266.949 33.29 266.597 33.148 266.279 32.948C266.211 32.911 266.152 32.876 266.086 32.829C266.079 32.818 266.061 32.813 266.052 32.81L266.054 32.801C264.895 31.981 264.197 30.405 264.842 27.944C265.678 24.753 270.344 21.816 270.344 21.816C270.344 21.816 270.344 21.816 270.351 21.827C270.508 22.122 272.945 26.765 272.135 29.855Z" fill="#4DA81D"/>
<path d="M266.086 32.83C266.09 32.851 266.092 32.88 266.094 32.91C266.051 32.889 266.04 32.857 266.052 32.811L266.054 32.802C266.073 32.768 266.08 32.779 266.086 32.83Z" fill="#40930F"/>
<path d="M272.135 29.855C271.278 33.128 269.137 33.863 267.314 33.385C266.949 33.29 266.597 33.148 266.279 32.948C266.839 32.929 268.314 32.283 269.656 30.024C271.354 27.147 270.398 22.094 270.351 21.828C270.508 22.122 272.945 26.765 272.135 29.855Z" fill="#40930F"/>
<path d="M268.111 24.58C267.25 24.354 265.252 26.641 265.033 28.853C264.814 31.065 266.055 32.802 266.932 32.193C268.207 31.307 268.696 24.733 268.111 24.58Z" fill="#6BBD37"/>
<path d="M277.23 55.186H250.703L249.215 36.786H278.718L277.23 55.186Z" fill="#614E26"/>
<path d="M273.476 37.362C273.476 37.362 273.55 49.129 263.966 51.349C254.382 53.569 250.535 53.113 250.535 53.113L250.703 55.186H277.23L278.718 36.786L273.476 37.362Z" fill="#563E1C"/>
<path d="M281.318 32.078V36.785C281.318 39.05 279.489 40.879 277.233 40.879H250.707C248.442 40.879 246.613 39.05 246.613 36.785V32.078H281.318Z" fill="#8E7145"/>
<path d="M281.318 32.078V36.785C281.318 39.05 279.489 40.879 277.233 40.879H250.707C250.707 40.879 271.79 39.272 275.253 38.028C278.716 36.784 281.318 32.078 281.318 32.078Z" fill="#7D613A"/>
<path d="M78.1632 3.45816L73.2028 4.33258L82.1676 55.1886L87.1281 54.3142L78.1632 3.45816Z" fill="#FDBA47"/>
<path d="M74.9707 4.01693L73.204 4.32855L82.174 55.1846L83.9408 54.873L74.9707 4.01693Z" fill="#FFA143"/>
<path d="M52.254 3.99799H44.553V55.186H52.254V3.99799Z" fill="#2F788E"/>
<path d="M46.705 3.99799H44.553V55.186H46.705V3.99799Z" fill="#1A546C"/>
<path d="M61.3139 11.246H52.2539V55.186H61.3139V11.246Z" fill="#F67977"/>
<path d="M55.4249 11.246H52.2539V55.186H55.4249V11.246Z" fill="#E85656"/>
<path d="M95.797 7.86798H87.132V55.185H95.797V7.86798Z" fill="#2F788E"/>
<path d="M90.078 7.86798H87.132V55.185H90.078V7.86798Z" fill="#1A546C"/>
<path d="M73.205 0H61.314V55.186H73.205V0Z" fill="#0EB3A5"/>
<path d="M64.145 0H61.314V55.186H64.145V0Z" fill="#0A9999"/>
<path d="M71.648 5.35699H62.871V7.16899H71.648V5.35699Z" fill="#FFF2CA"/>
<path d="M44.553 18.267H33.455V55.186H44.553V18.267Z" fill="#FB8B80"/>
<path d="M36.852 18.267H33.455V55.186H36.852V18.267Z" fill="#E85D60"/>
<path d="M42.798 20.532H35.21V21.891H42.798V20.532Z" fill="#FFF2CA"/>
<path d="M152.201 40.563H128.772C126.163 40.563 126.163 30.996 128.772 30.996H152.201C150.353 30.996 149.7 35.019 150.244 37.845C150.57 39.367 151.223 40.563 152.201 40.563Z" fill="white"/>
<path d="M157.855 41.433C157.855 41.868 157.474 42.248 157.04 42.248H107.791C105.073 42.248 105.073 29.311 107.791 29.311H157.04C157.475 29.311 157.855 29.692 157.855 30.181C157.855 30.616 157.474 30.996 157.04 30.996H128.773C126.164 30.996 126.164 40.563 128.773 40.563H157.04C157.474 40.563 157.855 40.944 157.855 41.433Z" fill="#FB8B80"/>
<path d="M157.855 41.433C157.855 41.868 157.474 42.248 157.04 42.248H107.791C105.073 42.248 105.073 29.311 107.791 29.311C107.791 29.311 107.193 33.225 114.097 36.976C121.001 40.727 128.774 40.564 128.774 40.564H157.041C157.474 40.563 157.855 40.944 157.855 41.433Z" fill="#E85D60"/>
<path opacity="0.5" d="M152.201 40.563H128.772C126.163 40.563 126.163 30.996 128.772 30.996C128.609 31.866 127.739 37.845 134.371 37.845H150.244C150.57 39.367 151.223 40.563 152.201 40.563Z" fill="#86A597"/>
<path d="M156.003 43.941H132.579C129.941 43.941 129.941 53.494 132.579 53.494H156.003C153.165 53.494 153.165 43.941 156.003 43.941Z" fill="white"/>
<path d="M160.802 53.504C160.793 53.504 160.789 53.512 160.78 53.513V53.493H132.579C129.941 53.493 129.941 43.94 132.579 43.94H160.78V43.924C160.788 43.925 160.793 43.933 160.802 43.933C161.266 43.933 161.643 43.557 161.643 43.092C161.643 42.628 161.267 42.251 160.802 42.251C160.793 42.251 160.789 42.26 160.78 42.26V42.249H111.584C108.864 42.249 108.864 55.185 111.584 55.185H160.78V55.176C160.788 55.177 160.793 55.185 160.802 55.185C161.266 55.185 161.643 54.809 161.643 54.344C161.643 53.879 161.266 53.504 160.802 53.504Z" fill="#01A67A"/>
<path d="M161.645 54.371C161.645 54.806 161.264 55.186 160.83 55.186H111.581C108.863 55.186 108.863 42.249 111.581 42.249C111.581 42.249 110.983 46.163 117.887 49.914C124.79 53.665 132.564 53.502 132.564 53.502H160.831C161.265 53.501 161.645 53.882 161.645 54.371Z" fill="#038963"/>
<path opacity="0.5" d="M155.995 53.5011H132.566C129.957 53.5011 129.957 43.9351 132.566 43.9351C132.403 44.8041 131.533 50.7841 138.165 50.7841H154.038C154.364 52.3051 155.016 53.5011 155.995 53.5011Z" fill="#86A597"/>
<path d="M166.36 55.186H22.828V62.375H166.36V55.186Z" fill="#0F3858"/>
<path opacity="0.3" d="M166.36 58.781H22.828V62.376H166.36V58.781Z" fill="#0A1925"/>
<path d="M265.256 360.73H205.319V367.774H265.256V360.73Z" fill="#2F788E"/>
<path d="M195.049 413.052C192.437 413.052 190.536 410.574 191.212 408.051L225.063 281.718H233.288L198.886 410.107C198.421 411.845 196.847 413.052 195.049 413.052Z" fill="#2F788E"/>
<path d="M275.527 413.052C278.139 413.052 280.04 410.574 279.364 408.051L245.513 281.718H237.288L271.69 410.107C272.155 411.845 273.729 413.052 275.527 413.052Z" fill="#2F788E"/>
<path opacity="0.5" d="M192.683 410.336C192.269 410.336 192.023 410 192.134 409.586L226.195 282.47C226.306 282.056 226.732 281.72 227.146 281.72C227.56 281.72 227.806 282.056 227.695 282.47L193.634 409.586C193.523 410 193.097 410.336 192.683 410.336Z" fill="white"/>
<path opacity="0.5" d="M274.194 410.336C274.608 410.336 274.854 410 274.743 409.586L240.682 282.47C240.571 282.056 240.145 281.72 239.731 281.72C239.317 281.72 239.071 282.056 239.182 282.47L273.243 409.586C273.355 410 273.78 410.336 274.194 410.336Z" fill="white"/>
<path d="M351.874 278.011H118.702C118.702 271.753 123.775 266.68 130.033 266.68H340.545C346.802 266.681 351.874 271.754 351.874 278.011Z" fill="#A8C545"/>
<path d="M328.851 278.011H141.725V282.698H328.851V278.011Z" fill="#3C8E62"/>
<path opacity="0.5" d="M126.763 269.422C126.588 270.076 127.014 270.606 127.715 270.606H342.877C343.578 270.606 344.289 270.076 344.464 269.422C344.639 268.768 344.213 268.238 343.512 268.238H128.35C127.649 268.238 126.938 268.768 126.763 269.422Z" fill="white"/>
<path d="M142.477 391.402C142.477 391.402 139.56 398.046 140.227 407.14H150.394L151.061 404.423L153.894 407.14C153.894 407.14 163.578 407.842 179.394 407.842C196.561 407.842 181.394 400.251 172.227 396.902C163.011 393.535 153.227 391.402 153.227 391.402H142.477Z" fill="#492E35"/>
<path d="M99.814 279.292L65.2 290.727C63.733 302.654 73.038 313.175 85.056 313.175H145.712L142.477 388.133H155.477L168.484 304.525C169.451 298.31 165.249 292.469 159.049 291.41L99.814 279.292Z" fill="#479997"/>
<path d="M85.47 284.904L84.498 292.65C83.841 297.885 87.818 302.556 93.091 302.741L149.752 304.843C153.089 304.961 155.601 307.926 155.168 311.237L148.113 388.133" stroke="#5DAFAF" stroke-miterlimit="10"/>
<path d="M143.119 388.133L142.477 391.402H153.227L153.894 388.133H143.119Z" fill="#F0B89F"/>
<path opacity="0.5" d="M143.119 388.133L142.477 391.402H153.227L153.894 388.133H143.119Z" fill="#DB825E"/>
<path d="M126.677 391.729L126.125 394.998H136.875L137.542 391.729H126.677Z" fill="#F0B89F"/>
<path d="M126.125 394.998C126.125 394.998 123.208 401.642 123.875 410.737H134.042L134.709 408.02L137.542 410.737C137.542 410.737 147.226 411.439 163.042 411.439C180.209 411.439 165.042 403.847 155.875 400.499C146.659 397.132 136.875 394.999 136.875 394.999L126.125 394.998Z" fill="#624148"/>
<path d="M50.698 279.292L48.849 294.323C47.382 306.25 56.687 316.77 68.705 316.77H129.361L126.126 391.728H139.126L152.133 308.12C153.1 301.905 148.898 296.064 142.698 295.005L50.698 279.292Z" fill="#5DAFAF"/>
<path d="M68.875 287.758L67.847 295.92C67.19 301.155 71.167 305.826 76.44 306.011L133.101 308.113C136.438 308.231 138.95 311.195 138.517 314.507L131.462 391.73" stroke="#479997" stroke-miterlimit="10"/>
<path d="M123.042 264.673C121.284 264.673 119.522 264.37 117.842 263.759C113.841 262.304 110.611 259.215 108.978 255.282L96.504 225.233C95.022 221.663 96.715 217.567 100.286 216.084C103.857 214.604 107.953 216.295 109.435 219.866L121.908 249.915C122.08 250.329 122.393 250.517 122.626 250.601C122.859 250.687 123.22 250.743 123.618 250.536L157.489 232.914C160.919 231.129 165.145 232.464 166.93 235.893C168.714 239.323 167.38 243.549 163.951 245.334L130.08 262.956C127.89 264.096 125.47 264.673 123.042 264.673Z" fill="#F0B89F"/>
<path d="M123.042 264.673C121.284 264.673 119.522 264.37 117.842 263.759C113.841 262.304 110.611 259.215 108.978 255.282L96.504 225.233C95.022 221.663 96.715 217.567 100.286 216.084C103.857 214.604 107.953 216.295 109.435 219.866L121.908 249.915C122.08 250.329 122.393 250.517 122.626 250.601C122.859 250.687 123.22 250.743 123.618 250.536L157.489 232.914C160.919 231.129 165.145 232.464 166.93 235.893C168.714 239.323 167.38 243.549 163.951 245.334L130.08 262.956C127.89 264.096 125.47 264.673 123.042 264.673Z" fill="#F0B89F"/>
<g opacity="0.5">
<path d="M123.042 264.673C121.284 264.673 119.522 264.37 117.842 263.759C113.841 262.304 110.611 259.215 108.978 255.282L96.504 225.233C95.022 221.663 96.715 217.567 100.286 216.084C103.857 214.604 107.953 216.295 109.435 219.866L121.908 249.915C122.08 250.329 122.393 250.517 122.626 250.601C122.859 250.687 123.22 250.743 123.618 250.536L157.489 232.914C160.919 231.129 165.145 232.464 166.93 235.893C168.714 239.323 167.38 243.549 163.951 245.334L130.08 262.956C127.89 264.096 125.47 264.673 123.042 264.673Z" fill="#DB825E"/>
</g>
<path d="M157.485 233.155C157.485 233.155 156.557 229.971 158.844 225.724C161.131 221.477 164.071 219.354 166.03 217.068C167.99 214.781 171.25 217.721 168.395 221.151C165.54 224.581 166.024 226.956 168.395 224.707C170.767 222.458 173.706 219.681 175.993 217.395C178.28 215.108 181.546 216.905 178.77 220.661C175.993 224.418 175.013 225.071 174.197 226.377C173.38 227.684 174.524 228.99 175.994 227.684C177.464 226.377 180.404 223.645 182.201 221.99C183.998 220.334 188.081 221.403 185.304 224.707C182.527 228.011 178.934 230.461 178.118 231.277C177.301 232.094 177.628 233.645 178.935 233.319C180.242 232.992 182.167 231.512 183.833 230.588C187.592 228.501 189.47 232.176 185.142 235.274C169.547 246.435 164.63 244.823 164.63 244.823L157.485 233.155Z" fill="#F0B89F"/>
<path opacity="0.5" d="M157.485 233.155C157.485 233.155 156.557 229.971 158.844 225.724C161.131 221.477 164.071 219.354 166.03 217.068C167.99 214.781 171.25 217.721 168.395 221.151C165.54 224.581 166.024 226.956 168.395 224.707C170.767 222.458 173.706 219.681 175.993 217.395C178.28 215.108 181.546 216.905 178.77 220.661C175.993 224.418 175.013 225.071 174.197 226.377C173.38 227.684 174.524 228.99 175.994 227.684C177.464 226.377 180.404 223.645 182.201 221.99C183.998 220.334 188.081 221.403 185.304 224.707C182.527 228.011 178.934 230.461 178.118 231.277C177.301 232.094 177.628 233.645 178.935 233.319C180.242 232.992 182.167 231.512 183.833 230.588C187.592 228.501 189.47 232.176 185.142 235.274C169.547 246.435 164.63 244.823 164.63 244.823L157.485 233.155Z" fill="#DB825E"/>
<path d="M118.885 236.66C112.765 244.308 104.904 247.161 95.303 245.218L83.995 214.059C81.632 207.547 84.995 200.352 91.507 197.989C98.019 195.626 105.214 198.989 107.577 205.501L118.885 236.66Z" fill="#0E547A"/>
<path d="M82.473 196.143C70.16 196.143 59.78 205.326 58.279 217.548L50.698 279.292C64.694 290.376 80.745 291.871 99.815 279.292L106.667 223.489C108.45 208.958 97.113 196.143 82.473 196.143Z" fill="#0880A5"/>
<path d="M78.542 183.332L74.964 196.962C74.964 196.962 74.276 202.349 78.028 205.977C81.78 209.605 90.131 209.515 92.225 205.977L96.403 192.433C96.403 192.433 86.004 181.478 78.542 183.332Z" fill="#F0B89F"/>
<path opacity="0.7" d="M78.542 183.332L74.964 196.962C74.964 196.962 74.276 202.349 78.028 205.977C81.78 209.605 90.131 209.515 92.225 205.977L96.403 192.433C96.403 192.433 86.004 181.478 78.542 183.332Z" fill="#DB825E"/>
<path d="M67.8611 157.408C65.2091 144.441 73.5721 131.779 86.5391 129.127C99.5061 126.476 112.375 134.331 116.208 148.665C119.628 161.451 119.998 188.293 110.541 191.498C99.5701 195.217 82.7081 189.165 78.5411 183.331C72.8721 175.393 69.0341 163.142 67.8611 157.408Z" fill="#F0B89F"/>
<path d="M63.2561 168.352C63.5171 163.176 67.9251 159.192 73.1011 159.454C78.2771 159.715 83.2651 168.523 83.0041 173.699C82.7431 178.875 76.3301 180.508 71.4091 178.741C66.5311 176.99 62.9941 173.528 63.2561 168.352Z" fill="#F0B89F"/>
<path d="M92.4261 162.567C92.2251 160.662 93.5131 158.966 95.3011 158.777C97.0891 158.589 98.7021 159.98 98.9031 161.884C99.1041 163.789 97.8161 165.485 96.0281 165.674C94.2401 165.863 92.6271 164.472 92.4261 162.567Z" fill="#111224"/>
<path d="M111.513 159.471C111.326 157.697 112.525 156.116 114.191 155.941C115.857 155.765 117.359 157.061 117.546 158.836C117.733 160.61 116.534 162.191 114.868 162.366C113.202 162.541 111.7 161.245 111.513 159.471Z" fill="#111224"/>
<path d="M112.299 167.377C112.299 167.377 110.83 172.928 103.845 173.175C103.845 173.175 108.379 174.81 111.493 172.551C114.146 170.626 112.299 167.377 112.299 167.377Z" fill="#DB825E"/>
<path d="M95.8441 150.949C94.5671 149.789 88.3061 151.513 88.4101 156.682C88.4101 156.682 91.1241 155.146 92.8941 154.523C95.2981 153.676 97.4591 152.415 95.8441 150.949Z" fill="#01484C"/>
<path d="M110.481 147.709C111.492 146.311 117.974 146.711 118.935 151.79C118.935 151.79 115.963 150.845 114.103 150.599C111.576 150.265 109.202 149.476 110.481 147.709Z" fill="#01484C"/>
<path d="M112.336 177.885C112.336 177.885 112.066 181.885 109.286 184.395L109.246 184.435C108.316 185.265 107.096 185.935 105.506 186.225C101.666 186.925 99.3561 184.515 98.1261 182.505C97.3361 181.205 96.9961 180.065 96.9961 180.065L112.336 177.885Z" fill="#A6183D"/>
<path d="M68.475 160.629C70.256 159.933 73.296 159.403 75.796 163.203C78.296 167.003 78.875 170.562 78.875 170.562C78.875 170.562 81.164 170.151 82.144 168.908C82.144 168.908 82 160.698 80.375 156.681C80.375 156.681 88.125 151.665 89 141.915C89 141.915 99.848 149.069 112.924 140.93C126 132.79 122.308 118.165 114.529 117.29C106.75 116.415 100.625 126.165 100.625 126.165C100.625 126.165 104.708 114.79 98.854 112.915C93 111.04 92.405 117.332 84.875 121.498C78.9471 124.778 68.0001 125.165 62.2501 133.165C56.5001 141.165 65.9711 162.226 65.9711 162.226C65.9711 162.226 67.529 160.999 68.475 160.629Z" fill="#01484C"/>
<path d="M112.332 177.885C112.332 177.885 111.459 179.427 108.792 180.082C101.254 181.933 96.995 180.069 96.995 180.069L112.332 177.885Z" fill="#EDEDED"/>
<path d="M109.285 184.395L109.245 184.435C108.315 185.265 107.095 185.935 105.505 186.225C101.665 186.925 99.355 184.515 98.125 182.505C107.315 181.585 109.285 184.395 109.285 184.395Z" fill="#EC5E76"/>
<path d="M93.698 271.788C91.94 271.788 90.178 271.485 88.498 270.874C84.497 269.419 81.267 266.33 79.634 262.397L67.16 232.348C65.678 228.778 67.371 224.681 70.942 223.199C74.513 221.719 78.609 223.41 80.091 226.981L92.564 257.03C92.736 257.444 93.049 257.632 93.282 257.717C93.515 257.803 93.876 257.859 94.274 257.652L128.145 240.03C131.575 238.245 135.801 239.58 137.586 243.009C139.37 246.439 138.036 250.665 134.607 252.449L100.736 270.071C98.545 271.211 96.125 271.788 93.698 271.788Z" fill="#F0B89F"/>
<path d="M127.532 240.801C127.532 240.801 126.616 237.657 128.873 233.464C131.131 229.271 134.034 227.174 135.969 224.917C137.904 222.659 141.123 225.562 138.304 228.949C135.485 232.336 135.962 234.681 138.304 232.46C140.646 230.239 143.548 227.497 145.806 225.24C148.064 222.982 151.289 224.756 148.548 228.465C145.806 232.174 144.839 232.819 144.032 234.11C143.226 235.4 144.354 236.69 145.806 235.4C147.258 234.11 150.16 231.412 151.934 229.777C153.708 228.142 157.74 229.197 154.998 232.46C152.256 235.722 148.708 238.141 147.902 238.948C147.096 239.754 147.418 241.287 148.708 240.964C149.998 240.642 151.9 239.18 153.544 238.267C157.255 236.207 159.11 239.835 154.836 242.894C139.437 253.914 134.582 252.323 134.582 252.323L127.532 240.801Z" fill="#F0B89F"/>
<path d="M89.54 243.775C83.42 251.423 75.559 254.276 65.958 252.333L54.651 221.174C52.288 214.662 55.651 207.467 62.163 205.104C68.675 202.741 75.87 206.104 78.233 212.616L89.54 243.775Z" fill="#0E547A"/>
<path d="M385.78 128.372C385.78 128.372 401.962 125.281 412.249 137.031C422.536 148.781 422.864 174.805 424.575 182.418C426.286 190.031 437.036 190.236 439.286 198.884C441.536 207.531 437.536 213.132 431.536 214.457C431.536 214.457 431.692 221.985 425.951 227.109C412.03 239.532 394.286 223.865 394.286 223.865C394.286 223.865 371.69 233.957 364.19 214.457C356.69 194.957 385.78 128.372 385.78 128.372Z" fill="#7C1905"/>
<path d="M350.688 261.915H292.438C288.572 261.915 285.438 258.781 285.438 254.915C285.438 251.049 288.572 247.915 292.438 247.915H346.786L372.556 206.234C374.589 202.947 378.904 201.929 382.191 203.961C385.48 205.994 386.498 210.308 384.464 213.596L356.643 258.595C355.367 260.659 353.114 261.915 350.688 261.915Z" fill="#F0B89F"/>
<g opacity="0.5">
<path d="M350.688 261.915H292.438C288.572 261.915 285.438 258.781 285.438 254.915C285.438 251.049 288.572 247.915 292.438 247.915H346.786L372.556 206.234C374.589 202.947 378.904 201.929 382.191 203.961C385.48 205.994 386.498 210.308 384.464 213.596L356.643 258.595C355.367 260.659 353.114 261.915 350.688 261.915Z" fill="#DB825E"/>
</g>
<path d="M331.698 391.527C331.698 391.527 334.615 398.171 333.948 407.265H323.781L323.114 404.548L320.281 407.265C320.281 407.265 310.597 407.967 294.781 407.967C277.614 407.967 292.781 400.376 301.948 397.027C311.164 393.66 320.948 391.527 320.948 391.527H331.698Z" fill="#023535"/>
<path d="M374.36 279.417L408.974 290.852C410.441 302.779 401.136 313.3 389.118 313.3H328.462L331.697 388.258H318.697L305.69 304.65C304.723 298.435 308.925 292.594 315.125 291.535L374.36 279.417Z" fill="#01484C"/>
<path d="M388.704 285.029L389.676 292.775C390.333 298.01 386.356 302.681 381.083 302.866L324.422 304.968C321.085 305.086 318.573 308.051 319.006 311.362L326.06 388.258" stroke="#045F68" stroke-miterlimit="10"/>
<path d="M331.632 391.527L331.08 388.257H320.215L320.882 391.527C320.884 391.528 320.886 391.528 320.888 391.529H320.881C320.881 391.529 311.101 393.659 301.881 397.029C299.561 397.879 296.851 398.999 294.381 400.199C294.381 400.199 302.601 401.829 316.191 400.199C329.771 398.569 331.631 391.529 331.631 391.529H331.625C331.628 391.528 331.63 391.528 331.632 391.527Z" fill="#F0B89F"/>
<path opacity="0.5" d="M331.632 391.527L331.08 388.257H320.215L320.882 391.527C320.884 391.528 320.886 391.528 320.888 391.529H320.881C320.881 391.529 311.101 393.659 301.881 397.029C299.561 397.879 296.851 398.999 294.381 400.199C294.381 400.199 302.601 401.829 316.191 400.199C329.771 398.569 331.631 391.529 331.631 391.529H331.625C331.628 391.528 331.63 391.528 331.632 391.527Z" fill="#DB825E"/>
<path d="M350.298 410.865H340.128L339.468 408.145L336.628 410.865C336.628 410.865 326.948 411.565 311.128 411.565C298.318 411.565 303.518 407.335 310.798 403.795C313.268 402.595 315.978 401.475 318.298 400.625C327.518 397.255 337.298 395.125 337.298 395.125H348.048C348.048 395.125 350.968 401.765 350.298 410.865Z" fill="#01484C"/>
<path d="M420.355 279.417L425.326 294.448C426.793 306.375 417.488 316.895 405.47 316.895H344.814L348.049 391.853H335.049L322.042 308.245C321.075 302.03 325.277 296.189 331.477 295.13L420.355 279.417Z" fill="#045F68"/>
<path d="M405.317 287.879L406.328 296.044C406.985 301.279 403.008 305.95 397.735 306.135L341.074 308.237C337.737 308.355 335.225 311.319 335.658 314.631L342.712 391.854" stroke="#01484C" stroke-miterlimit="10"/>
<path d="M348.049 395.123L347.497 391.853H336.632L337.299 395.123C337.301 395.124 337.303 395.124 337.305 395.125H337.298C337.298 395.125 327.518 397.255 318.298 400.625C315.978 401.475 313.268 402.595 310.798 403.795C310.798 403.795 319.018 405.425 332.608 403.795C346.188 402.165 348.048 395.125 348.048 395.125H348.042C348.045 395.124 348.047 395.124 348.049 395.123Z" fill="#F0B89F"/>
<path d="M297.155 248.001C297.155 248.001 296.328 244.789 292.194 242.304C288.06 239.819 284.449 239.493 281.596 238.527C278.744 237.561 277.44 241.753 281.646 243.245C285.852 244.738 286.648 247.027 283.461 246.303C280.274 245.579 276.328 244.691 273.195 243.892C270.062 243.093 268.169 246.305 272.474 248.118C276.779 249.931 277.955 249.993 279.324 250.7C280.693 251.407 280.377 253.114 278.446 252.741C276.515 252.367 272.592 251.518 270.202 251.011C267.812 250.504 264.846 253.507 268.92 254.931C272.994 256.355 277.334 256.629 278.453 256.914C279.572 257.2 280.083 258.701 278.793 259.087C277.503 259.473 275.091 259.183 273.187 259.237C268.89 259.361 269.15 263.48 274.453 263.935C293.56 265.574 296.966 261.679 296.966 261.679L297.155 248.001Z" fill="#F0B89F"/>
<path opacity="0.5" d="M297.155 248.001C297.155 248.001 296.328 244.789 292.194 242.304C288.06 239.819 284.449 239.493 281.596 238.527C278.744 237.561 277.44 241.753 281.646 243.245C285.852 244.738 286.648 247.027 283.461 246.303C280.274 245.579 276.328 244.691 273.195 243.892C270.062 243.093 268.169 246.305 272.474 248.118C276.779 249.931 277.955 249.993 279.324 250.7C280.693 251.407 280.377 253.114 278.446 252.741C276.515 252.367 272.592 251.518 270.202 251.011C267.812 250.504 264.846 253.507 268.92 254.931C272.994 256.355 277.334 256.629 278.453 256.914C279.572 257.2 280.083 258.701 278.793 259.087C277.503 259.473 275.091 259.183 273.187 259.237C268.89 259.361 269.15 263.48 274.453 263.935C293.56 265.574 296.966 261.679 296.966 261.679L297.155 248.001Z" fill="#DB825E"/>
<path d="M391.702 196.268C404.015 196.268 414.688 206.04 414.813 215.54L414.521 261.915L420.354 279.417C406.358 290.501 393.428 291.996 374.359 279.417C374.359 279.417 377.67 268.666 377.437 262.665L371.854 246.239C357.338 239.331 364.449 226.184 366.521 219.831C372.704 203.133 377.062 196.268 391.702 196.268Z" fill="#EA5660"/>
<path d="M396.631 186.617L399.159 197.454C399.159 197.454 399.656 202.862 395.778 206.355C391.9 209.848 383.557 209.463 381.59 205.853L378.459 195.081C378.459 195.081 389.24 184.5 396.631 186.617Z" fill="#F0B89F"/>
<path opacity="0.7" d="M396.631 186.617L399.159 197.454C399.159 197.454 399.656 202.862 395.778 206.355C391.9 209.848 383.557 209.463 381.59 205.853L378.459 195.081C378.459 195.081 389.24 184.5 396.631 186.617Z" fill="#DB825E"/>
<path d="M407.412 160.399C410.064 147.432 401.701 134.77 388.734 132.118C375.767 129.466 362.898 137.322 359.065 151.656C355.645 164.442 355.276 191.284 364.732 194.489C375.703 198.208 392.565 192.156 396.732 186.322C402.401 178.384 406.239 166.133 407.412 160.399Z" fill="#F0B89F"/>
<path d="M412.017 171.343C411.755 166.167 407.348 162.183 402.172 162.445C396.996 162.707 392.008 171.514 392.269 176.69C392.531 181.866 398.943 183.499 403.864 181.732C408.742 179.981 412.278 176.519 412.017 171.343Z" fill="#F0B89F"/>
<path d="M382.846 165.558C383.047 163.653 381.759 161.957 379.971 161.768C378.182 161.579 376.57 162.971 376.369 164.875C376.168 166.78 377.456 168.476 379.244 168.665C381.033 168.854 382.646 167.463 382.846 165.558Z" fill="#111224"/>
<path d="M363.76 162.462C363.947 160.688 362.748 159.107 361.082 158.932C359.416 158.756 357.914 160.052 357.727 161.827C357.54 163.601 358.739 165.182 360.405 165.357C362.071 165.532 363.573 164.236 363.76 162.462Z" fill="#111224"/>
<path d="M363.223 170.581C363.223 170.581 364.6 175.784 371.147 176.016C371.147 176.016 366.897 177.549 363.978 175.431C361.492 173.626 363.223 170.581 363.223 170.581Z" fill="#DB825E"/>
<path d="M378.941 155.126C380.218 153.966 386.48 155.69 386.375 160.859C386.375 160.859 383.661 159.323 381.891 158.7C379.487 157.853 377.326 156.593 378.941 155.126Z" fill="#A03717"/>
<path d="M363.833 152.45C362.822 151.052 356.34 151.452 355.379 156.531C355.379 156.531 358.351 155.586 360.211 155.34C362.738 155.006 365.112 154.217 363.833 152.45Z" fill="#A03717"/>
<path d="M363.633 181.192C363.633 181.192 363.872 184.738 366.337 186.963L366.373 186.998C367.197 187.734 368.279 188.328 369.689 188.585C373.093 189.206 375.141 187.069 376.232 185.287C376.932 184.135 377.234 183.124 377.234 183.124L363.633 181.192Z" fill="#A6183D"/>
<path d="M406.798 163.62C405.002 162.962 401.977 162.394 399.477 166.194C396.977 169.994 396.397 173.553 396.397 173.553C396.397 173.553 393.286 170.581 394.199 163.62C394.199 163.62 383.293 158.197 377.232 139.531C377.232 139.531 368.621 146.154 359.983 148.789C365.35 119.665 401.216 127.036 407.901 138.197C416.786 153.03 411.491 168.682 411.491 168.682C411.491 168.682 410.277 164.896 406.798 163.62Z" fill="#A03717"/>
<path d="M363.636 181.192C363.636 181.192 363.973 183.285 366.337 183.866C373.02 185.507 377.233 183.128 377.233 183.128L363.636 181.192Z" fill="#EDEDED"/>
<path d="M366.337 186.963L366.373 186.998C367.197 187.734 368.279 188.328 369.689 188.585C373.093 189.206 375.141 187.069 376.232 185.287C368.084 184.472 366.337 186.963 366.337 186.963Z" fill="#EC5E76"/>
<path d="M377.233 183.124C374.692 182.733 371.812 181.978 369.057 181.033C365.716 179.888 365.213 179.482 362.318 178.669C361.542 178.451 360.48 179.057 361.025 179.814C361.869 180.987 364.461 181.953 366.714 182.363C369.357 182.843 373.391 183.338 376.097 183.192C376.575 183.167 377.444 183.157 377.233 183.124Z" fill="#CA1535"/>
<path d="M382.379 165.373C382.379 165.373 383.786 166.57 385.62 165.217C385.62 165.217 384.913 167.849 382.142 167.357C379.37 166.864 382.379 165.373 382.379 165.373Z" fill="#111224"/>
<path d="M357.962 161.03C357.962 161.03 356.355 161.476 355.367 159.672C355.367 159.672 354.946 162.095 357.403 162.745C359.86 163.395 357.962 161.03 357.962 161.03Z" fill="#111224"/>
<path opacity="0.5" d="M386.981 176.981C386.112 178.69 383.566 179.139 381.293 177.984C379.021 176.829 377.883 174.506 378.752 172.797C379.621 171.088 382.167 170.639 384.44 171.794C386.713 172.95 387.85 175.272 386.981 176.981Z" fill="#EC5E76"/>
<path opacity="0.5" d="M361.149 169.563C361.564 171.469 359.846 173.462 357.311 174.014C354.776 174.566 352.385 173.467 351.97 171.561C351.555 169.655 353.273 167.662 355.808 167.11C358.344 166.559 360.735 167.657 361.149 169.563Z" fill="#EC5E76"/>
<path d="M380.477 271.913C382.235 271.913 383.996 271.61 385.677 270.999C389.678 269.544 392.908 266.455 394.541 262.522L412.596 218.474C414.078 214.904 412.385 210.807 408.814 209.325C405.243 207.845 401.147 209.536 399.665 213.107L381.61 257.155C381.438 257.569 381.125 257.757 380.892 257.842C380.659 257.928 380.298 257.984 379.9 257.777L346.029 240.155C342.599 238.37 338.373 239.705 336.588 243.134C334.804 246.564 336.138 250.79 339.567 252.574L373.438 270.196C375.629 271.336 378.05 271.913 380.477 271.913Z" fill="#F0B89F"/>
<path d="M346.643 240.926C346.643 240.926 347.559 237.782 345.302 233.589C343.044 229.396 340.141 227.299 338.206 225.042C336.271 222.784 333.052 225.687 335.871 229.074C338.69 232.461 338.213 234.806 335.871 232.585C333.529 230.364 330.626 227.622 328.369 225.365C326.111 223.107 322.886 224.881 325.627 228.59C328.369 232.299 329.336 232.944 330.143 234.235C330.949 235.525 329.82 236.815 328.369 235.525C326.918 234.235 324.015 231.537 322.241 229.902C320.467 228.267 316.435 229.322 319.177 232.585C321.919 235.847 325.467 238.266 326.273 239.073C327.079 239.879 326.757 241.412 325.467 241.089C324.177 240.767 322.275 239.305 320.631 238.392C316.92 236.332 315.065 239.96 319.339 243.019C334.737 254.039 339.593 252.448 339.593 252.448L346.643 240.926Z" fill="#F0B89F"/>
<path d="M256.171 108.665H193.411C191.171 108.665 189.351 110.485 189.351 112.735V153.415C189.351 155.665 191.171 157.485 193.411 157.485H229.051H247.501H247.751C248.391 157.315 249.291 155.855 249.741 153.345C250.521 148.955 254.871 149.555 254.381 152.525C254.131 154.005 254.081 155.645 253.871 157.485H256.171C258.411 157.485 260.231 155.665 260.231 153.415V112.735C260.231 110.485 258.411 108.665 256.171 108.665Z" fill="#F2F2F2"/>
<path d="M198.467 149.603L211.634 131.603L219.467 141.263L231.134 123.937L239.217 133.213L251.736 118.51" stroke="#0071BC" stroke-width="2" stroke-linecap="round" stroke-linejoin="round"/>
<path d="M251.735 123.742L251.352 118.96L246.571 119.346L248.438 117.153L253.217 116.77L253.601 121.55L251.735 123.742Z" fill="#0071BC"/>
<path d="M228.752 123.937C228.752 122.565 229.864 121.453 231.236 121.453C232.608 121.453 233.72 122.565 233.72 123.937C233.72 125.309 232.608 126.421 231.236 126.421C229.864 126.42 228.752 125.308 228.752 123.937Z" fill="#C1272D"/>
<path d="M209.071 132.075C209.071 130.703 210.183 129.591 211.555 129.591C212.927 129.591 214.039 130.703 214.039 132.075C214.039 133.447 212.927 134.559 211.555 134.559C210.183 134.559 209.071 133.447 209.071 132.075Z" fill="#C1272D"/>
</svg>
