<svg width="546" height="388" viewBox="0 0 546 388" fill="none" xmlns="http://www.w3.org/2000/svg">
<g filter="url(#filter0_d_293_3887)">
<path d="M46.5152 379.366C46.5152 379.366 -19.3168 283.572 12.8568 184.953C33.8282 120.672 112.495 85.4483 156.891 120.672C175.8 135.674 236.464 121.178 268.855 59.0674C331.799 -61.6273 551.475 11.6725 511.482 196.981C492.128 286.656 570.383 289.916 530.509 379.556L46.5152 379.366Z" fill="#C7E3FC"/>
</g>
<path d="M163.846 378.74L164.009 378.736C165.34 378.712 166.368 377.624 166.243 376.372L157.362 287.675L149.612 288.366L162.365 377.541C162.464 378.237 163.102 378.753 163.846 378.74Z" fill="#8CB3F4"/>
<path d="M78.3275 378.74L78.1646 378.736C76.8334 378.712 75.8052 377.624 75.9305 376.372L84.8119 287.675L92.5617 288.366L79.8088 377.541C79.7093 378.237 79.0722 378.753 78.3275 378.74Z" fill="#8CB3F4"/>
<path d="M226.502 378.74L226.665 378.736C227.996 378.712 229.025 377.624 228.899 376.372L220.018 287.675L212.268 288.366L225.021 377.541C225.121 378.237 225.758 378.753 226.502 378.74Z" fill="#8CB3F4"/>
<path d="M80.9725 274.772L65.2076 196.921C63.184 186.38 71.9183 176.742 83.2593 177.001L113.663 177.695C124.151 177.935 133.271 184.955 136.186 195.033L159.25 274.772H80.9725Z" fill="#8CB3F4"/>
<path d="M90.5099 274.772L74.7452 196.921C72.7216 186.38 81.4559 176.742 92.797 177.001L123.2 177.695C133.689 177.935 142.808 184.955 145.723 195.033L168.788 274.772H90.5099Z" fill="#8CB3F4"/>
<path d="M85.3664 288.971H205.656C208.072 288.971 210.05 286.994 210.05 284.577V279.166C210.05 276.75 208.073 274.772 205.656 274.772H80.9725V284.577C80.9725 286.994 82.9498 288.971 85.3664 288.971Z" fill="#8CB3F4"/>
<path d="M141.815 288.971H218.497C220.443 288.971 222.036 287.379 222.036 285.432V278.312C222.036 276.365 220.444 274.772 218.497 274.772H141.815C139.868 274.772 138.275 276.365 138.275 278.312V285.432C138.275 287.379 139.868 288.971 141.815 288.971Z" fill="#8CB3F4"/>
<path d="M315.21 97.7746H271.594C269.592 97.7746 267.954 96.1363 267.954 94.1342V52.0375C267.954 50.0352 269.592 48.3971 271.594 48.3971H315.21C317.212 48.3971 318.851 50.0352 318.851 52.0375V94.1342C318.85 96.1365 317.212 97.7746 315.21 97.7746Z" fill="#C0D8FB"/>
<path d="M313.32 95.6354H273.484C271.655 95.6354 270.158 94.1392 270.158 92.3104V53.8611C270.158 52.0323 271.655 50.5361 273.484 50.5361H313.32C315.149 50.5361 316.645 52.0323 316.645 53.8611V92.3104C316.645 94.1392 315.149 95.6354 313.32 95.6354Z" fill="#DFEBFD"/>
<path d="M293.403 56.097C293.985 56.097 294.457 55.625 294.457 55.0427C294.457 54.4605 293.985 53.9885 293.403 53.9885C292.82 53.9885 292.348 54.4605 292.348 55.0427C292.348 55.625 292.82 56.097 293.403 56.097Z" fill="#B7D3F3"/>
<path d="M300.855 56.5328C301.138 56.0239 301.78 55.8406 302.289 56.1235C302.798 56.4063 302.981 57.0484 302.698 57.5573C302.416 58.0662 301.774 58.2497 301.265 57.9666C300.756 57.6838 300.572 57.0417 300.855 56.5328Z" fill="#B7D3F3"/>
<path d="M308.144 62.3231C308.633 62.0074 309.285 62.1484 309.601 62.6377C309.917 63.1269 309.776 63.7796 309.287 64.0951C308.798 64.4108 308.145 64.2699 307.829 63.7806C307.514 63.2913 307.654 62.6388 308.144 62.3231Z" fill="#B7D3F3"/>
<path d="M311.754 71.2856C312.336 71.2856 312.808 71.7576 312.808 72.3399C312.808 72.9221 312.336 73.3941 311.754 73.3941C311.171 73.3941 310.699 72.9221 310.699 72.3399C310.699 71.7576 311.171 71.2856 311.754 71.2856Z" fill="#B7D3F3"/>
<path d="M309.911 81.6864C310.322 82.0981 310.322 82.7657 309.911 83.1774C309.499 83.5891 308.831 83.5891 308.42 83.1774C308.008 82.7657 308.008 82.0983 308.42 81.6864C308.831 81.2747 309.499 81.2747 309.911 81.6864Z" fill="#B7D3F3"/>
<path d="M303.29 88.3243C303.702 88.736 303.702 89.4036 303.29 89.8153C302.878 90.227 302.211 90.227 301.799 89.8153C301.387 89.4036 301.387 88.736 301.799 88.3243C302.211 87.9125 302.878 87.9125 303.29 88.3243Z" fill="#B7D3F3"/>
<path d="M292.348 91.7457C292.348 91.1635 292.82 90.6912 293.402 90.6912C293.985 90.6912 294.457 91.1632 294.457 91.7457C294.457 92.3279 293.985 92.7999 293.402 92.7999C292.82 92.7999 292.348 92.3279 292.348 91.7457Z" fill="#B7D3F3"/>
<path d="M285.916 56.5328C285.633 56.0239 284.991 55.8407 284.482 56.1235C283.973 56.4063 283.79 57.0484 284.073 57.5573C284.356 58.0662 284.998 58.2497 285.507 57.9666C286.016 57.6838 286.199 57.0418 285.916 56.5328Z" fill="#B7D3F3"/>
<path d="M278.627 62.3231C278.138 62.0074 277.485 62.1484 277.17 62.6377C276.854 63.1269 276.995 63.7796 277.484 64.0951C277.974 64.4108 278.626 64.2699 278.942 63.7806C279.257 63.2913 279.117 62.6388 278.627 62.3231Z" fill="#B7D3F3"/>
<path d="M275.018 71.2856C274.435 71.2856 273.963 71.7577 273.963 72.3399C273.963 72.9221 274.435 73.3941 275.018 73.3941C275.6 73.3941 276.072 72.9221 276.072 72.3399C276.072 71.7577 275.6 71.2856 275.018 71.2856Z" fill="#B7D3F3"/>
<path d="M276.861 81.6864C276.449 82.0981 276.449 82.7657 276.861 83.1774C277.272 83.5891 277.94 83.5891 278.352 83.1774C278.764 82.7657 278.764 82.0984 278.352 81.6864C277.94 81.2747 277.272 81.2747 276.861 81.6864Z" fill="#B7D3F3"/>
<path d="M283.481 88.3243C283.07 88.736 283.07 89.4036 283.481 89.8153C283.893 90.227 284.56 90.227 284.972 89.8153C285.384 89.4036 285.384 88.736 284.972 88.3243C284.56 87.9126 283.893 87.9126 283.481 88.3243Z" fill="#B7D3F3"/>
<path d="M293.118 72.3399C293.118 71.7577 293.59 71.2856 294.172 71.2856C294.755 71.2856 295.227 71.7577 295.227 72.3399C295.227 72.9221 294.755 73.3941 294.172 73.3941C293.59 73.3941 293.118 72.9221 293.118 72.3399Z" fill="#B7D3F3"/>
<path d="M294.316 59.1687H294.028V72.3397H294.316V59.1687Z" fill="#B7D3F3"/>
<path d="M300.762 66.4882L293.779 71.9698L294.312 72.6491L301.295 67.1675L300.762 66.4882Z" fill="#B7D3F3"/>
<path d="M185.763 258.48C179.256 269.806 171.071 274.178 171.071 274.178H137.019C137.019 274.178 190.728 249.84 185.763 258.48Z" fill="#233862"/>
<path d="M227.762 371.004C227.393 374.576 232.363 375.499 238.126 375.848C243.889 376.197 242.134 377.36 250.021 378.875C257.907 380.391 261.097 378.263 261.681 377.201C262.2 376.26 258.542 374.739 254.645 373.022C254.154 372.808 253.663 372.587 253.172 372.366C248.786 370.381 246.356 366.403 242.96 362.702C239.743 359.197 236.772 348.051 236.772 348.051L226.058 345.643C226.058 345.643 228.966 355.676 229.967 359.957C230.556 362.475 229.617 365.273 228.788 367.402C228.341 368.559 227.89 369.745 227.762 371.004Z" fill="#FFB27D"/>
<path d="M238.126 375.848C243.889 376.197 242.133 377.36 250.02 378.875C257.907 380.391 261.097 378.263 261.681 377.201C262.2 376.26 258.542 374.739 254.645 373.022L254.583 373.088C254.583 373.088 249.006 374.915 242.612 373.103C237.4 371.627 232.379 368.449 228.788 367.402C228.341 368.559 227.89 369.745 227.761 371.004C227.393 374.576 232.363 375.499 238.126 375.848Z" fill="#0F2549"/>
<path d="M211.529 246.878C205.764 242.83 167.629 235.614 148.168 233.526L126.658 214.854C126.658 214.854 108.349 241.973 108.204 262.719C108.136 272.392 112.592 273.353 112.593 273.355C112.593 273.355 181.548 273.866 184.571 274.178C189.518 274.688 196.044 287.013 197.675 298.239C199.306 309.465 228.06 355.124 228.06 355.124C228.06 355.124 234.057 357.045 236.83 356.882C239.812 356.707 241.193 355.708 241.193 355.708C241.193 355.708 224.531 256.008 211.529 246.878Z" fill="#233862"/>
<path d="M209.926 371.004C209.557 374.576 214.527 375.499 220.29 375.848C226.053 376.197 224.298 377.36 232.184 378.875C240.071 380.391 243.261 378.263 243.845 377.201C244.364 376.26 240.706 374.739 236.809 373.022C236.318 372.808 235.827 372.587 235.336 372.366C230.95 370.381 228.52 366.403 225.124 362.702C221.907 359.197 218.936 348.051 218.936 348.051L208.222 345.643C208.222 345.643 211.13 355.676 212.131 359.957C212.72 362.475 211.782 365.273 210.952 367.402C210.505 368.559 210.054 369.745 209.926 371.004Z" fill="#FFB27D"/>
<path d="M220.29 375.848C226.053 376.197 224.298 377.36 232.184 378.875C240.071 380.391 243.261 378.263 243.844 377.201C244.364 376.26 240.706 374.739 236.809 373.022L236.747 373.088C236.747 373.088 231.17 374.915 224.776 373.103C219.564 371.627 214.543 368.449 210.952 367.402C210.505 368.559 210.054 369.745 209.926 371.004C209.557 374.576 214.527 375.499 220.29 375.848Z" fill="#233862"/>
<path d="M193.536 246.878C188.527 243.362 173.464 240.635 156.836 238.611C152.238 238.052 148.464 234.709 147.341 230.216L108.665 214.854C108.665 214.854 90.3556 241.973 90.2104 262.719C90.1427 272.392 94.5983 273.353 94.5992 273.355C94.5992 273.355 163.554 273.866 166.577 274.178C171.525 274.688 178.051 287.013 179.682 298.239C181.313 309.465 210.067 355.124 210.067 355.124C210.067 355.124 216.063 357.045 218.836 356.882C221.819 356.707 223.199 355.708 223.199 355.708C223.199 355.708 206.537 256.008 193.536 246.878Z" fill="#2B478B"/>
<path d="M141.782 102.182C136.467 99.391 128.38 99.0136 127.066 98.8369C111.344 96.7239 101.882 119.569 101.325 126.492C100.3 139.251 93.5499 141.196 84.0492 149.187C64.9995 165.209 70.5857 183.827 81.0023 190.745C87.2521 194.895 98.2682 190.744 98.2682 190.744C98.4241 190.853 128.396 173.989 143.17 165.854C165.319 162.706 155.325 109.294 141.782 102.182Z" fill="#233862"/>
<path d="M138.503 157.995C138.572 158.031 131.517 161.239 126.424 159.557C121.634 157.978 117.414 150.765 117.482 150.755C119.561 150.453 121.675 148.402 122.265 136.247L123.186 136.478L138.668 140.392C138.668 140.392 138.055 145.296 137.803 149.934C137.589 153.827 137.633 157.533 138.503 157.995Z" fill="#FFB27D"/>
<path d="M138.668 140.392C138.668 140.392 138.668 141.401 138.089 145.964C129.333 143.756 125.472 140.852 122.749 137.529L138.668 140.392Z" fill="#ED975D"/>
<path d="M141.971 141.009C141.971 141.009 121.497 144.343 119.618 131.561C117.738 118.779 113.83 110.601 126.822 107.933C139.814 105.264 143.077 109.767 144.742 113.881C146.407 117.994 147.248 139.813 141.971 141.009Z" fill="#FFB27D"/>
<path d="M141.99 107.397C141.99 107.397 132.693 122.074 124.393 125.549C116.093 129.025 112.016 127.261 112.016 127.261C112.016 127.261 115.791 121.535 116.775 113.848C117.065 111.582 118.541 109.639 120.662 108.79C126.618 106.404 138.14 102.643 141.99 107.397Z" fill="#233862"/>
<path d="M133.823 108.816C133.823 108.816 139.273 111.61 141.517 114.228C143.683 116.755 146.184 123.611 146.006 126.69C146.006 126.69 148.694 111.934 143.094 106.862C137.158 101.483 133.823 108.816 133.823 108.816Z" fill="#233862"/>
<path d="M154.882 189.221C154.26 230.837 154.711 222.14 150.159 226.089C149.062 227.04 145.978 227.606 141.92 227.875C129.159 228.722 106.728 226.619 105.875 224.261C102.931 216.101 105.009 213.566 102.553 201.074C102.297 199.745 101.981 198.307 101.609 196.741C99.5614 188.161 97.5686 185.242 104.833 171.457C111.42 158.971 119.167 148.828 119.782 149.193C137.162 159.51 137.757 150.862 137.757 150.862C137.757 150.862 155.186 168.922 154.882 189.221Z" fill="white"/>
<path d="M137.757 150.862C137.757 150.862 155.544 153.877 157.644 161.577C159.744 169.277 172.102 214.542 172.102 214.542C172.102 214.542 163.011 216.175 158.811 211.975C154.611 207.775 144.197 173.01 144.197 173.01L137.757 150.862Z" fill="white"/>
<path d="M141.92 227.875C129.159 228.722 106.728 226.619 105.875 224.261C102.931 216.101 105.009 213.566 102.553 201.074L108.708 183.743C108.708 183.743 107.691 203.042 113.382 208.118C119.068 213.194 136.685 217.917 139.452 222.159C140.786 224.194 141.664 226.235 141.92 227.875Z" fill="#EBF3FF"/>
<path d="M127.3 219.758C127.3 219.758 139.889 216.954 141.92 218.072C143.952 219.189 148.916 223.258 149.537 224.673C150.159 226.089 145.015 223.598 143.342 223.15C142.259 222.859 139.406 223.851 137.995 224.321C132.053 226.302 128.412 225.283 128.412 225.283L127.3 219.758Z" fill="#FFB27D"/>
<path d="M119.782 149.193C119.782 149.193 101.965 150.234 96.1128 158.396C87.8753 169.885 71.5346 218.849 80.8995 225.379C91.4462 232.733 128.9 227.303 128.9 227.303C128.9 227.303 130.146 221.477 128.412 218.659C126.678 215.841 98.497 211.289 97.1963 209.988C95.8957 208.688 113.454 184.626 113.454 180.724C113.455 176.822 119.782 149.193 119.782 149.193Z" fill="white"/>
<path d="M142.53 221.576C142.53 221.576 145.167 224.978 146.032 225.384C146.897 225.79 147.455 225.689 147.455 225.689L145.678 222.49L142.53 221.576Z" fill="#FFB27D"/>
<path d="M141.92 218.072L149.589 221.796C149.589 221.796 149.263 222.33 148.318 222.286C147.374 222.243 144.992 221.372 144.992 221.372L141.92 218.072Z" fill="#FFB27D"/>
<path d="M170.171 226.901H134.552C134.552 225.332 135.824 224.061 137.392 224.061H170.171V226.901Z" fill="#BF5600"/>
<path d="M170.069 188.109H225.138L211.929 226.901H156.503L170.069 188.109Z" fill="#BF5600"/>
<path d="M225.949 188.108L212.74 226.9H157.313L170.88 188.108H225.949Z" fill="#BF5600"/>
<path d="M196.259 207.146C195.917 208.628 194.438 209.829 192.956 209.829C191.473 209.829 190.549 208.628 190.892 207.146C191.234 205.664 192.713 204.462 194.195 204.462C195.677 204.462 196.601 205.664 196.259 207.146Z" fill="white"/>
<path d="M122.241 235.628H363.57C364.585 235.628 365.408 234.805 365.408 233.79V228.738C365.408 227.723 364.585 226.9 363.57 226.9H122.241C121.226 226.9 120.404 227.723 120.404 228.738V233.79C120.404 234.805 121.226 235.628 122.241 235.628Z" fill="#182D4F"/>
<path d="M369.478 379.389L369.582 379.376C370.818 379.223 371.694 378.12 371.538 376.912L350.032 231.341L342.159 231.566L367.462 377.924C367.624 378.862 368.513 379.508 369.478 379.389Z" fill="#182D4F"/>
<path d="M114.16 379.389L114.056 379.376C112.82 379.223 111.945 378.12 112.101 376.912L133.606 231.341L141.479 231.566L116.177 377.924C116.015 378.862 115.125 379.508 114.16 379.389Z" fill="#182D4F"/>
<path d="M163.946 379.389L163.842 379.376C162.606 379.223 161.73 378.12 161.887 376.912L183.392 231.341L191.265 231.566L165.962 377.924C165.8 378.862 164.911 379.508 163.946 379.389Z" fill="#182D4F"/>
<path d="M528.326 380.502H40.3762C40.0093 380.502 39.709 379.369 39.709 377.984V375.926C39.709 374.541 40.0093 373.407 40.3762 373.407H528.326C528.693 373.407 528.993 374.541 528.993 375.926V377.984C528.993 379.369 528.693 380.502 528.326 380.502Z" fill="#2E3552"/>
<path d="M290.819 379.271H333.494C335.546 376.766 334.79 367.524 334.479 364.506C334.415 363.898 334.371 363.544 334.371 363.544C334.371 363.544 319.799 351.888 317.797 360.813C317.736 361.093 317.662 361.366 317.581 361.637C315.059 369.984 303.748 373.779 297.216 374.835C292.969 375.524 291.4 377.731 290.819 379.271Z" fill="#233862"/>
<path d="M407.263 240.606C405.722 240.606 334.163 254.042 322.327 268.693C316.414 276.013 315.535 360.545 315.535 360.545C315.535 360.545 322.85 369.616 338.649 364.349C338.649 364.349 350.233 306.513 349.378 288.971C349.141 284.121 398.27 288.269 407.262 285.942C416.254 283.615 438.225 264.054 433.384 254.524C428.543 244.995 407.263 240.606 407.263 240.606Z" fill="#233862"/>
<path d="M322.634 219.906C322.634 219.906 308.199 220.101 304.785 221.564C301.372 223.027 294.447 226.385 296.3 226.901C298.153 227.416 306.996 226.688 308.906 226.981C310.817 227.273 313.173 226.9 314.344 226.9C315.514 226.901 320.973 226.9 320.973 226.9L322.634 219.906Z" fill="#FFB27D"/>
<path d="M305.757 185.266C305.757 185.266 300.836 181.749 296.057 181.067C293.332 180.677 290.682 180.192 289.08 179.628C284.67 178.074 275.847 170.141 276.515 169.21C278.655 166.227 288.955 172.539 290.753 171.861C292.551 171.184 287.297 167.448 289.125 166.134C290.079 165.448 292.312 168.887 294.137 169.233C296.606 169.7 298.536 173.187 299.279 173.369C300.726 173.723 307.063 178.436 307.063 178.436L305.757 185.266Z" fill="#FFB27D"/>
<path d="M400.135 144.199C400.135 144.199 389.147 147.604 378.322 177.415C367.496 207.227 363.385 208.836 359.449 210.006C355.514 211.177 320.973 218.053 320.973 218.053V226.9H374.195C374.195 226.9 394.152 207.916 400.135 195.136C406.118 182.357 400.135 144.199 400.135 144.199Z" fill="#BF5600"/>
<path d="M271.959 379.271H314.633C316.686 376.766 315.929 367.524 315.619 364.506C315.555 363.898 315.511 363.544 315.511 363.544C315.511 363.544 300.938 351.888 298.937 360.813C298.876 361.093 298.802 361.366 298.721 361.637C296.199 369.984 284.887 373.779 278.355 374.835C274.109 375.524 272.539 377.731 271.959 379.271Z" fill="#1B3051"/>
<path d="M386.175 240.606C384.634 240.606 313.076 254.042 301.239 268.693C295.326 276.013 294.447 360.545 294.447 360.545C294.447 360.545 301.763 369.616 317.562 364.349C317.562 364.349 329.146 306.513 328.291 288.971C328.054 284.121 377.183 288.269 386.175 285.942C395.167 283.615 417.138 264.054 412.296 254.524C407.456 244.995 386.175 240.606 386.175 240.606Z" fill="#2B478B"/>
<path d="M390.654 153.646C395.801 153.222 401.199 151.849 405.864 150.336C411.695 148.444 416.395 145.678 413.366 140.348C410.575 135.436 406.057 124.463 406.362 115.373L395.511 124.117L388.141 130.057C388.141 130.057 388.171 133.558 388.977 139.694C389.124 140.813 389.296 142.02 389.499 143.311C389.663 144.353 389.184 145.395 388.287 145.951C388.232 145.985 388.176 146.02 388.121 146.055C384.458 148.356 386.342 154.002 390.654 153.646Z" fill="#FFB27D"/>
<path d="M388.14 128.611C388.14 128.611 387.763 129.883 388.411 134.577C394.982 133.505 401.126 128.264 401.126 128.264C397.78 127.345 396.563 123.731 394.071 124.068L388.14 128.611Z" fill="#ED975D"/>
<path d="M382.062 129.682C382.062 129.682 407.339 133.881 409.712 118.1C412.084 102.319 416.945 92.2324 400.907 88.8841C384.869 85.5357 380.821 91.085 378.747 96.1599C376.674 101.235 375.549 128.183 382.062 129.682Z" fill="#FFB27D"/>
<path d="M375.03 89.1761C373.944 92.9762 376.849 97.6051 381.726 99.1288C388.964 101.391 387.365 110.27 390.622 110.149C393.879 110.028 395.193 105.045 398.102 109.027C400.584 112.422 396.037 116.448 396.35 118.31C396.887 121.507 401.895 128.048 406.407 127.72C410.921 127.392 419.365 105.945 417.676 99.3097C415.987 92.6744 409.231 85.6774 402.837 84.7123C396.444 83.7472 387.564 86.5079 385.513 86.5079C383.462 86.5079 375.617 87.1235 375.03 89.1761Z" fill="#2B478B"/>
<path d="M433.721 166.101C430.067 151.397 419.97 135.968 413.142 135.981C401.508 136.003 384.784 139.073 378.031 155.731C373.058 167.999 366.424 238.573 373.921 243.592C391.06 255.066 430.787 278.488 437.844 254.602C444.31 232.716 440.061 191.622 433.721 166.101Z" fill="#BF5600"/>
<path d="M405.464 151.469C402.145 142.835 391.44 139.851 384.14 145.53C380.191 148.602 375.356 152.977 369.515 159.196C347.804 182.316 343.391 182.173 339.314 181.695C335.236 181.218 300.785 173.906 300.785 173.906C300.785 173.906 299.02 175.207 297.982 177.311C296.596 180.12 297.294 182.035 297.294 182.035C295.944 181.163 309.506 190.511 316.256 194.239C325.17 199.161 338.603 203.776 343.953 205.528C345.469 206.025 347.105 206 348.606 205.459C356.547 202.596 383.214 192.167 404.923 174.069C410.643 169.3 408.541 159.474 405.464 151.469Z" fill="#BF5600"/>
<path d="M414.314 136.122L411.679 130.188C411.679 130.188 388.102 132.111 384.14 145.53C384.14 145.53 402.416 136.41 414.314 136.122Z" fill="white"/>
<path d="M471.556 378.74L471.718 378.736C473.049 378.712 474.078 377.624 473.952 376.372L465.071 287.675L457.321 288.366L470.074 377.541C470.174 378.237 470.811 378.753 471.556 378.74Z" fill="#8CB3F4"/>
<path d="M425.842 378.74L426.005 378.736C427.336 378.712 428.364 377.624 428.239 376.372L419.358 287.675L411.608 288.366L424.36 377.541C424.46 378.237 425.097 378.753 425.842 378.74Z" fill="#8CB3F4"/>
<path d="M340.022 378.74L339.859 378.736C338.528 378.712 337.5 377.624 337.625 376.372L346.507 287.675L354.256 288.366L341.504 377.541C341.404 378.237 340.766 378.753 340.022 378.74Z" fill="#73A2E5"/>
<path d="M469.045 275.109L477.475 201.028C478.58 190.352 475.007 179.899 459.602 179.09L432.5 177.439C416.436 176.776 409.183 190.146 407.15 200.438L391.06 281.872L469.045 275.109Z" fill="#8CB3F4"/>
<path d="M464.516 288.971H344.227C341.811 288.971 339.833 286.994 339.833 284.577V279.166C339.833 276.75 341.811 274.772 344.227 274.772H468.911V284.577C468.911 286.994 466.933 288.971 464.516 288.971Z" fill="#73A2E5"/>
<path d="M465.498 288.971H394.472C392.596 288.971 391.06 287.436 391.06 285.559V278.185C391.06 276.308 392.596 274.772 394.472 274.772H468.911V285.558C468.911 287.436 467.375 288.971 465.498 288.971Z" fill="#8CB3F4"/>
<defs>
<filter id="filter0_d_293_3887" x="0" y="0" width="546" height="387.556" filterUnits="userSpaceOnUse" color-interpolation-filters="sRGB">
<feFlood flood-opacity="0" result="BackgroundImageFix"/>
<feColorMatrix in="SourceAlpha" type="matrix" values="0 0 0 0 0 0 0 0 0 0 0 0 0 0 0 0 0 0 127 0" result="hardAlpha"/>
<feOffset dy="4"/>
<feGaussianBlur stdDeviation="2"/>
<feComposite in2="hardAlpha" operator="out"/>
<feColorMatrix type="matrix" values="0 0 0 0 0 0 0 0 0 0 0 0 0 0 0 0 0 0 0.25 0"/>
<feBlend mode="normal" in2="BackgroundImageFix" result="effect1_dropShadow_293_3887"/>
<feBlend mode="normal" in="SourceGraphic" in2="effect1_dropShadow_293_3887" result="shape"/>
</filter>
</defs>
</svg>
