<svg width="485" height="400" viewBox="0 0 485 400" fill="none" xmlns="http://www.w3.org/2000/svg">
<path opacity="0.3" d="M432.677 378.545C460.336 378.545 482.758 373.993 482.758 368.377C482.758 362.761 460.336 358.209 432.677 358.209C405.018 358.209 382.595 362.761 382.595 368.377C382.595 373.993 405.018 378.545 432.677 378.545Z" fill="#3C4F6E"/>
<path opacity="0.3" d="M235.865 399.166C273.986 399.166 304.89 394.614 304.89 388.998C304.89 383.383 273.986 378.83 235.865 378.83C197.744 378.83 166.84 383.383 166.84 388.998C166.84 394.614 197.744 399.166 235.865 399.166Z" fill="#3C4F6E"/>
<path opacity="0.3" d="M83.3725 400C124.405 400 157.668 395.448 157.668 389.832C157.668 384.216 124.405 379.664 83.3725 379.664C42.3402 379.664 9.07703 384.216 9.07703 389.832C9.07703 395.448 42.3402 400 83.3725 400Z" fill="#3C4F6E"/>
<path d="M344.288 0H104.081V229.911H344.288V0Z" fill="#C3E0E2"/>
<path d="M215.764 62.652L197.64 89.9468H230.72C230.72 78.5237 224.766 68.4867 215.764 62.652Z" fill="#F4695E"/>
<path d="M211.264 61.734C206.057 58.3589 199.836 56.3816 193.142 56.3816V89.0301L211.264 61.734Z" fill="#CB4F4D"/>
<path d="M191.142 91.1578V58.5106C172.873 58.5106 158.063 73.1272 158.063 91.1578C158.063 109.188 172.873 123.806 191.142 123.806C192.883 123.806 194.577 123.634 196.243 123.378L191.142 91.1578Z" fill="#1B6375"/>
<path d="M228.539 94.6561H195.459L200.56 126.877C216.401 124.451 228.539 110.97 228.539 94.6561Z" fill="#3CBCB0"/>
<path d="M122.346 225.879L131.256 219.867C131.256 219.867 134.757 213.371 136.892 213.369C143.777 213.366 143.777 214.645 143.777 214.645C143.777 214.645 159.487 213.255 160.069 213.943C160.651 214.63 150.76 218.024 150.76 218.024C150.76 218.024 150.662 221.127 149.014 223.164C147.366 225.201 146.397 227.431 144.554 227.334C142.712 227.237 135.632 227.336 135.632 227.336L127.68 232.959L122.346 225.879Z" fill="#FAC88F"/>
<path d="M350.403 145.97L346.006 143.643C346.006 143.643 343.162 136.726 342.127 136.273C341.092 135.821 337.149 133.558 337.149 133.558C337.149 133.558 336.762 134.075 337.149 135.238C337.537 136.403 339.347 138.471 339.347 138.471L334.337 137.921L325.705 133.104C325.705 133.104 323.96 134.074 323.572 135.044C323.185 136.014 329.682 145.938 329.682 145.938L342.127 151.272L348.527 153.342L350.403 145.97Z" fill="#FAC88F"/>
<path d="M351.063 144.682C349.842 144.206 348.478 144.893 348.133 146.157L344.366 154.842C344.05 156.002 344.721 157.203 345.877 157.54L352.65 159.485L354.546 146.042L351.063 144.682Z" fill="#DDDADD"/>
<path d="M447.871 95.5664L450.034 120.438L430.374 122.798L432.438 101.76L447.871 95.5664Z" fill="#FAC88F"/>
<path d="M447.94 96.3456L432.356 102.599L431.459 111.744C432.1 111.883 432.757 111.979 433.439 111.979H439.566C443.228 111.979 446.53 110.503 448.966 108.139L447.94 96.3456Z" fill="#E29970"/>
<path d="M420.284 119.974L394.17 153.519C392.555 155.097 392.551 155.097 390.367 154.52L355.365 145.263C353.828 144.855 352.225 145.639 351.6 147.101L347.801 155.993C347.07 157.705 347.946 159.678 349.707 160.282L390.73 174.366C392.702 175.209 394.966 175.011 396.762 173.837L422.113 150.782L420.284 119.974Z" fill="#F0AD54"/>
<path d="M421.372 138.274L419.093 137.501C419.093 137.501 395.659 168.662 393.849 168.662C392.369 168.662 359.907 158.911 348.08 155.342L347.801 155.993C347.07 157.705 347.946 159.678 349.707 160.282L390.73 174.366C392.702 175.209 394.966 175.011 396.762 173.837L422.113 150.782L421.372 138.274Z" fill="#CC6C39"/>
<path d="M424.415 358.209C424.415 358.209 428.905 353.26 429.085 348.411C429.264 343.561 436.988 348.411 436.988 348.411L437.509 355.843L435.192 361.899L424.415 358.209Z" fill="#FAC88F"/>
<path d="M404.299 367.987H436.927L438.484 356.424C438.484 356.424 430.103 359.366 427.109 358.409C424.115 357.451 427.091 354.887 422.54 356.153C417.99 357.42 416.395 359.606 412.022 359.606C405.246 359.606 399.438 367.987 404.299 367.987Z" fill="#3C4F6E"/>
<path d="M435.252 354.338C435.252 354.338 433.335 363.738 434.293 364.726C435.252 365.713 448.542 363.199 448.542 363.199C448.542 363.199 445.788 358.29 446.387 355.177C446.986 352.063 447.123 351.464 447.123 351.464L435.252 354.338Z" fill="#FAC88F"/>
<path d="M452.075 373.556H437.347C437.347 373.556 432.677 371.401 432.677 366.551C432.677 361.702 433.575 360.39 433.575 360.39C433.575 360.39 435.624 362.856 441 359.022C443.507 357.233 448.662 359.607 449.92 361.362C451.712 363.866 456.924 369.964 456.565 371.401C456.206 372.836 454.769 373.556 452.075 373.556Z" fill="#3C4F6E"/>
<path d="M419.093 218.356L425.151 347.171C425.304 350.429 428.163 352.889 431.408 352.556L439.58 351.716C442.336 351.432 444.486 349.202 444.667 346.436L453.333 214.602L419.093 218.356Z" fill="#0D0C2C"/>
<path d="M435.012 215.68L431.577 349.313C431.489 352.726 434.103 355.603 437.509 355.843L445.569 356.408C449.07 356.653 452.111 354.028 452.377 350.528L462.671 215.68H435.012Z" fill="#1B294E"/>
<path d="M46.9003 166.659L47.2582 203.159L44.7117 206.168L58.8045 211L62.7773 206.777L70.081 206.824C73.1384 206.824 75.6175 204.345 75.6175 201.288V166.659H46.9003Z" fill="#FAC88F"/>
<path d="M56.1905 195.658L47.2556 203.008L47.2569 203.131L49.1603 207.616L51.9156 208.641L58.8019 211.002L62.7747 206.779C60.5834 205.909 56.1905 195.658 56.1905 195.658Z" fill="#E29970"/>
<path d="M62.4791 207.331C61.7919 206.124 48.3111 205.636 44.8958 205.433C44.3849 205.403 43.9 205.63 43.5914 206.038L41.1434 209.276L61.2577 213.77C61.2577 213.77 62.8317 207.951 62.4791 207.331Z" fill="#DDDADD"/>
<path d="M78.417 189.142L74.3794 177.734L73.3019 194.344L77.6637 191.374C78.4014 190.871 78.7074 189.964 78.417 189.142Z" fill="#FAC88F"/>
<path d="M62.9483 170.977C62.9483 170.977 64.8258 181.112 62.9483 184.866C61.0708 188.62 61.0708 188.62 61.0708 188.62L61.9149 195.846L59.1 196.408C59.1 196.408 58.0679 190.402 57.8799 185.147C57.6919 179.892 53.2186 183.364 53.1564 187.212C53.0941 191.059 56.1904 195.658 56.1904 195.658L56.4718 202.602L47.2568 203.158C47.2568 203.158 41.1744 185.241 42.2065 178.389C43.2386 171.538 45.2095 169.286 45.2095 169.286C45.2095 169.286 43.1142 165.532 45.898 162.811C48.6818 160.089 63.4786 161.591 70.8135 161.403C78.1484 161.215 80.4953 159.62 80.4953 159.62C80.4953 159.62 78.4311 169.755 75.6149 170.506C72.8012 171.258 62.9483 170.977 62.9483 170.977Z" fill="black"/>
<path d="M75.554 253.21L95.4492 251.451L87.6916 287.227L69.9242 287.866L75.554 253.21Z" fill="#DDDADD"/>
<path d="M74.3027 251.451L94.1978 249.691L86.4402 285.467L68.6729 286.106L74.3027 251.451Z" fill="#E4E4E4"/>
<path d="M74.3027 259.316H79.5579C79.5579 259.316 78.9329 263.069 77.1812 263.445C75.4295 263.821 74.3027 264.446 74.3027 264.446V259.316Z" fill="#FAC88F"/>
<path d="M126.53 364.796C126.53 364.796 131.973 376.495 132.443 377.058C132.912 377.621 139.647 379.686 139.647 379.686L137.698 383.44L120.712 383.951L120.23 382.125L113.788 367.37L126.53 364.796Z" fill="#FAC88F"/>
<path d="M152.548 386.252C149.861 384.319 146.113 381.883 142.963 380.813C137.345 378.904 137.345 378.904 137.345 378.904C137.345 378.904 134.059 382.827 129.713 382.296C125.367 381.766 118.666 378.545 118.666 378.545C118.666 378.545 114.662 388.232 119.963 388.974C120.258 389.015 142.098 388.992 151.682 388.98C153.145 388.979 153.737 387.107 152.548 386.252Z" fill="#393647"/>
<path d="M113.79 374.374L132.987 371.304L115.218 304.986L91.6359 300.231L113.79 374.374Z" fill="#3F174C"/>
<path d="M25.7047 215.695C25.7047 215.695 17.4882 222.941 13.3663 231.418C10.4022 237.515 3.82194 258.931 0.130508 278.319C-0.694132 282.65 2.48904 286.63 6.85989 286.049L53.4067 277.958L25.7047 215.695Z" fill="#02546C"/>
<path d="M22.3634 282.213C22.3634 282.213 9.69168 286.631 8.91631 282.213C8.14094 277.794 22.8807 231.504 22.8807 231.504L22.3634 224.004C22.3634 224.004 9.74225 250.337 2.13636 268.763C1.41026 271.953 0.732135 275.162 0.13051 278.319C-0.694131 282.649 2.48904 286.63 6.8586 286.049L19.5251 283.848L22.3634 282.213Z" fill="#024558"/>
<path d="M201.055 166.659L203.181 206.824H224.234C227.293 206.824 229.771 204.345 229.771 201.288V166.659H201.055Z" fill="#FAC88F"/>
<path d="M222.576 205.762H203.181V214.646H222.576V205.762Z" fill="#FAC88F"/>
<path d="M285 273.454C285 273.454 289.176 274.674 290.114 274.955C291.052 275.237 293.92 289.783 292.698 290.721C291.475 291.66 289.176 291.19 289.176 291.19L282.583 282.213L285 273.454Z" fill="#FAC88F"/>
<path d="M282.56 271.062L285.656 271.953L284.717 283.12L279.509 282.745L282.56 271.062Z" fill="#E8E5E6"/>
<path d="M274.067 366.829C274.067 366.829 272.284 376.495 272.753 377.058C273.223 377.621 279.957 379.686 279.957 379.686L278.008 383.44L261.023 383.951L260.541 382.125L262.744 366.828H274.067V366.829Z" fill="#FAC88F"/>
<path d="M292.858 386.252C290.172 384.319 286.423 381.883 283.274 380.813C277.656 378.904 277.656 378.904 277.656 378.904C277.656 378.904 274.37 382.827 270.024 382.296C265.678 381.766 259.848 378.904 259.848 378.904C259.848 378.904 254.973 388.232 260.272 388.974C260.568 389.015 282.408 388.992 291.991 388.98C293.455 388.979 294.046 387.107 292.858 386.252Z" fill="#38153F"/>
<path d="M241.115 366.829C241.115 366.829 239.332 376.495 239.801 377.058C240.271 377.621 247.005 379.686 247.005 379.686L245.056 383.44L228.071 383.951L227.589 382.125L229.792 366.828H241.115V366.829Z" fill="#FAC88F"/>
<path d="M259.907 386.252C257.22 384.319 253.472 381.883 250.322 380.813C244.704 378.904 244.704 378.904 244.704 378.904C244.704 378.904 241.418 382.827 237.072 382.296C232.726 381.766 226.896 378.904 226.896 378.904C226.896 378.904 222.021 388.232 227.32 388.974C227.616 389.015 249.456 388.992 259.039 388.98C260.503 388.979 261.094 387.107 259.907 386.252Z" fill="#38153F"/>
<path d="M184.222 217.108C179.717 218.95 176.781 223.33 176.781 228.199V282.214L188.418 288.72L200.055 210.662C199.6 210.827 190.858 214.395 184.222 217.108Z" fill="#921A3D"/>
<path d="M198.251 211.385C195.264 212.597 189.163 215.087 184.221 217.107C179.716 218.95 176.78 223.33 176.78 228.199V251.451C178.337 239.929 179.898 228.862 180.408 226.907C181.533 222.591 198.802 212.455 198.802 212.455C198.63 212.052 198.436 211.743 198.251 211.385Z" fill="#B43749"/>
<path d="M259.12 263.068C257.15 262.539 255.7 260.867 255.457 258.843L251.086 222.571C250.383 216.739 245.435 212.352 239.562 212.352L227.458 210.385L241.597 282.213H282.129L282.888 269.45L259.12 263.068Z" fill="#921A3D"/>
<path d="M282.129 282.213L282.888 269.45L259.12 263.068C257.15 262.539 255.7 260.867 255.457 258.843L251.086 222.571C250.383 216.739 245.435 212.352 239.562 212.352L227.458 210.385L227.689 211.558C227.764 211.67 227.816 211.781 227.896 211.893C227.896 211.893 245.351 218.275 246.664 221.464C247.978 224.655 249.667 241.922 249.667 241.922L245.163 255.811L249.667 249.69L252.858 263.443L247.791 273.078L255.174 265.759L280.074 273.078V282.213H282.129Z" fill="#B43749"/>
<path d="M282.129 282.213H259.802L243.348 305.987L256.861 311.993L258.48 368.889C258.554 371.488 260.682 373.554 263.28 373.554H270.557C272.794 373.554 274.735 372.009 275.236 369.829L292.424 295.146C293.946 288.528 288.919 282.213 282.129 282.213Z" fill="#571135"/>
<path d="M249.971 282.213H227.644L211.191 305.987L224.704 311.993L226.323 368.889C226.397 371.488 228.525 373.554 231.123 373.554H238.399C240.636 373.554 242.576 372.009 243.078 369.829L260.266 295.146C261.789 288.528 256.762 282.213 249.971 282.213Z" fill="#60143B"/>
<path d="M260.115 278.686H246.398C244.905 278.686 243.692 277.475 243.692 275.98V232.663C243.692 219.741 233.217 209.264 220.294 209.264H207.97C195.046 209.264 184.571 219.74 184.571 232.663V300.496C184.571 306.292 189.27 310.991 195.066 310.991H227.458H243.692H260.115C263.017 310.991 265.37 308.637 265.37 305.736V283.94C265.37 281.039 263.017 278.686 260.115 278.686Z" fill="#921A3D"/>
<path d="M258.176 286.218H250.418C246.712 286.218 245.522 281.656 245.145 278.338C244.293 277.882 243.693 277.015 243.693 275.981V270.587L241.596 263.446C241.596 263.446 240.094 230.475 237.842 224.094C236.113 219.191 226.76 212.311 222.507 209.377C221.777 209.308 221.041 209.266 220.293 209.266H207.968C201.555 209.266 195.749 211.85 191.522 216.029L184.57 235.396V300.497C184.57 306.293 189.269 310.992 195.065 310.992H227.456H243.691H260.114C261.076 310.992 261.966 310.715 262.741 310.263V290.784C262.742 288.263 260.698 286.218 258.176 286.218Z" fill="#7D1A37"/>
<path d="M230.397 320.627C228.773 320.627 227.457 321.943 227.457 323.568V389.383C227.457 391.008 228.773 392.324 230.397 392.324C232.022 392.324 233.338 391.008 233.338 389.383V323.568C233.338 321.943 232.022 320.627 230.397 320.627Z" fill="#4D5F5F"/>
<path d="M182.475 320.627C180.85 320.627 179.534 321.943 179.534 323.568V389.383C179.534 391.008 180.85 392.324 182.475 392.324C184.098 392.324 185.415 391.008 185.415 389.383V323.568C185.414 321.943 184.098 320.627 182.475 320.627Z" fill="#4D5F5F"/>
<path d="M214.131 320.627C212.507 320.627 211.191 321.943 211.191 323.568V389.383C211.191 391.008 212.507 392.324 214.131 392.324C215.755 392.324 217.072 391.008 217.072 389.383V323.568C217.072 321.943 215.755 320.627 214.131 320.627Z" fill="#575B64"/>
<path d="M259.802 320.627C258.177 320.627 256.861 321.943 256.861 323.568V389.383C256.861 391.008 258.177 392.324 259.802 392.324C261.425 392.324 262.742 391.008 262.742 389.383V323.568C262.742 321.943 261.426 320.627 259.802 320.627Z" fill="#575B64"/>
<path d="M262.117 310.742H206.562C202.969 310.742 200.055 313.655 200.055 317.248C200.055 320.841 202.969 323.754 206.562 323.754H262.117C265.71 323.754 268.624 320.841 268.624 317.248C268.624 313.655 265.71 310.742 262.117 310.742Z" fill="#3B868C"/>
<path d="M222.327 229.911H192.296C181.654 229.911 173.026 238.539 173.026 249.18V273.205C173.026 276.937 176.051 279.962 179.783 279.962H234.838C238.57 279.962 241.595 276.937 241.595 273.205V249.18C241.596 238.538 232.97 229.911 222.327 229.911Z" fill="#0A353B"/>
<path d="M235.09 310.742H179.534C175.941 310.742 173.028 313.655 173.028 317.248C173.028 320.841 175.941 323.754 179.534 323.754H235.09C238.682 323.754 241.596 320.841 241.596 317.248C241.596 313.655 238.682 310.742 235.09 310.742Z" fill="#0A353B"/>
<path d="M203.934 263.444C200.547 263.444 197.802 266.189 197.802 269.575V323.53C197.802 326.737 200.11 329.659 203.301 329.979C206.97 330.346 210.064 327.474 210.064 323.88V269.576C210.065 266.189 207.319 263.444 203.934 263.444Z" fill="#575B64"/>
<path d="M107.899 366.829C107.899 366.829 106.116 376.495 106.586 377.058C107.055 377.621 113.79 379.686 113.79 379.686L111.841 383.44L94.8553 383.951L94.3729 382.125L96.5759 366.828H107.899V366.829Z" fill="#FAC88F"/>
<path d="M126.691 386.252C124.004 384.319 120.256 381.883 117.106 380.813C111.489 378.904 111.489 378.904 111.489 378.904C111.489 378.904 108.204 382.827 103.858 382.296C99.5113 381.766 93.6818 378.904 93.6818 378.904C93.6818 378.904 88.8065 388.232 94.1058 388.974C94.4014 389.015 116.241 388.992 125.825 388.98C127.288 388.979 127.878 387.107 126.691 386.252Z" fill="#2E1036"/>
<path d="M115.961 282.213H93.6351L77.1812 305.987L90.6944 311.993L92.3138 368.889C92.3877 371.488 94.5155 373.554 97.1138 373.554H104.389C106.626 373.554 108.567 372.009 109.069 369.829L126.256 295.146C127.78 288.528 122.753 282.213 115.961 282.213Z" fill="#2E1036"/>
<path d="M93.9477 278.686H80.2309C72.6328 278.656 71.1754 274.573 71.1754 273.079L73.3032 230.849C73.3032 217.927 67.0496 209.264 54.1277 209.264H41.8034C28.8815 209.264 18.4049 219.74 18.4049 232.663V300.496C18.4049 306.292 23.1038 310.991 28.8996 310.991H61.2914H77.5262H93.949C96.8508 310.991 99.2041 308.637 99.2041 305.736V283.94C99.2028 281.039 96.8508 278.686 93.9477 278.686Z" fill="#02546C"/>
<path d="M63.9986 285.164L51.9648 292.016L55.2063 284.259C55.2063 284.259 57.9214 218.315 57.0734 214.645C56.5392 212.332 52.5469 210.387 49.6685 209.264H41.802C28.8787 209.264 18.4034 219.74 18.4034 232.663V300.496C18.4034 306.292 23.1023 310.991 28.8982 310.991H61.2899H77.5247H88.931L93.2214 295.636C93.2214 295.636 88.1789 292.016 81.4353 291.111C74.6917 290.206 63.9986 285.164 63.9986 285.164Z" fill="#024558"/>
<path d="M131.01 231.366L124.459 223.61C124.142 223.234 123.605 223.13 123.17 223.361L97.6584 236.892L68.0621 214.614C63.1181 210.893 55.9816 213.084 53.9797 218.94L52.4549 223.396C51.0973 227.366 52.6299 231.751 56.167 234.01L97.0632 260.129L130.867 232.856C131.323 232.488 131.388 231.815 131.01 231.366Z" fill="#02546C"/>
<path d="M129.59 233.887L97.8763 252.452C97.8763 252.452 57.1085 214.637 57.0735 214.646C55.7004 215.689 54.5957 217.139 53.9798 218.94L52.9088 222.07C52.7169 225.601 48.3525 228.918 55.4488 233.459C55.6861 233.646 55.9091 233.844 56.1671 234.009L97.0634 260.127L129.59 233.887Z" fill="#024558"/>
<path d="M64.2307 320.627C62.6061 320.627 61.29 321.943 61.29 323.568V389.383C61.29 391.008 62.6061 392.324 64.2307 392.324C65.8541 392.324 67.1714 391.008 67.1714 389.383V323.568C67.1701 321.943 65.8541 320.627 64.2307 320.627Z" fill="#4D5F5F"/>
<path d="M16.3068 320.627C14.6821 320.627 13.3661 321.943 13.3661 323.568V389.383C13.3661 391.008 14.6821 392.324 16.3068 392.324C17.9301 392.324 19.2475 391.008 19.2475 389.383V323.568C19.2475 321.943 17.9314 320.627 16.3068 320.627Z" fill="#4D5F5F"/>
<path d="M47.9635 320.627C46.3389 320.627 45.0228 321.943 45.0228 323.568V389.383C45.0228 391.008 46.3389 392.324 47.9635 392.324C49.5869 392.324 50.9042 391.008 50.9042 389.383V323.568C50.9042 321.943 49.5882 320.627 47.9635 320.627Z" fill="#575B64"/>
<path d="M93.6351 320.627C92.0105 320.627 90.6945 321.943 90.6945 323.568V389.383C90.6945 391.008 92.0105 392.324 93.6351 392.324C95.2598 392.324 96.5759 391.008 96.5759 389.383V323.568C96.5759 321.943 95.2585 320.627 93.6351 320.627Z" fill="#575B64"/>
<path d="M95.9496 310.742H40.3939C36.801 310.742 33.8876 313.655 33.8876 317.248C33.8876 320.841 36.801 323.754 40.3939 323.754H95.9496C99.5425 323.754 102.456 320.841 102.456 317.248C102.456 313.655 99.5425 310.742 95.9496 310.742Z" fill="#3B868C"/>
<path d="M68.9219 310.742H13.3662C9.77333 310.742 6.85986 313.655 6.85986 317.248C6.85986 320.841 9.77333 323.754 13.3662 323.754H68.9219C72.5147 323.754 75.4282 320.841 75.4282 317.248C75.4295 313.655 72.516 310.742 68.9219 310.742Z" fill="#0A353B"/>
<path d="M56.1593 229.911H26.1299C15.4874 229.911 6.86108 238.539 6.86108 249.18V273.205C6.86108 276.937 9.88606 279.962 13.6177 279.962H68.6728C72.4045 279.962 75.4294 276.937 75.4294 273.205V249.18C75.4294 238.538 66.8018 229.911 56.1593 229.911Z" fill="#0A353B"/>
<path d="M222.327 229.911H192.296C188.995 229.911 185.89 230.744 183.173 232.208C183.463 232.195 183.747 232.164 184.038 232.164H214.069C224.711 232.164 233.338 240.791 233.338 251.432V275.457C233.338 277.196 232.662 278.765 231.583 279.962H234.839C238.571 279.962 241.596 276.937 241.596 273.205V249.18C241.596 238.538 232.97 229.911 222.327 229.911Z" fill="#3B868C"/>
<path d="M56.1594 229.911H26.13C23 229.911 20.0541 230.674 17.4402 231.998C17.9147 231.963 18.3893 231.925 18.8716 231.925H48.9023C59.5448 231.925 68.1711 240.553 68.1711 251.194V275.217C68.1711 277.066 67.4243 278.74 66.2211 279.959H68.6716C72.4033 279.959 75.4282 276.934 75.4282 273.202V249.178C75.4295 238.538 66.8019 229.911 56.1594 229.911Z" fill="#3B868C"/>
<path d="M37.7658 263.444C34.3804 263.444 31.6342 266.189 31.6342 269.575V323.53C31.6342 326.737 33.9421 329.659 37.1331 329.979C40.8024 330.346 43.8961 327.474 43.8961 323.88V269.576C43.8974 266.189 41.1525 263.444 37.7658 263.444Z" fill="#575B64"/>
<path d="M203.181 205.762C204.184 205.762 221.576 205.762 221.576 205.762L223.656 196.003C223.656 196.003 220.45 193.374 220.95 188.62C221.451 183.865 223.656 183.99 223.656 183.99L226.455 186.742C226.455 186.742 229.208 181.612 229.771 176.482C230.334 171.352 229.771 167.348 229.771 167.348C229.771 167.348 230.083 160.215 218.448 160.215C206.811 160.215 198.178 161.591 196.676 164.095C195.175 166.597 196.051 171.477 196.051 171.477C196.051 171.477 193.712 175.857 194.589 180.362C195.464 184.866 203.181 205.762 203.181 205.762Z" fill="black"/>
<path d="M466.716 213.611L461.197 177.243C461.197 177.243 466.085 124.439 465.546 122.643C465.006 120.848 449.92 114.921 449.92 114.921L431.42 115.819L423.097 118.389C420.725 119.122 418.994 121.165 418.663 123.626L415.794 144.915L416.636 214.359C416.667 216.883 418.723 218.912 421.246 218.912H462.158C464.98 218.912 467.14 216.401 466.716 213.611Z" fill="#F0AD54"/>
<path d="M430.829 162.566C430.829 162.566 428.114 148.298 426.174 140.346L399.021 139.441L407.36 183.986L435.096 186.701L430.829 162.566Z" fill="#DDDADD"/>
<path d="M440.412 167.318L437.326 165.475L433.739 159.753L429.902 157.806L430.829 162.566L422.115 160.951C422.115 160.951 416.299 157.538 415.248 158.493C414.197 159.449 415.248 163.148 415.248 163.148C415.248 163.148 421.422 171.39 423.362 172.36C425.302 173.33 434.902 174.008 434.902 174.008L440.205 174.881L440.412 167.318Z" fill="#FAC88F"/>
<path d="M440.378 164.83C439.102 164.529 437.847 165.399 437.683 166.699L436.507 175.987C436.355 177.18 437.189 178.274 438.379 178.447L444.017 179.263V165.687L440.378 164.83Z" fill="#DDDADD"/>
<path d="M454.361 133.104C454.361 133.104 450.699 145.86 450.034 155.451C449.369 165.042 458.758 211.019 456.301 214.602C455.502 215.767 451.319 217.332 446.047 218.912H462.159C464.98 218.912 467.14 216.399 466.718 213.61L461.198 177.243C461.198 177.243 462.738 160.604 463.995 145.688C458.493 137.96 454.361 133.104 454.361 133.104Z" fill="#CC6C39"/>
<path d="M484.672 181.512L469.094 127.161C467.449 121.419 460.495 119.196 455.823 122.917C453.206 125.003 452.08 128.447 452.962 131.675L462.763 167.543L446.553 164.516C443.609 163.966 440.864 166.156 440.747 169.147L440.415 177.557C440.32 179.938 441.95 182.042 444.277 182.548L477.036 189.662C481.845 190.706 486.028 186.242 484.672 181.512Z" fill="#F0AD54"/>
<path d="M452.197 97.7056V70.9631H425.064V101.44C425.064 106.328 429.027 108.311 433.915 108.311C433.915 108.311 438.277 108.81 439.611 108.311C450.935 104.068 452.197 97.7056 452.197 97.7056Z" fill="#FAC88F"/>
<path d="M450.773 100.405C450.62 100.513 453.617 99.2862 455.21 92.6411C456.796 86.0297 459.777 76.1249 456.459 73.2465C455.59 72.4931 454.558 72.0575 454.558 72.0575C454.558 72.0575 454.251 66.1631 450.034 64.143C442.198 60.3893 435.065 62.4535 429.246 63.3923C423.428 64.331 420.096 70.1489 420.096 70.1489C420.096 70.1489 416.389 75.3703 418.891 76.934C421.394 78.4977 421.919 78.7467 421.919 78.7467C421.919 78.7467 423.293 78.6883 424.177 83.3185C425.062 87.9487 425.062 88.6864 425.062 88.6864L426.299 77.9117C426.299 77.9117 430.558 78.8283 438.253 78.547C440.696 78.4575 446.042 76.7641 446.042 76.7641C446.042 76.7641 445.245 80.9872 448.06 84.1781C450.27 86.6845 449.468 92.3429 449.468 92.3429L451.442 92.0628C451.446 92.0641 452.587 97.117 450.773 100.405Z" fill="#26382D"/>
<path d="M451.39 89.2946C451.39 89.2946 453.036 84.6969 455.595 85.869C458.155 87.0424 456.408 93.8457 452.244 96.1926C450.614 97.1093 451.39 89.2946 451.39 89.2946Z" fill="#FAC88F"/>
<path d="M449.5 111.633L431.426 112.669C430.643 112.714 430.015 113.331 429.955 114.114L429.767 116.618L451.156 115.699V113.195C451.156 112.295 450.398 111.581 449.5 111.633Z" fill="#DDDADD"/>
<path d="M484.672 181.512L469.094 127.161C468.614 125.485 467.674 124.121 466.479 123.105L479.824 179.199C480.229 180.906 478.906 182.533 477.153 182.462C474.609 182.358 470.606 182.073 464.963 181.334C456.607 180.24 445.426 176.852 440.498 175.47L440.415 177.557C440.32 179.938 441.95 182.042 444.277 182.548L477.036 189.662C481.845 190.706 486.028 186.242 484.672 181.512Z" fill="#CC6C39"/>
<path d="M430.78 98.6458C430.78 98.6458 436.94 100.816 440.211 98.6406C440.211 98.6406 438.392 102.355 434.1 101.895C430.769 101.537 430.78 98.6458 430.78 98.6458Z" fill="#E29970"/>
<path d="M439.577 99.5871C440.005 99.0542 440.212 98.6406 440.212 98.6406C437.46 100.471 432.675 99.2293 431.223 98.7871H431.222C431.222 98.7871 432.039 99.9489 433.408 100.168C434.775 100.387 438.465 100.588 439.577 99.5871Z" fill="white"/>
<path d="M434.159 86.9115C434.159 86.9115 434.159 91.8256 433.641 92.3093C433.124 92.7942 430.667 93.7965 432.026 94.9271C433.383 96.0578 435.497 96.3443 435.497 96.3443C435.497 96.3443 432.123 94.7326 432.349 94.2801C432.574 93.8276 434.061 93.5372 434.546 92.0824C435.031 90.6289 434.159 86.9115 434.159 86.9115Z" fill="#E29970"/>
<path d="M439.879 90.822C440.433 90.822 440.882 90.1928 440.882 89.4165C440.882 88.6403 440.433 88.011 439.879 88.011C439.326 88.011 438.877 88.6403 438.877 89.4165C438.877 90.1928 439.326 90.822 439.879 90.822Z" fill="#26382D"/>
<path d="M429.762 89.2557C429.762 90.0323 429.313 90.6612 428.759 90.6612C428.206 90.6612 427.757 90.0311 427.757 89.2557C427.757 88.479 428.206 87.8489 428.759 87.8489C429.313 87.8489 429.762 88.479 429.762 89.2557Z" fill="#26382D"/>
<path d="M71.8873 183.341C72.4408 183.341 72.8896 182.712 72.8896 181.936C72.8896 181.16 72.4408 180.53 71.8873 180.53C71.3337 180.53 70.885 181.16 70.885 181.936C70.885 182.712 71.3337 183.341 71.8873 183.341Z" fill="#26382D"/>
<path d="M426.626 86.5237C426.626 86.5237 428.593 85.1545 430.374 85.6783C432.154 86.2008 433.027 87.4611 432.8 86.5885C432.573 85.7159 430.86 84.6164 429.212 84.6812C427.564 84.746 425.074 87.264 426.626 86.5237Z" fill="#26382D"/>
<path d="M438.231 86.5237C438.231 86.5237 440.198 85.1545 441.978 85.6783C443.759 86.2008 444.631 87.4611 444.404 86.5885C444.177 85.7159 442.465 84.6164 440.817 84.6812C439.169 84.746 436.68 87.264 438.231 86.5237Z" fill="#26382D"/>
<path d="M70.6088 196.786H75.6163V199.065C75.6163 199.065 72.6937 199.841 70.6088 196.786Z" fill="#E29970"/>
<path d="M74.4518 179.702C74.4518 179.702 72.2982 176.617 70.3442 177.237C68.3915 177.858 68.1166 180.814 67.515 179.939C66.9134 179.064 69.1941 175.759 71.1118 176.434C73.0282 177.11 74.8901 178.443 74.4518 179.702Z" fill="#26382D"/>
<path d="M263.638 133.104H241.596V140.582H263.638V133.104Z" fill="#1B6375"/>
<path d="M263.638 147.428H241.596V154.905H263.638V147.428Z" fill="#3CBCB0"/>
<path d="M263.638 161.75H241.596V169.228H263.638V161.75Z" fill="#F4695E"/>
<path d="M263.638 176.073H241.596V183.55H263.638V176.073Z" fill="#CB4F4D"/>
</svg>
