<svg width="88" height="88" viewBox="0 0 88 88" fill="none" xmlns="http://www.w3.org/2000/svg">
<circle cx="44.0001" cy="44" r="44" fill="#7000C9"/>
<path d="M45.9022 26.0892L48.4374 33.8916C48.9729 35.5397 50.5087 36.6556 52.2416 36.6556H60.4456C62.383 36.6556 63.1886 39.1348 61.6212 40.2736L54.984 45.0958C53.5821 46.1143 52.9954 47.9198 53.5309 49.5679L56.0661 57.3703C56.6648 59.213 54.5558 60.7452 52.9884 59.6064L46.3513 54.7842C44.9493 53.7657 43.0509 53.7657 41.649 54.7842L35.0118 59.6064C33.4444 60.7452 31.3354 59.213 31.9341 57.3703L34.4693 49.5679C35.0048 47.9198 34.4182 46.1143 33.0162 45.0958L26.3791 40.2736C24.8116 39.1348 25.6172 36.6556 27.5546 36.6556H35.7586C37.4915 36.6556 39.0273 35.5397 39.5628 33.8916L42.098 26.0892C42.6967 24.2466 45.3035 24.2466 45.9022 26.0892Z" fill="white" stroke="white" stroke-width="2"/>
</svg>
