<svg width="685" height="969" viewBox="0 0 685 969" fill="none" xmlns="http://www.w3.org/2000/svg">
<path d="M365.682 224.109C220.424 262.039 29.1289 383.125 63.4753 561.11C89.271 694.844 272.323 615.725 345.097 689.968C405.437 751.739 427.981 891.351 544.37 851.903C625.802 824.441 647.55 723.513 703.249 661.974C767.948 590.586 973.482 554.675 903.121 418.143C819.49 255.886 599.28 197.178 429.919 212.135C410.412 214.008 388.681 217.991 365.682 224.109Z" fill="url(#paint0_linear_172_6282)"/>
<path d="M223.279 483.668C223.473 488.23 224.145 492.805 225.42 497.178C227.459 503.525 230.405 509.57 234.589 514.346C241.686 522.778 252.211 525.442 259.815 533.02C262.981 536.25 266.64 540.686 268.567 545.185C272.119 554.284 264.09 611.796 291.389 599.276C300.907 595.078 309.229 585.966 313.369 575.333C316.541 566.737 316.836 556.871 310.219 551.706C307.022 549.343 302.888 548.149 299.183 546.641C296.305 545.372 287.879 544.066 286.573 540.559C283.227 530.706 296.304 483.852 289.482 461.104C285.657 447.984 276.064 437.641 262.965 436.862C250.47 435.883 238.014 443.801 230.649 456.194C225.442 464.954 223.192 474.443 223.279 483.668Z" fill="#D2E2F1" fill-opacity="0.59"/>
<path d="M213.022 580.299C207.704 576.86 200.264 579.339 196.403 585.833C192.543 592.328 193.724 600.381 199.042 603.819C204.36 607.257 211.801 604.779 215.661 598.284C219.522 591.789 218.34 583.737 213.022 580.299Z" stroke="#E4EEF7" stroke-width="2" stroke-miterlimit="10"/>
<path d="M197.965 522.325C204.528 522.715 208.61 528.909 207.326 536.375C206.042 543.842 199.866 549.332 193.304 548.942" stroke="#E4EEF7" stroke-width="2" stroke-miterlimit="10"/>
<path d="M246.185 559.231L239.182 554.703L230.56 555.345L235.644 546.793L236.113 537.033L243.291 541.673L252.04 540.817L246.654 549.471L246.185 559.231Z" fill="#E4EEF7"/>
<defs>
<linearGradient id="paint0_linear_172_6282" x1="801.516" y1="689.079" x2="153.112" y2="303.675" gradientUnits="userSpaceOnUse">
<stop stop-color="#FDA283"/>
<stop offset="1" stop-color="#FFCD90"/>
</linearGradient>
</defs>
</svg>
