
<svg opacity='0.05' width="1440" height="411" viewBox="0 0 1440 411" fill="none" xmlns="http://www.w3.org/2000/svg">
<path d="M1218.42 1.90055C1218.42 0.851297 1217.71 0.000244141 1216.83 0.000244141C1215.95 0.000244141 1215.23 0.851297 1215.23 1.90055C1215.23 2.95137 1215.95 3.80085 1216.83 3.80085C1217.71 3.80242 1218.42 2.95137 1218.42 1.90055Z" fill="url(#paint0_linear_300_4184)"/>
<path d="M1392.34 381.896L1382.44 315.661H1362.19V260.699H1364.7V255.726H1354.86V234.318H1353.66V255.726H1346.87V238.188H1345.67V255.726H1304.71V260.699H1307.51V372.217H1260.74V322.265H1234.11V199.515H1236.54V193.493H1231.23V185.784H1225.11V182.886V174.072V166.424H1217.72V152.758H1216.83H1215.94V166.424H1211.96L1209.55 174.072H1193.43V185.784H1151.25V193.493H1145.93V199.515H1148.37V279.381H1113.07V357.853L1073.9 340.498V264.333H1080.22V258.737H1069.11V243.548H1021.51V258.737H1005.95V243.548H997.959V258.737H989.966V243.548H981.173V258.737H962.786V264.333H965.583V369.903H947.729V368.795H944.498V338.711H947.729V336.298H944.498V306.213H947.729V303.801H944.498V273.716H947.729V271.305H944.498V241.219H947.729V238.806H944.498V208.723H947.729V206.309H944.498V175.175H950.035V172.754H952.851V166.153H900.269V158.813H901.979V156.693H873.352V158.813H875.062V166.153H862.03V172.754H864.848V175.175H870.385V206.309H867.152V208.723H870.385V238.806H867.152V241.219H870.385V271.305H867.152V273.716H870.385V303.801H867.152V306.213H870.385V336.298H867.152V338.711H870.385V368.795H867.152V371.208H870.385V395.793H852.438V300.794H780.223V369.903H768.499V154.619H759.824V160.161L743.817 164.077V160.477H735.142V166.199L719.136 170.113V165.986H710.462V172.235L694.454 176.15V172.746H685.78V178.272L669.774 182.188V179.254H661.1V390.666H648.896V277.957H603.695V347.266H557.356V288.162H551.647V268.752H555.036V266.802H540.041V260.699H538.441V266.802H533.645V235.474H532.446V266.802H526.2V268.752H529.874V288.162H499.292V333.248H469.52L453.97 390.666H422.771V203.195H381.463V196.479H383.81V194.123H352.523V196.479H354.983V203.195V213.995V342.389H335.505V293.878H342.428V289.486H293.419V260.18H284.07V254.158H263.201V260.18H246.22V364.825H190.512V287.213H143.604V348.515H102.897V387.737H73.5466V338.428H34.9477V380.468H0V410.226H34.9477H46.7585H66.0524H73.5466H102.897H143.604H157.284H164.608H190.512H246.22H263.201H284.07H293.419H329.98H335.505H354.983H387.647H403.738H422.771H499.292H516.964H546.796H557.356H604.486H617.149H661.1H665.437H669.774H685.78H694.454H710.462H717.712H719.136H735.142H743.817H757.577H759.824H764.161H768.499H780.223H839.913H848.439H852.438H870.385H901.979H930.903H944.498H965.583H1017.95H1073.33H1073.9H1113.07H1134.97H1148.37H1156.83H1222.37H1234.11H1248.14H1260.74H1307.51H1342.28H1349.4H1362.19H1440V381.896H1392.34Z" fill="url(#paint1_linear_300_4184)"/>
<defs>
<linearGradient id="paint0_linear_300_4184" x1="1216.83" y1="-0.000385099" x2="1216.83" y2="3.80179" gradientUnits="userSpaceOnUse">
<stop stop-color="#403E40"/>
<stop offset="1" stop-color="#161F21"/>
</linearGradient>
<linearGradient id="paint1_linear_300_4184" x1="720.001" y1="152.758" x2="720.001" y2="410.225" gradientUnits="userSpaceOnUse">
<stop stop-color="#403E40"/>
<stop offset="1" stop-color="#161F21"/>
</linearGradient>
</defs>
</svg>

