<svg opacity="0.05" width="1403" height="392" viewBox="0 0 1403 392" fill="none" xmlns="http://www.w3.org/2000/svg">
<path d="M1359.87 341.87V313.266H1319.66L1304.44 200.679H1302.16V187.153H1294.16V200.679H1292.18V195.62H1286.59V200.679H1275V188.887H1271.8V180.693H1249.01V188.887H1245.82V200.679H1242.62V268.3H1222.37V96.726H1215.7V59.0978H1213.57V96.726H1208.51V44.5294H1206.38V96.726H1201.98V68.4718H1199.85V96.726H1160.55V218.511H1116.85V297.408H1076.03L1043.63 237.675C1049.09 234.529 1054.23 230.745 1058.94 226.36L1065.59 233.451C1064.16 234.698 1063.26 236.529 1063.26 238.573C1063.26 242.329 1066.3 245.375 1070.06 245.375C1073.81 245.375 1076.86 242.329 1076.86 238.573C1076.86 234.816 1073.81 231.771 1070.06 231.771C1068.62 231.771 1067.28 232.219 1066.18 232.984L1059.49 225.842C1060.06 225.306 1060.62 224.761 1061.17 224.208C1068.18 217.193 1073.8 209.156 1077.88 200.432L1085.28 203.849C1085.15 204.382 1085.08 204.939 1085.08 205.515C1085.08 209.271 1088.12 212.317 1091.88 212.317C1095.64 212.317 1098.68 209.271 1098.68 205.515C1098.68 201.758 1095.64 198.712 1091.88 198.712C1088.97 198.712 1086.48 200.545 1085.51 203.122L1078.2 199.746C1082.71 189.878 1085.26 179.151 1085.66 168.044L1093.63 168.303C1093.73 171.975 1096.73 174.921 1100.43 174.921C1104.19 174.921 1107.23 171.876 1107.23 168.119C1107.23 164.363 1104.19 161.317 1100.43 161.317C1096.86 161.317 1093.94 164.059 1093.65 167.548L1085.69 167.288C1085.71 166.508 1085.72 165.726 1085.72 164.943C1085.72 155.028 1084.01 145.377 1080.73 136.325L1087.38 133.874C1088.43 136.286 1090.83 137.974 1093.62 137.974C1097.38 137.974 1100.43 134.928 1100.43 131.172C1100.43 127.415 1097.38 124.37 1093.62 124.37C1089.87 124.37 1086.82 127.415 1086.82 131.172C1086.82 131.864 1086.93 132.534 1087.12 133.165L1080.47 135.614C1076.68 125.446 1070.9 116.05 1063.32 107.911L1068.53 103.031C1069.75 104.197 1071.41 104.914 1073.23 104.914C1076.98 104.914 1080.03 101.87 1080.03 98.1119C1080.03 94.3554 1076.98 91.3099 1073.23 91.3099C1069.47 91.3099 1066.42 94.3554 1066.42 98.1119C1066.42 99.7747 1067.02 101.297 1068.01 102.479L1062.81 107.359C1062.27 106.792 1061.73 106.231 1061.17 105.677C1053.29 97.791 1044.11 91.6717 1034.11 87.514L1036.98 80.539C1037.63 80.745 1038.32 80.8583 1039.04 80.8583C1042.79 80.8583 1045.84 77.8128 1045.84 74.0563C1045.84 70.2997 1042.79 67.2542 1039.04 67.2542C1035.28 67.2542 1032.24 70.2997 1032.24 74.0563C1032.24 76.828 1033.89 79.2097 1036.27 80.27L1033.42 87.2277C1024.47 83.6033 1014.89 81.541 1005.01 81.1839L1005.32 71.651C1005.39 71.6526 1005.46 71.6557 1005.54 71.6557C1009.29 71.6557 1012.34 68.6102 1012.34 64.8537C1012.34 61.0971 1009.29 58.0517 1005.54 58.0517C1001.78 58.0517 998.733 61.0971 998.733 64.8537C998.733 68.2814 1001.27 71.1146 1004.56 71.5849L1004.25 81.1588C1003.47 81.1367 1002.69 81.1257 1001.91 81.1257C992.393 81.1257 983.122 82.7004 974.39 85.727L971.648 77.9465C974.122 76.9287 975.864 74.4967 975.864 71.6542C975.864 67.8976 972.818 64.8521 969.061 64.8521C965.305 64.8521 962.259 67.8976 962.259 71.6542C962.259 75.4107 965.305 78.4562 969.061 78.4562C969.711 78.4562 970.339 78.3634 970.933 78.1935L973.677 85.9771C963.087 89.7541 953.309 95.6768 944.877 103.52L939.906 98.2157C941.018 97.0044 941.698 95.3905 941.698 93.6176C941.698 89.8611 938.652 86.8156 934.896 86.8156C931.139 86.8156 928.094 89.8595 928.094 93.6176C928.094 97.3742 931.139 100.42 934.896 100.42C936.607 100.42 938.169 99.7872 939.365 98.7443L944.326 104.039C943.76 104.576 943.198 105.122 942.645 105.675C935.632 112.688 930.016 120.727 925.934 129.451L919.618 126.534C919.847 125.853 919.972 125.125 919.972 124.368C919.972 120.612 916.926 117.566 913.17 117.566C909.413 117.566 906.368 120.612 906.368 124.368C906.368 128.125 909.413 131.17 913.17 131.17C915.901 131.17 918.254 129.561 919.336 127.238L925.616 130.137C921.109 140.005 918.554 150.733 918.153 161.839L910.045 161.577C909.945 157.907 906.942 154.963 903.248 154.963C899.492 154.963 896.446 158.009 896.446 161.765C896.446 165.522 899.492 168.567 903.248 168.567C906.814 168.567 909.737 165.824 910.025 162.333L918.131 162.596C918.111 163.376 918.098 164.158 918.098 164.941C918.098 174.855 919.81 184.507 923.09 193.557L916.434 196.008C915.389 193.597 912.987 191.909 910.19 191.909C906.434 191.909 903.388 194.954 903.388 198.711C903.388 202.467 906.434 205.513 910.19 205.513C913.947 205.513 916.992 202.467 916.992 198.711C916.992 198.019 916.888 197.349 916.695 196.719L923.347 194.27C927.137 204.439 932.918 213.833 940.491 221.974L935.284 226.853C934.063 225.688 932.41 224.97 930.588 224.97C926.832 224.97 923.786 228.014 923.786 231.772C923.786 235.529 926.832 238.575 930.588 238.575C934.345 238.575 937.39 235.529 937.39 231.772C937.39 230.11 936.793 228.587 935.802 227.406L941.01 222.526C941.547 223.092 942.091 223.654 942.645 224.208C947.955 229.517 953.853 234.027 960.191 237.675L927.784 297.408H901.537V256.912H890.838V180.016H894.999V178.344H803.061V180.016H807.222V218.796H798.21L789.61 262.994V118.045H785.836V65.5506H766.841V45.5645H756.679V28.7781H753.113V0H752.191V28.7781H748.625V45.5661H738.463V65.5521H719.614V118.046H715.695V213.349H686.469V297.408H589.505V134.873H597.298V132.316H589.505V127.736H579.628V120.215H498.843V127.736H488.966V132.316H481.173V134.873H488.966V236.053H475.752V217.067H394.236V240.25H376.464V283.419H347.685V142.324H338.093V132.729H330.498V107.349H328.898V132.729H325.3V100.953H323.702V132.729H319.28V142.324H316.906V283.419H257.351V200.679H260.149V195.083H241.763V179.895H232.97V195.083H224.975V179.895H216.981V195.083H201.431V179.895H153.828V195.083H142.712V200.679H149.031V231.856H131.444V302.204H107.303V283.419H80.4288V324.388H47.932V341.87H0V391.971H1402.69V341.87H1359.87ZM1042.55 235.68L1031.32 214.991C1034.92 212.869 1038.27 210.369 1041.32 207.549L1057.39 224.705C1052.82 228.957 1047.84 232.627 1042.55 235.68ZM1000.53 169.302C1000.81 169.389 1001.09 169.45 1001.39 169.485L999.685 221.827C992.974 221.568 986.559 220.143 980.635 217.747L1000.53 169.302ZM979.936 217.461C978.02 216.655 976.158 215.747 974.355 214.745L999.328 168.715C999.488 168.825 999.656 168.924 999.831 169.014L979.936 217.461ZM1002.14 169.51C1002.46 169.494 1002.77 169.445 1003.07 169.367L1020.48 218.761C1014.66 220.777 1008.41 221.873 1001.91 221.873C1001.42 221.873 1000.93 221.867 1000.44 221.854L1002.14 169.51ZM1003.78 169.115C1004.03 169.002 1004.27 168.868 1004.5 168.715L1029.47 214.745C1026.83 216.212 1024.06 217.473 1021.19 218.511L1003.78 169.115ZM1007.99 171.975L1040.54 206.721C1037.57 209.476 1034.29 211.917 1030.78 213.993L1007.99 171.975ZM1006.56 169.351L1005.62 167.616C1005.72 167.48 1005.81 167.339 1005.89 167.194L1053.44 189.142C1050.4 195.577 1046.2 201.358 1041.1 206.205L1006.56 169.351ZM1006.21 166.51C1006.33 166.179 1006.41 165.83 1006.46 165.468L1058.8 167.17C1058.51 174.735 1056.73 181.926 1053.76 188.461L1006.21 166.51ZM1006.48 164.713C1006.46 164.372 1006.41 164.04 1006.32 163.722L1055.47 145.627C1057.65 151.661 1058.84 158.166 1058.84 164.943C1058.84 165.435 1058.84 165.925 1058.82 166.415L1006.48 164.713ZM1006.06 163.013C1005.91 162.687 1005.72 162.382 1005.5 162.102L1043.69 126.311C1048.65 131.666 1052.59 137.969 1055.21 144.918L1006.06 163.013ZM1004.98 161.55C1004.68 161.282 1004.35 161.054 1003.99 160.869L1023.89 112.422C1031.22 115.502 1037.78 120.074 1043.18 125.757L1004.98 161.55ZM1003.29 160.582C1003.02 160.496 1002.73 160.434 1002.44 160.4L1004.14 108.059C1010.85 108.317 1017.27 109.743 1023.19 112.139L1003.29 160.582ZM1001.68 160.375C1001.36 160.39 1001.05 160.439 1000.75 160.516L983.344 111.121C989.166 109.106 995.412 108.01 1001.91 108.01C1002.4 108.01 1002.9 108.016 1003.38 108.029L1001.68 160.375ZM1000.04 160.77C999.694 160.925 999.369 161.125 999.073 161.359L963.28 123.163C968.825 118.034 975.388 113.989 982.631 111.375L1000.04 160.77ZM998.521 161.874C998.296 162.122 998.099 162.396 997.934 162.689L950.389 140.739C953.423 134.304 957.628 128.523 962.73 123.676L998.521 161.874ZM997.615 163.375C997.493 163.707 997.412 164.054 997.369 164.416L945.026 162.714C945.319 155.149 947.092 147.958 950.066 141.424L997.615 163.375ZM997.346 165.173C997.363 165.514 997.418 165.844 997.506 166.162L948.356 184.257C946.173 178.223 944.981 171.72 944.981 164.941C944.981 164.449 944.987 163.958 945 163.469L997.346 165.173ZM997.766 166.872C997.888 167.136 998.035 167.384 998.204 167.617L997.893 168.191L960.133 203.573C955.177 198.219 951.238 191.915 948.619 184.967L997.766 166.872ZM996.749 170.296L973.043 213.992C968.462 211.286 964.29 207.959 960.647 204.125L996.749 170.296ZM973.814 215.741C975.653 216.762 977.551 217.689 979.505 218.508L970.568 240.269C967.844 239.135 965.182 237.851 962.593 236.423L973.814 215.741ZM980.205 218.796C986.251 221.242 992.799 222.696 999.649 222.96L998.886 246.431C989.279 246.083 979.965 244.077 971.27 240.555L980.205 218.796ZM1000.4 222.988C1000.91 223.001 1001.41 223.009 1001.91 223.009C1008.54 223.009 1014.92 221.889 1020.86 219.831L1028.68 242.013C1020.18 244.955 1011.17 246.487 1001.91 246.487C1001.15 246.487 1000.4 246.476 999.641 246.454L1000.4 222.988ZM1021.57 219.58C1024.5 218.522 1027.32 217.236 1030.01 215.741L1041.23 236.424C1037.43 238.521 1033.47 240.307 1029.39 241.763L1021.57 219.58ZM1059.57 222.601C1059.04 223.138 1058.49 223.665 1057.94 224.185L1041.87 207.033C1047.08 202.087 1051.37 196.186 1054.47 189.618L1075.83 199.48C1071.86 207.964 1066.39 215.782 1059.57 222.601ZM1076.14 198.794L1054.79 188.934C1057.82 182.266 1059.63 174.927 1059.93 167.205L1083.4 167.968C1083.01 178.769 1080.53 189.2 1076.14 198.794ZM1083.46 164.943C1083.46 165.701 1083.45 166.458 1083.42 167.215L1059.96 166.452C1059.97 165.95 1059.98 165.446 1059.98 164.943C1059.98 158.026 1058.76 151.391 1056.53 145.235L1078.6 137.11C1081.79 145.913 1083.46 155.3 1083.46 164.943ZM1061.67 109.462C1069.04 117.378 1074.66 126.512 1078.34 136.399L1056.27 144.527C1053.6 137.436 1049.58 131.002 1044.52 125.537L1061.67 109.462ZM1059.57 107.281C1060.11 107.818 1060.64 108.361 1061.16 108.91L1044 124.982C1038.49 119.182 1031.8 114.516 1024.32 111.375L1033.26 89.6141C1042.97 93.6601 1051.9 99.6126 1059.57 107.281ZM1004.94 83.4523C1014.55 83.8 1023.86 85.8056 1032.55 89.3278L1023.62 111.088C1017.57 108.642 1011.02 107.189 1004.17 106.924L1004.94 83.4523ZM1001.91 83.3988C1002.67 83.3988 1003.43 83.4098 1004.18 83.4303L1003.42 106.896C1002.92 106.883 1002.42 106.877 1001.91 106.877C995.282 106.877 988.908 107.997 982.968 110.053L975.149 87.8711C983.642 84.9294 992.659 83.3988 1001.91 83.3988ZM974.435 88.1212L982.253 110.305C974.863 112.973 968.165 117.099 962.506 122.336L946.431 105.18C954.63 97.555 964.139 91.796 974.435 88.1212ZM944.252 107.281C944.789 106.745 945.333 106.218 945.88 105.697L961.954 122.85C956.747 127.796 952.456 133.697 949.359 140.266L927.998 130.404C931.968 121.921 937.431 114.102 944.252 107.281ZM927.68 131.09L949.039 140.95C946.002 147.619 944.193 154.959 943.895 162.679L920.423 161.916C920.815 151.117 923.299 140.686 927.68 131.09ZM920.368 164.943C920.368 164.185 920.379 163.427 920.4 162.671L943.865 163.434C943.853 163.935 943.846 164.438 943.846 164.943C943.846 171.858 945.064 178.494 947.292 184.651L925.221 192.777C922.032 183.971 920.368 174.584 920.368 164.943ZM942.151 220.423C934.789 212.507 929.168 203.372 925.481 193.485L947.554 185.357C950.227 192.448 954.248 198.882 959.305 204.347L942.151 220.423ZM944.252 222.601C943.716 222.065 943.189 221.522 942.668 220.973L959.821 204.901C963.546 208.824 967.816 212.225 972.503 214.991L961.279 235.68C955.129 232.134 949.406 227.756 944.252 222.601ZM961.512 238.417C964.174 239.886 966.909 241.203 969.708 242.369L966.843 249.344C966.194 249.138 965.502 249.026 964.784 249.026C961.028 249.026 957.982 252.072 957.982 255.828C957.982 259.585 961.028 262.63 964.784 262.63C968.541 262.63 971.586 259.585 971.586 255.828C971.586 253.056 969.928 250.675 967.55 249.614L970.406 242.657C979.349 246.281 988.93 248.343 998.812 248.701L998.579 255.833C994.896 255.916 991.934 258.927 991.934 262.63C991.934 266.387 994.98 269.432 998.736 269.432C1002.49 269.432 1005.54 266.387 1005.54 262.63C1005.54 259.075 1002.81 256.16 999.334 255.856L999.567 248.723C1000.35 248.745 1001.13 248.756 1001.91 248.756C1011.43 248.756 1020.7 247.181 1029.43 244.154L1031.87 251.088C1029.56 252.174 1027.96 254.524 1027.96 257.249C1027.96 261.005 1031 264.051 1034.76 264.051C1038.51 264.051 1041.56 261.005 1041.56 257.249C1041.56 253.492 1038.51 250.447 1034.76 250.447C1034 250.447 1033.26 250.574 1032.58 250.807L1030.14 243.904C1034.34 242.407 1038.4 240.574 1042.31 238.419L1074.32 297.41H929.506L961.512 238.417Z" fill="url(#paint0_linear_300_4191)"/>
<defs>
<linearGradient id="paint0_linear_300_4191" x1="701.348" y1="391.972" x2="701.348" y2="-0.00126162" gradientUnits="userSpaceOnUse">
<stop offset="0.0815" stop-color="#403E40"/>
<stop offset="0.4715" stop-color="#444244"/>
<stop offset="0.8768" stop-color="#504F50"/>
<stop offset="1" stop-color="#555455"/>
</linearGradient>
</defs>
</svg>
