<svg width="1440" height="420" viewBox="0 0 1440 420" fill="none" xmlns="http://www.w3.org/2000/svg">
<g opacity="0.09">
<path d="M1100.42 16.9003C1100.42 15.8511 1099.71 15 1098.83 15C1097.95 15 1097.23 15.8511 1097.23 16.9003C1097.23 17.9511 1097.95 18.8006 1098.83 18.8006C1099.71 18.8022 1100.42 17.9511 1100.42 16.9003Z" fill="url(#paint0_linear_378_3602)"/>
<path d="M1392.34 390.896L1382.44 324.661H1362.19V269.699H1364.7V264.726H1354.86V243.318H1353.66V264.726H1346.87V247.188H1345.67V264.726H1304.71V269.699H1307.51V381.217H1260.74V331.265H1234.11V208.515H1236.54V202.493H1231.23V194.784H1225.11V191.886V183.072V175.424H1217.72V161.758H1216.83H1215.94V175.424H1211.96L1209.55 183.072H1193.43V194.784H1151.25V202.493H1145.93V208.515H1148.37V288.381H1113.07V366.853L1073.9 349.498V273.333H1080.22V267.737H1069.11V252.548H1021.51V267.737H1005.95V252.548H997.959V267.737H989.966V252.548H981.173V267.737H962.786V273.333H965.583V378.903H947.729V377.795H944.498V347.711H947.729V345.298H944.498V315.213H947.729V312.801H944.498V282.716H947.729V280.305H944.498V250.219H947.729V247.806H944.498V217.723H947.729V215.309H944.498V184.175H950.035V181.754H952.851V175.153H900.269V167.813H901.979V165.693H873.352V167.813H875.062V175.153H862.03V181.754H864.848V184.175H870.385V215.309H867.152V217.723H870.385V247.806H867.152V250.219H870.385V280.305H867.152V282.716H870.385V312.801H867.152V315.213H870.385V345.298H867.152V347.711H870.385V377.795H867.152V380.208H870.385V404.793H852.438V309.794H780.223V378.903H768.499V163.619H759.824V169.161L743.817 173.077V169.477H735.142V175.199L719.136 179.113V174.986H710.462V181.235L694.454 185.15V181.746H685.78V187.272L669.774 191.188V188.254H661.1V399.666H648.896V286.957H603.695V356.266H557.356V297.162H551.647V277.752H555.036V275.802H540.041V269.699H538.441V275.802H533.645V244.474H532.446V275.802H526.2V277.752H529.874V297.162H499.292V342.248H469.52L453.97 399.666H422.771V212.195H381.463V205.479H383.81V203.123H352.523V205.479H354.983V212.195V222.995V351.389H335.505V302.878H342.428V298.486H293.419V269.18H284.07V263.158H263.201V269.18H246.22V373.825H190.512V296.213H143.604V357.515H102.897V396.737H73.5466V347.428H34.9477V389.468H0V419.226H34.9477H46.7585H66.0524H73.5466H102.897H143.604H157.284H164.608H190.512H246.22H263.201H284.07H293.419H329.98H335.505H354.983H387.647H403.738H422.771H499.292H516.964H546.796H557.356H604.486H617.149H661.1H665.437H669.774H685.78H694.454H710.462H717.712H719.136H735.142H743.817H757.577H759.824H764.161H768.499H780.223H839.913H848.439H852.438H870.385H901.979H930.903H944.498H965.583H1017.95H1073.33H1073.9H1113.07H1134.97H1148.37H1156.83H1222.37H1234.11H1248.14H1260.74H1307.51H1342.28H1349.4H1362.19H1440V390.896H1392.34Z" fill="url(#paint1_linear_378_3602)"/>
<g opacity="0.3">
<path d="M246.758 374.47H348.905V163.761H351.807V157.738H345.472V150.03H295.215V138.317H276.014L273.146 130.668H268.402V117.003H267.343H266.286V130.668H257.485V138.317V147.132V150.03H250.192V157.738H243.855V163.761H246.758V374.47Z" fill="url(#paint2_linear_378_3602)"/>
<path d="M269.245 115.103C269.245 114.052 268.394 113.201 267.343 113.201C266.294 113.201 265.443 114.052 265.443 115.103C265.443 116.152 266.294 117.003 267.343 117.003C268.394 117.003 269.245 116.152 269.245 115.103Z" fill="url(#paint3_linear_378_3602)"/>
<path d="M1194.78 386.807V103.528L1069.01 77.4227L1082.79 386.807H713.751V211.785H706.958V107.052H689.422V78.9989H683.157V37.8532H648.641V7.61374H645.57V37.8532H638.809V0H635.737V37.8532H613.916V107.052H602.645V211.785H592.983V386.807H494.846V153.826H496.54V151.133H484.462V134.944H486.024V132.352H474.937V123.045H475.933V121.055H471.159V112.263H466.603H465.894V80.8787H465.4H464.772H464.14V112.263H462.01V94.7675H461.516H460.888H460.256V112.263H454.989V121.055H449.48V123.045H451.21V132.352H440.125V134.944H441.685V151.133H429.607V153.826H431.303V386.807H104V418.581H1439.96V386.807H1194.78Z" fill="url(#paint4_linear_378_3602)"/>
</g>
<path d="M1396.87 368.87V340.266H1356.66L1341.44 227.679H1339.16V214.153H1331.16V227.679H1329.18V222.62H1323.59V227.679H1312V215.887H1308.8V207.693H1286.01V215.887H1282.82V227.679H1279.62V295.3H1259.37V123.726H1252.7V86.0978H1250.57V123.726H1245.51V71.5294H1243.38V123.726H1238.98V95.4718H1236.85V123.726H1197.55V245.511H1153.85V324.408H1113.03L1080.63 264.675C1086.09 261.529 1091.23 257.745 1095.94 253.36L1102.59 260.451C1101.16 261.698 1100.26 263.529 1100.26 265.573C1100.26 269.329 1103.3 272.375 1107.06 272.375C1110.81 272.375 1113.86 269.329 1113.86 265.573C1113.86 261.816 1110.81 258.771 1107.06 258.771C1105.62 258.771 1104.28 259.219 1103.18 259.984L1096.49 252.842C1097.06 252.306 1097.62 251.761 1098.17 251.208C1105.18 244.193 1110.8 236.156 1114.88 227.432L1122.28 230.849C1122.15 231.382 1122.08 231.939 1122.08 232.515C1122.08 236.271 1125.12 239.317 1128.88 239.317C1132.64 239.317 1135.68 236.271 1135.68 232.515C1135.68 228.758 1132.64 225.712 1128.88 225.712C1125.97 225.712 1123.48 227.545 1122.51 230.122L1115.2 226.746C1119.71 216.878 1122.26 206.151 1122.66 195.044L1130.63 195.303C1130.73 198.975 1133.73 201.921 1137.43 201.921C1141.19 201.921 1144.23 198.876 1144.23 195.119C1144.23 191.363 1141.19 188.317 1137.43 188.317C1133.86 188.317 1130.94 191.059 1130.65 194.548L1122.69 194.288C1122.71 193.508 1122.72 192.726 1122.72 191.943C1122.72 182.028 1121.01 172.377 1117.73 163.325L1124.38 160.874C1125.43 163.286 1127.83 164.974 1130.62 164.974C1134.38 164.974 1137.43 161.928 1137.43 158.172C1137.43 154.415 1134.38 151.37 1130.62 151.37C1126.87 151.37 1123.82 154.415 1123.82 158.172C1123.82 158.864 1123.93 159.534 1124.12 160.165L1117.47 162.614C1113.68 152.446 1107.9 143.05 1100.32 134.911L1105.53 130.031C1106.75 131.197 1108.41 131.914 1110.23 131.914C1113.98 131.914 1117.03 128.87 1117.03 125.112C1117.03 121.355 1113.98 118.31 1110.23 118.31C1106.47 118.31 1103.42 121.355 1103.42 125.112C1103.42 126.775 1104.02 128.297 1105.01 129.479L1099.81 134.359C1099.27 133.792 1098.73 133.231 1098.17 132.677C1090.29 124.791 1081.11 118.672 1071.11 114.514L1073.98 107.539C1074.63 107.745 1075.32 107.858 1076.04 107.858C1079.79 107.858 1082.84 104.813 1082.84 101.056C1082.84 97.2997 1079.79 94.2542 1076.04 94.2542C1072.28 94.2542 1069.24 97.2997 1069.24 101.056C1069.24 103.828 1070.89 106.21 1073.27 107.27L1070.42 114.228C1061.47 110.603 1051.89 108.541 1042.01 108.184L1042.32 98.651C1042.39 98.6526 1042.46 98.6557 1042.54 98.6557C1046.29 98.6557 1049.34 95.6102 1049.34 91.8537C1049.34 88.0971 1046.29 85.0517 1042.54 85.0517C1038.78 85.0517 1035.73 88.0971 1035.73 91.8537C1035.73 95.2814 1038.27 98.1146 1041.56 98.5849L1041.25 108.159C1040.47 108.137 1039.69 108.126 1038.91 108.126C1029.39 108.126 1020.12 109.7 1011.39 112.727L1008.65 104.947C1011.12 103.929 1012.86 101.497 1012.86 98.6542C1012.86 94.8976 1009.82 91.8521 1006.06 91.8521C1002.3 91.8521 999.259 94.8976 999.259 98.6542C999.259 102.411 1002.3 105.456 1006.06 105.456C1006.71 105.456 1007.34 105.363 1007.93 105.193L1010.68 112.977C1000.09 116.754 990.309 122.677 981.877 130.52L976.906 125.216C978.018 124.004 978.698 122.391 978.698 120.618C978.698 116.861 975.652 113.816 971.896 113.816C968.139 113.816 965.094 116.86 965.094 120.618C965.094 124.374 968.139 127.42 971.896 127.42C973.607 127.42 975.169 126.787 976.365 125.744L981.326 131.039C980.76 131.576 980.198 132.122 979.645 132.675C972.632 139.688 967.016 147.727 962.934 156.451L956.618 153.534C956.847 152.853 956.972 152.125 956.972 151.368C956.972 147.612 953.926 144.566 950.17 144.566C946.413 144.566 943.368 147.612 943.368 151.368C943.368 155.125 946.413 158.17 950.17 158.17C952.901 158.17 955.254 156.561 956.336 154.238L962.616 157.137C958.109 167.005 955.554 177.733 955.153 188.839L947.045 188.577C946.945 184.907 943.942 181.963 940.248 181.963C936.492 181.963 933.446 185.009 933.446 188.765C933.446 192.522 936.492 195.567 940.248 195.567C943.814 195.567 946.737 192.824 947.025 189.333L955.131 189.596C955.111 190.376 955.098 191.158 955.098 191.941C955.098 201.855 956.81 211.507 960.09 220.557L953.434 223.008C952.389 220.597 949.987 218.909 947.19 218.909C943.434 218.909 940.388 221.954 940.388 225.711C940.388 229.467 943.434 232.513 947.19 232.513C950.947 232.513 953.992 229.467 953.992 225.711C953.992 225.019 953.888 224.349 953.695 223.719L960.347 221.27C964.137 231.439 969.918 240.833 977.491 248.974L972.284 253.853C971.063 252.688 969.41 251.97 967.588 251.97C963.832 251.97 960.786 255.014 960.786 258.772C960.786 262.529 963.832 265.575 967.588 265.575C971.345 265.575 974.39 262.529 974.39 258.772C974.39 257.11 973.793 255.587 972.802 254.406L978.01 249.526C978.547 250.092 979.091 250.654 979.645 251.208C984.955 256.517 990.853 261.027 997.191 264.675L964.784 324.408H938.537V283.912H927.838V207.016H931.999V205.344H840.061V207.016H844.222V245.796H835.21L826.61 289.994V145.045H822.836V92.5506H803.841V72.5645H793.679V55.7781H790.113V27H789.191V55.7781H785.625V72.5661H775.463V92.5521H756.614V145.046H752.695V240.349H723.469V324.408H626.505V161.873H634.298V159.316H626.505V154.736H616.628V147.215H535.843V154.736H525.966V159.316H518.173V161.873H525.966V263.053H512.752V244.067H431.236V267.25H413.464V310.419H384.685V169.324H375.093V159.729H367.498V134.349H365.898V159.729H362.3V127.953H360.702V159.729H356.28V169.324H353.906V310.419H294.351V227.679H297.149V222.083H278.763V206.895H269.97V222.083H261.975V206.895H253.981V222.083H238.431V206.895H190.828V222.083H179.712V227.679H186.031V258.856H168.444V329.204H144.303V310.419H117.429V351.388H84.932V368.87H37V418.971H1439.69V368.87H1396.87ZM1079.55 262.68L1068.32 241.991C1071.92 239.869 1075.27 237.369 1078.32 234.549L1094.39 251.705C1089.82 255.957 1084.84 259.627 1079.55 262.68ZM1037.53 196.302C1037.81 196.389 1038.09 196.45 1038.39 196.485L1036.68 248.827C1029.97 248.568 1023.56 247.143 1017.63 244.747L1037.53 196.302ZM1016.94 244.461C1015.02 243.655 1013.16 242.747 1011.35 241.745L1036.33 195.715C1036.49 195.825 1036.66 195.924 1036.83 196.014L1016.94 244.461ZM1039.14 196.51C1039.46 196.494 1039.77 196.445 1040.07 196.367L1057.48 245.761C1051.66 247.777 1045.41 248.873 1038.91 248.873C1038.42 248.873 1037.93 248.867 1037.44 248.854L1039.14 196.51ZM1040.78 196.115C1041.03 196.002 1041.27 195.868 1041.5 195.715L1066.47 241.745C1063.83 243.212 1061.06 244.473 1058.19 245.511L1040.78 196.115ZM1044.99 198.975L1077.54 233.721C1074.57 236.476 1071.29 238.917 1067.78 240.993L1044.99 198.975ZM1043.56 196.351L1042.62 194.616C1042.72 194.48 1042.81 194.339 1042.89 194.194L1090.44 216.142C1087.4 222.577 1083.2 228.358 1078.1 233.205L1043.56 196.351ZM1043.21 193.51C1043.33 193.179 1043.41 192.83 1043.46 192.468L1095.8 194.17C1095.51 201.735 1093.73 208.926 1090.76 215.461L1043.21 193.51ZM1043.48 191.713C1043.46 191.372 1043.41 191.04 1043.32 190.722L1092.47 172.627C1094.65 178.661 1095.84 185.166 1095.84 191.943C1095.84 192.435 1095.84 192.925 1095.82 193.415L1043.48 191.713ZM1043.06 190.013C1042.91 189.687 1042.72 189.382 1042.5 189.102L1080.69 153.311C1085.65 158.666 1089.59 164.969 1092.21 171.918L1043.06 190.013ZM1041.98 188.55C1041.68 188.282 1041.35 188.054 1040.99 187.869L1060.89 139.422C1068.22 142.502 1074.78 147.074 1080.18 152.757L1041.98 188.55ZM1040.29 187.582C1040.02 187.496 1039.73 187.434 1039.44 187.4L1041.14 135.059C1047.85 135.317 1054.27 136.743 1060.19 139.139L1040.29 187.582ZM1038.68 187.375C1038.36 187.39 1038.05 187.439 1037.75 187.516L1020.34 138.121C1026.17 136.106 1032.41 135.01 1038.91 135.01C1039.4 135.01 1039.9 135.016 1040.38 135.029L1038.68 187.375ZM1037.04 187.77C1036.69 187.925 1036.37 188.125 1036.07 188.359L1000.28 150.163C1005.83 145.034 1012.39 140.989 1019.63 138.375L1037.04 187.77ZM1035.52 188.874C1035.3 189.122 1035.1 189.396 1034.93 189.689L987.389 167.739C990.423 161.304 994.628 155.523 999.73 150.676L1035.52 188.874ZM1034.61 190.375C1034.49 190.707 1034.41 191.054 1034.37 191.416L982.026 189.714C982.319 182.149 984.092 174.958 987.066 168.424L1034.61 190.375ZM1034.35 192.173C1034.36 192.514 1034.42 192.844 1034.51 193.162L985.356 211.257C983.173 205.223 981.981 198.72 981.981 191.941C981.981 191.449 981.987 190.958 982 190.469L1034.35 192.173ZM1034.77 193.872C1034.89 194.136 1035.03 194.384 1035.2 194.617L1034.89 195.191L997.133 230.573C992.177 225.219 988.238 218.915 985.619 211.967L1034.77 193.872ZM1033.75 197.296L1010.04 240.992C1005.46 238.286 1001.29 234.959 997.647 231.125L1033.75 197.296ZM1010.81 242.741C1012.65 243.762 1014.55 244.689 1016.51 245.508L1007.57 267.269C1004.84 266.135 1002.18 264.851 999.593 263.423L1010.81 242.741ZM1017.21 245.796C1023.25 248.242 1029.8 249.696 1036.65 249.96L1035.89 273.431C1026.28 273.083 1016.96 271.077 1008.27 267.555L1017.21 245.796ZM1037.4 249.988C1037.91 250.001 1038.41 250.009 1038.91 250.009C1045.54 250.009 1051.92 248.889 1057.86 246.831L1065.68 269.013C1057.18 271.955 1048.17 273.487 1038.91 273.487C1038.15 273.487 1037.4 273.476 1036.64 273.454L1037.4 249.988ZM1058.57 246.58C1061.5 245.522 1064.32 244.236 1067.01 242.741L1078.23 263.424C1074.43 265.521 1070.47 267.307 1066.39 268.763L1058.57 246.58ZM1096.57 249.601C1096.04 250.138 1095.49 250.665 1094.94 251.185L1078.87 234.033C1084.08 229.087 1088.37 223.186 1091.47 216.618L1112.83 226.48C1108.86 234.964 1103.39 242.782 1096.57 249.601ZM1113.14 225.794L1091.79 215.934C1094.82 209.266 1096.63 201.927 1096.93 194.205L1120.4 194.968C1120.01 205.769 1117.53 216.2 1113.14 225.794ZM1120.46 191.943C1120.46 192.701 1120.45 193.458 1120.42 194.215L1096.96 193.452C1096.97 192.95 1096.98 192.446 1096.98 191.943C1096.98 185.026 1095.76 178.391 1093.53 172.235L1115.6 164.11C1118.79 172.913 1120.46 182.3 1120.46 191.943ZM1098.67 136.462C1106.04 144.378 1111.66 153.512 1115.34 163.399L1093.27 171.527C1090.6 164.436 1086.58 158.002 1081.52 152.537L1098.67 136.462ZM1096.57 134.281C1097.11 134.818 1097.64 135.361 1098.16 135.91L1081 151.982C1075.49 146.182 1068.8 141.516 1061.32 138.375L1070.26 116.614C1079.97 120.66 1088.9 126.613 1096.57 134.281ZM1041.94 110.452C1051.55 110.8 1060.86 112.806 1069.55 116.328L1060.62 138.088C1054.57 135.642 1048.02 134.189 1041.17 133.924L1041.94 110.452ZM1038.91 110.399C1039.67 110.399 1040.43 110.41 1041.18 110.43L1040.42 133.896C1039.92 133.883 1039.42 133.877 1038.91 133.877C1032.28 133.877 1025.91 134.997 1019.97 137.053L1012.15 114.871C1020.64 111.929 1029.66 110.399 1038.91 110.399ZM1011.44 115.121L1019.25 137.305C1011.86 139.973 1005.16 144.099 999.506 149.336L983.431 132.18C991.63 124.555 1001.14 118.796 1011.44 115.121ZM981.252 134.281C981.789 133.745 982.333 133.218 982.88 132.697L998.954 149.85C993.747 154.796 989.456 160.697 986.359 167.266L964.998 157.404C968.968 148.921 974.431 141.102 981.252 134.281ZM964.68 158.09L986.039 167.95C983.002 174.619 981.193 181.959 980.895 189.679L957.423 188.916C957.815 178.117 960.299 167.686 964.68 158.09ZM957.368 191.943C957.368 191.185 957.379 190.427 957.4 189.671L980.865 190.434C980.853 190.935 980.846 191.438 980.846 191.943C980.846 198.858 982.064 205.494 984.292 211.651L962.221 219.777C959.032 210.971 957.368 201.584 957.368 191.943ZM979.151 247.423C971.789 239.507 966.168 230.372 962.481 220.485L984.554 212.357C987.227 219.448 991.248 225.882 996.305 231.347L979.151 247.423ZM981.252 249.601C980.716 249.065 980.189 248.522 979.668 247.973L996.821 231.901C1000.55 235.824 1004.82 239.225 1009.5 241.991L998.279 262.68C992.129 259.134 986.406 254.756 981.252 249.601ZM998.512 265.417C1001.17 266.886 1003.91 268.203 1006.71 269.369L1003.84 276.344C1003.19 276.138 1002.5 276.026 1001.78 276.026C998.028 276.026 994.982 279.072 994.982 282.828C994.982 286.585 998.028 289.63 1001.78 289.63C1005.54 289.63 1008.59 286.585 1008.59 282.828C1008.59 280.056 1006.93 277.675 1004.55 276.614L1007.41 269.657C1016.35 273.281 1025.93 275.343 1035.81 275.701L1035.58 282.833C1031.9 282.916 1028.93 285.927 1028.93 289.63C1028.93 293.387 1031.98 296.432 1035.74 296.432C1039.49 296.432 1042.54 293.387 1042.54 289.63C1042.54 286.075 1039.81 283.16 1036.33 282.856L1036.57 275.723C1037.35 275.745 1038.13 275.756 1038.91 275.756C1048.43 275.756 1057.7 274.181 1066.43 271.154L1068.87 278.088C1066.56 279.174 1064.96 281.524 1064.96 284.249C1064.96 288.005 1068 291.051 1071.76 291.051C1075.51 291.051 1078.56 288.005 1078.56 284.249C1078.56 280.492 1075.51 277.447 1071.76 277.447C1071 277.447 1070.26 277.574 1069.58 277.807L1067.14 270.904C1071.34 269.407 1075.4 267.574 1079.31 265.419L1111.32 324.41H966.506L998.512 265.417Z" fill="url(#paint5_linear_378_3602)"/>
</g>
<defs>
<linearGradient id="paint0_linear_378_3602" x1="1098.83" y1="14.9994" x2="1098.83" y2="18.8015" gradientUnits="userSpaceOnUse">
<stop stop-color="#403E40"/>
<stop offset="1" stop-color="#161F21"/>
</linearGradient>
<linearGradient id="paint1_linear_378_3602" x1="720.001" y1="161.758" x2="720.001" y2="419.225" gradientUnits="userSpaceOnUse">
<stop stop-color="#403E40"/>
<stop offset="1" stop-color="#161F21"/>
</linearGradient>
<linearGradient id="paint2_linear_378_3602" x1="297.832" y1="374.47" x2="297.832" y2="117.003" gradientUnits="userSpaceOnUse">
<stop stop-color="#403E40"/>
<stop offset="0.1275" stop-color="#4E4D4E"/>
<stop offset="0.3124" stop-color="#5A5A5A"/>
<stop offset="0.5479" stop-color="#626262"/>
<stop offset="1" stop-color="#646464"/>
</linearGradient>
<linearGradient id="paint3_linear_378_3602" x1="267.344" y1="117.003" x2="267.344" y2="113.201" gradientUnits="userSpaceOnUse">
<stop stop-color="#403E40"/>
<stop offset="0.1275" stop-color="#4E4D4E"/>
<stop offset="0.3124" stop-color="#5A5A5A"/>
<stop offset="0.5479" stop-color="#626262"/>
<stop offset="1" stop-color="#646464"/>
</linearGradient>
<linearGradient id="paint4_linear_378_3602" x1="771.979" y1="418.581" x2="771.979" y2="-0.000623735" gradientUnits="userSpaceOnUse">
<stop stop-color="#403E40"/>
<stop offset="0.1275" stop-color="#4E4D4E"/>
<stop offset="0.3124" stop-color="#5A5A5A"/>
<stop offset="0.5479" stop-color="#626262"/>
<stop offset="1" stop-color="#646464"/>
</linearGradient>
<linearGradient id="paint5_linear_378_3602" x1="738.348" y1="418.972" x2="738.348" y2="26.9987" gradientUnits="userSpaceOnUse">
<stop offset="0.0815" stop-color="#403E40"/>
<stop offset="0.4715" stop-color="#444244"/>
<stop offset="0.8768" stop-color="#504F50"/>
<stop offset="1" stop-color="#555455"/>
</linearGradient>
</defs>
</svg>
