<svg width="38" height="38" viewBox="0 0 38 38" fill="none" xmlns="http://www.w3.org/2000/svg">
<path d="M29.4105 18.473C30.8355 16.9441 31.6667 15.0813 31.6667 13.0625C31.6667 7.81523 25.9964 3.5625 19 3.5625C12.0037 3.5625 6.33337 7.81523 6.33337 13.0625C6.33337 15.0813 7.16462 16.9441 8.58963 18.473C8.95577 18.8664 9.39119 19.3117 9.85629 19.7867C11.1329 21.1004 12.6568 22.6738 13.7948 24.225C14.824 25.6352 15.3485 27.1047 15.6058 28.4926H10.7865C10.5688 27.602 10.2026 26.7336 9.61879 25.932C8.6391 24.5961 7.42192 23.3418 6.20473 22.0875C5.69015 21.5605 5.17556 21.0336 4.68077 20.4992C2.73129 18.3988 1.58337 15.8309 1.58337 13.0625C1.58337 5.84844 9.38129 0 19 0C28.6188 0 36.4167 5.84844 36.4167 13.0625C36.4167 15.8309 35.2688 18.3988 33.3094 20.5066C32.8146 21.041 32.3 21.568 31.7855 22.0949C30.5683 23.3418 29.3511 24.5961 28.3714 25.9395C27.7875 26.741 27.4214 27.6094 27.2037 28.5H22.4042C22.6615 27.1121 23.186 25.6352 24.2151 24.2324C25.3532 22.6813 26.8771 21.1078 28.1537 19.7941C28.6188 19.3191 29.0443 18.8738 29.4105 18.4805V18.473ZM19 9.5C16.3776 9.5 14.25 11.0957 14.25 13.0625C14.25 13.7156 13.5375 14.25 12.6667 14.25C11.7959 14.25 11.0834 13.7156 11.0834 13.0625C11.0834 9.78203 14.6261 7.125 19 7.125C19.8709 7.125 20.5834 7.65937 20.5834 8.3125C20.5834 8.96563 19.8709 9.5 19 9.5ZM19 38C14.6261 38 11.0834 35.343 11.0834 32.0625V30.875H26.9167V32.0625C26.9167 35.343 23.374 38 19 38Z" fill="black"/>
</svg>

