<svg width="38" height="38" viewBox="0 0 38 38" fill="none" xmlns="http://www.w3.org/2000/svg">
<path d="M19 38C24.0391 38 28.8718 35.9982 32.435 32.435C35.9982 28.8718 38 24.0391 38 19C38 13.9609 35.9982 9.12816 32.435 5.56497C28.8718 2.00178 24.0391 0 19 0C13.9609 0 9.12816 2.00178 5.56497 5.56497C2.00178 9.12816 0 13.9609 0 19C0 24.0391 2.00178 28.8718 5.56497 32.435C9.12816 35.9982 13.9609 38 19 38ZM22.7629 24.1285L12.0531 28.2477C10.6133 28.8043 9.1957 27.3867 9.75234 25.9469L13.8715 15.2371C14.1164 14.6063 14.6063 14.1164 15.2371 13.8715L25.9469 9.75234C27.3867 9.1957 28.8043 10.6133 28.2477 12.0531L24.1285 22.7629C23.891 23.3938 23.3938 23.8836 22.7629 24.1285ZM21.375 19C21.375 18.3701 21.1248 17.766 20.6794 17.3206C20.234 16.8752 19.6299 16.625 19 16.625C18.3701 16.625 17.766 16.8752 17.3206 17.3206C16.8752 17.766 16.625 18.3701 16.625 19C16.625 19.6299 16.8752 20.234 17.3206 20.6794C17.766 21.1248 18.3701 21.375 19 21.375C19.6299 21.375 20.234 21.1248 20.6794 20.6794C21.1248 20.234 21.375 19.6299 21.375 19Z" fill="black"/>
</svg>
