<svg width="38" height="38" viewBox="0 0 38 38" fill="none" xmlns="http://www.w3.org/2000/svg">
<path d="M26.3889 0H11.6111C9.86285 0 8.43785 1.61797 8.50382 3.57734C8.51701 3.9707 8.53021 4.36406 8.55 4.75H1.58333C0.705903 4.75 0 5.54414 0 6.53125C0 13.4039 2.21007 18.1836 5.17882 21.427C8.10139 24.6258 11.6639 26.2363 14.2896 27.0527C15.8333 27.5352 16.8889 28.9824 16.8889 30.4371C16.8889 31.9883 15.7674 33.25 14.3885 33.25H12.6667C11.499 33.25 10.5556 34.3113 10.5556 35.625C10.5556 36.9387 11.499 38 12.6667 38H25.3333C26.501 38 27.4444 36.9387 27.4444 35.625C27.4444 34.3113 26.501 33.25 25.3333 33.25H23.6115C22.2326 33.25 21.1111 31.9883 21.1111 30.4371C21.1111 28.9824 22.1601 27.5277 23.7104 27.0527C26.3427 26.2363 29.9052 24.6258 32.8278 21.427C35.7899 18.1836 38 13.4039 38 6.53125C38 5.54414 37.2941 4.75 36.4167 4.75H29.45C29.4698 4.36406 29.483 3.97813 29.4962 3.57734C29.5622 1.61797 28.1372 0 26.3889 0ZM3.22604 8.3125H8.7941C9.39444 14.9996 10.7205 19.4676 12.2181 22.4586C10.5753 21.6422 8.86667 20.4918 7.38889 18.8738C5.27778 16.5656 3.5625 13.2332 3.23264 8.3125H3.22604ZM30.6177 18.8738C29.1399 20.4918 27.4313 21.6422 25.7885 22.4586C27.2861 19.4676 28.6122 14.9996 29.2125 8.3125H34.7806C34.4441 13.2332 32.7288 16.5656 30.6243 18.8738H30.6177Z" fill="#1E1A1A"/>
</svg>
