<svg width="36" height="38" viewBox="0 0 36 38" fill="none" xmlns="http://www.w3.org/2000/svg">
<path d="M35.8051 12.3648C36.0426 13.0105 35.8422 13.7305 35.3301 14.1906L32.1165 17.1148C32.1981 17.7309 32.2426 18.3617 32.2426 19C32.2426 19.6383 32.1981 20.2691 32.1165 20.8852L35.3301 23.8094C35.8422 24.2695 36.0426 24.9895 35.8051 25.6352C35.4786 26.5184 35.0852 27.3645 34.6325 28.1809L34.2836 28.782C33.7938 29.5984 33.2446 30.3703 32.6434 31.0977C32.2055 31.632 31.4782 31.8102 30.825 31.6023L26.6911 30.2887C25.6965 31.0531 24.5981 31.6914 23.4254 32.1738L22.4977 36.4117C22.3493 37.0871 21.8297 37.6215 21.1469 37.7328C20.1227 37.9035 19.0688 37.9926 17.9926 37.9926C16.9164 37.9926 15.8625 37.9035 14.8383 37.7328C14.1555 37.6215 13.636 37.0871 13.4875 36.4117L12.5598 32.1738C11.3872 31.6914 10.2887 31.0531 9.29418 30.2887L5.16762 31.6098C4.5145 31.8176 3.78715 31.632 3.34926 31.1051C2.74809 30.3777 2.19887 29.6059 1.70903 28.7895L1.3602 28.1883C0.907465 27.3719 0.514106 26.5258 0.187543 25.6426C-0.0499565 24.9969 0.150434 24.277 0.662543 23.8168L3.87622 20.8926C3.79457 20.2691 3.75004 19.6383 3.75004 19C3.75004 18.3617 3.79457 17.7309 3.87622 17.1148L0.662543 14.1906C0.150434 13.7305 -0.0499565 13.0105 0.187543 12.3648C0.514106 11.4816 0.907465 10.6355 1.3602 9.81914L1.70903 9.21797C2.19887 8.40156 2.74809 7.62969 3.34926 6.90234C3.78715 6.36797 4.5145 6.18984 5.16762 6.39766L9.30161 7.71133C10.2961 6.94688 11.3946 6.30859 12.5672 5.82617L13.495 1.58828C13.6434 0.912891 14.1629 0.378516 14.8457 0.267187C15.87 0.0890625 16.9239 0 18 0C19.0762 0 20.1301 0.0890625 21.1543 0.259766C21.8372 0.371094 22.3567 0.905469 22.5051 1.58086L23.4329 5.81875C24.6055 6.30117 25.704 6.93945 26.6985 7.70391L30.8325 6.39023C31.4856 6.18242 32.2129 6.36797 32.6508 6.89492C33.252 7.62227 33.8012 8.39414 34.2911 9.21055L34.6399 9.81172C35.0926 10.6281 35.486 11.4742 35.8125 12.3574L35.8051 12.3648ZM18 24.9375C19.5748 24.9375 21.085 24.3119 22.1985 23.1984C23.312 22.0849 23.9375 20.5747 23.9375 19C23.9375 17.4253 23.312 15.9151 22.1985 14.8016C21.085 13.6881 19.5748 13.0625 18 13.0625C16.4253 13.0625 14.9151 13.6881 13.8016 14.8016C12.6881 15.9151 12.0625 17.4253 12.0625 19C12.0625 20.5747 12.6881 22.0849 13.8016 23.1984C14.9151 24.3119 16.4253 24.9375 18 24.9375Z" fill="black"/>
</svg>
