<svg width="38" height="38" viewBox="0 0 38 38" fill="none" xmlns="http://www.w3.org/2000/svg">
<path d="M0.514583 14.9031C-0.349653 13.3933 -0.0989583 11.2728 1.07535 10.1616L9.42743 2.24777C10.9646 0.788839 12.8316 0 14.7448 0H25.3333H35.8889C37.0566 0 38 1.21295 38 2.71429V8.14286C38 9.6442 37.0566 10.8571 35.8889 10.8571H33.4611L30.499 13.9107C29.0014 15.4545 27.141 16.2857 25.2212 16.2857H20.0556H19H14.7778C13.6101 16.2857 12.6667 15.0728 12.6667 13.5714C12.6667 12.0701 13.6101 10.8571 14.7778 10.8571H19H20.0556C20.6361 10.8571 21.1111 10.2464 21.1111 9.5C21.1111 8.75357 20.6361 8.14286 20.0556 8.14286H12.0993L4.20243 15.6241C3.02813 16.7353 1.37882 16.4129 0.514583 14.9031ZM25.2278 10.8571H25.2872C25.2674 10.8571 25.2476 10.8571 25.2278 10.8571ZM37.4854 23.0969C38.3497 24.6067 38.099 26.7272 36.9247 27.8384L28.5726 35.7522C27.0288 37.2112 25.1684 38 23.2486 38H12.6667H2.11111C0.943403 38 0 36.7871 0 35.2857V29.8571C0 28.3558 0.943403 27.1429 2.11111 27.1429H4.53889L7.50104 24.0893C8.99861 22.5455 10.859 21.7143 12.7788 21.7143H17.9444H19H23.2222C24.3899 21.7143 25.3333 22.9272 25.3333 24.4286C25.3333 25.9299 24.3899 27.1429 23.2222 27.1429H19H17.9444C17.3639 27.1429 16.8889 27.7536 16.8889 28.5C16.8889 29.2464 17.3639 29.8571 17.9444 29.8571H25.9007L33.7976 22.3759C34.9719 21.2647 36.6212 21.5871 37.4854 23.0969ZM12.7722 27.1429H12.7128C12.7326 27.1429 12.7524 27.1429 12.7722 27.1429Z" fill="black"/>
</svg>
