<svg width="38" height="38" viewBox="0 0 38 38" fill="none" xmlns="http://www.w3.org/2000/svg">
<path d="M19.2019 6.32344L13.4544 12.1422C12.4984 13.107 12.3144 14.8438 13.0388 16.0832C13.8047 17.4043 15.295 17.6641 16.3222 16.6621L22.2181 10.9324C22.6338 10.5316 23.2275 10.6207 23.5541 11.1402C23.8806 11.6598 23.8034 12.402 23.3878 12.8102L22.1469 14.0125L32.6681 26.125H35.15C36.7234 26.125 38 24.5293 38 22.5625V13.0625C38 11.0957 36.7234 9.5 35.15 9.5H30.6375H30.4H30.3584L30.1269 9.31445L25.8162 5.86328C24.9078 5.13594 23.845 4.75 22.7644 4.75C21.47 4.75 20.2112 5.30664 19.2019 6.32344ZM20.5556 15.5563L17.4859 18.5398C15.6156 20.3656 12.9022 19.8906 11.5009 17.4859C10.1828 15.2223 10.5153 12.0605 12.255 10.3016L17.195 5.30664C16.5063 4.94297 15.7641 4.75742 15.01 4.75742C13.8938 4.75 12.8072 5.16563 11.875 5.9375L7.6 9.5H2.85C1.27656 9.5 0 11.0957 0 13.0625V22.5625C0 24.5293 1.27656 26.125 2.85 26.125H9.27437L14.7013 32.3148C15.865 33.6434 17.6641 33.5395 18.7269 32.0848C19.0534 31.632 19.2731 31.1051 19.3859 30.5559L20.3953 31.7137C21.5531 33.0422 23.3581 32.9457 24.4209 31.4984C24.6881 31.1348 24.8841 30.7117 25.0088 30.2738C26.1606 31.2387 27.7281 31.0383 28.6959 29.7172C29.7587 28.2699 29.6816 26.0137 28.5237 24.6852L20.5556 15.5563Z" fill="black"/>
</svg>
