<svg width="38" height="38" viewBox="0 0 38 38" fill="none" xmlns="http://www.w3.org/2000/svg">
<path d="M31.0531 11.7191C33.673 11.1031 35.625 8.75039 35.625 5.9375C35.625 2.65703 32.968 0 29.6875 0C26.4664 0 23.8465 2.56055 23.75 5.75195L10.1086 11.2145C9.03242 10.1531 7.56289 9.5 5.9375 9.5C2.65703 9.5 0 12.157 0 15.4375C0 18.718 2.65703 21.375 5.9375 21.375C6.84297 21.375 7.70391 21.1746 8.46836 20.8109L19.2746 30.2664C19.0965 30.8305 19 31.4391 19 32.0625C19 35.343 21.657 38 24.9375 38C28.218 38 30.875 35.343 30.875 32.0625C30.875 30.0066 29.8359 28.1957 28.2477 27.1344L31.0531 11.7191ZM11.6004 17.2336C11.7637 16.7215 11.8602 16.1797 11.875 15.623L25.5164 10.168C25.7836 10.4277 26.0656 10.6652 26.3773 10.873L23.5719 26.2809C23.1637 26.3773 22.7703 26.5109 22.3992 26.6891L11.6004 17.2336Z" fill="black"/>
</svg>
