<svg width="632" height="553" viewBox="0 0 632 553" fill="none" xmlns="http://www.w3.org/2000/svg">
<path d="M461.675 205.239C454.732 188.917 435.082 185.028 433.901 184.889C425.021 183.524 415.936 184.906 407.863 188.848C399.185 193.005 391.346 198.727 384.741 205.725C379.208 210.743 373.946 216.052 368.979 221.631C363.216 228.02 359.119 233.021 355.092 238.091C343.566 251.982 337.247 258.928 332.04 266.915C329.54 270.596 313.986 289.349 282.879 326.716C249.759 366.514 237.122 383.947 214.624 406.103C204.945 415.747 194.234 424.295 182.684 431.593C172.317 437.993 161.338 443.344 149.911 447.567C125.747 456.527 114.846 454.999 109.986 453.957C105.396 453.612 101.05 451.756 97.626 448.679C89.7798 439.788 88.6689 417.632 96.0984 398.046C101.575 384.734 108.294 371.967 116.165 359.915C125.693 346.255 136.58 333.595 148.661 322.132C156.316 314.913 164.666 308.469 173.588 302.893C183.14 297.537 193.885 294.671 204.834 294.558C209.625 295.878 221.776 300.531 223.859 309.769C225.71 318.985 223.944 328.56 218.929 336.509C214.833 342.274 209.209 349.08 206.362 353.526C206.362 353.526 199.418 361.166 193.1 367.416C176.157 384.711 173.658 384.155 174.144 386.378C174.63 388.6 170.255 392.073 189.142 384.294C199.408 379.776 208.807 373.501 216.916 365.75C225.179 358.04 243.232 341.371 245.731 316.159C246.882 308.345 246.046 300.367 243.301 292.961C240.636 286.839 236.785 281.305 231.97 276.68C227.155 272.054 221.472 268.429 215.249 266.012C194.419 257.956 173.588 266.499 159.701 272.958C115.957 292.127 93.1127 328.869 80.3366 350.122C53.7429 393.74 51.8682 428.537 51.8682 442.497C51.8682 466.39 57.5619 473.96 59.8532 476.6C77.1426 496.811 121.928 494.588 145.189 477.433C149.008 474.655 153.66 470.488 154.563 471.252C155.466 472.016 144.217 490.838 129.983 504.243C114.997 517.619 97.2366 527.51 77.9758 533.205C52.7608 541.5 26.5205 546.268 0 547.374C0 548.277 55.5482 562.099 119.498 542.651C119.498 542.651 232.122 508.271 328.29 369.014C328.29 369.014 337.108 356.234 338.428 356.998C339.747 357.762 330.026 371.723 326.971 388.461C323.291 408.325 317.875 479.795 327.526 504.382C330.443 511.813 334.47 536.4 360.647 543.971C400.642 555.639 433.137 528.83 448.83 503.409C468.133 472.085 471.118 476.391 469.035 471.946C469.035 471.182 463.689 451.804 446.469 470.626C417.792 501.673 402.725 509.105 383.074 488.268C370.229 474.377 361.827 431.523 369.187 386.03C376.902 348.587 388.539 312.06 403.905 277.056C415.779 251.288 438.623 223.714 452.857 226.562C454.184 227.04 455.595 227.244 457.004 227.16C458.412 227.077 459.789 226.708 461.05 226.076C465.216 222.742 464.522 212.185 461.675 205.239Z" fill="#2B348F"/>
<path d="M299.266 341.927C308.884 332.24 319.063 323.126 329.748 314.631C345.857 301.782 348.287 302.129 356.758 293.794C378.769 272.958 386.754 247.815 388.004 248.371C386.963 253.746 385.261 258.972 382.935 263.929C379.186 273.652 375.992 283.515 372.034 293.169C366.105 310.227 363.489 328.262 364.327 346.302C360.578 339.72 358.215 332.44 357.383 324.91C356.802 318.43 357.342 311.898 358.98 305.602C352.661 308.588 346.134 311.922 339.469 315.603C325.492 323.465 312.061 332.26 299.266 341.927Z" fill="white"/>
<path d="M160.883 219.2C187.639 206.113 213.196 190.704 237.262 173.151C265.036 150.926 314.335 95.9867 314.335 95.9867C314.335 95.9867 362.939 37.4362 362.245 26.5318C361.551 15.6274 369.189 30.074 395.921 33.4773C407.553 35.4357 419.329 36.4115 431.125 36.3944L449.942 35.2136L472.161 34.1024L513.822 28.6154L548.54 23.7536C557.681 22.8294 566.751 21.298 575.689 19.1696C582.43 17.5212 589.081 15.5275 595.617 13.1964C597.145 13.1964 599.506 12.363 602.561 11.599C610.254 9.88175 617.747 7.36781 624.919 4.09784C626.377 3.19493 628.946 1.87528 631.862 0C631.862 0 620.544 15.0717 620.128 15.7663C619.711 16.4608 599.297 38.3391 599.297 38.3391L559.164 73.0666C548.332 82.0957 539.375 89.1107 533.195 93.903C527.015 98.6954 527.015 98.4871 520.627 103.418C504.796 115.642 503.824 117.309 495.908 122.449L480.91 131.339C482.34 140.829 481.724 150.514 479.105 159.746C477.108 166.38 474.086 172.661 470.148 178.36C469.359 174.537 467.534 171.004 464.871 168.15C463.7 166.893 462.369 165.796 460.913 164.886C456.635 163.774 452.301 162.893 447.928 162.247C447.928 162.247 443.97 161.76 440.013 161.483C421.826 162.417 403.878 166.045 386.756 172.248C362.491 183.831 340.938 200.397 323.5 220.867L311.696 236.147L302.809 245.593C302.809 243.648 302.809 240.522 303.295 236.772C303.711 231.632 303.989 229.826 304.197 226.84C304.269 222.756 304.06 218.671 303.572 214.616C303.156 207.67 303.572 207.323 302.67 195.863C302.909 191.622 302.222 187.379 300.656 183.43C299.222 180.257 296.781 177.645 293.713 175.999C288.088 173.29 281.77 175.999 275.104 178.985C269.727 181.634 264.593 184.749 259.759 188.292C254.62 191.557 249.552 193.779 240.317 199.683C233.69 203.914 226.723 207.584 219.486 210.657C214.324 212.686 209.036 214.379 203.655 215.727C189.681 219.201 175.234 220.374 160.883 219.2Z" fill="#3075BB"/>
</svg>
