<svg width="516" height="750" viewBox="0 0 516 750" fill="none" xmlns="http://www.w3.org/2000/svg">
<g opacity="0.7">
<path d="M511.838 102.82C443.769 74.9219 350.157 142.652 310.536 211.652C264.885 291.171 301.974 353.167 249.904 403.46C202.406 449.365 147.218 421.168 115.04 456.533C85.4681 489.035 83.0967 566.668 185.557 757.349" stroke="#E8F1FD" stroke-width="0.914729" stroke-miterlimit="10"/>
<path d="M195.34 756.911C94.492 568.763 95.6387 490.362 124.092 456.492C145.216 431.411 177.42 435.938 210.498 426.076C227.324 421.341 242.849 412.466 255.678 400.249C297.736 360.252 284.319 313.711 301.617 254.663C305.988 239.59 312.074 225.04 319.749 211.314C358.528 141.441 446.238 71.6007 512.855 96.7434" stroke="#E8F1FD" stroke-width="0.914729" stroke-miterlimit="10"/>
<path d="M205.108 756.448C105.884 570.84 105.797 491.712 133.096 456.558C153.166 430.719 184.512 433.882 216.588 423.369C233.193 418.152 248.515 409.184 261.385 397.15C303.262 357.98 292.847 313.225 310.856 254.356C315.407 239.38 321.458 224.878 328.914 211.083C367.064 140.448 448.649 68.3803 513.813 90.7675" stroke="#E8F1FD" stroke-width="0.914729" stroke-miterlimit="10"/>
<path d="M214.848 755.984C117.266 572.957 115.976 493.074 142.116 456.573C161.165 429.966 191.605 431.796 222.711 420.605C239.075 414.927 254.193 405.88 267.1 394.04C308.821 355.653 301.337 312.777 320.102 254.037C324.806 239.135 330.821 224.659 338.072 210.788C375.467 139.331 451.046 65.107 514.758 84.7386" stroke="#E8F1FD" stroke-width="0.914729" stroke-miterlimit="10"/>
<path d="M224.642 755.552C128.65 575.047 126.153 494.466 151.152 456.584C169.172 429.25 198.74 429.691 228.835 417.813C244.969 411.669 259.904 402.522 272.86 390.852C314.426 353.248 309.904 312.225 329.427 253.585C334.3 238.802 340.275 224.389 347.3 210.475C383.947 138.184 453.53 61.8107 515.796 78.6756" stroke="#E8F1FD" stroke-width="0.914729" stroke-miterlimit="10"/>
<path d="M234.388 755.152C140.028 577.146 135.3 495.204 160.178 456.588C177.907 429.006 205.799 427.539 234.958 415.049C250.84 408.435 265.593 399.189 278.6 387.697C320.011 350.875 318.438 311.727 338.683 253.272C343.702 238.581 349.638 224.206 356.454 210.238C392.309 137.088 455.929 58.5837 516.754 72.6994" stroke="#E8F1FD" stroke-width="0.914729" stroke-miterlimit="10"/>
<path d="M244.194 754.651C151.425 579.241 146.583 497.293 169.145 456.572C185.216 427.892 212.937 425.405 241.098 412.281C256.719 405.208 271.294 395.864 284.353 384.549C325.608 348.51 326.993 311.197 347.967 252.916C353.145 238.323 359.049 223.989 365.656 209.969C400.763 135.986 458.345 55.3061 517.75 66.6854" stroke="#E8F1FD" stroke-width="0.914729" stroke-miterlimit="10"/>
<path d="M253.965 754.206C162.789 581.363 156.731 498.683 178.235 456.614C193.221 427.203 219.99 423.19 247.216 409.5C262.561 401.973 276.958 392.523 290.06 381.375C331.164 346.136 335.529 310.671 357.206 252.533C362.263 239.014 367.895 224.718 374.804 209.668C409.136 134.822 460.791 52.0474 518.723 60.6585" stroke="#E8F1FD" stroke-width="0.914729" stroke-miterlimit="10"/>
<path d="M263.738 753.761C174.198 583.436 166.999 500.143 187.233 456.617C201.237 426.521 227.06 420.971 253.337 406.69C268.402 398.707 282.639 389.15 295.81 378.181C336.759 343.724 344.057 310.11 366.498 252.137C371.718 238.638 377.352 224.388 384.01 209.342C417.521 133.739 463.228 48.7827 519.696 54.6318" stroke="#E8F1FD" stroke-width="0.914729" stroke-miterlimit="10"/>
<path d="M273.506 753.299C185.582 585.525 177.245 501.59 196.292 456.64C209.318 425.877 234.186 418.708 259.457 403.955C274.228 395.529 288.307 385.871 301.546 375.083C342.346 341.398 352.606 309.637 375.728 251.794C381.078 238.372 386.719 224.111 393.138 209.074C425.871 132.515 465.6 45.4791 520.626 48.579" stroke="#E8F1FD" stroke-width="0.914729" stroke-miterlimit="10"/>
<path d="M283.279 752.854C196.961 587.625 187.513 503.05 205.298 456.678C217.358 425.255 241.221 416.498 265.584 401.209C280.043 392.333 293.967 382.561 307.273 371.952C347.912 339.06 361.123 309.145 385.041 251.485C390.576 238.097 396.186 223.863 402.37 208.853C434.279 131.416 468.07 42.28 521.658 42.602" stroke="#E8F1FD" stroke-width="0.914729" stroke-miterlimit="10"/>
<path d="M293.051 752.409C208.356 589.72 197.795 504.488 214.338 456.66C225.448 424.571 248.293 414.204 271.72 398.424C285.182 389.349 298.877 380.005 313.027 368.775C353.5 336.659 369.684 308.603 394.327 251.1C400.022 237.761 405.608 223.543 411.577 208.527C442.662 130.212 470.523 38.964 522.662 36.548" stroke="#E8F1FD" stroke-width="0.914729" stroke-miterlimit="10"/>
<path d="M302.824 751.964C219.784 591.834 208.051 506.016 223.368 456.681C233.518 423.92 255.342 411.896 277.849 395.648C291.132 386.062 304.674 376.582 318.768 365.62C359.118 334.306 378.214 308.088 403.599 250.736C409.465 237.453 415.034 223.24 420.744 208.267C450.976 129.073 472.935 35.7146 523.633 30.5495" stroke="#E8F1FD" stroke-width="0.914729" stroke-miterlimit="10"/>
<path d="M312.582 751.541C231.129 593.914 218.39 507.428 232.398 456.703C241.62 423.289 262.38 409.583 283.989 392.88C297.078 382.757 310.47 373.159 324.493 362.516C364.661 331.954 386.739 307.631 412.892 250.386C418.915 237.134 424.452 222.949 429.946 207.998C459.31 127.9 475.36 32.4431 524.617 24.5288" stroke="#E8F1FD" stroke-width="0.914729" stroke-miterlimit="10"/>
<path d="M322.364 751.056C242.515 596.003 228.706 508.931 241.425 456.706C249.715 422.623 269.393 407.238 290.101 390.11C302.985 379.444 316.263 369.718 330.249 359.31C370.249 329.553 395.291 307.054 422.154 250.016C428.498 236.186 434.151 222.055 439.09 207.679C467.628 126.732 477.828 29.1507 525.591 18.5016" stroke="#E8F1FD" stroke-width="0.914729" stroke-miterlimit="10"/>
<path d="M332.136 750.611C253.91 598.098 239.041 510.325 250.424 456.755C257.793 422.008 276.375 404.922 296.236 387.324C308.905 376.109 322.055 366.277 335.99 356.155C375.841 327.17 403.838 306.535 431.412 249.675C437.914 235.953 443.551 221.845 448.289 207.439C475.88 125.526 480.233 25.9128 526.538 12.4443" stroke="#E8F1FD" stroke-width="0.914729" stroke-miterlimit="10"/>
<path d="M341.908 750.167C265.288 600.197 249.452 511.764 259.47 456.726C265.926 421.35 283.375 402.525 302.348 384.554C314.79 372.783 327.845 362.866 341.723 353.012C381.413 324.82 412.368 306.02 440.697 249.289C447.342 235.668 452.953 221.574 457.482 207.135C484.201 124.376 482.669 22.648 527.565 6.44952" stroke="#E8F1FD" stroke-width="0.914729" stroke-miterlimit="10"/>
<path d="M351.688 749.711C276.727 602.318 259.779 513.274 268.501 456.748C274.056 420.674 290.334 400.149 308.471 381.791C320.691 369.407 333.631 359.437 347.464 349.858C386.977 322.436 420.909 305.512 449.98 248.933C456.76 235.409 462.347 221.328 466.673 206.86C492.479 123.201 485.095 19.3768 528.55 0.429142" stroke="#E8F1FD" stroke-width="0.914729" stroke-miterlimit="10"/>
<path d="M361.46 749.266C288.036 604.437 270.167 514.729 277.57 456.778C282.233 420.042 297.319 397.804 314.665 379.054C326.65 366.155 339.507 356.03 353.27 346.742C392.649 320.115 429.522 305.031 459.296 248.595C466.21 235.17 471.773 221.099 475.897 206.604C500.779 122.038 487.63 16.0944 529.578 -5.56561" stroke="#E8F1FD" stroke-width="0.914729" stroke-miterlimit="10"/>
<path d="M371.233 748.821C299.458 606.487 280.561 516.173 286.558 456.774C290.329 419.347 304.195 395.394 320.729 376.241C332.401 362.735 345.232 352.58 358.968 343.561C398.185 317.728 438.009 304.491 468.547 248.219C475.601 234.895 481.141 220.832 485.056 206.309C508.975 120.829 489.958 12.8403 530.519 -11.6121" stroke="#E8F1FD" stroke-width="0.914729" stroke-miterlimit="10"/>
<path d="M381 748.358C310.842 608.576 291.008 517.648 295.557 456.822C298.453 418.728 311.071 393.06 326.825 373.522C338.195 359.415 350.991 349.195 364.643 340.443C403.722 315.387 446.508 304.003 477.77 247.887C484.955 234.657 490.475 220.596 494.194 206.048C517.031 119.658 492.367 9.61959 531.479 -17.6171" stroke="#E8F1FD" stroke-width="0.914729" stroke-miterlimit="10"/>
<path d="M390.765 747.924C279.509 525.198 293.887 422.636 332.98 370.703C375.654 314.009 443.874 323.007 487.079 247.486C537.75 158.887 488.437 11.386 532.475 -23.6597" stroke="#E8F1FD" stroke-width="0.914729" stroke-miterlimit="10"/>
</g>
</svg>
