<svg width="89" height="88" viewBox="0 0 89 88" fill="none" xmlns="http://www.w3.org/2000/svg">
<circle cx="44.3999" cy="44" r="44" fill="#292930"/>
<path d="M54.1777 29C53.8535 29 53.5426 29.1175 53.3134 29.3267C53.0842 29.5359 52.9555 29.8196 52.9555 30.1154V34.5769H35.8443V30.1154C35.8443 29.8196 35.7156 29.5359 35.4864 29.3267C35.2572 29.1175 34.9463 29 34.6221 29C34.298 29 33.9871 29.1175 33.7579 29.3267C33.5287 29.5359 33.3999 29.8196 33.3999 30.1154V56.8846C33.3999 57.1804 33.5287 57.4641 33.7579 57.6733C33.9871 57.8825 34.298 58 34.6221 58C34.9463 58 35.2572 57.8825 35.4864 57.6733C35.7156 57.4641 35.8443 57.1804 35.8443 56.8846V52.4231H52.9555V56.8846C52.9555 57.1804 53.0842 57.4641 53.3134 57.6733C53.5426 57.8825 53.8535 58 54.1777 58C54.5018 58 54.8127 57.8825 55.0419 57.6733C55.2711 57.4641 55.3999 57.1804 55.3999 56.8846V30.1154C55.3999 29.8196 55.2711 29.5359 55.0419 29.3267C54.8127 29.1175 54.5018 29 54.1777 29ZM52.9555 36.8077V42.3846H35.8443V36.8077H52.9555ZM35.8443 50.1923V44.6154H52.9555V50.1923H35.8443Z" fill="#8A8A8A"/>
</svg>
