<svg aria-hidden="true" role="img" viewBox="0 0 48 48" xmlns="http://www.w3.org/2000/svg" class="css-1avxi44" ><path fill="blue" fill-rule="evenodd" clip-rule="evenodd" d="M3 9C3 7.34315 4.34315 6 6 6H42C43.6569 6 45 7.34315 45 9V23.5H43V9C43 8.44772 42.5523 8 42 8H6C5.44772 8 5 8.44772 5 9V36C5 36.5523 5.44771 37 6 37H30.2632V39H6C4.34314 39 3 37.6569 3 36V9ZM17 13H31V15H17V13ZM34 18H14V20H34V18ZM16 23H31V25H16V23ZM20 30H9V32H20V30ZM35.5512 38.0929L35.153 42.3942L38.5943 40.8668C38.8526 40.7522 39.1474 40.7522 39.4057 40.8668L42.847 42.3942L42.4488 38.0929C41.4308 38.6703 40.2539 39 39 39C37.7461 39 36.5692 38.6703 35.5512 38.0929ZM33.685 36.5555L33.1615 42.2098C33.0206 43.7309 34.5681 44.8419 35.9643 44.2222L39 42.8749L42.0357 44.2222C43.4319 44.8419 44.9794 43.7309 44.8385 42.2098L44.315 36.5555C45.3654 35.3312 46 33.7397 46 32C46 28.134 42.866 25 39 25C35.134 25 32 28.134 32 32C32 33.7397 32.6346 35.3312 33.685 36.5555ZM34 32C34 29.2386 36.2386 27 39 27C41.7614 27 44 29.2386 44 32C44 34.7614 41.7614 37 39 37C36.2386 37 34 34.7614 34 32Z"></path></svg>