<svg aria-hidden="true" role="img" viewBox="0 0 48 48" xmlns="http://www.w3.org/2000/svg" class="css-1avxi44"><path fill="blue" d="M17 31H11V33H17V31Z"></path><path fill="blue" d="M21 25H27V27H21V25Z"></path><path fill="blue" d="M17 25H11V27H17V25Z"></path><path fill="blue" d="M21 31H27V33H21V31Z"></path><path fill="blue" d="M37 25H31V27H37V25Z"></path><path fill="blue" fill-rule="evenodd" clip-rule="evenodd" d="M15 9V6H13V9H7C5.89543 9 5 9.89543 5 11V39C5 40.1046 5.89543 41 7 41H41C42.1046 41 43 40.1046 43 39V11C43 9.89543 42.1046 9 41 9H35V6H33V9H25V6H23V9H15ZM33 11H25V14H23V11H15V14H13V11H7L7 17H41V11H35V14H33V11ZM7 39L7 19H41V39H7Z"></path></svg>