<svg aria-hidden="true" role="img" viewBox="0 0 48 48" xmlns="http://www.w3.org/2000/svg" class="css-1avxi44"><path fill="blue" d="M25.2858 17.9998V21.3182L27.2734 21.5797C27.8209 21.6518 28.2064 22.1541 28.1344 22.7016C28.0623 23.2492 27.56 23.6347 27.0125 23.5626L23.6697 23.1228C22.9204 23.0242 22.204 23.4623 21.9503 24.1743C21.6227 25.094 22.1861 26.0904 23.143 26.2838L25.8431 26.8294C27.684 27.2014 28.934 28.9202 28.7208 30.7861C28.5158 32.5797 27.0326 33.9152 25.2858 33.99V37.1426H23.2858V33.7993L21.3104 33.5642C20.762 33.4989 20.3704 33.0014 20.4356 32.453C20.5009 31.9046 20.9984 31.5129 21.5468 31.5782L24.9354 31.9816C25.8254 32.0875 26.6319 31.4495 26.7337 30.559C26.8291 29.7247 26.2701 28.9561 25.447 28.7898L22.7469 28.2442C20.5963 27.8096 19.33 25.57 20.0663 23.5031C20.563 22.109 21.8491 21.1821 23.2858 21.113V17.9998H25.2858Z"></path><path fill="blue" fill-rule="evenodd" clip-rule="evenodd" d="M25.4142 5.99985C24.6332 5.2188 23.3669 5.2188 22.5858 5.99985L16 12.5857V8.99976C16 8.44747 15.5523 7.99976 15 7.99976H10C9.44772 7.99976 9 8.44747 9 8.99976V19.5857L3.58582 24.9998L5.00003 26.4141L9 22.4141V40.9998C9 42.1043 9.89543 42.9998 11 42.9998H37C38.1046 42.9998 39 42.1043 39 40.9998V22.414L43 26.4141L44.4142 24.9998L38.7138 19.2994C38.7094 19.2949 38.7049 19.2904 38.7004 19.286L25.4142 5.99985ZM37 20.414L24 7.41406L11 20.4141V40.9998H37V20.414ZM11 17.5857L14.0034 14.5823C14.0011 14.5551 14 14.5276 14 14.4998V9.99976H11V17.5857Z"></path></svg>