<svg aria-hidden="true" role="img" viewBox="0 0 48 48" xmlns="http://www.w3.org/2000/svg" class="css-1avxi44"><path fill="blue" d="M26.9994 9.36008V7H24.9994V9.2085C23.9923 9.36116 23.1196 10.0537 22.764 11.0521C22.1872 12.671 23.179 14.4252 24.8636 14.7655L26.7536 15.1475C27.1771 15.233 27.4647 15.6285 27.4157 16.0578C27.3633 16.516 26.9483 16.8443 26.4904 16.7898L24.1184 16.5074C23.57 16.4421 23.0725 16.8338 23.0072 17.3822C22.9419 17.9306 23.3336 18.4281 23.882 18.4934L24.9994 18.6264V21H26.9994V18.7664C28.2398 18.5855 29.2536 17.5901 29.4027 16.2849C29.5697 14.824 28.591 13.4783 27.1497 13.1871L25.2597 12.8052C24.7689 12.706 24.4799 12.1949 24.648 11.7232C24.7781 11.3581 25.1455 11.1334 25.5298 11.184L27.8697 11.4918C28.4173 11.5639 28.9196 11.1784 28.9916 10.6308C29.0637 10.0833 28.6782 9.58097 28.1306 9.50892L26.9994 9.36008Z"></path><path fill="blue" fill-rule="evenodd" clip-rule="evenodd" d="M25.9994 2C19.372 2 13.9994 7.37258 13.9994 14C13.9994 20.6274 19.372 26 25.9994 26C32.6268 26 37.9994 20.6274 37.9994 14C37.9994 7.37258 32.6268 2 25.9994 2ZM15.9994 14C15.9994 8.47715 20.4765 4 25.9994 4C31.5222 4 35.9994 8.47715 35.9994 14C35.9994 19.5228 31.5222 24 25.9994 24C20.4765 24 15.9994 19.5228 15.9994 14Z"></path><path fill="blue" fill-rule="evenodd" clip-rule="evenodd" d="M4.99939 30C4.99939 28.8954 5.89482 28 6.99939 28H11.9994C13.104 28 13.9994 28.8954 13.9994 30V30.0719L15.996 29.3459C17.5609 28.7768 19.2345 28.5705 20.8908 28.7424L33.0544 30.0049C33.564 30.0578 33.9512 30.4872 33.9512 30.9995V32.049C33.9512 34.0173 32.5192 35.693 30.575 36L26.9051 36.5795L29.9385 37.143C30.1739 37.1867 30.4153 37.1878 30.6511 37.1462L41.8259 35.176C42.117 35.1247 42.4159 35.2048 42.6423 35.3948C42.8688 35.5848 42.9995 35.8652 42.9995 36.1608V40.1027C42.9995 41.8816 41.8249 43.4467 40.1169 43.9435L33.8127 45.7775C28.7395 47.2533 23.3129 46.9375 18.4452 44.8832L13.9994 43.0069C13.9956 44.1083 13.1017 45 11.9994 45H6.99939C5.89482 45 4.99939 44.1046 4.99939 43V30ZM13.9994 40.8361V32.2L16.6795 31.2255C17.9598 30.7599 19.3292 30.591 20.6843 30.7317L31.9512 31.9011V32.049C31.9512 33.0331 31.2352 33.871 30.2631 34.0245L26.5932 34.604C24.3731 34.9545 24.33 38.1353 26.5398 38.5458L29.5733 39.1093C30.0441 39.1968 30.5268 39.199 30.9983 39.1159L40.9995 37.3526V40.1027C40.9995 40.9922 40.4122 41.7747 39.5582 42.0231L33.254 43.8571C28.622 45.2046 23.6673 44.9162 19.2228 43.0406L13.9994 40.8361ZM11.9994 30H6.99939V43H11.9994V30Z"></path></svg>