<svg aria-hidden="true" role="img" viewBox="0 0 48 48" xmlns="http://www.w3.org/2000/svg" class="css-1avxi44"><path fill="blue" fill-rule="evenodd" clip-rule="evenodd" d="M20 1C20 0.447715 20.4477 0 21 0H27.5C28.0523 0 28.5 0.447715 28.5 1V6C28.5 6.55228 28.0523 7 27.5 7H22V8.56545L30.6823 16.6689C30.885 16.8581 31 17.1228 31 17.4V21.5H29V17.8346L21 10.3679L13 17.8346V23V38H21.5V40H12H3C2.44772 40 2 39.5523 2 39V27.0635C2 26.6704 2.23026 26.3138 2.5885 26.1521L11 22.3543V17.4C11 17.1228 11.115 16.8581 11.3177 16.6689L20 8.56545V6V4V1ZM26.5 5H22V4V2H26.5V5ZM11 38V24.5487L4 27.7092V38H11ZM20.84 23.68C21.8562 23.68 22.68 22.8562 22.68 21.84C22.68 20.8238 21.8562 20 20.84 20C19.8238 20 19 20.8238 19 21.84C19 22.8562 19.8238 23.68 20.84 23.68ZM20.84 25.68C22.9608 25.68 24.68 23.9608 24.68 21.84C24.68 19.7192 22.9608 18 20.84 18C18.7192 18 17 19.7192 17 21.84C17 23.9608 18.7192 25.68 20.84 25.68ZM26 36C26 30.4772 30.4772 26 36 26C41.5229 26 46 30.4772 46 36C46 41.5229 41.5229 46 36 46C30.4772 46 26 41.5229 26 36ZM36 24C29.3726 24 24 29.3726 24 36C24 42.6274 29.3726 48 36 48C42.6274 48 48 42.6274 48 36C48 29.3726 42.6274 24 36 24ZM37 31.3598V29H35V31.208C33.9926 31.3604 33.1195 32.053 32.7638 33.0517C32.187 34.6706 33.1789 36.4248 34.8634 36.7652L36.7534 37.1471C37.177 37.2327 37.4646 37.6281 37.4155 38.0574C37.3631 38.5156 36.9481 38.8439 36.4902 38.7894L34.1182 38.507C33.5698 38.4417 33.0723 38.8334 33.007 39.3818C32.9417 39.9302 33.3334 40.4277 33.8818 40.493L35 40.6261V43H37V40.7659C38.2401 40.5847 39.2534 39.5894 39.4026 38.2845C39.5695 36.8236 38.5908 35.4779 37.1495 35.1867L35.2595 34.8048C34.7687 34.7056 34.4798 34.1945 34.6478 33.7229C34.7779 33.3577 35.1453 33.133 35.5296 33.1836L37.8695 33.4915C38.4171 33.5635 38.9194 33.178 38.9915 32.6305C39.0635 32.0829 38.678 31.5806 38.1305 31.5085L37 31.3598Z"></path></svg>