
<svg width="914" height="1048" viewBox="0 0 914 1048" fill="none" xmlns="http://www.w3.org/2000/svg">
<path d="M48.948 496.758C3.04034 663.13 10.6272 922.155 200.316 987.736C342.838 1037.02 370.73 809.785 482.926 778.762C576.156 753.159 722.461 808.994 750.582 670.603C770.388 573.855 686.149 495.491 658.799 405.321C627.12 300.635 709.065 75.1893 538.651 68.8445C336.121 61.3179 155.362 248.32 73.8411 425.875C64.5945 446.411 56.1089 470.351 48.948 496.758Z" fill="url(#paint0_linear_91_10871)"/>
<path d="M493.601 216.523C496.912 187.418 453.456 162.14 439.727 192.709C420.141 233.733 490.841 265.032 493.601 216.523Z" fill="#E4EEF7"/>
<path d="M565.934 279.674C565.245 213.316 459.414 224.398 497.544 288.442C516.236 322.253 565.073 317.314 565.934 279.674Z" fill="#E4EEF7"/>
<path d="M215.004 783.673C219.475 786.038 224.228 787.934 229.131 789.114C236.352 790.638 243.797 791.088 250.729 789.589C262.804 787.235 271.302 778.222 282.847 774.881C287.725 773.533 294.036 772.368 299.427 772.968C310.135 774.525 360.577 814.798 364.046 780.525C365.415 768.668 361.41 755.249 353.586 745.152C347.161 737.163 337.896 731.336 329.216 735.044C325.149 736.911 321.67 740.368 318.133 743.221C315.292 745.382 309.278 753.06 305.187 752.398C293.875 750.211 256.477 710.877 230.872 704.928C216.165 701.387 200.851 705.163 192.7 717.802C184.697 729.726 185.223 746.602 192.905 760.906C198.336 771.018 206.135 778.586 215.004 783.673Z" fill="#D2E2F1" fill-opacity="0.59"/>
<path d="M567.545 187.297C561.255 190.675 559.418 199.486 563.441 206.977C567.464 214.468 575.824 217.803 582.114 214.425C588.404 211.047 590.241 202.236 586.218 194.745C582.194 187.253 573.834 183.919 567.545 187.297Z" fill="#E4EEF7"/>
<path d="M515.91 188.019C511.907 190.169 510.738 195.776 513.298 200.543C515.858 205.31 521.178 207.432 525.181 205.282C529.183 203.133 530.353 197.526 527.792 192.758C525.232 187.991 519.912 185.869 515.91 188.019Z" stroke="#E4EEF7" stroke-width="1.2727" stroke-miterlimit="10"/>
<path d="M538.461 184.805L528.072 164.964L517.683 145.123L537.401 147.561L556.911 150.111L547.789 167.402L538.461 184.805Z" stroke="#E4EEF7" stroke-width="2.0193" stroke-miterlimit="10"/>
<path d="M301.208 847.318C294.919 850.696 293.082 859.507 297.105 866.999C301.128 874.49 309.488 877.824 315.778 874.446C322.068 871.068 323.905 862.257 319.882 854.766C315.858 847.275 307.498 843.94 301.208 847.318Z" stroke="#E4EEF7" stroke-width="2" stroke-miterlimit="10"/>
<path d="M237.097 830.274C241.173 823.954 249.388 823.355 255.789 828.815C262.189 834.274 263.943 843.501 259.867 849.82" stroke="#E4EEF7" stroke-width="2" stroke-miterlimit="10"/>
<path d="M300.001 802.846L291.718 807.294L287.46 816.254L282.162 806.389L273.103 800.451L281.593 795.892L285.719 786.685L290.942 796.908L300.001 802.846Z" fill="#E4EEF7"/>
<defs>
<linearGradient id="paint0_linear_91_10871" x1="740.329" y1="322.381" x2="-10.356" y2="725.544" gradientUnits="userSpaceOnUse">
<stop stop-color="#5CB3F2"/>
<stop offset="1" stop-color="#73D6EC"/>
</linearGradient>
</defs>
</svg>
