<svg width="313" height="213" viewBox="0 0 313 213" fill="none" xmlns="http://www.w3.org/2000/svg">
<rect x="17.8269" width="292.359" height="142.519" rx="8.78541" fill="#CDD5EA"/>
<g filter="url(#filter0_d_143_25100)">
<rect x="31.4932" y="26.8447" width="265.027" height="152.281" rx="8.78541" fill="white"/>
</g>
<rect x="224.772" y="12.6904" width="61.0098" height="4.39271" rx="2.19635" fill="white"/>
<rect x="62.2419" y="67.3545" width="93.7111" height="5.36886" rx="2.68443" fill="#E7E7E7"/>
<rect x="230.629" y="69.3066" width="38.5582" height="5.85694" rx="2.92847" fill="#353535"/>
<rect x="62.2419" y="58.0811" width="93.7111" height="5.85694" rx="2.92847" fill="#E7E7E7"/>
<rect x="230.629" y="58.0811" width="38.5582" height="5.85694" rx="2.92847" fill="#E7E7E7"/>
<rect x="62.2419" y="76.1406" width="93.7111" height="5.85694" rx="2.92847" fill="#E7E7E7"/>
<rect x="230.629" y="81.0215" width="38.5582" height="5.85694" rx="2.92847" fill="#E7E7E7"/>
<rect x="62.2419" y="85.4141" width="53.2006" height="5.36886" rx="2.68443" fill="#292929"/>
<rect x="230.629" y="92.7354" width="21.9635" height="5.85694" rx="2.92847" fill="#E7E7E7"/>
<circle cx="36.8619" cy="15.13" r="4.39271" fill="#FE5151"/>
<circle cx="49.0639" cy="15.13" r="4.39271" fill="#FFAC2F"/>
<circle cx="61.266" cy="15.13" r="4.39271" fill="#3FD28C"/>
<line x1="188.195" y1="120.489" x2="274.754" y2="120.489" stroke="#F1F1F1" stroke-width="0.488079"/>
<line x1="186.958" y1="137.21" x2="273.516" y2="137.21" stroke="#F1F1F1" stroke-width="0.488079"/>
<line x1="186.958" y1="112.128" x2="273.516" y2="112.128" stroke="#F1F1F1" stroke-width="0.488079"/>
<line x1="186.958" y1="128.85" x2="273.516" y2="128.85" stroke="#F1F1F1" stroke-width="0.488079"/>
<line x1="186.958" y1="103.768" x2="273.516" y2="103.768" stroke="#F1F1F1" stroke-width="0.488079"/>
<line x1="193.385" y1="95.6516" x2="193.385" y2="142.157" stroke="#F1F1F1" stroke-width="0.488079"/>
<line x1="223.062" y1="95.6516" x2="223.062" y2="142.157" stroke="#F1F1F1" stroke-width="0.488079"/>
<line x1="252.738" y1="95.6516" x2="252.738" y2="142.157" stroke="#F1F1F1" stroke-width="0.488079"/>
<line x1="203.278" y1="95.1289" x2="203.278" y2="141.634" stroke="#F1F1F1" stroke-width="0.488079"/>
<line x1="232.955" y1="95.1289" x2="232.955" y2="141.634" stroke="#F1F1F1" stroke-width="0.488079"/>
<line x1="262.633" y1="95.1289" x2="262.633" y2="141.634" stroke="#F1F1F1" stroke-width="0.488079"/>
<line x1="213.169" y1="95.1289" x2="213.169" y2="141.634" stroke="#F1F1F1" stroke-width="0.488079"/>
<line x1="242.847" y1="95.1289" x2="242.847" y2="141.634" stroke="#F1F1F1" stroke-width="0.488079"/>
<line x1="272.524" y1="95.1289" x2="272.524" y2="141.634" stroke="#F1F1F1" stroke-width="0.488079"/>
<path d="M232.649 125.094C208.287 116.351 192.178 133.352 186.438 144.114C186.101 144.747 186.573 145.487 187.29 145.487H273.961C274.494 145.487 274.928 145.078 274.931 144.544C274.958 138.103 274.75 100.839 266.278 100.839C257.005 100.839 258.075 134.219 232.649 125.094Z" fill="url(#paint0_linear_143_25100)"/>
<path d="M179.354 91V152.526H282.704" stroke="#2562FF"/>
<circle cx="215.274" cy="120.606" r="10.0056" fill="white"/>
<ellipse cx="215.274" cy="120.851" rx="6.58906" ry="6.8331" fill="#5C5CE9"/>
<rect x="148.825" y="119" width="7.07524" height="31.9176" rx="3.53762" fill="#EEEEEE"/>
<rect x="148.825" y="133.127" width="7.07524" height="17.7901" rx="3.53762" fill="#5C5CE9"/>
<rect x="134.337" y="119" width="7.07524" height="31.9176" rx="3.53762" fill="#EEEEEE"/>
<rect x="134.337" y="140.453" width="7.07524" height="10.4648" rx="3.53762" fill="#5C5CE9"/>
<rect x="119.849" y="119" width="7.07524" height="31.9176" rx="3.53762" fill="#EEEEEE"/>
<rect x="119.849" y="126.326" width="7.07524" height="24.5922" rx="3.53762" fill="#5C5CE9"/>
<rect x="105.361" y="119" width="7.07524" height="31.9176" rx="3.53762" fill="#EEEEEE"/>
<rect x="105.361" y="129.465" width="7.07524" height="21.4528" rx="3.53762" fill="#5C5CE9"/>
<rect x="90.8743" y="119" width="7.07524" height="31.9176" rx="3.53762" fill="#EEEEEE"/>
<rect x="90.8743" y="133.127" width="7.07524" height="17.7901" rx="3.53762" fill="#5C5CE9"/>
<rect x="76.3879" y="119" width="7.07524" height="31.9176" rx="3.53762" fill="#EEEEEE"/>
<rect x="76.3879" y="124.756" width="7.07524" height="26.1619" rx="3.53762" fill="#5C5CE9"/>
<rect x="61.8999" y="119" width="7.07524" height="31.9176" rx="3.53762" fill="#EEEEEE"/>
<rect x="61.8999" y="137.836" width="7.07524" height="13.081" rx="3.53762" fill="#5C5CE9"/>
<defs>
<filter id="filter0_d_143_25100" x="0.256139" y="13.6666" width="311.882" height="199.136" filterUnits="userSpaceOnUse" color-interpolation-filters="sRGB">
<feFlood flood-opacity="0" result="BackgroundImageFix"/>
<feColorMatrix in="SourceAlpha" type="matrix" values="0 0 0 0 0 0 0 0 0 0 0 0 0 0 0 0 0 0 127 0" result="hardAlpha"/>
<feOffset dx="-7.80926" dy="10.2496"/>
<feGaussianBlur stdDeviation="11.7139"/>
<feComposite in2="hardAlpha" operator="out"/>
<feColorMatrix type="matrix" values="0 0 0 0 0.941667 0 0 0 0 0.900905 0 0 0 0 0.898507 0 0 0 0.25 0"/>
<feBlend mode="multiply" in2="BackgroundImageFix" result="effect1_dropShadow_143_25100"/>
<feBlend mode="normal" in="SourceGraphic" in2="effect1_dropShadow_143_25100" result="shape"/>
</filter>
<linearGradient id="paint0_linear_143_25100" x1="230.334" y1="91.5654" x2="230.334" y2="145.487" gradientUnits="userSpaceOnUse">
<stop stop-color="#FFE279"/>
<stop offset="1" stop-color="#FFDC60"/>
</linearGradient>
</defs>
</svg>
