<svg width="288" height="263" viewBox="0 0 288 263" fill="none" xmlns="http://www.w3.org/2000/svg">
<rect x="1.8999" y="92" width="250" height="79" rx="10" fill="#FFF6EE"/>
<path d="M31.8999 111C29.3287 111 26.8153 111.762 24.6775 113.191C22.5397 114.619 20.8734 116.65 19.8895 119.025C18.9055 121.401 18.6481 124.014 19.1497 126.536C19.6513 129.058 20.8894 131.374 22.7075 133.192C24.5256 135.01 26.842 136.249 29.3637 136.75C31.8855 137.252 34.4993 136.994 36.8748 136.01C39.2502 135.026 41.2806 133.36 42.709 131.222C44.1375 129.085 44.8999 126.571 44.8999 124C44.8933 120.554 43.5215 117.251 41.085 114.815C38.6485 112.378 35.3457 111.007 31.8999 111ZM38.0874 121.725L30.7624 128.725C30.573 128.903 30.3224 129.002 30.0624 129C29.9353 129.002 29.8092 128.978 29.6912 128.931C29.5732 128.884 29.4657 128.814 29.3749 128.725L25.7124 125.225C25.6108 125.136 25.5282 125.028 25.4695 124.907C25.4108 124.785 25.3773 124.653 25.3709 124.519C25.3646 124.384 25.3855 124.25 25.4325 124.123C25.4794 123.997 25.5514 123.881 25.6442 123.783C25.737 123.686 25.8485 123.608 25.9722 123.554C26.0959 123.5 26.2292 123.472 26.364 123.471C26.4988 123.471 26.6324 123.497 26.7567 123.549C26.881 123.602 26.9935 123.678 27.0874 123.775L30.0624 126.612L36.7124 120.275C36.9068 120.105 37.1593 120.017 37.4171 120.03C37.6748 120.042 37.9179 120.153 38.0954 120.34C38.273 120.528 38.3713 120.776 38.3698 121.034C38.3683 121.292 38.2671 121.54 38.0874 121.725Z" fill="#3FCD78"/>
<rect x="55.8999" y="112" width="166" height="13" rx="6.5" fill="#EBC8A8"/>
<rect x="55.8999" y="133" width="108" height="13" rx="6.5" fill="#FEE3CB"/>
<rect x="0.899902" width="250" height="79" rx="10" fill="white"/>
<path d="M30.8999 19C28.3287 19 25.8153 19.7624 23.6775 21.1909C21.5397 22.6194 19.8734 24.6497 18.8895 27.0251C17.9055 29.4006 17.6481 32.0144 18.1497 34.5362C18.6513 37.0579 19.8894 39.3743 21.7075 41.1924C23.5256 43.0105 25.842 44.2486 28.3637 44.7502C30.8855 45.2518 33.4993 44.9944 35.8748 44.0104C38.2502 43.0265 40.2806 41.3602 41.709 39.2224C43.1375 37.0846 43.8999 34.5712 43.8999 32C43.8933 28.5542 42.5215 25.2515 40.085 22.8149C37.6485 20.3784 34.3457 19.0066 30.8999 19ZM37.0874 29.725L29.7624 36.725C29.573 36.9031 29.3224 37.0016 29.0624 37C28.9353 37.0018 28.8092 36.9785 28.6912 36.9313C28.5732 36.8841 28.4657 36.814 28.3749 36.725L24.7124 33.225C24.6108 33.1364 24.5282 33.0281 24.4695 32.9067C24.4108 32.7854 24.3773 32.6534 24.3709 32.5187C24.3646 32.3841 24.3855 32.2495 24.4325 32.1231C24.4794 31.9968 24.5514 31.8812 24.6442 31.7834C24.737 31.6856 24.8485 31.6075 24.9722 31.5539C25.0959 31.5003 25.2292 31.4723 25.364 31.4715C25.4988 31.4707 25.6324 31.4972 25.7567 31.5493C25.881 31.6015 25.9935 31.6783 26.0874 31.775L29.0624 34.6125L35.7124 28.275C35.9068 28.1054 36.1593 28.0174 36.4171 28.0296C36.6748 28.0418 36.9179 28.1532 37.0954 28.3404C37.273 28.5277 37.3713 28.7763 37.3698 29.0343C37.3683 29.2924 37.2671 29.5398 37.0874 29.725Z" fill="#3FCD78"/>
<rect x="54.8999" y="20" width="166" height="13" rx="6.5" fill="#FFE4D0"/>
<rect x="54.8999" y="41" width="108" height="13" rx="6.5" fill="#FEDBD5"/>
<rect x="38.3999" y="184.5" width="249" height="78" rx="14.5" stroke="#CE6D54" stroke-dasharray="4 4"/>
<path d="M67.8999 203C65.3287 203 62.8153 203.762 60.6775 205.191C58.5397 206.619 56.8734 208.65 55.8895 211.025C54.9055 213.401 54.6481 216.014 55.1497 218.536C55.6513 221.058 56.8894 223.374 58.7075 225.192C60.5256 227.01 62.842 228.249 65.3637 228.75C67.8855 229.252 70.4993 228.994 72.8748 228.01C75.2502 227.026 77.2806 225.36 78.709 223.222C80.1375 221.085 80.8999 218.571 80.8999 216C80.8933 212.554 79.5215 209.251 77.085 206.815C74.6485 204.378 71.3457 203.007 67.8999 203ZM74.0874 213.725L66.7624 220.725C66.573 220.903 66.3224 221.002 66.0624 221C65.9353 221.002 65.8092 220.978 65.6912 220.931C65.5732 220.884 65.4657 220.814 65.3749 220.725L61.7124 217.225C61.6108 217.136 61.5282 217.028 61.4695 216.907C61.4108 216.785 61.3773 216.653 61.3709 216.519C61.3646 216.384 61.3855 216.25 61.4325 216.123C61.4794 215.997 61.5514 215.881 61.6442 215.783C61.737 215.686 61.8485 215.608 61.9722 215.554C62.0959 215.5 62.2292 215.472 62.364 215.471C62.4988 215.471 62.6324 215.497 62.7567 215.549C62.881 215.602 62.9935 215.678 63.0874 215.775L66.0624 218.612L72.7124 212.275C72.9068 212.105 73.1593 212.017 73.4171 212.03C73.6748 212.042 73.9179 212.153 74.0954 212.34C74.273 212.528 74.3713 212.776 74.3698 213.034C74.3683 213.292 74.2671 213.54 74.0874 213.725Z" fill="#2C2C2C"/>
<rect x="91.8999" y="204" width="166" height="13" rx="6.5" fill="white"/>
<rect x="91.8999" y="225" width="108" height="13" rx="6.5" fill="#F8F8F8"/>
</svg>
