<svg width="406" height="298" viewBox="0 0 406 298" fill="none" xmlns="http://www.w3.org/2000/svg">
<g filter="url(#filter0_i_143_25052)">
<rect width="160.383" height="83.453" rx="13.6921" transform="matrix(0.99993 0.0117992 -0.013219 0.999913 30.2207 54.4255)" fill="url(#paint0_linear_143_25052)" fill-opacity="0.93"/>
</g>
<path d="M54.9472 68.0401L53.8502 135.058M116.368 68.9929L115.271 136.011M86.1299 68.5238L85.0329 135.542M147.236 69.4718L146.139 136.49M70.0659 68.2746L68.9689 135.293M131.802 69.2323L130.705 136.25M101.249 68.7584L100.152 135.777M162.669 69.7112L161.572 136.729M41.2913 122.993L177.046 125.099M41.7604 94.3284L177.515 96.4344M41.5222 108.863L177.277 110.968M41.9981 79.7944L177.753 81.9004" stroke="url(#paint1_linear_143_25052)" stroke-width="0.36362"/>
<path d="M43.6875 71.9424L45.1086 74.359L46.6394 72.0062L46.9009 74.8705L47.9842 74.894L47.351 69.5338L45.1451 72.774L43.0904 69.4417L42.2113 74.7692L43.2946 74.7926L43.6875 71.9424ZM49.5874 73.8884C49.5896 73.7915 49.6133 73.712 49.6584 73.6499C49.7036 73.583 49.7726 73.5336 49.8655 73.5016C49.9584 73.4649 50.0776 73.448 50.2231 73.4512C50.4024 73.4551 50.5715 73.483 50.7303 73.5349C50.894 73.5869 51.0402 73.6628 51.1688 73.7626L51.1789 73.3264C51.1317 73.2671 51.0532 73.2048 50.9431 73.1394C50.8331 73.074 50.6962 73.0177 50.5324 72.9705C50.3734 72.9234 50.1873 72.8976 49.974 72.893C49.5572 72.884 49.2327 72.9715 49.0005 73.1556C48.7683 73.3397 48.6485 73.5941 48.641 73.9189C48.6358 74.1467 48.6847 74.3417 48.7876 74.504C48.8955 74.6615 49.0382 74.7834 49.2157 74.8697C49.3931 74.9559 49.5861 75.0013 49.7945 75.0058C49.9981 75.0102 50.1928 74.9781 50.3786 74.9094C50.5694 74.8407 50.7246 74.735 50.8442 74.5921C50.9688 74.4493 51.0335 74.2713 51.0384 74.058L50.9321 73.6193C50.9284 73.7792 50.8889 73.9166 50.8135 74.0313C50.7382 74.1412 50.6417 74.2264 50.5239 74.2869C50.4062 74.3426 50.2747 74.3688 50.1293 74.3657C50.0275 74.3635 49.9334 74.3445 49.8469 74.3087C49.7654 74.2681 49.7012 74.2134 49.6543 74.1445C49.6075 74.0707 49.5852 73.9854 49.5874 73.8884ZM49.2552 72.521C49.3044 72.4881 49.3805 72.4485 49.4834 72.4023C49.5863 72.356 49.7084 72.3174 49.8498 72.2865C49.9911 72.2556 50.1393 72.2419 50.2945 72.2452C50.3962 72.2474 50.4881 72.2591 50.5701 72.2803C50.652 72.3014 50.7216 72.3345 50.7788 72.3793C50.8408 72.4243 50.8855 72.4811 50.913 72.5496C50.9407 72.6132 50.9534 72.6911 50.9513 72.7832L50.9013 74.957L51.8101 74.9767L51.8647 72.6065C51.8699 72.3787 51.8113 72.1859 51.6888 72.028C51.5665 71.8654 51.3948 71.7404 51.1737 71.6532C50.9527 71.566 50.6991 71.5193 50.4131 71.5131C50.1029 71.5064 49.8208 71.5439 49.5667 71.6257C49.3128 71.7027 49.0975 71.7853 48.9209 71.8736L49.2552 72.521ZM53.8682 71.6751L52.9449 71.6551L52.8679 74.9995L53.7913 75.0195L53.8682 71.6751ZM54.8272 72.6778L55.2746 71.8873C55.2087 71.7986 55.1206 71.7313 55.0101 71.6852C54.9044 71.6393 54.791 71.615 54.6699 71.6124C54.4954 71.6086 54.3243 71.668 54.1566 71.7904C53.989 71.908 53.8519 72.07 53.7453 72.2762C53.6388 72.4775 53.5825 72.7115 53.5764 72.9781L53.8321 73.2455C53.8358 73.0856 53.8583 72.9503 53.8996 72.8396C53.9459 72.7242 54.011 72.6359 54.0949 72.5747C54.1787 72.5135 54.2788 72.4841 54.3951 72.4866C54.4921 72.4887 54.5717 72.5074 54.6339 72.5427C54.7011 72.5733 54.7655 72.6183 54.8272 72.6778ZM55.9914 69.3933L55.8609 75.0642L56.7697 75.0839L56.9002 69.4129L55.9914 69.3933ZM58.0754 71.766L56.604 73.1163L58.1512 75.1138L59.2709 75.138L57.731 73.1407L59.2024 71.7904L58.0754 71.766ZM61.4179 75.2571C61.8202 75.2658 62.1661 75.1957 62.4557 75.0468C62.7502 74.8931 62.9883 74.6606 63.1701 74.3494L62.3543 74.0771C62.2537 74.235 62.1273 74.3535 61.9752 74.4326C61.828 74.5071 61.6502 74.542 61.4417 74.5375C61.2575 74.5335 61.101 74.4889 60.972 74.4037C60.843 74.3185 60.7464 74.1976 60.6821 74.041C60.6226 73.8845 60.5955 73.6948 60.6006 73.4718C60.6108 73.2393 60.6492 73.0461 60.7158 72.8924C60.7873 72.7339 60.8846 72.6172 61.0075 72.5423C61.1355 72.4626 61.2915 72.4248 61.4757 72.4287C61.626 72.432 61.7561 72.4688 61.866 72.539C61.9759 72.6093 62.0586 72.7032 62.1141 72.8208C62.1744 72.9385 62.2027 73.0797 62.1989 73.2445C62.1981 73.2785 62.1874 73.3219 62.1668 73.3748C62.1512 73.4229 62.1333 73.4613 62.1132 73.49L62.3754 73.1611L60.2015 73.1141L60.1881 73.6957L63.1836 73.7605C63.1891 73.7315 63.1925 73.6928 63.1936 73.6443C63.1995 73.5959 63.203 73.5499 63.204 73.5063C63.2123 73.1476 63.1514 72.8408 63.0215 72.5858C62.8917 72.326 62.6974 72.1278 62.4387 71.9913C62.1849 71.85 61.8738 71.7754 61.5055 71.7674C61.1371 71.7595 60.8155 71.8253 60.5407 71.9648C60.266 72.0995 60.0506 72.2961 59.8943 72.5546C59.743 72.8083 59.6632 73.1145 59.6549 73.4732C59.6468 73.8271 59.7124 74.1364 59.8518 74.4013C59.9961 74.6614 60.2024 74.8671 60.4705 75.0184C60.7385 75.1697 61.0544 75.2493 61.4179 75.2571ZM63.7045 71.8877L63.6863 72.6802L65.7512 72.7248L65.7694 71.9324L63.7045 71.8877ZM64.3057 70.7369L64.202 75.2446L65.1108 75.2642L65.2145 70.7565L64.3057 70.7369ZM66.4386 70.652C66.4352 70.8023 66.488 70.9295 66.5972 71.0337C66.7063 71.1379 66.8384 71.1917 66.9935 71.195C67.1486 71.1984 67.2807 71.1503 67.3897 71.0509C67.5035 70.9515 67.5621 70.8267 67.5656 70.6764C67.5692 70.5213 67.5163 70.3941 67.4071 70.2947C67.3028 70.1906 67.1731 70.1369 67.018 70.1336C66.8628 70.1302 66.7284 70.1782 66.6146 70.2776C66.5008 70.3721 66.4422 70.4969 66.4386 70.652ZM66.5106 71.9484L66.4337 75.2928L67.3498 75.3126L67.4267 71.9682L66.5106 71.9484ZM70.7374 73.3491L70.6906 75.3848L71.6649 75.4059L71.714 73.2684C71.7233 72.8661 71.6335 72.5514 71.4448 72.3242C71.2561 72.0922 70.9631 71.9719 70.5656 71.9633C70.3281 71.9582 70.1234 72.0047 69.9514 72.1028C69.7843 72.1962 69.6477 72.3363 69.5416 72.5231L69.5533 72.0142L68.6081 71.9937L68.5312 75.3382L69.4764 75.3586L69.5232 73.3229C69.5264 73.1823 69.5559 73.0617 69.6115 72.9611C69.6672 72.8604 69.7465 72.7845 69.8496 72.7334C69.9527 72.6775 70.0697 72.6509 70.2006 72.6537C70.3945 72.6579 70.5337 72.7191 70.6183 72.8373C70.7028 72.9556 70.7425 73.1261 70.7374 73.3491ZM72.609 75.6591C72.6217 75.9503 72.6933 76.2089 72.8239 76.4348C72.9593 76.6656 73.1564 76.8445 73.4154 76.9713C73.6742 77.103 73.9975 77.173 74.3853 77.1814C74.7052 77.1883 75.0023 77.1317 75.2767 77.0115C75.5509 76.8962 75.771 76.707 75.9371 76.4439C76.1081 76.1809 76.1983 75.8434 76.2078 75.4314L76.283 72.1597L75.3742 72.14L75.2989 75.4117C75.2937 75.6395 75.2457 75.8276 75.155 75.976C75.0691 76.1245 74.9551 76.2335 74.8129 76.3032C74.6755 76.373 74.5292 76.4062 74.3741 76.4028C74.2045 76.3992 74.0573 76.3669 73.9326 76.306C73.8079 76.2451 73.7104 76.1606 73.6402 76.0524C73.5698 75.949 73.5339 75.8246 73.5324 75.679L72.609 75.6591ZM72.5881 73.7237C72.5796 74.0921 72.6475 74.4063 72.7919 74.6665C72.9363 74.9218 73.1307 75.1175 73.3749 75.2537C73.6191 75.39 73.8793 75.461 74.1556 75.467C74.4367 75.4731 74.6854 75.413 74.9017 75.2867C75.123 75.1557 75.2971 74.9631 75.4242 74.7088C75.5561 74.4547 75.6262 74.1483 75.6345 73.7896C75.6429 73.4261 75.5869 73.1169 75.4667 72.8621C75.3514 72.6026 75.1863 72.4027 74.9713 72.2622C74.7611 72.1219 74.5155 72.0487 74.2344 72.0426C73.9581 72.0366 73.6948 72.0964 73.4446 72.2219C73.1944 72.3475 72.9912 72.5371 72.835 72.7907C72.679 73.0395 72.5967 73.3505 72.5881 73.7237ZM73.5623 73.7448C73.567 73.5412 73.6121 73.3725 73.6977 73.2385C73.7833 73.0997 73.8972 72.9955 74.0395 72.9258C74.1817 72.8562 74.3328 72.8231 74.4928 72.8265C74.5994 72.8288 74.7031 72.8529 74.8039 72.8987C74.9048 72.9397 74.9956 72.9999 75.0762 73.0792C75.1616 73.1586 75.2273 73.257 75.2731 73.3744C75.3189 73.4918 75.34 73.628 75.3364 73.7831C75.3317 73.9867 75.2841 74.1578 75.1936 74.2965C75.1081 74.4304 74.9967 74.5323 74.8593 74.6021C74.7268 74.6671 74.5903 74.6981 74.4498 74.695C74.2898 74.6916 74.1404 74.652 74.0015 74.5762C73.8626 74.5005 73.7535 74.3939 73.6742 74.2564C73.5951 74.114 73.5578 73.9435 73.5623 73.7448ZM79.8568 74.4264L79.3852 75.0054C79.5085 75.1293 79.6464 75.2463 79.7991 75.3562C79.9567 75.4615 80.1317 75.5477 80.3242 75.6149C80.5214 75.6822 80.7388 75.7184 80.9763 75.7236C81.3593 75.7319 81.6619 75.6463 81.8843 75.4668C82.1067 75.2825 82.2218 75.0231 82.2295 74.6887C82.2342 74.4851 82.1919 74.3193 82.1028 74.1913C82.0136 74.0633 81.8924 73.9564 81.7391 73.8706C81.5909 73.7801 81.4279 73.699 81.2501 73.6273C81.1061 73.5611 80.9765 73.505 80.8611 73.4588C80.7507 73.4128 80.6645 73.3625 80.6027 73.3078C80.5459 73.2484 80.5183 73.1823 80.52 73.1096C80.5219 73.0272 80.5524 72.9672 80.6114 72.9297C80.6755 72.8875 80.7608 72.8675 80.8674 72.8698C81.0274 72.8732 81.1888 72.9179 81.3517 73.0039C81.5195 73.09 81.6624 73.1998 81.7806 73.3332L82.2084 72.7606C82.1042 72.6516 81.9827 72.5569 81.844 72.4763C81.7053 72.3908 81.5541 72.3221 81.3904 72.2701C81.2267 72.218 81.0504 72.19 80.8613 72.1859C80.6384 72.1811 80.434 72.213 80.2481 72.2817C80.0672 72.3457 79.9218 72.4468 79.8119 72.5851C79.7022 72.7185 79.645 72.8846 79.6404 73.0833C79.6356 73.2917 79.6777 73.4648 79.7667 73.6025C79.8606 73.7355 79.9793 73.8447 80.1229 73.9303C80.2665 74.0109 80.4152 74.0821 80.569 74.1436C80.7325 74.2005 80.8671 74.2543 80.9726 74.3051C81.0781 74.3558 81.1568 74.4133 81.2087 74.4775C81.2655 74.5369 81.2929 74.6102 81.2909 74.6975C81.2887 74.7944 81.253 74.8712 81.1838 74.9279C81.1147 74.9798 81.0171 75.0043 80.8911 75.0016C80.7942 74.9995 80.6904 74.9779 80.5798 74.9367C80.4741 74.8956 80.3615 74.835 80.2421 74.7548C80.1228 74.6698 79.9944 74.5603 79.8568 74.4264ZM82.6879 72.2981L82.6697 73.0906L84.7346 73.1352L84.7528 72.3428L82.6879 72.2981ZM83.2891 71.1473L83.1853 75.655L84.0942 75.6746L84.1979 71.1669L83.2891 71.1473ZM86.3592 72.3775L85.4358 72.3575L85.3589 75.7019L86.2823 75.7219L86.3592 72.3775ZM87.3182 73.3802L87.7656 72.5897C87.6997 72.501 87.6115 72.4336 87.5011 72.3876C87.3954 72.3417 87.282 72.3174 87.1608 72.3148C86.9863 72.311 86.8152 72.3704 86.6475 72.4928C86.4799 72.6104 86.3429 72.7724 86.2363 72.9786C86.1298 73.1799 86.0735 73.4139 86.0674 73.6805L86.3231 73.9479C86.3268 73.788 86.3493 73.6527 86.3906 73.542C86.4369 73.4266 86.502 73.3383 86.5858 73.2771C86.6697 73.2159 86.7698 73.1865 86.8861 73.189C86.9831 73.1911 87.0626 73.2098 87.1249 73.2451C87.1921 73.2757 87.2565 73.3207 87.3182 73.3802ZM89.0665 74.7419C89.0687 74.645 89.0924 74.5655 89.1375 74.5034C89.1826 74.4365 89.2517 74.387 89.3446 74.3551C89.4375 74.3183 89.5567 74.3015 89.7022 74.3046C89.8815 74.3085 90.0506 74.3364 90.2094 74.3884C90.3731 74.4404 90.5193 74.5163 90.6479 74.6161L90.658 74.1798C90.6108 74.1206 90.5322 74.0583 90.4222 73.9929C90.3122 73.9275 90.1753 73.8712 90.0115 73.824C89.8525 73.7769 89.6664 73.751 89.4531 73.7464C89.0363 73.7374 88.7118 73.825 88.4796 74.0091C88.2474 74.1932 88.1276 74.4476 88.1201 74.7724C88.1149 75.0002 88.1638 75.1952 88.2667 75.3575C88.3746 75.515 88.5173 75.6369 88.6948 75.7231C88.8722 75.8094 89.0651 75.8548 89.2736 75.8593C89.4771 75.8637 89.6719 75.8315 89.8577 75.7628C90.0484 75.6942 90.2036 75.5885 90.3233 75.4456C90.4478 75.3028 90.5126 75.1247 90.5175 74.9115L90.4112 74.4727C90.4075 74.6327 90.368 74.77 90.2926 74.8848C90.2173 74.9947 90.1208 75.0799 90.003 75.1404C89.8853 75.196 89.7538 75.2223 89.6084 75.2192C89.5066 75.217 89.4124 75.1979 89.326 75.1621C89.2445 75.1216 89.1803 75.0668 89.1334 74.9979C89.0866 74.9242 89.0643 74.8388 89.0665 74.7419ZM88.7342 73.3745C88.7835 73.3416 88.8596 73.302 88.9625 73.2557C89.0654 73.2095 89.1875 73.1709 89.3289 73.14C89.4702 73.1091 89.6184 73.0953 89.7735 73.0987C89.8753 73.1009 89.9672 73.1126 90.0492 73.1337C90.1311 73.1549 90.2007 73.1879 90.2578 73.2328C90.3198 73.2778 90.3646 73.3345 90.3921 73.403C90.4198 73.4667 90.4325 73.5445 90.4304 73.6366L90.3804 75.8105L91.2892 75.8301L91.3438 73.46C91.349 73.2322 91.2904 73.0393 91.1679 72.8815C91.0456 72.7188 90.8739 72.5939 90.6528 72.5067C90.4317 72.4195 90.1782 72.3727 89.8922 72.3666C89.582 72.3599 89.2999 72.3974 89.0458 72.4792C88.7919 72.5562 88.5766 72.6388 88.4 72.7271L88.7342 73.3745ZM91.995 72.4993L91.9767 73.2918L94.0416 73.3364L94.0599 72.544L91.995 72.4993ZM92.5961 71.3485L92.4924 75.8562L93.4013 75.8758L93.505 71.3681L92.5961 71.3485ZM96.242 76.01C96.6443 76.0187 96.9903 75.9485 97.2798 75.7996C97.5743 75.646 97.8125 75.4135 97.9942 75.1022L97.1785 74.83C97.0779 74.9878 96.9515 75.1063 96.7993 75.1855C96.6521 75.2599 96.4743 75.2948 96.2659 75.2903C96.0817 75.2864 95.9251 75.2417 95.7961 75.1565C95.6671 75.0713 95.5705 74.9504 95.5062 74.7938C95.4468 74.6374 95.4196 74.4476 95.4247 74.2247C95.4349 73.9921 95.4733 73.799 95.5399 73.6452C95.6115 73.4868 95.7087 73.3701 95.8317 73.2951C95.9596 73.2154 96.1156 73.1776 96.2998 73.1816C96.4501 73.1848 96.5802 73.2216 96.6901 73.2919C96.8 73.3621 96.8827 73.456 96.9382 73.5736C96.9986 73.6913 97.0268 73.8326 97.023 73.9974C97.0223 74.0313 97.0116 74.0747 96.991 74.1276C96.9753 74.1758 96.9574 74.2142 96.9374 74.2428L97.1996 73.9139L95.0256 73.8669L95.0122 74.4485L98.0078 74.5133C98.0133 74.4843 98.0166 74.4456 98.0177 74.3971C98.0237 74.3488 98.0272 74.3028 98.0282 74.2591C98.0364 73.9005 97.9756 73.5936 97.8457 73.3387C97.7158 73.0788 97.5216 72.8807 97.2628 72.7441C97.0091 72.6029 96.698 72.5282 96.3296 72.5203C95.9612 72.5123 95.6396 72.5781 95.3648 72.7176C95.0902 72.8523 94.8747 73.0489 94.7184 73.3074C94.5671 73.5612 94.4873 73.8674 94.479 74.2261C94.4709 74.5799 94.5365 74.8892 94.6759 75.1541C94.8203 75.4143 95.0265 75.62 95.2946 75.7712C95.5627 75.9225 95.8785 76.0021 96.242 76.01ZM98.7154 76.2235C98.7281 76.5147 98.7997 76.7733 98.9303 76.9992C99.0656 77.23 99.2628 77.4088 99.5217 77.5357C99.7806 77.6674 100.104 77.7374 100.492 77.7458C100.812 77.7527 101.109 77.6961 101.383 77.5759C101.657 77.4606 101.877 77.2714 102.044 77.0083C102.214 76.7452 102.305 76.4077 102.314 75.9957L102.389 72.724L101.481 72.7044L101.405 75.9761C101.4 76.2039 101.352 76.392 101.261 76.5404C101.176 76.6888 101.061 76.7979 100.919 76.8676C100.782 76.9373 100.636 76.9706 100.48 76.9672C100.311 76.9635 100.164 76.9313 100.039 76.8704C99.9143 76.8095 99.8168 76.7249 99.7466 76.6167C99.6762 76.5134 99.6403 76.3889 99.6388 76.2434L98.7154 76.2235ZM98.6945 74.2881C98.686 74.6565 98.7539 74.9707 98.8983 75.2309C99.0427 75.4861 99.2371 75.6819 99.4812 75.8181C99.7254 75.9543 99.9857 76.0254 100.262 76.0314C100.543 76.0375 100.792 75.9774 101.008 75.8511C101.229 75.7201 101.404 75.5275 101.531 75.2732C101.663 75.019 101.733 74.7126 101.741 74.3539C101.749 73.9904 101.693 73.6813 101.573 73.4265C101.458 73.167 101.293 72.967 101.078 72.8266C100.868 72.6863 100.622 72.6131 100.341 72.607C100.064 72.601 99.8012 72.6608 99.551 72.7863C99.3008 72.9118 99.0976 73.1014 98.9414 73.3551C98.7854 73.6039 98.703 73.9149 98.6945 74.2881ZM99.6687 74.3092C99.6734 74.1056 99.7185 73.9368 99.804 73.8029C99.8897 73.6641 100.004 73.5599 100.146 73.4902C100.288 73.4206 100.439 73.3875 100.599 73.3909C100.706 73.3932 100.809 73.4173 100.91 73.4631C101.011 73.5041 101.102 73.5642 101.183 73.6436C101.268 73.723 101.334 73.8214 101.379 73.9388C101.425 74.0562 101.446 74.1924 101.443 74.3475C101.438 74.5511 101.391 74.7222 101.3 74.8609C101.215 74.9948 101.103 75.0967 100.966 75.1664C100.833 75.2315 100.697 75.2625 100.556 75.2594C100.396 75.256 100.247 75.2164 100.108 75.1406C99.969 75.0649 99.8599 74.9583 99.7806 74.8208C99.7015 74.6784 99.6642 74.5079 99.6687 74.3092ZM106.669 72.8165L105.688 72.7953L104.573 75.419L105.038 75.4436L104.023 72.7593L102.976 72.7367L104.295 75.7767L103.407 77.6924L104.374 77.7133L106.669 72.8165Z" fill="#353E6C"/>
<path d="M158.009 74.2095L159.238 73.916L159.144 78.002L160.154 78.0238L160.274 72.8473L158.031 73.2716L158.009 74.2095ZM165.414 76.4936C165.422 76.1446 165.356 75.845 165.217 75.5946C165.082 75.3395 164.9 75.1416 164.67 75.0009C164.441 74.8601 164.188 74.7868 163.911 74.7808C163.761 74.7776 163.613 74.7889 163.467 74.8148C163.326 74.836 163.191 74.8792 163.064 74.9443L163.393 73.904L165.393 73.9472L165.413 73.0457L162.643 72.9858L161.879 75.8353C162.056 75.7421 162.223 75.673 162.379 75.6278C162.54 75.578 162.696 75.545 162.847 75.5288C162.997 75.5079 163.141 75.4988 163.276 75.5018C163.461 75.5057 163.63 75.5433 163.783 75.6146C163.942 75.681 164.065 75.7783 164.155 75.9063C164.249 76.0344 164.294 76.1905 164.289 76.3747C164.285 76.5638 164.24 76.7228 164.155 76.8519C164.069 76.9761 163.948 77.0705 163.792 77.135C163.64 77.1996 163.455 77.2296 163.237 77.2249C163.096 77.2218 162.949 77.192 162.795 77.1353C162.641 77.0738 162.493 76.993 162.35 76.8929C162.211 76.7929 162.083 76.681 161.965 76.5572L161.459 77.3537C161.596 77.4973 161.756 77.6317 161.937 77.7569C162.119 77.8772 162.33 77.9763 162.57 78.0543C162.816 78.1323 163.094 78.1747 163.404 78.1814C163.651 78.1867 163.892 78.158 164.126 78.0952C164.36 78.0323 164.574 77.9327 164.766 77.7962C164.958 77.6597 165.112 77.4836 165.229 77.2679C165.345 77.0522 165.407 76.7941 165.414 76.4936ZM166.129 74.2323C166.124 74.4649 166.174 74.6818 166.281 74.883C166.393 75.0794 166.547 75.2379 166.743 75.3585C166.939 75.4791 167.161 75.5421 167.408 75.5474C167.66 75.5529 167.884 75.4995 168.081 75.3874C168.282 75.2754 168.441 75.1236 168.557 74.9322C168.673 74.7358 168.734 74.5214 168.739 74.2887C168.745 74.0463 168.694 73.827 168.587 73.6307C168.48 73.4344 168.328 73.2784 168.132 73.1626C167.941 73.0421 167.719 72.9791 167.467 72.9737C167.22 72.9683 166.996 73.0217 166.794 73.1337C166.593 73.2409 166.432 73.3902 166.311 73.5815C166.195 73.773 166.135 73.9899 166.129 74.2323ZM166.914 74.2492C166.917 74.1475 166.94 74.0558 166.986 73.9744C167.031 73.8929 167.094 73.8288 167.172 73.782C167.251 73.7304 167.344 73.7057 167.45 73.708C167.557 73.7103 167.646 73.7389 167.718 73.7938C167.794 73.8439 167.853 73.9107 167.895 73.994C167.937 74.0774 167.956 74.1699 167.954 74.2717C167.952 74.3687 167.928 74.4603 167.882 74.5466C167.837 74.628 167.774 74.6922 167.696 74.739C167.622 74.7859 167.532 74.8082 167.425 74.8058C167.318 74.8035 167.227 74.7773 167.151 74.7272C167.074 74.677 167.015 74.6103 166.973 74.5269C166.932 74.4387 166.912 74.3462 166.914 74.2492ZM169.374 77.052C169.368 77.2895 169.419 77.5064 169.526 77.7027C169.638 77.8991 169.792 78.0576 169.988 78.1782C170.184 78.2989 170.406 78.3619 170.653 78.3672C170.905 78.3726 171.129 78.3193 171.326 78.2072C171.527 78.0951 171.686 77.9434 171.802 77.7519C171.918 77.5604 171.979 77.346 171.984 77.1085C171.99 76.871 171.939 76.6541 171.832 76.4578C171.725 76.2566 171.573 76.0982 171.377 75.9824C171.186 75.8619 170.964 75.7989 170.712 75.7934C170.465 75.7881 170.241 75.8414 170.039 75.9535C169.838 76.0607 169.677 76.2124 169.556 76.4086C169.44 76.6 169.379 76.8145 169.374 77.052ZM170.159 77.069C170.161 76.9672 170.185 76.8756 170.231 76.7941C170.276 76.7127 170.339 76.6486 170.417 76.6018C170.496 76.555 170.589 76.5327 170.695 76.535C170.802 76.5373 170.891 76.5635 170.963 76.6136C171.039 76.6637 171.098 76.7304 171.14 76.8138C171.181 76.8971 171.201 76.9897 171.199 77.0915C171.197 77.1884 171.173 77.28 171.127 77.3663C171.082 77.4478 171.019 77.5119 170.941 77.5587C170.867 77.6056 170.777 77.6279 170.67 77.6256C170.563 77.6233 170.472 77.5971 170.395 77.5469C170.319 77.4968 170.26 77.43 170.218 77.3467C170.177 77.2585 170.157 77.1659 170.159 77.069ZM170.496 73.1556L166.671 78.1647L167.624 78.1853L171.449 73.1761L170.496 73.1556Z" fill="#00620A"/>
<path d="M176.465 73.2254L178.864 76.2422L174.052 76.2375L176.465 73.2254Z" fill="#00620A"/>
<path d="M70.6568 100.417C59.1281 93.7653 46.0729 96.2607 40.9864 98.34L40.6335 120.349L176.297 123.185L176.525 108.963C173.624 103.821 164.483 95.2504 151.126 102.099C134.431 110.661 124.258 106.693 116.367 99.9158C110.055 94.4936 101.837 97.8561 98.5178 100.215C94.0345 103.054 82.1855 107.069 70.6568 100.417Z" fill="url(#paint2_linear_143_25052)"/>
<path d="M40.9865 98.3359C46.0612 96.2597 59.0863 93.7676 70.5883 100.41C82.0902 107.052 93.9118 103.042 98.3849 100.207C101.697 97.8517 109.895 94.494 116.193 99.9081C124.065 106.676 134.215 110.637 150.872 102.088C164.197 95.2487 173.317 103.807 176.211 108.941" stroke="#24B8D2" stroke-width="0.72724" stroke-linecap="round" stroke-linejoin="round"/>
<path d="M94.4306 103.782C67.9049 57.5575 41.9763 111.199 40.9159 111.18L40.8096 116.726C40.6732 123.835 46.3253 129.699 53.4339 129.826L163.199 131.777C170.308 131.903 176.181 126.243 176.317 119.135L176.691 99.6223C163.04 122.089 155.216 117.052 153.011 111.725C147.877 100.928 134.152 83.7711 120.323 101.515C106.494 119.258 97.2995 110.419 94.4306 103.782Z" fill="url(#paint3_linear_143_25052)"/>
<path d="M41.0508 111.152C42.1086 111.171 67.9764 57.5872 94.4374 103.761C97.2993 110.391 106.472 119.22 120.268 101.496C134.064 83.7709 147.756 100.909 152.877 111.694C155.077 117.015 162.882 122.047 176.501 99.6039" stroke="#7F7CFF" stroke-width="0.727241" stroke-linecap="round" stroke-linejoin="round"/>
<g filter="url(#filter1_i_143_25052)">
<rect width="130.384" height="63.8264" rx="13.6921" transform="matrix(0.999992 0.00412006 -0.00554003 0.999985 203.106 71.0459)" fill="url(#paint4_linear_143_25052)" fill-opacity="0.93"/>
</g>
<path d="M262.414 100.176L266.126 100.262C266.005 100.653 265.836 101.013 265.619 101.34C265.401 101.668 265.136 101.957 264.821 102.208C264.52 102.46 264.158 102.655 263.736 102.793C263.314 102.918 262.838 102.975 262.309 102.963C261.509 102.944 260.793 102.743 260.162 102.359C259.544 101.975 259.058 101.446 258.705 100.773C258.352 100.088 258.187 99.3016 258.209 98.4154C258.231 97.5169 258.434 96.7457 258.82 96.1019C259.217 95.4584 259.74 94.9718 260.389 94.642C261.038 94.2999 261.75 94.1379 262.525 94.1559C263.35 94.175 264.041 94.3697 264.599 94.7398C265.169 95.0979 265.607 95.5637 265.913 96.1374L268.198 94.8788C267.819 94.2665 267.358 93.7386 266.814 93.2949C266.284 92.8392 265.664 92.48 264.956 92.2172C264.261 91.9547 263.47 91.8132 262.584 91.7926C261.587 91.7694 260.659 91.908 259.802 92.2083C258.945 92.5086 258.195 92.9469 257.553 93.5231C256.911 94.0994 256.401 94.8018 256.023 95.6305C255.658 96.4472 255.464 97.3541 255.439 98.3511C255.415 99.3481 255.558 100.269 255.87 101.114C256.194 101.959 256.656 102.69 257.257 103.307C257.87 103.925 258.591 104.41 259.42 104.762C260.261 105.114 261.18 105.301 262.177 105.324C263.236 105.349 264.182 105.18 265.016 104.818C265.85 104.455 266.552 103.948 267.123 103.296C267.705 102.632 268.137 101.867 268.417 100.999C268.709 100.131 268.849 99.2045 268.836 98.2189L262.466 98.0709L262.414 100.176ZM273.154 96.7305L270.809 96.676L270.601 105.169L272.945 105.224L273.154 96.7305ZM275.586 99.2809L276.725 97.2753C276.558 97.0497 276.334 96.8782 276.054 96.7609C275.786 96.6438 275.498 96.5817 275.19 96.5746C274.747 96.5643 274.312 96.7143 273.886 97.0246C273.46 97.3226 273.111 97.7332 272.84 98.2565C272.568 98.7674 272.425 99.3614 272.408 100.038L273.056 100.719C273.066 100.312 273.124 99.9688 273.229 99.688C273.347 99.3952 273.513 99.1712 273.726 99.016C273.939 98.8609 274.194 98.7867 274.489 98.7936C274.735 98.7993 274.937 98.8471 275.095 98.937C275.266 99.0148 275.429 99.1295 275.586 99.2809ZM277.057 101.07C277.035 101.944 277.219 102.724 277.609 103.411C278.011 104.085 278.558 104.615 279.251 105C279.956 105.386 280.757 105.59 281.656 105.611C282.554 105.631 283.359 105.465 284.07 105.112C284.793 104.76 285.365 104.256 285.788 103.601C286.223 102.933 286.452 102.163 286.473 101.289C286.495 100.403 286.305 99.6223 285.902 98.9479C285.513 98.2737 284.965 97.7438 284.26 97.3579C283.568 96.9724 282.772 96.7691 281.874 96.7483C280.975 96.7274 280.164 96.8933 279.441 97.246C278.731 97.5989 278.158 98.1029 277.723 98.7579C277.3 99.4131 277.078 100.184 277.057 101.07ZM279.494 101.127C279.506 100.647 279.614 100.224 279.82 99.8596C280.039 99.4952 280.323 99.2185 280.672 99.0296C281.022 98.8406 281.406 98.751 281.824 98.7608C282.243 98.7705 282.622 98.8778 282.962 99.0828C283.302 99.2877 283.565 99.5771 283.753 99.9509C283.953 100.325 284.048 100.752 284.036 101.232C284.024 101.712 283.909 102.134 283.691 102.499C283.485 102.851 283.207 103.128 282.857 103.329C282.508 103.518 282.124 103.608 281.705 103.598C281.287 103.588 280.908 103.481 280.568 103.276C280.228 103.059 279.958 102.769 279.758 102.407C279.57 102.034 279.482 101.607 279.494 101.127ZM286.846 97.0485L290.795 106.211L293.587 100.863L296.187 106.336L300.564 97.3672L298.035 97.3084L296.035 101.991L293.675 96.5606L291.143 101.859L289.394 97.1077L286.846 97.0485Z" fill="#303030"/>
<path d="M257.165 110.44L258.81 113.248L260.592 110.519L260.89 113.845L262.148 113.874L261.422 107.65L258.855 111.408L256.476 107.535L255.446 113.719L256.703 113.748L257.165 110.44ZM263.8 112.705C263.802 112.592 263.83 112.5 263.882 112.428C263.935 112.351 264.015 112.293 264.123 112.256C264.231 112.214 264.37 112.195 264.538 112.198C264.747 112.203 264.943 112.236 265.127 112.297C265.317 112.357 265.487 112.446 265.636 112.562L265.648 112.055C265.594 111.987 265.503 111.914 265.375 111.838C265.247 111.762 265.088 111.696 264.898 111.641C264.714 111.586 264.498 111.556 264.25 111.55C263.766 111.539 263.39 111.64 263.12 111.853C262.85 112.066 262.71 112.362 262.701 112.739C262.694 113.003 262.751 113.229 262.87 113.418C262.995 113.601 263.16 113.743 263.366 113.843C263.572 113.944 263.796 113.997 264.038 114.003C264.274 114.008 264.5 113.971 264.716 113.892C264.938 113.812 265.118 113.69 265.257 113.524C265.402 113.359 265.478 113.152 265.484 112.904L265.361 112.395C265.357 112.581 265.311 112.74 265.223 112.873C265.135 113.001 265.023 113.099 264.886 113.169C264.749 113.234 264.597 113.264 264.428 113.26C264.31 113.257 264.2 113.235 264.1 113.193C264.006 113.146 263.931 113.082 263.877 113.002C263.823 112.917 263.797 112.817 263.8 112.705ZM263.416 111.117C263.474 111.079 263.562 111.033 263.682 110.979C263.801 110.926 263.943 110.881 264.107 110.846C264.271 110.81 264.443 110.794 264.624 110.799C264.742 110.801 264.848 110.815 264.943 110.84C265.039 110.865 265.119 110.903 265.186 110.955C265.257 111.008 265.309 111.073 265.341 111.153C265.373 111.227 265.388 111.317 265.385 111.424L265.323 113.948L266.378 113.972L266.446 111.221C266.452 110.956 266.385 110.732 266.243 110.549C266.101 110.36 265.902 110.215 265.645 110.113C265.389 110.011 265.095 109.957 264.763 109.949C264.403 109.94 264.075 109.984 263.78 110.078C263.485 110.167 263.235 110.262 263.03 110.365L263.416 111.117ZM268.563 110.138L267.491 110.114L267.395 113.996L268.467 114.021L268.563 110.138ZM269.674 111.304L270.195 110.387C270.119 110.284 270.016 110.206 269.888 110.152C269.766 110.099 269.634 110.07 269.493 110.067C269.291 110.062 269.092 110.131 268.897 110.273C268.702 110.409 268.543 110.597 268.419 110.836C268.295 111.07 268.229 111.341 268.221 111.651L268.518 111.962C268.522 111.776 268.549 111.619 268.597 111.49C268.651 111.357 268.727 111.254 268.824 111.183C268.921 111.112 269.038 111.078 269.173 111.082C269.285 111.084 269.378 111.106 269.45 111.147C269.528 111.183 269.602 111.235 269.674 111.304ZM270.821 107.488L270.659 114.072L271.714 114.096L271.876 107.513L270.821 107.488ZM273.236 110.247L271.525 111.812L273.317 114.134L274.617 114.164L272.833 111.842L274.544 110.277L273.236 110.247ZM276.899 114.301C277.366 114.312 277.767 114.231 278.104 114.059C278.446 113.881 278.723 113.612 278.934 113.251L277.988 112.933C277.871 113.116 277.724 113.254 277.547 113.345C277.376 113.431 277.17 113.472 276.928 113.466C276.714 113.461 276.532 113.409 276.382 113.31C276.233 113.21 276.121 113.07 276.047 112.888C275.978 112.706 275.947 112.486 275.953 112.227C275.965 111.957 276.01 111.733 276.088 111.555C276.171 111.371 276.284 111.236 276.427 111.149C276.576 111.056 276.757 111.013 276.971 111.018C277.145 111.022 277.296 111.065 277.424 111.147C277.551 111.228 277.647 111.338 277.711 111.474C277.781 111.611 277.814 111.775 277.809 111.966C277.808 112.006 277.796 112.056 277.772 112.117C277.753 112.173 277.732 112.218 277.709 112.251L278.014 111.87L275.49 111.811L275.474 112.486L278.951 112.567C278.958 112.533 278.962 112.488 278.963 112.432C278.97 112.376 278.974 112.323 278.975 112.272C278.986 111.856 278.916 111.499 278.765 111.203C278.615 110.901 278.39 110.671 278.09 110.512C277.795 110.347 277.434 110.26 277.007 110.25C276.579 110.24 276.206 110.316 275.886 110.477C275.567 110.633 275.317 110.861 275.135 111.161C274.959 111.455 274.865 111.811 274.855 112.227C274.845 112.638 274.921 112.997 275.082 113.305C275.249 113.607 275.488 113.846 275.799 114.022C276.11 114.199 276.477 114.291 276.899 114.301ZM279.348 110.389L279.326 111.309L281.723 111.365L281.746 110.445L279.348 110.389ZM280.048 109.054L279.92 114.287L280.975 114.312L281.104 109.079L280.048 109.054ZM282.314 108.955C282.309 109.129 282.371 109.277 282.497 109.398C282.624 109.519 282.777 109.582 282.957 109.586C283.137 109.59 283.29 109.535 283.417 109.419C283.549 109.304 283.618 109.159 283.622 108.985C283.626 108.805 283.565 108.657 283.439 108.542C283.318 108.421 283.167 108.358 282.987 108.354C282.807 108.35 282.651 108.405 282.519 108.52C282.387 108.63 282.318 108.775 282.314 108.955ZM282.395 110.46L282.3 114.342L283.363 114.367L283.459 110.484L282.395 110.46ZM287.088 112.089L287.03 114.452L288.161 114.478L288.222 111.997C288.234 111.53 288.13 111.164 287.912 110.9C287.693 110.631 287.353 110.49 286.892 110.48C286.616 110.473 286.378 110.527 286.178 110.641C285.984 110.749 285.825 110.911 285.702 111.128L285.716 110.537L284.619 110.511L284.523 114.394L285.621 114.419L285.679 112.056C285.683 111.893 285.717 111.753 285.782 111.636C285.847 111.52 285.939 111.432 286.059 111.372C286.179 111.308 286.315 111.277 286.466 111.281C286.692 111.286 286.853 111.357 286.951 111.495C287.049 111.632 287.095 111.83 287.088 112.089ZM289.046 114.769C289.06 115.107 289.143 115.408 289.294 115.67C289.451 115.938 289.679 116.146 289.98 116.294C290.28 116.448 290.655 116.529 291.105 116.54C291.477 116.549 291.822 116.483 292.141 116.344C292.459 116.211 292.715 115.992 292.908 115.687C293.107 115.382 293.213 114.99 293.224 114.512L293.318 110.713L292.263 110.689L292.169 114.487C292.163 114.752 292.107 114.97 292.001 115.142C291.901 115.314 291.769 115.441 291.603 115.521C291.444 115.602 291.274 115.64 291.094 115.636C290.897 115.631 290.726 115.594 290.581 115.523C290.437 115.452 290.324 115.353 290.242 115.228C290.161 115.108 290.119 114.963 290.118 114.794L289.046 114.769ZM289.025 112.522C289.015 112.95 289.093 113.315 289.26 113.617C289.427 113.914 289.653 114.142 289.936 114.3C290.219 114.459 290.521 114.542 290.842 114.549C291.168 114.557 291.457 114.487 291.708 114.341C291.965 114.19 292.168 113.966 292.316 113.671C292.47 113.377 292.552 113.021 292.562 112.605C292.572 112.182 292.508 111.823 292.369 111.528C292.235 111.226 292.044 110.994 291.795 110.83C291.551 110.667 291.266 110.581 290.94 110.574C290.619 110.566 290.313 110.635 290.022 110.78C289.732 110.926 289.495 111.145 289.314 111.44C289.132 111.728 289.036 112.089 289.025 112.522ZM290.156 112.549C290.162 112.312 290.215 112.116 290.314 111.961C290.414 111.8 290.546 111.679 290.712 111.599C290.877 111.518 291.052 111.48 291.238 111.484C291.362 111.487 291.482 111.515 291.599 111.569C291.716 111.617 291.822 111.687 291.915 111.779C292.014 111.871 292.09 111.986 292.143 112.122C292.196 112.258 292.22 112.416 292.216 112.596C292.21 112.833 292.154 113.031 292.049 113.192C291.95 113.348 291.82 113.466 291.66 113.546C291.506 113.622 291.348 113.657 291.185 113.654C290.999 113.649 290.826 113.603 290.665 113.515C290.503 113.427 290.377 113.303 290.285 113.143C290.194 112.977 290.151 112.779 290.156 112.549ZM296.442 109.849L298.029 109.886L297.911 114.705L299.118 114.733L299.236 109.914L300.831 109.951L300.858 108.862L296.469 108.76L296.442 109.849ZM301.789 110.91L300.717 110.885L300.622 114.768L301.694 114.793L301.789 110.91ZM302.9 112.076L303.421 111.159C303.345 111.056 303.243 110.978 303.115 110.924C302.992 110.871 302.86 110.842 302.72 110.839C302.517 110.834 302.318 110.903 302.123 111.045C301.929 111.181 301.769 111.369 301.645 111.608C301.521 111.841 301.455 112.113 301.448 112.422L301.744 112.733C301.749 112.548 301.775 112.391 301.823 112.262C301.877 112.128 301.953 112.026 302.05 111.955C302.148 111.884 302.264 111.85 302.399 111.853C302.512 111.856 302.604 111.878 302.676 111.919C302.754 111.955 302.829 112.007 302.9 112.076ZM304.717 113.655C304.719 113.543 304.747 113.451 304.799 113.379C304.852 113.301 304.932 113.244 305.04 113.207C305.148 113.164 305.287 113.145 305.455 113.149C305.664 113.154 305.86 113.186 306.044 113.247C306.234 113.308 306.404 113.396 306.553 113.512L306.565 113.006C306.511 112.937 306.42 112.864 306.292 112.788C306.164 112.712 306.005 112.647 305.815 112.591C305.631 112.537 305.415 112.506 305.167 112.5C304.683 112.489 304.306 112.59 304.037 112.803C303.767 113.017 303.627 113.312 303.618 113.689C303.611 113.953 303.668 114.18 303.787 114.368C303.912 114.552 304.077 114.693 304.283 114.794C304.489 114.894 304.713 114.947 304.955 114.953C305.191 114.958 305.417 114.922 305.633 114.842C305.855 114.763 306.035 114.64 306.174 114.475C306.319 114.309 306.395 114.103 306.401 113.855L306.278 113.345C306.274 113.531 306.227 113.69 306.14 113.824C306.052 113.951 305.94 114.05 305.803 114.12C305.666 114.184 305.514 114.214 305.345 114.21C305.227 114.208 305.117 114.185 305.017 114.144C304.923 114.096 304.848 114.033 304.794 113.953C304.74 113.867 304.714 113.768 304.717 113.655ZM304.333 112.067C304.391 112.029 304.479 111.983 304.599 111.93C304.718 111.876 304.86 111.832 305.024 111.796C305.188 111.761 305.36 111.745 305.54 111.749C305.659 111.752 305.765 111.765 305.86 111.79C305.955 111.815 306.036 111.853 306.102 111.906C306.174 111.958 306.226 112.024 306.258 112.103C306.29 112.177 306.305 112.268 306.302 112.375L306.24 114.898L307.295 114.923L307.363 112.171C307.369 111.907 307.302 111.683 307.16 111.499C307.018 111.31 306.819 111.165 306.562 111.063C306.306 110.962 306.012 110.907 305.68 110.899C305.319 110.891 304.992 110.934 304.697 111.028C304.402 111.117 304.152 111.213 303.947 111.315L304.333 112.067ZM308.078 111.056L308.056 111.976L310.487 112.033L310.509 111.113L308.078 111.056ZM310.43 109.506L310.915 108.698C310.866 108.641 310.797 108.58 310.708 108.516C310.625 108.452 310.522 108.399 310.4 108.357C310.277 108.309 310.128 108.283 309.954 108.279C309.661 108.272 309.412 108.323 309.207 108.431C309.002 108.533 308.846 108.684 308.74 108.884C308.634 109.085 308.577 109.334 308.569 109.632L308.439 114.949L309.494 114.974L309.618 109.901C309.622 109.755 309.642 109.634 309.678 109.54C309.714 109.445 309.761 109.378 309.818 109.34C309.881 109.297 309.955 109.276 310.039 109.278C310.107 109.279 310.174 109.298 310.24 109.333C310.313 109.363 310.376 109.421 310.43 109.506ZM310.831 111.12L310.809 112.04L313.24 112.097L313.262 111.177L310.831 111.12ZM313.184 109.57L313.668 108.762C313.619 108.705 313.55 108.644 313.461 108.58C313.378 108.516 313.276 108.463 313.153 108.421C313.03 108.373 312.881 108.347 312.707 108.343C312.414 108.336 312.165 108.387 311.96 108.495C311.755 108.597 311.599 108.748 311.493 108.948C311.387 109.149 311.33 109.398 311.322 109.696L311.192 115.013L312.247 115.038L312.372 109.965C312.375 109.819 312.395 109.698 312.431 109.604C312.467 109.509 312.514 109.442 312.571 109.404C312.634 109.361 312.708 109.34 312.792 109.342C312.86 109.343 312.927 109.362 312.994 109.397C313.066 109.427 313.129 109.485 313.184 109.57ZM313.9 109.688C313.896 109.863 313.957 110.011 314.083 110.132C314.21 110.253 314.363 110.316 314.543 110.32C314.723 110.324 314.877 110.268 315.003 110.153C315.136 110.038 315.204 109.893 315.208 109.719C315.213 109.539 315.152 109.391 315.025 109.275C314.904 109.154 314.754 109.092 314.573 109.088C314.393 109.083 314.237 109.139 314.105 109.254C313.973 109.363 313.904 109.508 313.9 109.688ZM313.981 111.193L313.886 115.076L314.949 115.101L315.045 111.218L313.981 111.193ZM316.985 113.206C316.99 112.986 317.045 112.793 317.151 112.627C317.256 112.46 317.395 112.331 317.566 112.239C317.743 112.142 317.935 112.096 318.143 112.101C318.301 112.105 318.458 112.134 318.614 112.188C318.771 112.242 318.912 112.319 319.039 112.417C319.172 112.51 319.271 112.62 319.335 112.745L319.363 111.623C319.231 111.501 319.056 111.404 318.838 111.332C318.626 111.254 318.376 111.211 318.089 111.204C317.679 111.195 317.305 111.271 316.969 111.432C316.639 111.593 316.374 111.823 316.175 112.123C315.982 112.422 315.88 112.775 315.87 113.18C315.861 113.579 315.945 113.936 316.123 114.25C316.307 114.558 316.56 114.8 316.882 114.977C317.21 115.153 317.579 115.246 317.99 115.256C318.277 115.262 318.528 115.235 318.744 115.172C318.965 115.104 319.144 115.01 319.283 114.889L319.31 113.766C319.24 113.889 319.138 113.996 319.007 114.089C318.881 114.176 318.738 114.246 318.579 114.298C318.42 114.345 318.257 114.367 318.088 114.363C317.88 114.358 317.689 114.306 317.517 114.206C317.351 114.106 317.219 113.971 317.122 113.8C317.025 113.629 316.979 113.431 316.985 113.206Z" fill="#303030"/>
<ellipse cx="230.941" cy="103.427" rx="17.6906" ry="17.7275" transform="rotate(21.7327 230.941 103.427)" fill="#CFDDFF"/>
<g filter="url(#filter2_d_143_25052)">
<ellipse cx="230.942" cy="103.427" rx="9.18119" ry="9.20036" transform="rotate(21.7327 230.942 103.427)" fill="#2562FF"/>
<path d="M239.226 106.729C237.398 111.315 232.208 113.552 227.633 111.729C223.059 109.905 220.831 104.711 222.659 100.126C224.486 95.5404 229.677 93.3027 234.251 95.1261C238.826 96.9495 241.053 102.144 239.226 106.729Z" stroke="#CAD9FF" stroke-width="0.527677"/>
</g>
<path d="M134.287 148L132.796 295.766M269.711 149.251L268.22 297.017M203.04 148.635L201.549 296.401M337.77 149.879L336.278 297.646M167.622 148.308L166.13 296.074M303.74 149.565L302.249 297.331M236.375 148.943L234.884 296.709M371.799 150.194L370.308 297.96M104.941 269.34L404.261 272.105M105.579 206.139L404.899 208.903M105.254 238.185L404.575 240.949M105.901 174.093L405.221 176.858" stroke="#B1938A" stroke-width="0.411357"/>
<path d="M126.9 286L195.977 226.681L220.4 258L275.9 212L319.722 262.876L383.9 193" stroke="url(#paint5_linear_143_25052)" stroke-width="8" stroke-linecap="round"/>
<g filter="url(#filter3_d_143_25052)">
<ellipse cx="276.627" cy="212.741" rx="12.0979" ry="12.1232" transform="rotate(21.7327 276.627 212.741)" fill="white"/>
<path d="M286.007 216.48C283.935 221.677 278.055 224.208 272.878 222.145C267.702 220.081 265.175 214.199 267.247 209.002C269.318 203.805 275.198 201.274 280.375 203.337C285.552 205.401 288.079 211.283 286.007 216.48Z" stroke="#16919D" stroke-width="4"/>
</g>
<g filter="url(#filter4_d_143_25052)">
<ellipse cx="218.627" cy="258.741" rx="12.0979" ry="12.1232" transform="rotate(21.7327 218.627 258.741)" fill="white"/>
<path d="M228.007 262.48C225.935 267.677 220.055 270.208 214.878 268.145C209.702 266.081 207.175 260.199 209.247 255.002C211.318 249.805 217.198 247.274 222.375 249.337C227.552 251.401 230.079 257.283 228.007 262.48Z" stroke="#3D95CF" stroke-width="4"/>
</g>
<g filter="url(#filter5_d_143_25052)">
<ellipse cx="321.627" cy="258.741" rx="12.0979" ry="12.1232" transform="rotate(21.7327 321.627 258.741)" fill="white"/>
<path d="M331.007 262.48C328.935 267.677 323.055 270.208 317.878 268.145C312.702 266.081 310.175 260.199 312.247 255.002C314.318 249.805 320.198 247.274 325.375 249.337C330.552 251.401 333.079 257.283 331.007 262.48Z" stroke="#3DC39E" stroke-width="4"/>
</g>
<g filter="url(#filter6_d_143_25052)">
<ellipse cx="192.604" cy="227.718" rx="12.0803" ry="12.1055" transform="rotate(21.7327 192.604 227.718)" fill="white"/>
<path d="M201.968 231.451C199.9 236.639 194.03 239.165 188.862 237.105C183.694 235.045 181.172 229.174 183.24 223.986C185.308 218.798 191.178 216.271 196.346 218.331C201.514 220.391 204.036 226.263 201.968 231.451Z" stroke="#3C88DC" stroke-width="4"/>
</g>
<defs>
<filter id="filter0_i_143_25052" x="29.2974" y="54.5862" width="161.116" height="85.0168" filterUnits="userSpaceOnUse" color-interpolation-filters="sRGB">
<feFlood flood-opacity="0" result="BackgroundImageFix"/>
<feBlend mode="normal" in="SourceGraphic" in2="BackgroundImageFix" result="shape"/>
<feColorMatrix in="SourceAlpha" type="matrix" values="0 0 0 0 0 0 0 0 0 0 0 0 0 0 0 0 0 0 127 0" result="hardAlpha"/>
<feOffset dx="-1.02691" dy="1.02691"/>
<feComposite in2="hardAlpha" operator="arithmetic" k2="-1" k3="1"/>
<feColorMatrix type="matrix" values="0 0 0 0 1 0 0 0 0 1 0 0 0 0 1 0 0 0 1 0"/>
<feBlend mode="normal" in2="shape" result="effect1_innerShadow_143_25052"/>
</filter>
<filter id="filter1_i_143_25052" x="202.828" y="71.1023" width="130.585" height="64.25" filterUnits="userSpaceOnUse" color-interpolation-filters="sRGB">
<feFlood flood-opacity="0" result="BackgroundImageFix"/>
<feBlend mode="normal" in="SourceGraphic" in2="BackgroundImageFix" result="shape"/>
<feColorMatrix in="SourceAlpha" type="matrix" values="0 0 0 0 0 0 0 0 0 0 0 0 0 0 0 0 0 0 127 0" result="hardAlpha"/>
<feOffset dx="-1.02691" dy="1.02691"/>
<feComposite in2="hardAlpha" operator="arithmetic" k2="-1" k3="1"/>
<feColorMatrix type="matrix" values="0 0 0 0 1 0 0 0 0 1 0 0 0 0 1 0 0 0 1 0"/>
<feBlend mode="normal" in2="shape" result="effect1_innerShadow_143_25052"/>
</filter>
<filter id="filter2_d_143_25052" x="220.173" y="94.2273" width="24.7047" height="25.2602" filterUnits="userSpaceOnUse" color-interpolation-filters="sRGB">
<feFlood flood-opacity="0" result="BackgroundImageFix"/>
<feColorMatrix in="SourceAlpha" type="matrix" values="0 0 0 0 0 0 0 0 0 0 0 0 0 0 0 0 0 0 127 0" result="hardAlpha"/>
<feOffset dx="1.58303" dy="3.69374"/>
<feGaussianBlur stdDeviation="1.58303"/>
<feComposite in2="hardAlpha" operator="out"/>
<feColorMatrix type="matrix" values="0 0 0 0 0.66125 0 0 0 0 0.717563 0 0 0 0 0.8625 0 0 0 1 0"/>
<feBlend mode="normal" in2="BackgroundImageFix" result="effect1_dropShadow_143_25052"/>
<feBlend mode="normal" in="SourceGraphic" in2="effect1_dropShadow_143_25052" result="shape"/>
</filter>
<filter id="filter3_d_143_25052" x="262.731" y="200.618" width="31.3727" height="32.0062" filterUnits="userSpaceOnUse" color-interpolation-filters="sRGB">
<feFlood flood-opacity="0" result="BackgroundImageFix"/>
<feColorMatrix in="SourceAlpha" type="matrix" values="0 0 0 0 0 0 0 0 0 0 0 0 0 0 0 0 0 0 127 0" result="hardAlpha"/>
<feOffset dx="1.79086" dy="4.17866"/>
<feGaussianBlur stdDeviation="1.79086"/>
<feComposite in2="hardAlpha" operator="out"/>
<feColorMatrix type="matrix" values="0 0 0 0 0.875 0 0 0 0 0.73125 0 0 0 0 0.707292 0 0 0 1 0"/>
<feBlend mode="multiply" in2="BackgroundImageFix" result="effect1_dropShadow_143_25052"/>
<feBlend mode="normal" in="SourceGraphic" in2="effect1_dropShadow_143_25052" result="shape"/>
</filter>
<filter id="filter4_d_143_25052" x="204.731" y="246.618" width="31.3727" height="32.0062" filterUnits="userSpaceOnUse" color-interpolation-filters="sRGB">
<feFlood flood-opacity="0" result="BackgroundImageFix"/>
<feColorMatrix in="SourceAlpha" type="matrix" values="0 0 0 0 0 0 0 0 0 0 0 0 0 0 0 0 0 0 127 0" result="hardAlpha"/>
<feOffset dx="1.79086" dy="4.17866"/>
<feGaussianBlur stdDeviation="1.79086"/>
<feComposite in2="hardAlpha" operator="out"/>
<feColorMatrix type="matrix" values="0 0 0 0 0.875 0 0 0 0 0.73125 0 0 0 0 0.707292 0 0 0 1 0"/>
<feBlend mode="multiply" in2="BackgroundImageFix" result="effect1_dropShadow_143_25052"/>
<feBlend mode="normal" in="SourceGraphic" in2="effect1_dropShadow_143_25052" result="shape"/>
</filter>
<filter id="filter5_d_143_25052" x="307.731" y="246.618" width="31.3727" height="32.0062" filterUnits="userSpaceOnUse" color-interpolation-filters="sRGB">
<feFlood flood-opacity="0" result="BackgroundImageFix"/>
<feColorMatrix in="SourceAlpha" type="matrix" values="0 0 0 0 0 0 0 0 0 0 0 0 0 0 0 0 0 0 127 0" result="hardAlpha"/>
<feOffset dx="1.79086" dy="4.17866"/>
<feGaussianBlur stdDeviation="1.79086"/>
<feComposite in2="hardAlpha" operator="out"/>
<feColorMatrix type="matrix" values="0 0 0 0 0.875 0 0 0 0 0.73125 0 0 0 0 0.707292 0 0 0 1 0"/>
<feBlend mode="multiply" in2="BackgroundImageFix" result="effect1_dropShadow_143_25052"/>
<feBlend mode="normal" in="SourceGraphic" in2="effect1_dropShadow_143_25052" result="shape"/>
</filter>
<filter id="filter6_d_143_25052" x="178.726" y="215.613" width="31.3372" height="31.9711" filterUnits="userSpaceOnUse" color-interpolation-filters="sRGB">
<feFlood flood-opacity="0" result="BackgroundImageFix"/>
<feColorMatrix in="SourceAlpha" type="matrix" values="0 0 0 0 0 0 0 0 0 0 0 0 0 0 0 0 0 0 127 0" result="hardAlpha"/>
<feOffset dx="1.79086" dy="4.17866"/>
<feGaussianBlur stdDeviation="1.79086"/>
<feComposite in2="hardAlpha" operator="out"/>
<feColorMatrix type="matrix" values="0 0 0 0 0.875 0 0 0 0 0.73125 0 0 0 0 0.707292 0 0 0 1 0"/>
<feBlend mode="multiply" in2="BackgroundImageFix" result="effect1_dropShadow_143_25052"/>
<feBlend mode="normal" in="SourceGraphic" in2="effect1_dropShadow_143_25052" result="shape"/>
</filter>
<linearGradient id="paint0_linear_143_25052" x1="146.232" y1="30.4321" x2="11.7943" y2="1.06736" gradientUnits="userSpaceOnUse">
<stop stop-color="#F4F4F4"/>
<stop offset="0.421875" stop-color="#F4F4F4"/>
<stop offset="1" stop-color="white"/>
</linearGradient>
<linearGradient id="paint1_linear_143_25052" x1="109.785" y1="68.3843" x2="109.358" y2="136.402" gradientUnits="userSpaceOnUse">
<stop stop-color="#DADADA"/>
<stop offset="1" stop-color="white" stop-opacity="0"/>
</linearGradient>
<linearGradient id="paint2_linear_143_25052" x1="108.862" y1="97.0059" x2="108.345" y2="121.765" gradientUnits="userSpaceOnUse">
<stop stop-color="#65D2E5"/>
<stop offset="1" stop-color="white" stop-opacity="0"/>
</linearGradient>
<linearGradient id="paint3_linear_143_25052" x1="109.182" y1="85.6691" x2="108.38" y2="130.802" gradientUnits="userSpaceOnUse">
<stop stop-color="#6865E5"/>
<stop offset="1" stop-color="white" stop-opacity="0"/>
</linearGradient>
<linearGradient id="paint4_linear_143_25052" x1="118.88" y1="23.2751" x2="10.2306" y2="-1.95031" gradientUnits="userSpaceOnUse">
<stop stop-color="#F4F4F4"/>
<stop offset="0.421875" stop-color="#F4F4F4"/>
<stop offset="1" stop-color="white"/>
</linearGradient>
<linearGradient id="paint5_linear_143_25052" x1="343.03" y1="185.962" x2="131.69" y2="245.963" gradientUnits="userSpaceOnUse">
<stop stop-color="#035C36"/>
<stop offset="1" stop-color="#0032E2"/>
</linearGradient>
</defs>
</svg>
