<svg width="361" height="317" viewBox="0 0 361 317" fill="none" xmlns="http://www.w3.org/2000/svg">
<path fill-rule="evenodd" clip-rule="evenodd" d="M175.375 61.0668C206.537 68.5002 232.17 81.2848 258.979 96.9581C296.898 119.126 361.579 129.883 360.996 169.584C360.412 209.384 290.805 213.635 256.874 240.382C226.294 264.489 216.045 309.693 175.375 315.909C131.878 322.557 90.2854 297.76 59.0776 270.612C27.8933 243.484 12.2647 207.665 7.16778 169.584C1.22726 125.201 -12.8189 68.6139 28.4757 41.9731C69.7975 15.3148 125.742 49.2272 175.375 61.0668Z" fill="#5FC5FF"/>
<g clip-path="url(#clip0_660_5157)">
<path d="M89.8587 0.000167703L55.0039 248.226L234.728 273.443L269.583 25.2173L89.8587 0.000167703Z" fill="#534741"/>
<path d="M248.591 262.348H66.8125V32.1662L92.7939 11.5979H248.591V262.348Z" fill="#F2F2F2"/>
<path d="M67.1641 32.2237L87.2508 38.399L92.7953 11.6267L67.1641 32.2237Z" fill="#DDDDDD"/>
<path d="M234.204 52.3508H81.2031V57.6247H234.204V52.3508Z" fill="#E6E6E6"/>
<path d="M234.204 72.4875H81.2031V77.7615H234.204V72.4875Z" fill="#E6E6E6"/>
<path d="M234.204 92.6243H81.2031V97.4187H234.204V92.6243Z" fill="#E6E6E6"/>
<path d="M234.204 112.282H81.2031V117.556H234.204V112.282Z" fill="#E6E6E6"/>
<path d="M234.204 132.418H81.2031V137.213H234.204V132.418Z" fill="#E6E6E6"/>
<path d="M234.204 151.596H81.2031V156.87H234.204V151.596Z" fill="#E6E6E6"/>
<path d="M159.382 171.733H81.2031V177.007H159.382V171.733Z" fill="#E6E6E6"/>
<path d="M132.044 205.294H88.3984V209.609H132.044V205.294Z" fill="#FF6666"/>
<path d="M109.982 212.486H88.3984V216.801H109.982V212.486Z" fill="#FF6666"/>
<g style="mix-blend-mode:multiply">
<path d="M266.693 278.937L262.909 274.891L178.691 184.87L178.648 184.908L164.197 176.278L164.254 176.221L159.348 173.301L162 178.354L169.631 193.337L169.583 193.38L253.801 283.406L257.585 287.452L263.897 294.193L273.01 285.678L266.693 278.937Z" fill="#B3B3B3"/>
</g>
<path d="M172.105 190.318L168.945 193.013L248.988 286.762L252.147 284.067L172.105 190.318Z" fill="#EFBF26"/>
<path d="M175.257 187.639L172.094 190.337L252.136 284.086L255.299 281.388L175.257 187.639Z" fill="#F9CD53"/>
<path d="M178.473 184.657L175.312 187.359L255.456 281.03L258.616 278.328L178.473 184.657Z" fill="#EFBF26"/>
<path d="M159.82 172.73L168.991 192.977L178.382 184.966L159.82 172.73Z" fill="#C7B299"/>
<path d="M258.474 278.671L248.988 286.763L252.585 290.975L262.07 282.883L258.474 278.671Z" fill="#CE9124"/>
<path d="M262.063 282.903L252.578 290.995L258.575 298.019L268.06 289.926L262.063 282.903Z" fill="#F7414E"/>
<path d="M159.625 172.51L161.985 177.712L164.397 175.65L159.625 172.51Z" fill="#4D4D4D"/>
</g>
<defs>
<clipPath id="clip0_660_5157">
<rect width="218" height="298" fill="white" transform="translate(55)"/>
</clipPath>
</defs>
</svg>
