<svg width="417" height="343" viewBox="0 0 417 343" fill="none" xmlns="http://www.w3.org/2000/svg">
<path fill-rule="evenodd" clip-rule="evenodd" d="M329.812 45.8493C368.184 67.932 418.887 97.7021 416.735 141.928C414.48 188.269 353.663 205.288 320.475 237.718C299.824 257.897 282.847 279.343 259.181 295.882C230.993 315.582 204.503 341.678 170.135 342.785C132.562 343.995 96.7339 326.215 67.9527 302.04C36.9946 276.036 10.2863 242.674 3.49547 202.815C-3.37365 162.495 -0.74312 111.902 31.2067 86.3533C63.8773 60.2284 113.398 94.4969 153.562 82.8141C182.119 74.5074 194.042 36.6263 223.149 30.5217C259.19 22.963 297.902 27.4853 329.812 45.8493Z" fill="#5FC5FF"/>
<g clip-path="url(#clip0_458_12082)">
<path d="M128.02 130L149.33 125.89L190.21 135.26L210.92 139.58L211.22 167.89L165 176.41L133.81 167.16L122.02 149.82L128.02 130Z" fill="#FFBE9D"/>
<path d="M112.87 132.81L133 128.08C133 128.08 147.2 172 182.29 170.14C210.89 168.6 210.92 139.58 210.92 139.58L231.83 143.28C231.83 143.28 240.6 196.36 230.99 233.6C222.99 264.6 215.9 307.09 215.9 307.09H77L112.87 132.81Z" fill="#FF725E"/>
<path d="M316.641 268.84C316.641 268.84 259.351 168.48 249.001 155.59C237.721 141.49 228.711 143.12 228.711 143.12L222.641 210.74L271.351 279.85L283.001 284L316.641 268.84Z" fill="#FF725E"/>
<path d="M115.28 132.25C115.28 132.25 82.7205 134.86 71.0005 188.2C65.7205 212.33 59.0005 240.61 57.1205 259.62C55.7505 273.4 64.2705 287.74 78.0005 289.51L95.2605 292.7C99.8204 293.546 104.531 292.612 108.423 290.09C112.315 287.567 115.091 283.648 116.18 279.14L122 255L106.49 249.83L110.08 177.91L115.28 132.25Z" fill="#FF725E"/>
<path d="M234.51 180.59C234.585 180.831 234.635 181.079 234.66 181.33C234.74 181.87 234.85 182.59 234.98 183.48C235.05 183.96 235.13 184.48 235.21 185.04C235.29 185.6 235.33 186.23 235.4 186.9C235.53 188.23 235.7 189.75 235.77 191.44C236.002 195.393 236.029 199.355 235.85 203.31C235.614 208.152 235.13 212.978 234.4 217.77C233.66 222.87 232.72 227.69 231.76 232.05C230.8 236.41 229.86 240.32 229.05 243.6C228.24 246.88 227.54 249.51 227.05 251.33C226.81 252.2 226.61 252.9 226.47 253.43C226.412 253.677 226.332 253.918 226.23 254.15C226.251 253.896 226.298 253.645 226.37 253.4L226.85 251.28L228.7 243.51C229.47 240.23 230.39 236.32 231.3 231.95C232.21 227.58 233.15 222.78 233.9 217.69C234.65 212.6 235.16 207.69 235.38 203.29C235.6 198.89 235.61 194.83 235.38 191.46C235.33 189.78 235.2 188.26 235.09 186.93C235.037 186.263 234.987 185.643 234.94 185.07C234.894 184.497 234.834 183.977 234.76 183.51C234.67 182.61 234.59 181.89 234.53 181.35C234.502 181.098 234.495 180.844 234.51 180.59Z" fill="#263238"/>
<path d="M123.54 257.63C123.472 257.489 123.418 257.342 123.38 257.19C123.27 256.86 123.13 256.44 122.96 255.91L122.32 253.83C122.144 252.889 121.75 252.002 121.17 251.24C120.312 250.421 119.289 249.793 118.17 249.4C116.85 248.909 115.492 248.528 114.11 248.26C110.809 247.655 107.465 247.32 104.11 247.26H103.84V246.99L106.78 227.83C108.68 215.75 110.4 204.83 111.65 196.83L113.18 187.45C113.37 186.38 113.52 185.53 113.62 184.91C113.68 184.64 113.72 184.43 113.75 184.25C113.758 184.171 113.778 184.093 113.81 184.02C113.825 184.096 113.825 184.174 113.81 184.25C113.81 184.44 113.81 184.65 113.74 184.92C113.65 185.55 113.54 186.41 113.39 187.48C113.06 189.75 112.59 192.95 112.02 196.88C110.81 204.88 109.14 215.79 107.31 227.88C106.23 234.79 105.21 241.32 104.31 247.05L104.08 246.78C107.476 246.86 110.859 247.235 114.19 247.9C115.589 248.186 116.96 248.59 118.29 249.11C119.452 249.545 120.507 250.228 121.38 251.11C121.744 251.512 122.014 251.99 122.17 252.51L122.54 253.83L123.11 255.93C123.26 256.47 123.37 256.93 123.46 257.23C123.497 257.361 123.524 257.495 123.54 257.63Z" fill="#263238"/>
<path d="M78.6914 265.79C78.7298 265.335 78.8169 264.886 78.9514 264.45C79.272 263.247 79.6935 262.073 80.2114 260.94C81.9159 257.16 84.5735 253.888 87.9236 251.444C91.2737 249 95.2013 247.469 99.3214 247C100.559 246.849 101.807 246.809 103.051 246.88C103.507 246.883 103.96 246.941 104.401 247.05C102.73 247.073 101.062 247.18 99.4014 247.37C95.3751 247.92 91.5479 249.459 88.2619 251.85C84.9759 254.241 82.3337 257.408 80.5714 261.07C79.1814 263.9 78.8014 265.82 78.6914 265.79Z" fill="#263238"/>
<path d="M86.2188 239.22C86.4755 239.148 86.7428 239.121 87.0088 239.14C87.7235 239.127 88.4384 239.16 89.1488 239.24C93.9051 239.727 98.4195 241.578 102.149 244.57C102.711 245.018 103.245 245.498 103.749 246.01C104.099 246.38 104.279 246.59 104.249 246.62C104.219 246.65 103.369 245.92 101.929 244.86C100.048 243.487 98.0101 242.342 95.8588 241.45C93.699 240.572 91.4435 239.951 89.1388 239.6C87.3388 239.34 86.2188 239.3 86.2188 239.22Z" fill="#263238"/>
<path d="M119.931 170.14C119.858 169.667 119.832 169.188 119.851 168.71C119.851 167.8 119.791 166.47 119.681 164.84C119.379 160.591 118.652 156.384 117.511 152.28C116.352 148.179 114.78 144.205 112.821 140.42C112.071 138.96 111.421 137.81 110.951 137.02C110.688 136.623 110.463 136.201 110.281 135.76C110.599 136.115 110.88 136.5 111.121 136.91C111.651 137.67 112.351 138.8 113.121 140.24C115.194 144.005 116.831 147.994 118.001 152.13C119.148 156.27 119.819 160.528 120.001 164.82C120.061 166.46 120.061 167.82 120.001 168.72C120.021 169.194 119.997 169.67 119.931 170.14Z" fill="#263238"/>
<g opacity="0.3">
<path d="M233 225.38C241.31 211.31 241.48 193.03 234.24 178.38C236.563 193.986 236.059 209.883 232.75 225.31" fill="black"/>
</g>
<g opacity="0.3">
<path d="M159.119 241.29C152.819 243.15 144.119 243.6 137.949 241.29C142.749 248.11 152.019 250.58 160.059 248.36C168.099 246.14 175.519 238.09 176.149 229.77C172.249 235 165.419 239.44 159.119 241.29Z" fill="black"/>
</g>
<path d="M182.29 218.57C182.27 218.762 182.223 218.951 182.15 219.13C182.02 219.49 181.88 220.04 181.61 220.71C180.873 222.619 179.963 224.457 178.89 226.2C175.349 232.009 170.201 236.668 164.067 239.612C157.934 242.557 151.078 243.66 144.33 242.79C142.294 242.542 140.285 242.103 138.33 241.48C137.64 241.27 137.12 241.04 136.76 240.92C136.575 240.861 136.397 240.78 136.23 240.68C136.96 240.842 137.681 241.043 138.39 241.28C145.84 243.456 153.795 243.141 161.049 240.383C168.303 237.625 174.458 232.575 178.58 226C179.671 224.29 180.621 222.494 181.42 220.63C182 219.31 182.25 218.56 182.29 218.57Z" fill="#263238"/>
<path d="M112.061 288.59C112.061 288.59 111.981 288.69 111.811 288.86C111.554 289.101 111.284 289.328 111.001 289.54C109.955 290.32 108.795 290.934 107.561 291.36C105.724 291.97 103.807 292.307 101.871 292.36C99.5349 292.435 97.1963 292.351 94.8712 292.11C89.8712 291.68 85.4212 290.96 82.2112 290.38C80.6012 290.09 79.3012 289.84 78.4112 289.66C77.9423 289.587 77.4806 289.473 77.0312 289.32C77.505 289.315 77.9779 289.362 78.4412 289.46L82.2712 290.02C85.5012 290.5 89.9612 291.16 94.9112 291.59C97.2364 291.83 99.5742 291.927 101.911 291.88C103.807 291.84 105.689 291.537 107.501 290.98C109.129 290.408 110.665 289.603 112.061 288.59Z" fill="#263238"/>
<path d="M225.001 25.4601L229.111 21.4601C234.581 23.8501 237.111 30.2001 238.041 36.0901C238.971 41.9801 238.841 48.2001 241.341 53.6201C243.271 57.7801 246.761 61.6201 246.341 66.2201C245.941 70.5701 242.011 74.0901 241.981 78.4601C241.981 82.6701 245.481 85.9001 247.521 89.5801C251.661 97.0401 254.341 127.51 252.171 135.76C234.001 134.19 201.831 132.25 183.641 128.08C188.441 96.7701 208.601 52.5701 225.001 25.4601Z" fill="#263238"/>
<path d="M233.12 53.4C234.39 32.11 218.93 12.62 197.37 10.06C174.5 7.33004 154.27 23.72 152.38 46L147 135.93C146.903 137.671 147.389 139.395 148.38 140.83C153.66 148.55 163.23 154.58 171.77 155.77C180.04 156.92 188.44 154.77 195.47 150.86C196.638 150.197 197.611 149.239 198.293 148.083C198.976 146.927 199.344 145.612 199.36 144.27L199.73 124.14C199.729 124.122 199.731 124.103 199.738 124.086C199.744 124.068 199.755 124.053 199.768 124.04C199.782 124.028 199.798 124.018 199.816 124.013C199.834 124.008 199.852 124.007 199.87 124.01C201.751 124.152 203.641 124.098 205.51 123.85C210.84 122.55 224.41 117.34 228.96 97.42C230.48 90.81 232 72.06 233.12 53.4Z" fill="#FFBE9D"/>
<path d="M203.551 82.8C203.551 82.6 205.771 82.38 209.381 82.18C210.291 82.18 211.161 82.03 211.381 81.44C211.519 80.5204 211.369 79.5805 210.951 78.75C210.231 76.54 209.491 74.22 208.701 71.75C205.601 61.83 203.421 53.7 203.831 53.59C204.241 53.48 207.081 61.42 210.181 71.34C210.921 73.78 211.627 76.1133 212.301 78.34C212.581 79.34 213.101 80.56 212.551 81.87C212.394 82.1757 212.171 82.4423 211.897 82.65C211.624 82.8577 211.307 83.0013 210.971 83.07C210.46 83.1687 209.94 83.2023 209.421 83.17C205.781 83.14 203.551 83 203.551 82.8Z" fill="#263238"/>
<path d="M227.249 60.9201C226.849 61.3601 224.499 59.3701 221.109 59.2701C217.719 59.1701 215.209 60.9401 214.849 60.4801C214.669 60.2701 215.079 59.4801 216.179 58.6601C217.63 57.6115 219.391 57.0799 221.179 57.1501C222.975 57.194 224.703 57.8463 226.079 59.0001C227.099 59.9101 227.439 60.7301 227.249 60.9201Z" fill="#263238"/>
<path d="M192.902 61.7801C192.442 62.2101 189.992 59.9801 186.292 59.6701C182.592 59.3601 179.732 61.0401 179.372 60.5301C179.192 60.3101 179.682 59.5301 180.942 58.7101C182.618 57.6997 184.574 57.2545 186.522 57.4401C188.462 57.6121 190.293 58.4086 191.742 59.7101C192.812 60.7201 193.132 61.5901 192.902 61.7801Z" fill="#263238"/>
<path d="M199.74 124C199.74 124 185.97 124.15 169.48 112.83C169.48 112.83 173.74 131.01 199.63 130.44L199.74 124Z" fill="#EB996E"/>
<path d="M201.511 91.1101C200.882 90.2228 200.041 89.5072 199.065 89.0286C198.088 88.55 197.008 88.3236 195.921 88.3701C195.138 88.3846 194.365 88.5557 193.649 88.8734C192.933 89.1912 192.287 89.649 191.751 90.2201C191.242 90.7681 190.915 91.4608 190.817 92.2025C190.718 92.9442 190.852 93.6981 191.201 94.3601C192.081 95.7501 194.061 96.1901 195.781 95.8401C197.491 95.3766 199.092 94.5778 200.491 93.4901C200.91 93.2264 201.276 92.8874 201.571 92.4901C201.714 92.3069 201.799 92.0846 201.813 91.8525C201.827 91.6204 201.771 91.3895 201.651 91.1901" fill="#EB996E"/>
<path d="M193.001 84.49C193.581 84.49 193.341 88.28 196.461 91.2C199.581 94.12 203.721 93.99 203.711 94.52C203.711 94.76 202.711 95.1901 201.011 95.1201C198.757 94.9864 196.618 94.0826 194.951 92.56C193.358 91.1302 192.386 89.1355 192.241 87.0001C192.201 85.3501 192.691 84.45 193.001 84.49Z" fill="#263238"/>
<path d="M193.462 47.84C193.042 48.77 189.532 48.05 185.332 48.23C181.132 48.41 177.692 49.23 177.202 48.37C176.982 47.95 177.632 47.1 179.052 46.28C180.942 45.273 183.041 44.7248 185.182 44.68C187.334 44.5875 189.477 44.9984 191.442 45.88C192.922 46.6 193.642 47.4 193.462 47.84Z" fill="#263238"/>
<path d="M227.999 48.5901C227.289 49.3901 224.439 48.5901 220.999 48.5901C217.559 48.5901 214.689 49.1501 213.999 48.3201C213.709 47.9201 214.159 47.1201 215.409 46.3201C217.146 45.3789 219.105 44.9229 221.079 45.0001C223.05 45.0049 224.983 45.5477 226.669 46.5701C227.889 47.3901 228.289 48.2001 227.999 48.5901Z" fill="#263238"/>
<path d="M200.529 5.56005C198.679 2.40005 195.219 1.00005 191.359 0.37005C175.609 -1.99995 157.999 7.47005 149.189 20.73C140.379 33.9901 139.899 53.7801 146.359 68.3501L156.179 62.2001C175.909 54.0601 189.849 35.05 202.529 15.4101C204.259 12.7401 202.149 8.30005 200.529 5.56005Z" fill="#263238"/>
<path d="M224.769 14.22C218.179 6.73002 213.399 -0.779977 199.719 4.46002C197.719 8.29002 201.719 13.26 205.149 16.17C210.149 20.42 214.449 23.29 217.699 26.34C224.289 32.5 231.769 53.18 232.409 64.48C232.409 65.18 233.669 54.78 234.409 54.67C235.329 54.53 239.049 50 238.539 43.79C236.769 22.6 231.359 21.71 224.769 14.22Z" fill="#263238"/>
<path d="M191.359 0.370088C192.388 0.177006 193.45 0.270408 194.429 0.640088C196.852 1.37413 199.011 2.79064 200.649 4.72009C201.12 5.27405 201.538 5.86987 201.899 6.50009C202.207 7.10101 202.445 7.73512 202.609 8.39009C202.966 9.44647 203.237 10.53 203.419 11.6301C203.689 13.5601 203.229 14.7401 203.139 14.7001C203.049 14.6601 203.139 13.5201 202.759 11.7501C202.486 10.7015 202.153 9.66977 201.759 8.66009C201.586 8.06732 201.352 7.49423 201.059 6.95009C200.724 6.381 200.339 5.84229 199.909 5.34009C198.364 3.54091 196.404 2.14418 194.199 1.27009C192.509 0.630088 191.349 0.530088 191.359 0.370088Z" fill="#455A64"/>
<path d="M224.131 67.4301C224.151 68.2091 223.866 68.9652 223.338 69.5382C222.81 70.1112 222.079 70.4562 221.301 70.5001C220.921 70.5371 220.537 70.4978 220.172 70.3845C219.807 70.2713 219.469 70.0862 219.176 69.8403C218.884 69.5944 218.643 69.2926 218.469 68.9526C218.295 68.6125 218.19 68.2411 218.161 67.8601C218.139 67.0777 218.424 66.3176 218.955 65.7422C219.485 65.1668 220.22 64.8215 221.001 64.7801C221.382 64.7445 221.765 64.7851 222.13 64.8997C222.494 65.0142 222.832 65.2004 223.123 65.4472C223.415 65.694 223.654 65.9965 223.827 66.337C224 66.6775 224.104 67.0491 224.131 67.4301Z" fill="#263238"/>
<path d="M191.189 67.63C191.209 68.4091 190.924 69.1652 190.396 69.7382C189.868 70.3111 189.138 70.6561 188.359 70.7C187.979 70.7371 187.595 70.6978 187.23 70.5845C186.865 70.4712 186.527 70.2862 186.234 70.0403C185.942 69.7944 185.701 69.4926 185.527 69.1525C185.353 68.8125 185.248 68.4411 185.219 68.06C185.203 67.2827 185.488 66.5292 186.016 65.9583C186.544 65.3875 187.273 65.0439 188.049 65C188.429 64.963 188.812 65.0019 189.176 65.1146C189.541 65.2273 189.879 65.4114 190.171 65.6563C190.464 65.9011 190.704 66.2018 190.879 66.5407C191.054 66.8796 191.159 67.2499 191.189 67.63Z" fill="#263238"/>
<path d="M100.551 92.67C102.401 89.61 104.551 86.67 107.951 85.46C111.351 84.25 115.201 83.46 117.881 80.97C122.061 77.13 121.881 70.73 121.491 65.14C121.101 59.55 121.021 53.14 125.301 49.39C128.871 46.26 134.571 45.98 137.661 42.39C139.731 40 140.141 36.7 140.871 33.65C142.871 25.48 147.341 11.21 171.421 3L150.111 84C151.701 84.44 155.501 88.06 155.711 90.51C155.911 92.8 154.921 95.12 154.891 97.42C154.891 100.23 157.961 101.91 159.891 104C162.351 106.64 163.101 110.46 162.721 114C161.941 118.825 160.653 123.555 158.881 128.11C139.111 126.11 110.281 125.46 95.2112 112.86C92.4812 110.53 96.4012 99.49 100.551 92.67Z" fill="#263238"/>
<path d="M156.18 62.2C155.82 62 141.26 56.2 140.34 71.55C139.42 86.9 155 84.63 155 84.19C155 83.75 156.18 62.2 156.18 62.2Z" fill="#FFBE9D"/>
<path d="M150.699 78.1101C150.639 78.0501 150.419 78.2801 149.959 78.4601C149.307 78.6917 148.591 78.663 147.959 78.3801C146.379 77.6901 145.179 75.0401 145.269 72.2701C145.32 70.955 145.661 69.6674 146.269 68.5001C146.442 68.0313 146.726 67.6116 147.097 67.2771C147.468 66.9426 147.915 66.7034 148.399 66.5801C148.71 66.5151 149.034 66.5616 149.314 66.7116C149.593 66.8616 149.811 67.1053 149.929 67.4001C150.109 67.8401 149.999 68.1401 150.079 68.1701C150.159 68.2001 150.419 67.9401 150.339 67.3001C150.271 66.9152 150.078 66.5636 149.789 66.3001C149.386 65.9593 148.867 65.7874 148.339 65.8201C147.701 65.8997 147.093 66.142 146.575 66.5237C146.057 66.9054 145.645 67.4138 145.379 68.0001C144.646 69.2851 144.241 70.7311 144.199 72.2101C144.109 75.3001 145.519 78.2801 147.689 79.0501C148.092 79.1959 148.522 79.2491 148.948 79.2058C149.374 79.1625 149.784 79.0239 150.149 78.8001C150.649 78.4801 150.749 78.1401 150.699 78.1101Z" fill="#EB996E"/>
<path d="M210.641 66.2201C210.721 65.0636 210.881 63.9142 211.121 62.7801C211.875 59.7135 213.636 56.9883 216.121 55.0401C217.957 53.6116 220.12 52.6647 222.415 52.2857C224.71 51.9067 227.063 52.1076 229.261 52.8701C230.527 53.3018 231.72 53.9221 232.801 54.7101C233.951 55.5089 234.964 56.4882 235.801 57.6101C237.591 59.9565 238.583 62.8146 238.632 65.7657C238.681 68.7168 237.783 71.6059 236.071 74.0101C234.485 76.2641 232.269 78 229.701 79.0001C227.532 79.8363 225.187 80.1143 222.883 79.8086C220.578 79.5028 218.387 78.623 216.511 77.2501C213.951 75.3869 212.091 72.7173 211.231 69.6701C210.955 68.5486 210.758 67.4091 210.641 66.2601C210.629 66.3363 210.629 66.4138 210.641 66.4901C210.641 66.6701 210.641 66.8901 210.641 67.1601C210.64 67.5257 210.674 67.8906 210.741 68.2501C210.795 68.7475 210.892 69.2394 211.031 69.7201C211.717 72.3596 213.147 74.7467 215.15 76.5974C217.153 78.4481 219.645 79.6847 222.331 80.1601C224.86 80.6013 227.461 80.3526 229.861 79.4401C232.526 78.4419 234.829 76.6649 236.471 74.3401C238.254 71.8518 239.19 68.8563 239.142 65.7955C239.093 62.7347 238.062 59.7705 236.201 57.3401C235.336 56.1831 234.293 55.1705 233.111 54.3401C231.99 53.5232 230.748 52.8856 229.431 52.4501C227.164 51.6666 224.735 51.4694 222.371 51.8767C220.007 52.2841 217.785 53.2829 215.911 54.7801C213.369 56.788 211.602 59.6152 210.911 62.7801C210.791 63.2661 210.711 63.761 210.671 64.2601C210.612 64.6202 210.588 64.9853 210.601 65.3501V66.0001C210.6 66.0752 210.614 66.1499 210.641 66.2201Z" fill="#455A64"/>
<path d="M172.001 66.8301C172.083 65.6766 172.247 64.5304 172.491 63.4001C173.241 60.332 175.003 57.6057 177.491 55.6601C179.201 54.3262 181.202 53.4148 183.331 53.0001C185.769 52.5149 188.292 52.6875 190.641 53.5001C193.232 54.4067 195.499 56.0551 197.161 58.2401C198.947 60.589 199.935 63.4471 199.982 66.3974C200.029 69.3478 199.131 72.2358 197.421 74.6401C195.839 76.8963 193.627 78.6356 191.061 79.6401C188.739 80.5262 186.223 80.7782 183.771 80.3701C181.634 80.0162 179.61 79.1668 177.861 77.8901C175.302 76.0275 173.446 73.3572 172.591 70.3101C172.309 69.1861 172.108 68.0431 171.991 66.8901C171.981 66.9664 171.981 67.0438 171.991 67.1201C171.991 67.3101 171.991 67.5301 171.991 67.8001C171.99 68.1658 172.024 68.5307 172.091 68.8901C172.154 69.3861 172.251 69.8772 172.381 70.3601C173.077 72.9918 174.514 75.3686 176.52 77.2084C178.527 79.0483 181.019 80.274 183.701 80.7401C186.23 81.1808 188.831 80.9321 191.231 80.0201C193.892 79.0144 196.193 77.2389 197.841 74.9201C199.619 72.4295 200.552 69.434 200.502 66.374C200.451 63.3139 199.421 60.3507 197.561 57.9201C196.701 56.759 195.657 55.7457 194.471 54.9201C193.352 54.0981 192.114 53.4507 190.801 53.0001C188.372 52.172 185.765 52.0063 183.251 52.5201C180.574 53.0734 178.112 54.3863 176.162 56.3015C174.211 58.2168 172.853 60.6535 172.251 63.3201C172.13 63.8059 172.05 64.301 172.011 64.8001C171.952 65.1602 171.928 65.5254 171.941 65.8901V66.5701C172.001 66.7601 172.001 66.8401 172.001 66.8301Z" fill="#455A64"/>
<path d="M199.59 65.78C199.67 65.78 200.07 65.18 201 64.44C202.189 63.4465 203.682 62.889 205.232 62.8599C206.781 62.8308 208.294 63.3318 209.52 64.28C210.52 64.99 210.91 65.63 210.98 65.57C210.723 64.9429 210.297 64.3994 209.75 64C208.497 62.9036 206.881 62.3135 205.217 62.3449C203.553 62.3764 201.96 63.0271 200.75 64.17C200.225 64.5917 199.824 65.1482 199.59 65.78Z" fill="#455A64"/>
<path d="M152.672 61.2201C153.59 61.522 154.539 61.7199 155.502 61.8101C157.262 62.0801 159.712 62.3401 162.422 62.5801L169.342 63.2001C170.291 63.3524 171.251 63.426 172.212 63.4201C171.291 63.1311 170.342 62.9368 169.382 62.8401C167.622 62.5601 165.172 62.3001 162.462 62.0601L155.542 61.4401C154.592 61.2943 153.633 61.2208 152.672 61.2201Z" fill="#455A64"/>
<path d="M233 74.86C234.247 73.4058 235.259 71.7661 236 70C236.58 68.1834 236.87 66.2869 236.86 64.38C237.085 64.914 237.187 65.4914 237.16 66.07C237.237 68.8953 236.224 71.6419 234.33 73.74C233.973 74.205 233.519 74.5871 233 74.86Z" fill="white"/>
<path d="M235.38 59.0601C235.45 58.9401 236.02 59.2301 236.38 59.9101C236.74 60.5901 236.58 61.2101 236.44 61.2001C236.3 61.1901 236.18 60.6901 235.91 60.1401C235.64 59.5901 235.28 59.1801 235.38 59.0601Z" fill="white"/>
<path d="M197.661 71.84C197.764 71.1332 197.905 70.4323 198.081 69.74C198.377 68.063 198.377 66.3471 198.081 64.67C197.761 62.9987 197.156 61.3952 196.291 59.93C195.875 59.3513 195.491 58.7504 195.141 58.13C195.724 58.5664 196.219 59.1093 196.601 59.73C197.596 61.1908 198.277 62.8423 198.601 64.58C198.928 66.3124 198.887 68.0944 198.481 69.81C198.344 70.5342 198.065 71.2241 197.661 71.84Z" fill="white"/>
<path d="M144.469 84.0001C144.318 84.2939 144.147 84.5778 143.959 84.8501C143.538 85.6349 143.312 86.5095 143.299 87.4001C143.289 88.0474 143.409 88.6902 143.653 89.2899C143.897 89.8896 144.26 90.4338 144.719 90.8901C145.274 91.4559 145.958 91.8775 146.712 92.1179C147.467 92.3583 148.269 92.4102 149.048 92.2691C149.828 92.128 150.561 91.7983 151.183 91.3086C151.806 90.8189 152.299 90.1843 152.619 89.4601C152.897 88.8752 153.051 88.2389 153.07 87.5916C153.089 86.9443 152.973 86.3002 152.729 85.7001C152.418 84.8689 151.902 84.1295 151.229 83.5501C150.749 83.1301 150.429 82.9701 150.449 82.9301C150.785 83.0075 151.098 83.1653 151.359 83.3901C152.119 83.9435 152.714 84.6938 153.079 85.5601C153.365 86.2076 153.512 86.9075 153.512 87.6151C153.512 88.3226 153.365 89.0225 153.079 89.6701C152.733 90.4719 152.194 91.1756 151.51 91.7183C150.826 92.261 150.018 92.6259 149.158 92.7804C148.299 92.9349 147.414 92.8741 146.584 92.6036C145.753 92.3331 145.003 91.8612 144.399 91.2301C143.902 90.7282 143.516 90.1264 143.268 89.4645C143.019 88.8026 142.914 88.0955 142.959 87.3901C142.996 86.4489 143.29 85.5358 143.809 84.7501C143.971 84.4539 144.196 84.1977 144.469 84.0001Z" fill="#E0E0E0"/>
<path d="M229 95.78C229.845 96.124 230.778 96.1837 231.66 95.95C232.599 95.6785 233.446 95.1565 234.11 94.44C234.927 93.5616 235.479 92.4693 235.7 91.29C235.918 90.1143 235.772 88.9 235.28 87.81C234.861 86.9228 234.25 86.1404 233.49 85.52C232.724 84.9719 231.886 84.5312 231 84.21C231.258 84.1874 231.517 84.2216 231.76 84.31C232.434 84.5002 233.068 84.812 233.63 85.23C234.481 85.8478 235.168 86.665 235.63 87.61C236.203 88.7821 236.379 90.1092 236.13 91.39C235.891 92.6639 235.282 93.8393 234.38 94.77C233.644 95.5339 232.703 96.0687 231.67 96.31C230.973 96.4763 230.243 96.4346 229.57 96.19C229.349 96.1021 229.154 95.9613 229 95.78Z" fill="#E0E0E0"/>
<path d="M173.45 294.34L188.27 298.73C188.27 298.73 196.45 302.24 200.43 303.16C205.37 304.29 208.74 302.75 208.92 300.01C209.1 297.27 205.27 296.9 205.27 296.9C202.003 295.657 198.825 294.191 195.76 292.51C193.536 290.965 191.718 288.907 190.46 286.51L195.76 287.24C195.76 287.24 206.91 295.29 211.11 297.66C215.31 300.03 216.23 295.83 216.6 294.55C216.97 293.27 204.17 280.3 204.17 280.3C204.17 280.3 216.42 288.16 218.61 290.12C220.8 292.08 224.09 292.73 224.82 291.45C225.55 290.17 227.56 290.17 224.82 284.75C222.08 279.33 200.15 264.75 200.15 264.75L206.15 263.48L212.73 266.4C213.193 268.656 214.127 270.789 215.47 272.66C217.85 276.18 222.05 272.66 222.05 272.66L219.49 259.18L206.49 251.05C206.49 251.05 193 252.67 191 253.59C189 254.51 186.8 258.32 186.8 258.32L183.14 259.8C177.48 261.44 177.66 267.11 175.83 267.29C174 267.47 120.67 257.07 120.67 257.07L115.83 255.81C107.83 261.88 104.64 271.91 103.24 280.81C103.24 280.81 101.76 285.16 103.24 287.56L173.45 294.34Z" fill="#FFBE9D"/>
<path d="M163.699 284.85C163.658 284.562 163.658 284.269 163.699 283.98C163.7 283.645 163.73 283.31 163.789 282.98C163.833 282.529 163.924 282.083 164.059 281.65C164.806 279.126 166.073 276.785 167.779 274.78C169.435 272.762 171.284 270.91 173.299 269.25C174.097 268.521 174.964 267.871 175.889 267.31C175.153 268.096 174.369 268.835 173.539 269.52C171.619 271.244 169.83 273.109 168.189 275.1C166.527 277.063 165.246 279.318 164.409 281.75C163.779 283.61 163.809 284.86 163.699 284.85Z" fill="#EB996E"/>
<path d="M186.811 258.32C186.811 258.37 186.371 258.55 185.681 259.1C184.734 259.905 183.914 260.849 183.251 261.9C182.775 262.606 182.366 263.356 182.031 264.14C181.724 265.07 181.529 266.034 181.451 267.01C181.311 268.137 180.91 269.215 180.281 270.16C179.553 271.074 178.954 272.083 178.501 273.16C177.831 274.984 177.831 276.986 178.501 278.81L178.571 278.99L178.401 279.1C176.087 280.602 174.41 282.907 173.691 285.57C173.446 286.621 173.295 287.692 173.241 288.77C173.174 288.489 173.143 288.199 173.151 287.91C173.132 287.099 173.216 286.29 173.401 285.5C174.041 282.703 175.74 280.262 178.141 278.69L178.041 278.98C177.315 277.046 177.315 274.914 178.041 272.98C178.513 271.875 179.132 270.839 179.881 269.9C180.488 269.003 180.875 267.975 181.011 266.9C181.107 265.894 181.325 264.903 181.661 263.95C182.029 263.15 182.47 262.387 182.981 261.67C183.687 260.61 184.57 259.68 185.591 258.92C185.872 258.718 186.173 258.547 186.491 258.41C186.593 258.364 186.701 258.334 186.811 258.32Z" fill="#EB996E"/>
<path d="M199.641 264.31C198.361 264.479 197.059 264.342 195.843 263.911C194.626 263.48 193.529 262.767 192.641 261.83C192.731 261.7 194.071 262.73 196.001 263.41C197.931 264.09 199.651 264.15 199.641 264.31Z" fill="#EB996E"/>
<path d="M203.071 279.08C201.139 278.526 199.259 277.806 197.451 276.93C195.578 276.216 193.771 275.34 192.051 274.31C193.978 274.863 195.855 275.579 197.661 276.45C199.537 277.168 201.347 278.048 203.071 279.08Z" fill="#EB996E"/>
<path d="M191 286.37C190.003 286.123 189.037 285.764 188.12 285.3C187.141 284.988 186.201 284.561 185.32 284.03C186.365 284.076 187.388 284.345 188.32 284.82C189.315 285.137 190.23 285.666 191 286.37Z" fill="#EB996E"/>
<path d="M201.22 280C200.406 280.542 199.661 281.18 199 281.9C198.454 282.707 198.014 283.581 197.69 284.5C197.62 284.5 197.56 284.14 197.69 283.58C197.839 282.85 198.158 282.165 198.62 281.58C199.079 280.994 199.673 280.528 200.35 280.22C200.85 280 201.2 280 201.22 280Z" fill="#EB996E"/>
<path d="M206.579 271.91C206.649 272.05 205.669 272.56 205.009 273.67C204.665 274.381 204.384 275.12 204.169 275.88C204.021 275.467 203.979 275.024 204.047 274.59C204.116 274.157 204.291 273.748 204.559 273.4C205.329 272.13 206.559 271.77 206.579 271.91Z" fill="#EB996E"/>
<path d="M205.08 257.22C205.02 257.22 204.82 257 204.68 256.51C204.503 255.872 204.503 255.198 204.68 254.56C204.856 253.911 205.201 253.321 205.68 252.85C206.05 252.5 206.34 252.38 206.38 252.43C205.903 253.134 205.514 253.893 205.22 254.69C205.065 255.524 205.018 256.374 205.08 257.22Z" fill="#EB996E"/>
<path d="M313.191 261.83C313.191 261.83 312.511 248.71 298.911 245.99C285.311 243.27 261.531 254.83 261.531 254.83L194.781 301.33L196.781 307.09L264.501 297.65L270.701 300.03L318.291 268.76L363.181 236.3L358.181 232.39C358.181 232.39 345.611 241.06 337.281 244.8C328.951 248.54 316.931 255.06 313.191 261.83Z" fill="#F5F5F5"/>
<path d="M193.73 309L250.21 273.91L309.91 264.33C309.91 264.33 312.91 268.66 317.98 267.6L367.09 233.6L368.01 235.65L272.8 302.53C271.401 303.043 269.888 303.163 268.425 302.878C266.962 302.592 265.605 301.912 264.5 300.91L193.73 309Z" fill="#455A64"/>
<path d="M309.91 264.31C309.772 264.451 309.618 264.576 309.45 264.68L308.08 265.68C306.88 266.54 305.14 267.79 303.03 269.37C298.8 272.52 293.03 277.02 286.81 282.11C280.59 287.2 275 291.92 271 295.37L266.27 299.45L264.97 300.56C264.828 300.695 264.67 300.813 264.5 300.91C264.62 300.755 264.754 300.611 264.9 300.48L266.13 299.3C267.21 298.3 268.79 296.85 270.76 295.09C274.7 291.57 280.24 286.81 286.48 281.7C292.72 276.59 298.48 272.15 302.81 269.08C304.96 267.53 306.73 266.32 307.96 265.51L309.4 264.6C309.555 264.48 309.727 264.382 309.91 264.31Z" fill="#263238"/>
<path d="M309.309 257C303.889 251.19 295.369 249.12 287.459 249.74C279.549 250.36 272.019 253.32 264.639 256.24L195.539 303.53L196.159 305.31L265.629 258.31C265.629 258.31 281.139 253.31 288.009 252.45C299.519 251 309.309 257 309.309 257Z" fill="#E0E0E0"/>
<path d="M320.141 263.22L353.361 240.82C353.361 240.82 326.141 255 320.141 263.22Z" fill="#E0E0E0"/>
<path d="M195.539 303.53C195.629 303.448 195.726 303.374 195.829 303.31L196.679 302.69L199.989 300.36L212.239 291.88L252.729 264.07L264.489 256.07C271.18 253.049 278.241 250.924 285.489 249.75C291.343 248.928 297.311 249.77 302.709 252.18C304.731 253.122 306.593 254.374 308.229 255.89C309.452 257.026 310.491 258.345 311.309 259.8C311.818 260.71 312.217 261.676 312.499 262.68C312.579 263.01 312.639 263.27 312.679 263.47C312.69 263.56 312.69 263.65 312.679 263.74C311.908 260.781 310.28 258.116 307.999 256.08C306.371 254.603 304.522 253.388 302.519 252.48C297.177 250.146 291.288 249.353 285.519 250.19C278.316 251.389 271.3 253.524 264.649 256.54L252.999 264.5L212.409 292.19L200.079 300.53L196.709 302.78L195.829 303.35C195.74 303.421 195.643 303.482 195.539 303.53Z" fill="#263238"/>
<path d="M256 267.78C256.17 267.663 256.347 267.556 256.53 267.46C256.88 267.27 257.39 266.98 258.07 266.64C259.42 265.94 261.38 264.96 263.86 263.84C270.294 260.835 277.117 258.744 284.13 257.63C291.183 256.564 298.389 257.227 305.13 259.56C307.156 260.286 309.103 261.218 310.94 262.34C311.6 262.72 312.06 263.09 312.4 263.34C312.575 263.446 312.737 263.574 312.88 263.72C312.88 263.72 312.15 263.29 310.88 262.55C309.017 261.502 307.062 260.625 305.04 259.93C298.329 257.728 291.195 257.129 284.21 258.18C277.244 259.277 270.455 261.295 264.02 264.18C261.53 265.25 259.54 266.18 258.17 266.82L256.58 267.56C256.397 267.659 256.202 267.733 256 267.78Z" fill="#263238"/>
<path d="M361.401 234.89C361.401 234.89 361.261 235.02 360.971 235.22L359.671 236.08L354.881 239.17C350.831 241.76 345.231 245.35 339.101 249.39C332.971 253.43 327.451 257.14 323.461 259.84L318.731 263L317.441 263.85C317.297 263.963 317.134 264.051 316.961 264.11C317.09 263.981 317.231 263.864 317.381 263.76L318.621 262.83C319.701 262.04 321.291 260.9 323.261 259.51C327.191 256.74 332.681 252.98 338.811 248.94C344.941 244.9 350.581 241.35 354.681 238.83C356.741 237.57 358.401 236.57 359.571 235.89L360.911 235.11C361.066 235.02 361.23 234.946 361.401 234.89Z" fill="#263238"/>
<path d="M331.18 270.86C330.498 272.49 329.632 274.036 328.6 275.47C327.33 276.99 323.14 279.11 322.81 282.01C322.48 284.91 323.17 291.68 318.65 296.83C315.732 300.039 312.042 302.448 307.93 303.83L290.11 302.09L261.62 290.89C260.985 290.727 260.44 290.321 260.102 289.76C259.763 289.199 259.658 288.528 259.81 287.89C259.984 287.194 260.363 286.567 260.898 286.089C261.433 285.611 262.099 285.305 262.81 285.21L263.49 285.1C263.49 285.1 261.85 283.76 264.19 281.41C266.19 279.41 270.47 280.54 272.66 281.27C274.85 282 287.76 287.4 290.08 288.22C292.08 288.95 293.7 289.6 293.7 289.6C293.7 289.6 277.19 278.46 276.97 277C276.69 275.25 276.88 274.46 278.56 273.23C280.56 271.79 283.84 273.33 287.03 274.67C289.39 275.67 304.51 283.13 304.51 283.13C304.51 283.13 305.18 282.47 304.51 281.13C303.84 279.79 298.8 273.34 298.02 272.13C297.24 270.92 297.02 270.25 297.8 269.25C298.91 267.81 301.8 267.13 304.47 269.57C306.17 271.14 312.17 275.17 312.17 275.17L339.91 254.93C339.91 254.93 343.36 254.85 342.16 259.65C340.96 264.45 331.18 270.86 331.18 270.86Z" fill="#FFBE9D"/>
<path d="M310.512 287.72C309.379 287.555 308.328 287.033 307.512 286.23C306.58 285.561 305.88 284.617 305.512 283.53C305.652 283.45 306.462 284.69 307.832 285.83C309.202 286.97 310.562 287.57 310.512 287.72Z" fill="#EB996E"/>
<path d="M312.781 275.65C312.781 275.59 313.141 275.49 313.781 275.56C314.568 275.676 315.308 276.004 315.921 276.51C316.535 277.016 316.998 277.68 317.261 278.43C317.441 279.01 317.411 279.43 317.351 279.43C316.996 278.46 316.39 277.601 315.594 276.942C314.798 276.283 313.841 275.848 312.821 275.68L312.781 275.65Z" fill="#EB996E"/>
<path d="M314.092 281.23C313.932 281.23 313.862 279.74 313.272 278.03C312.682 276.32 311.852 275.08 311.982 275.03C312.788 275.839 313.398 276.823 313.763 277.905C314.129 278.986 314.242 280.138 314.092 281.27V281.23Z" fill="#EB996E"/>
<path d="M330.52 269.42C330.52 269.42 330.16 269.26 329.8 268.78C329.342 268.148 329.059 267.406 328.98 266.63C328.89 265.852 329 265.064 329.3 264.34C329.55 263.79 329.81 263.53 329.86 263.56C329.502 264.52 329.375 265.551 329.489 266.569C329.604 267.587 329.957 268.564 330.52 269.42Z" fill="#EB996E"/>
<path d="M305.42 294.7C304.778 294.847 304.112 294.847 303.47 294.7C301.917 294.428 300.426 293.876 299.07 293.07C297.724 292.275 296.458 291.35 295.29 290.31C294.767 289.925 294.303 289.467 293.91 288.95C294.491 289.239 295.032 289.602 295.52 290.03C296.74 290.964 298.012 291.829 299.33 292.62C300.648 293.391 302.069 293.97 303.55 294.34C304.69 294.59 305.42 294.62 305.42 294.7Z" fill="#EB996E"/>
<path d="M310.062 291.85C310.202 291.85 310.212 292.85 309.372 293.67C308.532 294.49 307.512 294.46 307.532 294.32C307.552 294.18 308.322 293.98 309.012 293.32C309.702 292.66 309.912 291.82 310.062 291.85Z" fill="#EB996E"/>
<path d="M316.869 286.84C316.939 286.84 316.929 287.12 316.749 287.47C316.481 287.909 316.087 288.257 315.619 288.47C315.148 288.702 314.616 288.779 314.099 288.69C313.709 288.61 313.509 288.45 313.529 288.39C313.549 288.33 314.459 288.47 315.399 288C316.339 287.53 316.739 286.79 316.869 286.84Z" fill="#EB996E"/>
<path d="M292.861 298.2C292.801 298.33 286.171 295.56 278.051 292.02C269.931 288.48 263.401 285.49 263.461 285.36C263.521 285.23 270.141 287.99 278.261 291.54C286.381 295.09 292.921 298.06 292.861 298.2Z" fill="#EB996E"/>
</g>
<defs>
<clipPath id="clip0_458_12082">
<rect width="311.01" height="308.98" fill="white" transform="translate(57)"/>
</clipPath>
</defs>
</svg>

