<svg width="83" height="128" viewBox="0 0 83 128" fill="none" xmlns="http://www.w3.org/2000/svg">
<path d="M50.9999 64L58.7119 82.6424L78.7129 80L66.4239 96L78.7129 112L58.7119 109.357L50.9999 128L43.2879 109.357L23.2871 112L35.5759 96L23.2871 80L43.2879 82.6424L50.9999 64Z" fill="#00A2FD"/>
<mask id="mask0_87_6336" style="mask-type:luminance" maskUnits="userSpaceOnUse" x="0" y="0" width="64" height="64">
<path d="M63.924 0L0 0L0 63.924H63.924V0Z" fill="white"/>
</mask>
<g mask="url(#mask0_87_6336)">
<path fill-rule="evenodd" clip-rule="evenodd" d="M31.962 31.962C31.962 31.962 35.9573 21.2632 35.9573 13.698C35.9573 6.13281 34.1687 0 31.962 0C29.7555 0 27.9668 6.13281 27.9668 13.698C27.9668 21.2632 31.962 31.962 31.962 31.962ZM31.962 31.962C31.962 31.962 36.7023 42.3522 42.0515 47.7017C47.401 53.0512 53.0023 56.1228 54.5627 54.5627C56.1228 53.0023 53.0512 47.401 47.7017 42.0515C42.3522 36.7023 31.962 31.962 31.962 31.962ZM31.962 31.962C31.962 31.962 42.661 27.9668 50.2261 27.9668C57.7912 27.9668 63.924 29.7555 63.924 31.962C63.924 34.1687 57.7912 35.9573 50.2261 35.9573C42.661 35.9573 31.962 31.962 31.962 31.962ZM31.962 31.962C31.962 31.962 21.5717 36.7023 16.2223 42.0515C10.8729 47.401 7.8012 53.0023 9.36145 54.5627C10.9217 56.1228 16.5231 53.0512 21.8725 47.7017C27.2219 42.3522 31.962 31.962 31.962 31.962ZM31.962 31.962C31.971 31.9857 35.9573 42.6693 35.9573 50.2261C35.9573 57.7912 34.1687 63.924 31.962 63.924C29.7555 63.924 27.9668 57.7912 27.9668 50.2261C27.9668 42.661 31.962 31.962 31.962 31.962ZM31.962 31.962C31.962 31.962 21.2632 27.9668 13.698 27.9668C6.13281 27.9668 0 29.7555 0 31.962C0 34.1687 6.13281 35.9573 13.698 35.9573C21.2632 35.9573 31.962 31.962 31.962 31.962ZM31.962 31.962C31.962 31.962 42.3522 27.2219 47.7017 21.8725C53.0512 16.5231 56.1228 10.9217 54.5627 9.36145C53.0023 7.8012 47.401 10.8729 42.0515 16.2223C36.7023 21.5717 31.962 31.962 31.962 31.962ZM21.8725 16.2223C27.2219 21.5717 31.962 31.962 31.962 31.962C31.962 31.962 21.5717 27.2219 16.2224 21.8725C10.8729 16.5231 7.80123 10.9217 9.36145 9.36145C10.9217 7.80123 16.5231 10.8729 21.8725 16.2223Z" fill="#EF97EC"/>
</g>
</svg>
